<svg width="350" height="350" viewBox="0 0 350 350" fill="none" xmlns="http://www.w3.org/2000/svg">
<path d="M340 237.5C340 294.109 293.661 340 236.5 340C223.921 340 211.866 337.778 200.714 333.708C195.095 331.657 188.905 331.657 183.286 333.708C172.134 337.778 160.079 340 147.5 340C102.503 340 64.213 311.563 49.9536 271.846C48.5747 268.006 46.2807 264.548 43.2705 261.793C22.8111 243.067 9.99999 216.265 9.99999 186.5C9.99999 173.769 12.3438 161.579 16.6275 150.332C18.421 145.623 18.7703 140.472 17.6306 135.564C15.9094 128.151 15 120.43 15 112.5C15 55.8908 61.3385 10 118.5 10C135.493 9.99999 151.529 14.0556 165.676 21.2428C173.068 24.9978 181.932 24.9978 189.324 21.2428C203.471 14.0556 219.507 9.99999 236.5 9.99999C293.661 9.99999 340 55.8908 340 112.5C340 130.47 335.331 147.36 327.128 162.045C322.665 170.034 322.665 179.966 327.128 187.955C335.331 202.64 340 219.53 340 237.5Z" fill="#B896C9" fill-opacity="0.25"/>
<path fill-rule="evenodd" clip-rule="evenodd" d="M68.1432 114.359C70.7071 113.333 73.6169 114.58 74.6425 117.144L87.6425 149.644C88.6681 152.208 87.421 155.118 84.8571 156.144C82.2932 157.169 79.3833 155.922 78.3577 153.358L65.3577 120.858C64.3322 118.294 65.5792 115.385 68.1432 114.359ZM40.6733 140.283C42.4506 138.17 45.6046 137.897 47.7181 139.675L69.7181 158.175C71.8316 159.952 72.1042 163.106 70.3269 165.219C68.5497 167.333 65.3956 167.605 63.2821 165.828L41.2821 147.328C39.1686 145.551 38.8961 142.397 40.6733 140.283Z" fill="#B896C9"/>
<path d="M310.952 176.644C311.465 171.977 307.814 167.899 303.123 167.899H292.563L273.007 215.262L271.673 218.492L293.266 324.456C293.521 326.856 291.639 329.001 289.172 329.001C292.178 329.001 294.432 326.746 294.769 323.761L294.769 323.757L294.773 323.723L310.952 176.644Z" fill="#A27EB4"/>
<path d="M84.7033 174.919L84.2291 179.23H151.566L152.9 176L156.245 167.899H92.5321C88.5158 167.899 85.1428 170.923 84.7033 174.919Z" fill="#A27EB4"/>
<path d="M318.121 106L306.756 78L299.298 96.0642C298.876 97.0852 299.362 98.2546 300.383 98.6761L318.121 106Z" fill="white"/>
<path d="M318.121 106L300.383 98.6761C299.961 99.6971 300.447 100.866 301.468 101.288L317.357 107.849L318.121 106Z" fill="#F2F2F2"/>
<path fill-rule="evenodd" clip-rule="evenodd" d="M239.324 157.771L233.588 143.975L200.405 157.771H239.324ZM188.714 159.216C188.555 158.986 188.418 158.737 188.307 158.469C187.458 156.429 188.425 154.088 190.464 153.24L230.517 136.588L213.865 96.5356C213.017 94.4957 213.983 92.1546 216.023 91.3065C218.063 90.4584 220.404 91.4245 221.252 93.4644L237.904 133.517L277.956 116.865C279.996 116.017 282.337 116.983 283.185 119.023C284.034 121.063 283.067 123.404 281.028 124.252L240.975 140.904L247.988 157.771H250.664H254.86C258.603 157.771 261.829 160.408 262.577 164.079L262.697 164.669L273.007 215.262L292.563 167.899L317.357 107.849L301.468 101.288C300.447 100.866 299.961 99.6971 300.383 98.6761C299.362 98.2546 298.876 97.0852 299.298 96.0642L306.756 78L211.728 38.7633C210.707 38.3417 209.538 38.8277 209.116 39.8486L156.245 167.899L152.9 176H171.424C173.859 176 176.158 174.872 177.649 172.945L184.057 164.669L187.032 160.826C187.516 160.201 188.084 159.661 188.714 159.216Z" fill="#FAFAFA"/>
<path d="M176.316 176.176L182.724 167.899L185.699 164.056C187.191 162.129 189.489 161.001 191.925 161.001H240.667L239.324 157.771H200.405L193.536 160.627C191.764 161.364 189.764 160.732 188.714 159.216C188.084 159.661 187.516 160.201 187.032 160.826L184.057 164.669L177.649 172.945C176.158 174.872 173.859 176 171.424 176H152.9L151.566 179.23H170.09C172.525 179.23 174.824 178.102 176.316 176.176Z" fill="#F2F2F2"/>
<path d="M261.243 167.309L261.363 167.899L271.673 218.492L273.007 215.262L262.697 164.669L262.577 164.079C261.829 160.408 258.603 157.771 254.86 157.771H250.664H247.988L249.331 161.001H253.526C257.269 161.001 260.495 163.638 261.243 167.309Z" fill="#F2F2F2"/>
<path d="M193.258 157.771C191.612 157.771 190.028 158.287 188.714 159.216C189.764 160.732 191.764 161.364 193.536 160.627L200.405 157.771H193.258Z" fill="#966DAB"/>
<path fill-rule="evenodd" clip-rule="evenodd" d="M221.252 93.4644C220.404 91.4245 218.063 90.4584 216.023 91.3065C213.983 92.1546 213.017 94.4957 213.865 96.5356L230.517 136.588L190.464 153.24C188.425 154.088 187.458 156.429 188.307 158.469C188.418 158.737 188.555 158.986 188.714 159.216C190.028 158.287 191.612 157.771 193.258 157.771H200.405L233.588 143.975L239.324 157.771H242.001H247.988L240.975 140.904L281.028 124.252C283.067 123.404 284.034 121.063 283.185 119.023C282.337 116.983 279.996 116.017 277.956 116.865L237.904 133.517L221.252 93.4644Z" fill="#A27EB4"/>
<path d="M240.667 161.001H249.331L247.988 157.771H242.001H239.324L240.667 161.001Z" fill="#966DAB"/>
<path fill-rule="evenodd" clip-rule="evenodd" d="M66.4689 322.694L39.1616 188.688C38.166 183.802 41.8965 179.23 46.8789 179.23H84.2291H151.566H170.09C172.525 179.23 174.824 178.102 176.316 176.176L182.724 167.899L185.699 164.056C187.191 162.129 189.489 161.001 191.925 161.001H240.667H249.331H253.526C257.269 161.001 260.495 163.638 261.243 167.309L261.363 167.899L271.673 218.492L293.266 324.456C293.521 326.856 291.639 329.001 289.172 329.001H285.332H74.1862C70.443 329.001 67.217 326.365 66.4689 322.694ZM190 247C194.418 247 198 242.747 198 237.5C198 232.253 194.418 228 190 228C185.582 228 182 232.253 182 237.5C182 242.747 185.582 247 190 247ZM112.417 287.343C114.789 282.872 120.252 278.946 128.547 276.171C136.702 273.443 146.83 272.097 157.269 272.187C167.695 272.277 178.171 273.799 186.986 276.614C195.927 279.47 202.544 283.458 206.021 288.027C207.693 290.225 210.83 290.651 213.028 288.979C215.225 287.307 215.651 284.17 213.979 281.972C208.706 275.042 199.823 270.217 190.029 267.089C180.11 263.92 168.617 262.285 157.356 262.188C146.107 262.09 134.829 263.525 125.375 266.688C116.061 269.804 107.711 274.878 103.583 282.656C102.289 285.096 103.217 288.122 105.656 289.417C108.096 290.711 111.122 289.783 112.417 287.343ZM117 247C121.418 247 125 242.747 125 237.5C125 232.253 121.418 228 117 228C112.582 228 109 232.253 109 237.5C109 242.747 112.582 247 117 247Z" fill="#B896C9"/>
<path d="M163.756 118.923C154.809 120.947 133.891 122.526 121.79 112.648M121.79 112.648C136.612 124.599 157.363 99.8871 140.345 88.3588C123.657 77.0536 107.309 99.4054 120.948 111.919M121.79 112.648C121.498 112.409 121.217 112.166 120.948 111.919M120.948 111.919C106.421 108.178 78.8316 91.2618 84.6897 53.5206" stroke="#B896C9" stroke-width="4" stroke-linecap="round" stroke-dasharray="8 8"/>
</svg>
