<svg width="32" height="32" viewBox="0 0 32 32" fill="none" xmlns="http://www.w3.org/2000/svg">
<path fill-rule="evenodd" clip-rule="evenodd" d="M28 16C28 22.6274 22.6274 28 16 28C9.37258 28 4 22.6274 4 16C4 9.37258 9.37258 4 16 4C22.6274 4 28 9.37258 28 16ZM16 26C21.5228 26 26 21.5228 26 16C26 10.4772 21.5228 6 16 6C10.4772 6 6 10.4772 6 16C6 21.5228 10.4772 26 16 26Z" fill="#333333"/>
<path fill-rule="evenodd" clip-rule="evenodd" d="M12.25 10.75C11.8358 10.3358 11.1642 10.3358 10.75 10.75C10.3358 11.1642 10.3358 11.8358 10.75 12.25L14.5 16L10.75 19.75C10.3358 20.1642 10.3358 20.8358 10.75 21.25C11.1642 21.6642 11.8358 21.6642 12.25 21.25L16 17.5L19.75 21.25C20.1642 21.6642 20.8358 21.6642 21.25 21.25C21.6642 20.8358 21.6642 20.1642 21.25 19.75L17.5 16L21.25 12.25C21.6642 11.8358 21.6642 11.1642 21.25 10.75C20.8358 10.3358 20.1642 10.3358 19.75 10.75L16 14.5L12.25 10.75Z" fill="#333333"/>
</svg>
