<svg width="32" height="32" viewBox="0 0 32 32" fill="none" xmlns="http://www.w3.org/2000/svg">
<path d="M18.066 11.349L15.4849 26H13L15.5811 11.349H18.066ZM16.0753 7.50345C16.0753 7.07918 16.208 6.72712 16.4734 6.44728C16.748 6.15841 17.1004 6.00946 17.5306 6.00044C17.9607 5.99141 18.3131 6.1223 18.5877 6.39312C18.8714 6.66393 19.0087 7.00696 18.9996 7.42221C18.9996 7.83745 18.8577 8.185 18.574 8.46484C18.2994 8.73565 17.9516 8.87557 17.5306 8.8846C17.1095 8.89363 16.7617 8.77176 16.4872 8.519C16.2126 8.25721 16.0753 7.9187 16.0753 7.50345Z" fill="#333333"/>
</svg>
