<svg width="32" height="32" viewBox="0 0 32 32" fill="none" xmlns="http://www.w3.org/2000/svg">
<g clip-path="url(#clip0_511_575)">
<path d="M32 0H0V32H32V0Z" fill="#F7DF1E"/>
<path d="M21.4959 25.0002C22.1405 26.0527 22.9791 26.8262 24.4622 26.8262C25.7082 26.8262 26.5041 26.2035 26.5041 25.3431C26.5041 24.312 25.6864 23.9468 24.3149 23.3469L23.5632 23.0243C21.3933 22.0999 19.9518 20.9418 19.9518 18.4935C19.9518 16.2383 21.6701 14.5215 24.3556 14.5215C26.2674 14.5215 27.6419 15.1869 28.6324 16.9291L26.2908 18.4326C25.7752 17.5082 25.2191 17.144 24.3556 17.144C23.4748 17.144 22.9166 17.7027 22.9166 18.4326C22.9166 19.3347 23.4753 19.6999 24.7655 20.2586L25.5172 20.5807C28.0721 21.6763 29.5147 22.7932 29.5147 25.3045C29.5147 28.0118 27.3879 29.4949 24.5318 29.4949C21.7392 29.4949 19.935 28.1642 19.0522 26.4199L21.4959 25.0002ZM10.8734 25.2608C11.3458 26.0989 11.7755 26.8075 12.8086 26.8075C13.7966 26.8075 14.4198 26.4209 14.4198 24.9179V14.6932H17.4268V24.9586C17.4268 28.0722 15.6013 29.4894 12.9366 29.4894C10.529 29.4894 9.13474 28.2434 8.42566 26.7427L10.8734 25.2608Z" fill="black"/>
</g>
<defs>
<clipPath id="clip0_511_575">
<rect width="32" height="32" fill="white"/>
</clipPath>
</defs>
</svg>
