<svg width="1200" height="260" viewBox="0 0 1200 260" fill="none" xmlns="http://www.w3.org/2000/svg">
<rect width="1200" height="260" fill="white"/>
<path fill-rule="evenodd" clip-rule="evenodd" d="M382.424 98.5597C382.424 98.5246 382.381 98.5076 382.357 98.5331L382.314 98.5785C382.302 98.5912 382.285 98.5984 382.268 98.5984H373.004C371.897 98.5984 371 99.4915 371 100.593V170.407C371 171.509 371.897 172.402 373.004 172.402H380.42C381.527 172.402 382.424 171.509 382.424 170.407V150.36H399.26C405.418 150.36 410.824 149.362 415.42 147.29C420.004 145.223 423.594 142.259 426.098 138.376C428.675 134.417 429.925 129.774 429.925 124.529C429.925 119.171 428.684 114.488 426.098 110.582C423.595 106.635 420.002 103.666 415.408 101.663C410.815 99.5946 405.412 98.5984 399.26 98.5984H382.463C382.442 98.5984 382.424 98.5811 382.424 98.5597ZM382.424 139.888H399.059C405.828 139.888 410.602 138.44 413.708 135.864C416.853 133.246 418.501 129.56 418.501 124.529C418.501 119.422 416.846 115.707 413.707 113.094L413.7 113.088L413.694 113.082C410.588 110.449 405.82 108.971 399.059 108.971H382.424V139.888Z" fill="#B896C9"/>
<path fill-rule="evenodd" clip-rule="evenodd" d="M531.559 170.262L531.576 170.269L531.592 170.275C536.383 172.098 541.538 173 547.039 173C552.541 173 557.666 172.098 562.395 170.272L562.408 170.267L562.42 170.262C567.123 168.376 571.221 165.745 574.69 162.364C578.227 158.984 580.951 155.003 582.858 150.439C584.842 145.85 585.822 140.862 585.822 135.5C585.822 130.138 584.842 125.15 582.858 120.561C580.951 115.998 578.227 112.017 574.691 108.637C571.219 105.253 567.117 102.653 562.408 100.833C557.675 98.9366 552.545 98 547.039 98C541.47 98 536.306 98.9354 531.571 100.833C526.854 102.656 522.717 105.294 519.181 108.743C515.715 112.121 512.997 116.096 511.026 120.648L511.023 120.655L511.02 120.662C509.102 125.188 508.157 130.143 508.157 135.5C508.157 140.857 509.102 145.841 511.016 150.427L511.023 150.445L511.031 150.462C513.001 154.943 515.714 158.907 519.166 162.343L519.181 162.357L519.195 162.371C522.728 165.746 526.856 168.376 531.559 170.262ZM572.346 124.795L572.351 124.808C573.705 127.992 574.397 131.547 574.397 135.5C574.397 139.45 573.706 143.041 572.348 146.298C570.98 149.516 569.055 152.358 566.567 154.834C564.163 157.227 561.288 159.11 557.917 160.478C554.637 161.77 551.018 162.428 547.039 162.428C543.063 162.428 539.408 161.77 536.056 160.475C532.692 159.109 529.784 157.228 527.312 154.834C524.894 152.362 522.965 149.486 521.526 146.19C520.17 142.932 519.481 139.375 519.481 135.5C519.481 131.551 520.172 127.998 521.524 124.816C522.965 121.515 524.895 118.671 527.312 116.266C529.783 113.806 532.686 111.929 536.041 110.63L536.056 110.625L536.071 110.619C539.42 109.261 543.069 108.572 547.039 108.572C551.011 108.572 554.621 109.261 557.896 110.614L557.916 110.622L557.938 110.63C561.288 111.927 564.151 113.8 566.549 116.248L566.566 116.266L566.585 116.283C569.057 118.683 570.977 121.514 572.346 124.795ZM594.453 170.189L594.46 170.193L594.467 170.196C598.224 172.066 602.239 173 606.487 173C613.587 173 619.278 171.069 623.183 166.883C627.138 162.715 628.935 156.615 628.935 148.964V100.593C628.935 99.4915 628.037 98.5984 626.93 98.5984H593.961C592.854 98.5984 591.956 99.4915 591.956 100.593V106.976C591.956 108.078 592.854 108.971 593.961 108.971H617.611V149.263C617.611 154.15 616.567 157.444 614.827 159.496C613.141 161.483 610.524 162.628 606.587 162.628C603.849 162.628 601.393 161.98 599.174 160.702C596.93 159.409 594.901 157.501 593.105 154.912C592.358 153.836 590.792 153.754 589.936 154.745L585.627 159.731C585.047 160.402 584.981 161.371 585.463 162.114C587.726 165.602 590.732 168.301 594.453 170.189ZM699.281 106.976C699.281 108.078 698.384 108.971 697.277 108.971H658.595V129.815H692.868C693.975 129.815 694.872 130.708 694.872 131.81V138.093C694.872 139.195 693.975 140.088 692.868 140.088H658.595V162.029H698.78C699.887 162.029 700.785 162.922 700.785 164.024V170.407C700.785 171.509 699.887 172.402 698.78 172.402H649.175C648.068 172.402 647.171 171.509 647.171 170.407V100.593C647.171 99.4915 648.068 98.5984 649.175 98.5984H697.277C698.384 98.5984 699.281 99.4915 699.281 100.593V106.976ZM731.1 170.262L731.112 170.267L731.125 170.272C735.854 172.098 740.979 173 746.481 173C751.855 173 756.913 172.096 761.636 170.272C766.391 168.436 770.431 165.702 773.724 162.069C774.438 161.28 774.407 160.073 773.652 159.322L768.942 154.635C768.153 153.849 766.872 153.857 766.092 154.651C763.399 157.393 760.464 159.35 757.286 160.566C754.058 161.802 750.563 162.428 746.781 162.428C742.805 162.428 739.15 161.77 735.798 160.475C732.429 159.107 729.518 157.223 727.045 154.825C724.558 152.348 722.6 149.505 721.166 146.284C719.812 143.03 719.123 139.444 719.123 135.5C719.123 131.55 719.814 127.997 721.166 124.815C722.602 121.524 724.559 118.687 727.036 116.283L727.045 116.274L727.054 116.266C729.525 113.806 732.428 111.929 735.783 110.63L735.798 110.625L735.813 110.619C739.161 109.261 742.811 108.572 746.781 108.572C750.563 108.572 754.058 109.198 757.286 110.434L757.301 110.44L757.317 110.445C760.48 111.595 763.405 113.513 766.092 116.249C766.872 117.043 768.153 117.051 768.942 116.266L773.652 111.578C774.407 110.827 774.438 109.62 773.724 108.832C770.428 105.196 766.384 102.493 761.624 100.723C756.907 98.9035 751.887 98 746.581 98C741.075 98 735.945 98.9366 731.212 100.833C726.504 102.653 722.372 105.251 718.837 108.629L718.83 108.636L718.823 108.643C715.357 112.022 712.638 115.996 710.668 120.549L710.663 120.561L710.658 120.573C708.744 125.159 707.799 130.143 707.799 135.5C707.799 140.857 708.744 145.841 710.658 150.427L710.663 150.439L710.668 150.451C712.638 155.004 715.357 158.978 718.823 162.357C722.294 165.741 726.394 168.375 731.1 170.262ZM806.924 108.971V170.407C806.924 171.509 807.821 172.402 808.928 172.402H816.344C817.45 172.402 818.348 171.509 818.348 170.407V108.971H840.996C842.103 108.971 843 108.078 843 106.976V100.593C843 99.4915 842.103 98.5984 840.996 98.5984H784.276C783.169 98.5984 782.271 99.4915 782.271 100.593V106.976C782.271 108.078 783.169 108.971 784.276 108.971H806.924Z" fill="#B896C9"/>
<path fill-rule="evenodd" clip-rule="evenodd" d="M453.375 98.5597C453.375 98.5246 453.332 98.5076 453.308 98.5331L453.265 98.5785C453.253 98.5912 453.236 98.5984 453.219 98.5984H443.955C442.848 98.5984 441.951 99.4915 441.951 100.593V170.407C441.951 171.509 442.848 172.402 443.955 172.402H451.371C452.478 172.402 453.375 171.509 453.375 170.407V150.261H470.211C471.83 150.261 473.397 150.194 474.912 150.059L490.222 171.56C490.597 172.088 491.207 172.402 491.857 172.402H499.974C501.603 172.402 502.552 170.57 501.606 169.249L485.998 147.45C486.115 147.401 486.231 147.351 486.347 147.301L486.359 147.296L486.371 147.29C490.955 145.223 494.545 142.259 497.049 138.376C499.626 134.417 500.876 129.774 500.876 124.529C500.876 119.171 499.635 114.488 497.049 110.582C494.546 106.635 490.953 103.666 486.359 101.663C481.766 99.5946 476.363 98.5984 470.211 98.5984H453.414C453.393 98.5984 453.375 98.5811 453.375 98.5597ZM453.375 139.988H470.011C476.771 139.988 481.539 138.51 484.645 135.877L484.652 135.871L484.658 135.865C487.803 133.247 489.452 129.561 489.452 124.529C489.452 119.422 487.797 115.707 484.658 113.094L484.652 113.088L484.645 113.082C481.539 110.449 476.771 108.971 470.011 108.971H453.375V139.988Z" fill="#B896C9"/>
<path fill-rule="evenodd" clip-rule="evenodd" d="M437.974 166.402C436.867 166.402 435.969 165.509 435.969 164.407V94.5931C435.969 93.4915 436.867 92.5984 437.974 92.5984H447.394H447.399C447.951 92.5997 448.398 93.0457 448.398 93.5957C448.398 94.1466 447.95 94.5931 447.396 94.5931L437.974 94.5931V164.407H445.391V142.266H460.226C460.779 142.266 461.228 142.712 461.228 143.263C461.228 143.814 460.779 144.261 460.226 144.261H447.396V164.407C447.396 165.509 446.499 166.402 445.391 166.402H437.974ZM464.236 144.261C465.857 144.261 467.424 144.194 468.938 144.059L484.252 165.56C484.628 166.088 485.237 166.402 485.887 166.402H494.007C494.757 166.402 495.445 165.984 495.789 165.321C496.132 164.657 496.075 163.858 495.639 163.249L480.027 141.45C480.144 141.401 480.26 141.351 480.376 141.301L480.4 141.29C484.985 139.223 488.576 136.259 491.08 132.376C493.658 128.417 494.909 123.774 494.909 118.529C494.909 113.171 493.667 108.488 491.081 104.582C488.577 100.635 484.983 97.666 480.388 95.6632C475.794 93.5946 470.39 92.5984 464.236 92.5984L451.204 92.5984C450.651 92.5984 450.202 93.0449 450.202 93.5957C450.202 94.1457 450.649 94.5917 451.202 94.5931H451.207H464.236C470.183 94.5931 475.296 95.5572 479.572 97.4854C483.849 99.3471 487.124 102.073 489.396 105.664C491.735 109.188 492.904 113.476 492.904 118.529C492.904 123.449 491.735 127.705 489.396 131.295C487.124 134.819 483.849 137.545 479.572 139.473C479.328 139.58 479.082 139.683 478.833 139.783C478.198 140.038 477.546 140.273 476.876 140.488L494.007 164.407H485.887L469.897 141.957C468.103 142.163 466.216 142.266 464.236 142.266C463.682 142.266 463.234 142.712 463.234 143.263C463.234 143.814 463.682 144.261 464.236 144.261Z" fill="#120024"/>
<path fill-rule="evenodd" clip-rule="evenodd" d="M588.51 164.189L588.524 164.196C592.281 166.066 596.297 167 600.547 167C607.648 167 613.341 165.069 617.246 160.883C621.203 156.715 623 150.615 623 142.964V124.912C623 124.361 622.551 123.915 621.997 123.915C621.444 123.915 620.995 124.361 620.995 124.912V142.964C620.995 150.344 619.258 155.863 615.783 159.52C612.375 163.177 607.296 165.005 600.547 165.005C596.604 165.005 592.895 164.141 589.42 162.412C586.012 160.684 583.272 158.223 581.201 155.032L585.511 150.045C585.909 150.618 586.319 151.163 586.742 151.68C588.38 153.683 590.209 155.266 592.227 156.428C594.766 157.891 597.573 158.622 600.647 158.622C609.334 158.622 613.678 153.503 613.678 143.263V100.976H609.58C609.026 100.976 608.577 101.423 608.577 101.973C608.577 102.524 609.026 102.971 609.58 102.971H611.673V143.263C611.673 148.15 610.629 151.444 608.888 153.496C607.202 155.483 604.584 156.628 600.647 156.628C597.908 156.628 595.451 155.98 593.231 154.702C590.987 153.409 588.957 151.501 587.161 148.912C586.808 148.403 586.238 148.086 585.617 148.053C584.997 148.021 584.396 148.276 583.991 148.745L579.681 153.731C579.101 154.402 579.035 155.371 579.517 156.114C581.78 159.602 584.787 162.301 588.51 164.189ZM620.995 120.923C620.995 121.474 621.444 121.92 621.997 121.92C622.551 121.92 623 121.474 623 120.923V94.5931C623 93.4915 622.102 92.5984 620.995 92.5984L603.565 92.5984C603.012 92.5984 602.563 93.0449 602.563 93.5957C602.563 94.1466 603.012 94.5931 603.565 94.5931H620.995V120.923ZM588.017 100.976H605.57C606.124 100.976 606.573 101.423 606.573 101.973C606.573 102.524 606.124 102.971 605.57 102.971H588.017C586.91 102.971 586.012 102.078 586.012 100.976V94.5931C586.012 93.4915 586.91 92.5984 588.017 92.5984L599.556 92.5984C600.11 92.5984 600.558 93.0449 600.558 93.5957C600.558 94.1466 600.11 94.5931 599.556 94.5931H588.017V100.976Z" fill="#120024"/>
<path fill-rule="evenodd" clip-rule="evenodd" d="M688.954 125.81C688.954 124.708 688.056 123.815 686.949 123.815H652.668V102.971L665.212 102.971C665.765 102.971 666.214 102.524 666.214 101.973C666.214 101.423 665.766 100.977 665.213 100.976H650.663V125.81H686.949V132.093H671.98C671.426 132.093 670.977 132.54 670.977 133.09C670.977 133.641 671.426 134.088 671.98 134.088H686.949C688.056 134.088 688.954 133.195 688.954 132.093V125.81ZM667.96 134.088C668.514 134.088 668.963 133.641 668.963 133.09C668.963 132.54 668.514 132.093 667.96 132.093H650.663V158.024H692.863V164.407H643.245V94.5931H658.696C659.25 94.5931 659.698 94.1466 659.698 93.5957C659.698 93.0449 659.25 92.5984 658.696 92.5984L643.245 92.5984C642.138 92.5984 641.241 93.4915 641.241 94.5931V164.407C641.241 165.509 642.138 166.402 643.245 166.402H692.863C693.97 166.402 694.868 165.509 694.868 164.407V158.024C694.868 156.922 693.97 156.029 692.863 156.029H652.668V134.088H667.96ZM691.359 102.971L669.221 102.971C668.667 102.971 668.219 102.524 668.219 101.973C668.219 101.423 668.667 100.977 669.22 100.976H691.359V94.5931H662.706C662.152 94.5931 661.703 94.1466 661.703 93.5957C661.703 93.0449 662.152 92.5984 662.706 92.5984L691.359 92.5984C692.467 92.5984 693.364 93.4915 693.364 94.5931V100.976C693.364 102.078 692.467 102.971 691.359 102.971Z" fill="#120024"/>
<path fill-rule="evenodd" clip-rule="evenodd" d="M367.005 166.402C365.898 166.402 365 165.509 365 164.407V94.5931C365 93.4915 365.898 92.5984 367.005 92.5984H383.544C384.098 92.5984 384.546 93.0449 384.546 93.5957C384.546 94.1466 384.098 94.5931 383.544 94.5931H367.005V164.407H374.422V142.366H393.267C399.214 142.366 404.327 141.402 408.603 139.473C412.88 137.545 416.155 134.819 418.427 131.295C420.766 127.705 421.935 123.449 421.935 118.529C421.935 113.476 420.766 109.188 418.427 105.664C416.155 102.073 412.88 99.3471 408.603 97.4854C404.327 95.5572 399.214 94.5931 393.267 94.5931H387.553C387 94.5931 386.551 94.1466 386.551 93.5957C386.551 93.0449 387 92.5984 387.553 92.5984H393.267C399.421 92.5984 404.825 93.5946 409.419 95.6632C414.014 97.666 417.608 100.635 420.112 104.582C422.698 108.488 423.94 113.171 423.94 118.529C423.94 123.774 422.689 128.417 420.111 132.376C417.607 136.259 414.016 139.223 409.431 141.29C404.834 143.363 399.426 144.36 393.267 144.36H376.427V164.407C376.427 165.509 375.53 166.402 374.422 166.402H367.005ZM407.718 107.094L407.704 107.082C404.598 104.449 399.829 102.971 393.067 102.971C392.513 102.971 392.064 102.524 392.064 101.973C392.064 101.423 392.513 100.976 393.067 100.976C400.083 100.976 405.396 102.505 409.004 105.564C412.68 108.622 414.517 112.944 414.517 118.529C414.517 124.048 412.68 128.336 409.004 131.395C405.396 134.387 400.083 135.883 393.067 135.883H374.422V132.891C374.422 132.34 374.871 131.894 375.425 131.894C375.978 131.894 376.427 132.34 376.427 132.891V133.888H393.067C399.836 133.888 404.612 132.44 407.719 129.864C410.864 127.246 412.513 123.56 412.513 118.529C412.513 113.422 410.858 109.707 407.718 107.094ZM375.425 129.864C374.871 129.864 374.422 129.417 374.422 128.867V100.976H389.057C389.611 100.976 390.059 101.423 390.059 101.973C390.059 102.524 389.611 102.97 389.058 102.971H376.427V128.867C376.427 129.417 375.978 129.864 375.425 129.864ZM478.673 129.877L478.687 129.865C481.833 127.247 483.482 123.561 483.482 118.529C483.482 113.422 481.827 109.707 478.687 107.094L478.673 107.082C475.567 104.449 470.798 102.971 464.036 102.971H447.396V133.988H464.036C470.798 133.988 475.567 132.51 478.673 129.877ZM525.633 164.275C525.622 164.271 525.611 164.267 525.6 164.262C520.895 162.376 516.766 159.746 513.233 156.371C513.223 156.362 513.213 156.352 513.203 156.343C509.751 152.907 507.037 148.943 505.066 144.462C505.061 144.45 505.056 144.439 505.051 144.427C503.137 139.841 502.192 134.857 502.192 129.5C502.192 127.516 502.321 125.587 502.582 123.715C502.659 123.165 503.184 122.796 503.734 122.893C504.274 122.989 504.635 123.499 504.561 124.04C504.318 125.802 504.196 127.622 504.196 129.5C504.196 134.62 505.098 139.34 506.903 143.662C508.774 147.918 511.347 151.674 514.621 154.932C517.962 158.124 521.872 160.617 526.349 162.412C530.893 164.141 535.805 165.005 541.084 165.005C546.363 165.005 551.241 164.141 555.718 162.412C560.196 160.617 564.072 158.124 567.346 154.932C570.687 151.741 573.26 147.984 575.064 143.662C576.935 139.34 577.871 134.62 577.871 129.5C577.871 124.38 576.935 119.66 575.064 115.338C573.26 111.016 570.687 107.259 567.346 104.068C564.072 100.876 560.196 98.4162 555.718 96.6875C551.241 94.8923 546.363 93.9947 541.084 93.9947C535.738 93.9947 530.826 94.8923 526.349 96.6875C521.872 98.4162 517.962 100.91 514.621 104.168C511.347 107.359 508.774 111.116 506.903 115.438C506.33 116.789 505.848 118.184 505.457 119.622C505.311 120.158 504.766 120.489 504.225 120.355C503.692 120.222 503.364 119.686 503.506 119.158C503.923 117.616 504.439 116.117 505.056 114.662L505.062 114.648C507.032 110.096 509.752 106.121 513.218 102.743C516.755 99.2936 520.893 96.6564 525.611 94.8327C530.348 92.9354 535.513 92 541.084 92C546.591 92 551.723 92.9366 556.456 94.8327C561.166 96.6531 565.269 99.2531 568.742 102.637C572.279 106.017 575.004 109.998 576.911 114.561C578.895 119.15 579.876 124.138 579.876 129.5C579.876 134.862 578.895 139.85 576.911 144.439C575.004 149.003 572.279 152.984 568.742 156.364C565.271 159.745 561.172 162.376 556.468 164.262L556.444 164.272C551.713 166.098 546.586 167 541.084 167C535.581 167 530.424 166.098 525.633 164.275ZM566.402 118.808L566.397 118.795C565.028 115.514 563.107 112.683 560.634 110.283L560.612 110.261L560.598 110.248C558.199 107.8 555.336 105.927 551.985 104.63C551.971 104.625 551.957 104.619 551.943 104.614C548.667 103.261 545.056 102.572 541.084 102.572C537.112 102.572 533.462 103.261 530.112 104.619L530.083 104.63C526.727 105.929 523.823 107.806 521.351 110.266C518.934 112.671 517.003 115.515 515.562 118.816C514.575 121.138 513.941 123.657 513.669 126.383C513.615 126.935 513.132 127.354 512.576 127.311C512.028 127.269 511.615 126.796 511.668 126.252C511.954 123.314 512.638 120.573 513.719 118.031C515.256 114.507 517.327 111.448 519.934 108.855C522.607 106.195 525.747 104.168 529.356 102.771C532.965 101.309 536.874 100.577 541.084 100.577C545.294 100.577 549.17 101.309 552.711 102.771C556.32 104.168 559.427 106.195 562.033 108.855C564.706 111.448 566.778 114.507 568.248 118.031C569.718 121.488 570.453 125.311 570.453 129.5C570.453 133.689 569.718 137.545 568.248 141.069C566.778 144.527 564.706 147.585 562.033 150.245C559.427 152.838 556.32 154.866 552.711 156.328C549.17 157.725 545.294 158.423 541.084 158.423C536.874 158.423 532.965 157.725 529.356 156.328C525.747 154.866 522.607 152.838 519.934 150.245C517.327 147.585 515.256 144.493 513.719 140.969C512.368 137.731 511.638 134.241 511.528 130.497C511.512 129.947 511.962 129.5 512.516 129.5C513.07 129.5 513.517 129.947 513.534 130.497C513.642 133.988 514.325 137.213 515.564 140.19C517.004 143.486 518.933 146.362 521.352 148.834C523.824 151.228 526.732 153.109 530.097 154.475C533.451 155.77 537.106 156.428 541.084 156.428C545.064 156.428 548.683 155.77 551.964 154.478C555.335 153.11 558.211 151.227 560.616 148.834C563.105 146.358 565.03 143.516 566.399 140.298C567.757 137.041 568.449 133.45 568.449 129.5C568.449 125.547 567.756 121.992 566.402 118.808ZM725.215 164.272L725.191 164.262C720.483 162.375 716.382 159.741 712.91 156.357C709.444 152.978 706.725 149.004 704.754 144.451L704.743 144.427C702.829 139.841 701.884 134.857 701.884 129.5C701.884 124.143 702.829 119.159 704.743 114.573L704.754 114.549C706.725 109.996 709.444 106.022 712.91 102.643L712.925 102.629C716.461 99.2512 720.594 96.6529 725.303 94.8327C725.765 94.6479 726.23 94.4721 726.699 94.3055C727.206 94.1255 727.759 94.3915 727.946 94.8933C728.144 95.4239 727.858 96.0107 727.323 96.2019C726.892 96.3557 726.465 96.5176 726.041 96.6875C721.564 98.4162 717.654 100.876 714.313 104.068C711.039 107.259 708.466 111.016 706.595 115.338C704.791 119.66 703.888 124.38 703.888 129.5C703.888 134.62 704.791 139.34 706.595 143.662C708.466 147.984 711.039 151.741 714.313 154.932C717.588 158.124 721.463 160.617 725.941 162.412C730.418 164.141 735.296 165.005 740.575 165.005C745.721 165.005 750.532 164.141 755.01 162.412C759.487 160.684 763.262 158.124 766.336 154.733L761.625 150.045C761.451 150.223 761.276 150.397 761.099 150.568C758.366 153.226 755.367 155.179 752.103 156.428C748.628 157.758 744.886 158.423 740.876 158.423C736.666 158.423 732.757 157.725 729.148 156.328C725.54 154.866 722.399 152.838 719.726 150.245C717.053 147.585 714.948 144.527 713.411 141.069C711.941 137.545 711.206 133.689 711.206 129.5C711.206 125.311 711.941 121.488 713.411 118.031C714.948 114.507 717.053 111.448 719.726 108.855C722.399 106.195 725.54 104.168 729.148 102.771C730.684 102.149 732.274 101.659 733.919 101.301C734.45 101.186 734.966 101.531 735.078 102.061C735.194 102.609 734.832 103.143 734.282 103.264C732.769 103.597 731.31 104.049 729.905 104.619L729.875 104.63C726.519 105.929 723.615 107.806 721.144 110.266L721.125 110.283C718.648 112.687 716.691 115.524 715.254 118.815C713.902 121.997 713.21 125.55 713.21 129.5C713.21 133.444 713.9 137.03 715.254 140.284C716.689 143.505 718.647 146.348 721.134 148.825C723.609 151.223 726.521 153.107 729.89 154.475C733.243 155.77 736.899 156.428 740.876 156.428C744.659 156.428 748.155 155.802 751.383 154.566C754.562 153.35 757.498 151.393 760.191 148.651C760.566 148.27 761.078 148.054 761.614 148.051C762.149 148.048 762.664 148.258 763.043 148.635L767.754 153.322C768.509 154.073 768.54 155.28 767.825 156.069C764.531 159.702 760.49 162.436 755.735 164.272C751.01 166.096 745.951 167 740.575 167C735.073 167 729.946 166.098 725.215 164.272ZM730.206 94.3159C730.361 94.8289 730.896 95.1268 731.421 95.0062C734.355 94.3319 737.44 93.9947 740.676 93.9947C745.754 93.9947 750.532 94.859 755.01 96.5878C759.487 98.25 763.262 100.777 766.336 104.168L761.625 108.855C761.456 108.683 761.286 108.514 761.115 108.347C758.377 105.686 755.373 103.761 752.103 102.572C748.628 101.242 744.886 100.577 740.876 100.577C739.911 100.577 738.962 100.616 738.029 100.692C737.469 100.738 737.072 101.247 737.147 101.8C737.219 102.339 737.711 102.719 738.255 102.675C739.113 102.606 739.986 102.572 740.876 102.572C744.659 102.572 748.155 103.198 751.383 104.434L751.415 104.445C754.578 105.595 757.504 107.513 760.191 110.249C760.566 110.63 761.078 110.847 761.614 110.85C762.149 110.853 762.664 110.642 763.043 110.266L767.754 105.578C768.509 104.827 768.54 103.62 767.825 102.832C764.529 99.1957 760.483 96.4929 755.722 94.7233C751.004 92.9035 745.983 92 740.676 92C737.278 92 734.023 92.3565 730.917 93.0749C730.362 93.2031 730.041 93.7738 730.206 94.3159ZM802.919 166.402C801.812 166.402 800.914 165.509 800.914 164.407V126.907C800.914 126.356 801.363 125.91 801.917 125.91C802.47 125.91 802.919 126.356 802.919 126.907V164.407H810.337V116.934C810.337 116.383 810.786 115.936 811.339 115.936C811.893 115.936 812.342 116.383 812.342 116.934V164.407C812.342 165.509 811.444 166.402 810.337 166.402H802.919ZM812.342 112.944V102.971H834.995C836.102 102.971 837 102.078 837 100.976V94.5931C837 93.4915 836.102 92.5984 834.995 92.5984H778.261C777.154 92.5984 776.256 93.4915 776.256 94.5931V100.976C776.256 102.078 777.154 102.971 778.261 102.971H800.914V122.918C800.914 123.468 801.363 123.915 801.917 123.915C802.47 123.915 802.919 123.468 802.919 122.918V100.976H778.261V94.5931H834.995V100.976H810.337V112.944C810.337 113.495 810.786 113.941 811.339 113.941C811.893 113.941 812.342 113.495 812.342 112.944ZM464.036 135.983C471.052 135.983 476.365 134.453 479.973 131.395C483.649 128.336 485.486 124.048 485.486 118.529C485.486 112.944 483.649 108.622 479.973 105.564C476.365 102.505 471.052 100.976 464.036 100.976H445.391V135.983H464.036Z" fill="#120024"/>
<path fill-rule="evenodd" clip-rule="evenodd" d="M879.446 134.523V135.523C879.446 136.805 880.486 137.845 881.769 137.845H894.231C895.514 137.845 896.554 136.805 896.554 135.523V134.523H907.281C909.668 134.523 911.604 136.458 911.604 138.845V217.784C911.604 220.171 909.668 222.106 907.281 222.106H868.719C866.331 222.106 864.396 220.171 864.396 217.784V138.845C864.396 136.458 866.331 134.523 868.719 134.523H879.446ZM909.604 217.784V138.845C909.604 137.563 908.564 136.523 907.281 136.523H898.438C897.986 138.428 896.274 139.845 894.231 139.845H881.769C879.726 139.845 878.014 138.428 877.562 136.523H868.719C867.435 136.523 866.396 137.563 866.396 138.845V217.784C866.396 219.066 867.435 220.106 868.719 220.106H907.281C908.564 220.106 909.604 219.066 909.604 217.784ZM911.677 132H864.323C863.592 132 863 132.592 863 133.322V224.678C863 225.408 863.592 226 864.323 226H911.677C912.408 226 913 225.408 913 224.678V133.322C913 132.592 912.408 132 911.677 132ZM864.323 130H911.677C913.512 130 915 131.487 915 133.322V224.678C915 226.513 913.512 228 911.677 228H864.323C862.488 228 861 226.513 861 224.678V133.322C861 131.487 862.488 130 864.323 130Z" fill="#120024"/>
<path fill-rule="evenodd" clip-rule="evenodd" d="M235 26.9298C235 25.3136 236.308 24 237.926 24H338.074C339.692 24 341 25.3136 341 26.9298V77.1053C341 78.7215 339.692 80.0351 338.074 80.0351H293.815V85.7544H304.716C305.326 85.7544 305.921 85.9455 306.417 86.3007L314.506 92.0901C314.858 92.3419 315.137 92.65 315.341 92.9954C315.656 93.5327 315.735 94.2509 315.734 94.8652C315.734 95.5244 315.639 96.256 315.466 96.9421C315.296 97.6192 315.033 98.3159 314.659 98.8687C314.303 99.395 313.695 100 312.805 100H263.546C262.655 100 262.046 99.3957 261.689 98.8676C261.315 98.3139 261.053 97.6161 260.883 96.9387C260.711 96.2522 260.617 95.5205 260.616 94.8619C260.616 94.2485 260.695 93.5312 261.009 92.9955C261.227 92.624 261.533 92.2962 261.922 92.0364L270.589 86.247C271.07 85.9259 271.635 85.7544 272.213 85.7544H282.185V80.0351H237.926C236.308 80.0351 235 78.7215 235 77.1053V26.9298ZM338.074 78.0351C338.583 78.0351 339 77.6207 339 77.1053V26.9298C339 26.4144 338.583 26 338.074 26H237.926C237.416 26 237 26.4144 237 26.9298V77.1053C237 77.6207 237.416 78.0351 237.926 78.0351H338.074ZM284.185 80.0351V87.8647L288 88.6292L291.815 87.8647V80.0351H284.185ZM282.185 87.7544H272.213C272.03 87.7544 271.852 87.8085 271.7 87.91L263.388 93.4624C263.438 93.4698 263.491 93.4737 263.546 93.4737H312.805C312.867 93.4737 312.926 93.4686 312.983 93.4591L305.253 87.927C305.096 87.8147 304.909 87.7544 304.716 87.7544H293.815V89.5037L288 90.669L282.185 89.5037V87.7544ZM313.713 95.3356C313.433 95.4246 313.129 95.4737 312.805 95.4737H263.546C263.222 95.4737 262.918 95.4248 262.637 95.336C262.667 95.6971 262.73 96.0816 262.823 96.4525C262.96 97.0014 263.149 97.4559 263.346 97.7478C263.467 97.9265 263.546 97.9839 263.575 98H312.775C312.804 97.9836 312.883 97.9257 313.003 97.7483C313.2 97.4564 313.388 97.0021 313.527 96.4536C313.62 96.0823 313.683 95.6972 313.713 95.3356ZM238.563 29.5263C238.563 28.443 239.44 27.5614 240.526 27.5614H335.474C336.56 27.5614 337.437 28.443 337.437 29.5263V73.5439C337.437 74.6271 336.56 75.5088 335.474 75.5088H240.526C239.44 75.5088 238.563 74.6271 238.563 73.5439V29.5263ZM240.563 29.5614V73.5088H335.437V29.5614H240.563Z" fill="#120024"/>
<path fill-rule="evenodd" clip-rule="evenodd" d="M1063.79 33.646C1027.84 29.2236 990.812 24.668 956.252 31.4589C897.396 43.0243 868.765 70.4749 861.867 82.4976C861.592 82.9767 860.981 83.1422 860.502 82.8674C860.023 82.5926 859.858 81.9814 860.133 81.5024C867.393 68.8477 896.606 41.1412 955.867 29.4965C990.752 22.6414 1028.09 27.2361 1063.95 31.6504C1066.23 31.9307 1068.5 32.2104 1070.77 32.4863C1108.81 37.1194 1144.83 40.6956 1174.65 29.5411C1175.17 29.3476 1175.74 29.61 1175.94 30.1273C1176.13 30.6446 1175.87 31.2208 1175.35 31.4143C1145 42.7695 1108.46 39.0926 1070.53 34.4717C1068.29 34.1988 1066.04 33.9227 1063.79 33.646Z" fill="#120024"/>
<path fill-rule="evenodd" clip-rule="evenodd" d="M229.795 183.646C193.844 179.224 156.812 174.668 122.252 181.459C63.396 193.024 34.765 220.475 27.8673 232.498C27.5925 232.977 26.9813 233.142 26.5023 232.867C26.0232 232.593 25.8577 231.981 26.1325 231.502C33.3927 218.848 62.6064 191.141 121.867 179.496C156.752 172.641 194.087 177.236 229.954 181.65C232.232 181.931 234.505 182.21 236.77 182.486C274.806 187.119 310.832 190.696 340.65 179.541C341.167 179.348 341.743 179.61 341.937 180.127C342.13 180.645 341.868 181.221 341.35 181.414C310.997 192.77 274.465 189.093 236.528 184.472C234.289 184.199 232.044 183.923 229.795 183.646Z" fill="#120024"/>
<path fill-rule="evenodd" clip-rule="evenodd" d="M788.57 30.25H793.144C793.657 28.8902 794.261 27.6291 794.945 26.4898C795.645 25.3228 796.439 24.2695 797.312 23.3674C793.772 24.772 790.74 27.1836 788.57 30.25ZM804.5 20C796.541 20 789.593 24.3255 785.877 30.7493C784.047 33.9127 783 37.5856 783 41.5C783 45.4144 784.047 49.0873 785.877 52.2507C789.593 58.6745 796.541 63 804.5 63C812.459 63 819.407 58.6745 823.123 52.2507C824.953 49.0873 826 45.4144 826 41.5C826 37.5856 824.953 33.9127 823.123 30.7493C819.407 24.3255 812.459 20 804.5 20ZM803.5 22.0778C800.956 22.4748 798.544 24.3783 796.66 27.5188C796.159 28.3539 795.701 29.268 795.295 30.25H803.5V22.0778ZM803.5 32.25H794.567C793.785 34.7205 793.303 37.5168 793.215 40.5H803.5V32.25ZM805.5 40.5V32.25H814.433C815.215 34.7205 815.697 37.5168 815.785 40.5H805.5ZM803.5 42.5H793.215C793.303 45.4832 793.785 48.2795 794.567 50.75H803.5V42.5ZM805.5 50.75V42.5H815.785C815.697 45.4832 815.215 48.2795 814.433 50.75H805.5ZM803.5 52.75H795.295C795.701 53.732 796.159 54.6461 796.66 55.4812C798.544 58.6217 800.956 60.5252 803.5 60.9221V52.75ZM797.312 59.6326C796.439 58.7305 795.645 57.6772 794.945 56.5102C794.261 55.3709 793.657 54.1098 793.144 52.75H788.57C790.74 55.8164 793.772 58.228 797.312 59.6326ZM787.329 50.75H792.477C791.739 48.2259 791.296 45.4352 791.214 42.5H785.025C785.175 45.4759 785.992 48.274 787.329 50.75ZM785.025 40.5H791.214C791.296 37.5648 791.739 34.7741 792.477 32.25H787.329C785.992 34.726 785.175 37.5241 785.025 40.5ZM811.688 59.6326C815.228 58.228 818.26 55.8164 820.43 52.75H815.856C815.343 54.1098 814.738 55.3709 814.055 56.5102C813.355 57.6772 812.561 58.7305 811.688 59.6326ZM813.705 52.75H805.5V60.9221C808.044 60.5252 810.456 58.6217 812.34 55.4812C812.841 54.6461 813.299 53.732 813.705 52.75ZM816.523 50.75H821.671C823.008 48.274 823.825 45.4759 823.975 42.5H817.786C817.704 45.4352 817.261 48.2259 816.523 50.75ZM817.786 40.5H823.975C823.825 37.5241 823.008 34.726 821.671 32.25H816.523C817.261 34.7741 817.704 37.5648 817.786 40.5ZM815.856 30.25C815.343 28.8902 814.738 27.6291 814.055 26.4898C813.355 25.3228 812.561 24.2695 811.688 23.3674C815.228 24.772 818.26 27.1836 820.43 30.25H815.856ZM813.705 30.25H805.5V22.0778C808.044 22.4748 810.456 24.3783 812.34 27.5188C812.841 28.3539 813.299 29.268 813.705 30.25Z" fill="#120024"/>
<path fill-rule="evenodd" clip-rule="evenodd" d="M557.294 35.041C559.27 34.6539 560.515 37.0983 559.041 38.4686L528.72 66.6508C527.772 67.532 526.25 67.2942 525.615 66.1659L523.085 61.6649L519.8 63.8849C518.622 64.6812 517.012 64.0278 516.722 62.6354L514.474 51.8385L509.686 47.6596C508.434 46.566 508.985 44.51 510.617 44.1901L557.294 35.041ZM516.543 51.9599L518.071 59.3009L519.37 53.8486L543.092 42.6574L516.543 51.9599ZM555.531 39.0001L521.63 54.9941L527.359 65.1858L555.531 39.0001ZM520.612 57.2654L519.573 61.6243L522.102 59.9156L520.612 57.2654ZM547.466 39.0056L511.002 46.1527L515.604 50.1696L547.466 39.0056Z" fill="#120024"/>
<path fill-rule="evenodd" clip-rule="evenodd" d="M1118.38 85.0348C1118.17 87.9302 1118.05 90.9281 1118.05 94C1118.05 97.0719 1118.17 100.07 1118.38 102.965C1120.8 104.599 1123.35 106.195 1126.03 107.731C1128.7 109.267 1131.37 110.668 1134 111.93C1136.63 110.668 1139.3 109.267 1141.97 107.731C1144.65 106.195 1147.2 104.599 1149.62 102.965C1149.83 100.07 1149.95 97.0719 1149.95 94C1149.95 90.9281 1149.83 87.9303 1149.62 85.0349C1147.93 83.8961 1146.18 82.7753 1144.37 81.6804C1143.85 81.3689 1143.67 80.7134 1143.94 80.1807C1144.25 79.6026 1144.97 79.3954 1145.53 79.7333C1146.84 80.5228 1148.12 81.3264 1149.36 82.1411C1148.95 78.0539 1148.34 74.2014 1147.55 70.67C1144.08 71.7557 1140.41 73.1505 1136.65 74.8406C1137.94 75.4874 1139.25 76.1662 1140.55 76.8765C1141.13 77.1911 1141.31 77.929 1140.95 78.4787C1140.63 78.9782 1139.97 79.14 1139.44 78.8542C1137.62 77.8618 1135.8 76.9332 1134 76.0698C1131.37 77.3316 1128.7 78.7328 1126.03 80.2688C1123.35 81.8047 1120.8 83.4014 1118.38 85.0348ZM1115.99 86.6995C1115.85 89.0794 1115.78 91.5178 1115.78 94C1115.78 96.4822 1115.85 98.9206 1115.99 101.3C1112.63 98.9034 1109.59 96.4458 1106.91 94C1109.59 91.5542 1112.63 89.0966 1115.99 86.6995ZM1116.2 83.7801C1112.12 86.5963 1108.44 89.5203 1105.25 92.4413C1103.51 90.7612 1101.95 89.094 1100.59 87.4633C1097.8 84.1172 1095.88 80.9736 1094.94 78.2302C1094 75.484 1094.08 73.2777 1095.04 71.6325C1095.99 69.9873 1097.87 68.8167 1100.74 68.2529C1102.69 67.867 1105.05 67.7814 1107.72 68.0006C1108.35 68.0528 1108.92 67.5932 1108.98 66.9615C1109.03 66.3475 1108.59 65.8001 1107.97 65.7485C1105.11 65.5095 1102.52 65.5925 1100.29 66.031C1097.07 66.6664 1094.47 68.0826 1093.06 70.5C1091.66 72.9174 1091.73 75.8649 1092.79 78.9599C1093.85 82.0578 1095.94 85.4429 1098.83 88.9094C1100.23 90.5835 1101.82 92.2878 1103.59 94C1101.82 95.7122 1100.23 97.4165 1098.83 99.0906C1095.94 102.557 1093.85 105.942 1092.79 109.04C1091.73 112.135 1091.66 115.083 1093.06 117.5C1094.47 119.917 1097.07 121.334 1100.29 121.969C1103.52 122.605 1107.52 122.493 1111.98 121.736C1114.14 121.37 1116.42 120.852 1118.8 120.186C1119.4 122.564 1120.09 124.787 1120.85 126.827C1120.96 127.109 1121.06 127.388 1121.17 127.664C1121.41 128.285 1122.15 128.547 1122.74 128.235C1123.26 127.961 1123.49 127.339 1123.27 126.793C1123.18 126.545 1123.08 126.294 1122.99 126.04C1122.25 124.053 1121.57 121.877 1120.98 119.539C1125.12 118.253 1129.51 116.544 1134 114.44C1138.49 116.544 1142.88 118.253 1147.02 119.539C1146.43 121.877 1145.75 124.053 1145.01 126.04C1143.49 130.117 1141.71 133.337 1139.79 135.517C1137.87 137.699 1135.91 138.735 1134 138.735C1132.09 138.735 1130.13 137.699 1128.21 135.517C1127.15 134.322 1126.14 132.814 1125.19 131.025C1124.9 130.477 1124.24 130.239 1123.67 130.502C1123.1 130.771 1122.85 131.456 1123.15 132.016C1124.17 133.963 1125.29 135.645 1126.49 137.009C1128.66 139.469 1131.19 141 1134 141C1136.81 141 1139.34 139.469 1141.51 137.009C1143.68 134.547 1145.58 131.05 1147.15 126.827C1147.91 124.787 1148.6 122.564 1149.2 120.186C1151.58 120.852 1153.86 121.37 1156.02 121.736C1160.48 122.493 1164.48 122.605 1167.71 121.969C1170.93 121.334 1173.53 119.917 1174.94 117.5C1176.34 115.083 1176.27 112.135 1175.21 109.04C1174.15 105.942 1172.06 102.557 1169.17 99.0906C1167.77 97.4165 1166.18 95.7122 1164.41 94C1166.18 92.2878 1167.77 90.5835 1169.17 88.9094C1172.06 85.4429 1174.15 82.0578 1175.21 78.9599C1176.27 75.8649 1176.34 72.9174 1174.94 70.5C1173.53 68.0826 1170.93 66.6664 1167.71 66.031C1165.49 65.5935 1162.9 65.5099 1160.05 65.7468C1159.47 65.7949 1159.04 66.2808 1159.04 66.8577C1159.04 67.5318 1159.63 68.0541 1160.3 67.999C1162.97 67.7818 1165.31 67.868 1167.26 68.2529C1170.13 68.8167 1172.01 69.9873 1172.96 71.6325C1173.92 73.2777 1174 75.484 1173.06 78.2302C1172.12 80.9736 1170.2 84.1172 1167.41 87.4633C1166.05 89.094 1164.49 90.7612 1162.75 92.4413C1159.56 89.5204 1155.88 86.5964 1151.8 83.7802C1151.39 78.8593 1150.68 74.2262 1149.73 70.0192C1151.66 69.4775 1153.51 69.0366 1155.28 68.6989C1155.9 68.581 1156.31 67.9969 1156.21 67.3803C1156.1 66.7638 1155.51 66.3482 1154.9 66.4656C1153.08 66.8118 1151.17 67.2624 1149.2 67.8143C1148.6 65.436 1147.91 63.2131 1147.15 61.1735C1145.58 56.9499 1143.68 53.4528 1141.51 50.9909C1139.34 48.5313 1136.81 47 1134 47C1131.19 47 1128.66 48.5313 1126.49 50.9909C1124.32 53.4528 1122.42 56.9499 1120.85 61.1735C1120.09 63.2131 1119.4 65.436 1118.8 67.8143C1116.83 67.2625 1114.92 66.8118 1113.1 66.4656C1112.49 66.3481 1111.9 66.7638 1111.79 67.3803C1111.69 67.9969 1112.1 68.581 1112.72 68.6989C1114.49 69.0366 1116.34 69.4776 1118.27 70.0192C1117.32 74.2262 1116.61 78.8592 1116.2 83.7801ZM1118.64 82.141C1120.64 80.8301 1122.73 79.5483 1124.89 78.3072C1127.05 77.0661 1129.21 75.9096 1131.35 74.8406C1127.59 73.1505 1123.92 71.7557 1120.45 70.67C1119.66 74.2015 1119.05 78.0538 1118.64 82.141ZM1120.98 68.4606C1125.12 69.7465 1129.51 71.4556 1134 73.5604C1138.49 71.4555 1142.88 69.7465 1147.02 68.4605C1146.43 66.1232 1145.75 63.947 1145.01 61.9601C1143.49 57.8834 1141.71 54.6633 1139.79 52.4831C1137.87 50.3007 1135.91 49.2651 1134 49.2651C1132.09 49.2651 1130.13 50.3007 1128.21 52.4831C1126.29 54.6633 1124.51 57.8834 1122.99 61.9601C1122.25 63.947 1121.57 66.1232 1120.98 68.4606ZM1152.01 86.6996C1152.15 89.0795 1152.22 91.5178 1152.22 94C1152.22 96.4821 1152.15 98.9205 1152.01 101.3C1155.37 98.9033 1158.41 96.4458 1161.09 94C1158.41 91.5542 1155.37 89.0967 1152.01 86.6996ZM1162.75 95.5586C1159.56 98.4796 1155.88 101.404 1151.8 104.22C1151.39 109.141 1150.68 113.774 1149.73 117.981C1152.07 118.638 1154.3 119.147 1156.4 119.503C1160.71 120.234 1164.4 120.31 1167.26 119.747C1170.13 119.183 1172.01 118.013 1172.96 116.367C1173.92 114.722 1174 112.516 1173.06 109.77C1172.12 107.026 1170.2 103.883 1167.41 100.537C1166.05 98.906 1164.49 97.2388 1162.75 95.5586ZM1147.55 117.33C1148.34 113.799 1148.95 109.946 1149.36 105.859C1147.36 107.17 1145.27 108.452 1143.11 109.693C1140.95 110.934 1138.79 112.09 1136.65 113.159C1140.41 114.849 1144.08 116.244 1147.55 117.33ZM1131.35 113.159C1129.21 112.09 1127.05 110.934 1124.89 109.693C1122.73 108.452 1120.64 107.17 1118.64 105.859C1119.05 109.946 1119.66 113.799 1120.45 117.33C1123.92 116.244 1127.59 114.849 1131.35 113.159ZM1118.27 117.981C1117.32 113.774 1116.61 109.141 1116.2 104.22C1112.12 101.404 1108.44 98.4797 1105.25 95.5586C1103.51 97.2388 1101.95 98.906 1100.59 100.537C1097.8 103.883 1095.88 107.026 1094.94 109.77C1094 112.516 1094.08 114.722 1095.04 116.367C1095.99 118.013 1097.87 119.183 1100.74 119.747C1103.6 120.31 1107.29 120.234 1111.6 119.503C1113.7 119.147 1115.93 118.638 1118.27 117.981ZM1126.03 94.5663C1126.03 90.1879 1129.6 86.6385 1134 86.6385C1138.4 86.6385 1141.97 90.1879 1141.97 94.5663C1141.97 98.9446 1138.4 102.494 1134 102.494C1129.6 102.494 1126.03 98.9446 1126.03 94.5663Z" fill="#120024"/>
<path fill-rule="evenodd" clip-rule="evenodd" d="M37.278 119.169C29.2922 123.78 26.4962 133.841 30.9941 141.631C32.7425 144.66 36.1217 148.271 40.1321 151.302C44.0253 154.245 48.3906 156.55 52.2748 157.283L53.6068 156.514L44.8045 148.307C44.2239 147.766 43.8753 147.022 43.8303 146.229L43.7613 145.014C43.6503 143.058 45.6454 141.655 47.4522 142.418L47.9296 142.62C48.0972 142.691 48.2823 142.561 48.272 142.38C48.1639 140.475 50.2864 139.249 51.8819 140.295C52.0338 140.395 52.239 140.3 52.2615 140.119L52.3255 139.605C52.5677 137.658 54.7801 136.632 56.4183 137.706L57.4361 138.373C58.1005 138.809 58.5703 139.483 58.7488 140.256L61.4552 151.983L62.7872 151.214C64.0949 147.482 64.2815 142.547 63.6785 137.702C63.0577 132.715 61.6208 127.985 59.873 124.958C55.3751 117.168 45.2638 114.558 37.278 119.169ZM59.5691 153.072L56.7216 140.734C56.6621 140.476 56.5055 140.251 56.284 140.106L55.2662 139.439C54.9154 139.209 54.4415 139.429 54.3896 139.845L54.3256 140.36C54.1129 142.07 52.169 142.972 50.7297 142.028C50.5613 141.918 50.3372 142.047 50.3486 142.248C50.4462 143.966 48.6933 145.199 47.1059 144.528L46.6284 144.326C46.2415 144.163 45.8142 144.463 45.8379 144.882L45.9069 146.097C45.9219 146.362 46.0381 146.61 46.2317 146.79L55.4929 155.425L59.5691 153.072ZM51.4007 159.223C47.2104 158.319 42.7411 155.884 38.8672 152.956C34.7149 149.816 31.116 146.011 29.1891 142.674C24.1077 133.872 27.2839 122.552 36.2443 117.379C45.2047 112.205 56.5965 115.115 61.6779 123.916C63.6042 127.252 65.0999 132.27 65.7427 137.433C66.343 142.256 66.217 147.349 64.9024 151.432L65.7313 151.882C66.7513 152.436 67.3725 153.512 67.3421 154.672L67.3108 155.865L68.3593 156.434C69.3793 156.988 70.0005 158.064 69.9701 159.224L69.9388 160.416L70.8575 160.915C71.9772 161.523 72.6061 162.753 72.4442 164.018L72.4185 164.218C72.2947 165.185 71.723 166.042 70.8742 166.532L70.7178 166.622C71.4967 168.951 70.5199 171.592 68.2882 172.88C66.0566 174.169 63.2811 173.694 61.6539 171.855L61.4975 171.946C60.6487 172.436 59.621 172.503 58.7215 172.126L58.5313 172.047C57.3577 171.556 56.6076 170.4 56.6377 169.129L56.6625 168.081L55.6102 167.507C54.5966 166.953 53.9788 165.883 54.0062 164.728L54.0345 163.53L52.9822 162.955C51.9686 162.401 51.3508 161.331 51.3782 160.177L51.4007 159.223ZM56.1149 163.522L56.0855 164.763C56.0764 165.148 56.2824 165.504 56.6202 165.689L57.7092 166.284L67.8583 160.424L67.8908 159.184C67.901 158.798 67.6939 158.439 67.3539 158.254L66.264 157.663L56.1149 163.522ZM65.2304 155.872L65.2628 154.632C65.273 154.246 65.0659 153.887 64.7259 153.702L63.636 153.111L53.4869 158.97L53.4576 160.211C53.4485 160.596 53.6544 160.952 53.9922 161.137L55.0812 161.732L65.2304 155.872ZM68.892 162.214L58.7429 168.074L58.7171 169.163C58.7071 169.587 58.9571 169.972 59.3483 170.136L59.5385 170.216C59.8384 170.341 60.1809 170.319 60.4638 170.155L69.8405 164.742C70.1234 164.578 70.314 164.293 70.3553 163.97L70.381 163.77C70.435 163.348 70.2253 162.938 69.8521 162.736L68.892 162.214ZM63.5225 170.777C64.5211 171.63 66.0132 171.807 67.2546 171.09C68.4959 170.373 69.0888 168.993 68.8492 167.701L63.5225 170.777ZM37.926 122.376C37.6406 121.881 37.8133 121.247 38.3117 120.959C40.4636 119.717 42.5496 119.006 44.5612 118.793C45.1327 118.732 45.6422 119.144 45.6992 119.713C45.7561 120.281 45.3389 120.792 44.7674 120.852C43.0951 121.03 41.2885 121.628 39.3453 122.75C38.8469 123.038 38.2115 122.87 37.926 122.376ZM48.1534 119.96C48.3337 119.416 48.922 119.117 49.4673 119.292C53.6198 120.631 57.0296 124.202 59.7324 128.883C60.0179 129.377 59.8452 130.012 59.3468 130.299C58.8484 130.587 58.2129 130.42 57.9275 129.925C55.3371 125.438 52.2633 122.375 48.8143 121.264C48.269 121.088 47.9731 120.504 48.1534 119.96Z" fill="#120024"/>
<path fill-rule="evenodd" clip-rule="evenodd" d="M732.444 198.264H740.055L743.098 202.914L746.376 204.274L751.798 203.128L757.181 208.51L756.044 213.949L757.401 217.228L762.045 220.252V227.864L757.395 230.906L756.036 234.184L757.182 239.607L751.799 244.989L746.36 243.852L743.081 245.209L740.057 249.853H732.445L729.403 245.204L726.125 243.844L720.703 244.99L715.32 239.608L716.457 234.169L715.1 230.889L710.456 227.865V220.254L715.106 217.211L716.465 213.933L715.319 208.511L720.702 203.129L726.141 204.265L729.42 202.909L732.444 198.264ZM733.528 200.264L730.758 204.52L726.335 206.349L721.351 205.308L717.5 209.158L718.55 214.127L716.717 218.547L712.456 221.335V226.781L716.711 229.552L718.541 233.974L717.499 238.958L721.35 242.809L726.318 241.759L730.739 243.593L733.527 247.853H738.973L741.743 243.598L746.166 241.769L751.15 242.81L755.001 238.959L753.951 233.991L755.784 229.57L760.045 226.782V221.337L755.79 218.566L753.96 214.144L755.002 209.159L751.151 205.309L746.183 206.359L741.762 204.525L738.974 200.264H733.528ZM736.251 207.553C727.135 207.553 719.745 214.943 719.745 224.059C719.745 233.175 727.135 240.565 736.251 240.565C745.367 240.565 752.756 233.175 752.756 224.059C752.756 214.943 745.367 207.553 736.251 207.553ZM717.745 224.059C717.745 213.838 726.03 205.553 736.251 205.553C746.471 205.553 754.756 213.838 754.756 224.059C754.756 234.279 746.471 242.565 736.251 242.565C726.03 242.565 717.745 234.279 717.745 224.059Z" fill="#120024"/>
<path fill-rule="evenodd" clip-rule="evenodd" d="M361.29 28.043C361.818 28.2031 362.117 28.7615 361.957 29.29L357.239 44.859L364.393 47.2437C365.421 47.5862 365.989 48.6845 365.675 49.7211L360.957 65.29C360.797 65.8186 360.238 66.1172 359.71 65.957C359.181 65.7969 358.883 65.2385 359.043 64.71L363.761 49.141L356.607 46.7563C355.579 46.4138 355.011 45.3155 355.325 44.2789L360.043 28.71C360.203 28.1814 360.761 27.8828 361.29 28.043Z" fill="#120024"/>
<path fill-rule="evenodd" clip-rule="evenodd" d="M474.29 213.043C474.818 213.203 475.117 213.761 474.957 214.29L470.239 229.859L477.393 232.244C478.421 232.586 478.989 233.684 478.675 234.721L473.957 250.29C473.797 250.819 473.238 251.117 472.71 250.957C472.181 250.797 471.883 250.239 472.043 249.71L476.761 234.141L469.607 231.756C468.579 231.414 468.011 230.316 468.325 229.279L473.043 213.71C473.203 213.181 473.761 212.883 474.29 213.043Z" fill="#120024"/>
<path fill-rule="evenodd" clip-rule="evenodd" d="M848.29 160.043C848.819 160.203 849.117 160.761 848.957 161.29L844.239 176.859L851.393 179.244C852.421 179.586 852.989 180.684 852.675 181.721L847.957 197.29C847.797 197.819 847.239 198.117 846.71 197.957C846.181 197.797 845.883 197.239 846.043 196.71L850.761 181.141L843.607 178.756C842.579 178.414 842.011 177.316 842.325 176.279L847.043 160.71C847.203 160.181 847.761 159.883 848.29 160.043Z" fill="#120024"/>
<path fill-rule="evenodd" clip-rule="evenodd" d="M924.71 160.043C924.181 160.203 923.883 160.761 924.043 161.29L924.633 163.236C924.793 163.765 925.351 164.063 925.88 163.903C926.408 163.743 926.707 163.185 926.547 162.656L925.957 160.71C925.797 160.181 925.238 159.883 924.71 160.043ZM926.479 165.881C925.951 166.042 925.652 166.6 925.812 167.128L926.992 171.021C927.152 171.549 927.71 171.848 928.239 171.688C928.767 171.527 929.066 170.969 928.906 170.441L927.726 166.548C927.566 166.02 927.008 165.721 926.479 165.881ZM928.838 173.666C928.309 173.826 928.011 174.384 928.171 174.913L928.761 176.859L926.972 177.455C926.448 177.63 926.165 178.196 926.34 178.72C926.514 179.244 927.081 179.527 927.605 179.353L929.393 178.756C930.421 178.414 930.989 177.316 930.675 176.279L930.085 174.333C929.925 173.804 929.367 173.506 928.838 173.666ZM924.66 179.28C924.485 178.756 923.919 178.473 923.395 178.648L921.607 179.244C920.579 179.586 920.011 180.684 920.325 181.721L920.915 183.667C921.075 184.196 921.633 184.494 922.162 184.334C922.69 184.174 922.989 183.616 922.829 183.087L922.239 181.141L924.028 180.545C924.552 180.37 924.835 179.804 924.66 179.28ZM922.761 186.312C922.233 186.473 921.934 187.031 922.094 187.559L923.274 191.452C923.434 191.98 923.992 192.279 924.521 192.119C925.049 191.958 925.348 191.4 925.188 190.872L924.008 186.979C923.848 186.451 923.29 186.152 922.761 186.312ZM925.12 194.097C924.592 194.257 924.293 194.815 924.453 195.344L925.043 197.29C925.203 197.819 925.761 198.117 926.29 197.957C926.818 197.797 927.117 197.239 926.957 196.71L926.367 194.764C926.207 194.235 925.649 193.937 925.12 194.097Z" fill="#120024"/>
<path fill-rule="evenodd" clip-rule="evenodd" d="M1015.28 90.6176C1014.73 90.5514 1014.23 90.9423 1014.16 91.4906L1012.21 107.641L1004.7 106.944C1003.63 106.844 1002.66 107.62 1002.53 108.696L1000.58 124.847C1000.52 125.395 1000.91 125.893 1001.46 125.959C1002.01 126.025 1002.5 125.635 1002.57 125.086L1004.52 108.935L1012.03 109.633C1013.11 109.733 1014.07 108.956 1014.2 107.881L1016.15 91.7303C1016.21 91.182 1015.82 90.6838 1015.28 90.6176Z" fill="#120024"/>
<path fill-rule="evenodd" clip-rule="evenodd" d="M1173.5 168C1178.75 168 1183 163.747 1183 158.5C1183 153.253 1178.75 149 1173.5 149C1168.25 149 1164 153.253 1164 158.5C1164 163.747 1168.25 168 1173.5 168ZM1173.5 170C1179.85 170 1185 164.851 1185 158.5C1185 152.149 1179.85 147 1173.5 147C1167.15 147 1162 152.149 1162 158.5C1162 164.851 1167.15 170 1173.5 170Z" fill="#120024"/>
<path fill-rule="evenodd" clip-rule="evenodd" d="M965.5 188C969.09 188 972 185.09 972 181.5C972 177.91 969.09 175 965.5 175C961.91 175 959 177.91 959 181.5C959 185.09 961.91 188 965.5 188ZM965.5 190C970.194 190 974 186.194 974 181.5C974 176.806 970.194 173 965.5 173C960.806 173 957 176.806 957 181.5C957 186.194 960.806 190 965.5 190Z" fill="#120024"/>
<path fill-rule="evenodd" clip-rule="evenodd" d="M838 27C841.866 27 845 23.866 845 20C845 16.134 841.866 13 838 13C834.134 13 831 16.134 831 20C831 23.866 834.134 27 838 27ZM838 29C842.971 29 847 24.9706 847 20C847 15.0294 842.971 11 838 11C833.029 11 829 15.0294 829 20C829 24.9706 833.029 29 838 29Z" fill="#120024"/>
<path fill-rule="evenodd" clip-rule="evenodd" d="M115 210C118.314 210 121 207.314 121 204C121 200.686 118.314 198 115 198C111.686 198 109 200.686 109 204C109 207.314 111.686 210 115 210ZM115 212C119.418 212 123 208.418 123 204C123 199.582 119.418 196 115 196C110.582 196 107 199.582 107 204C107 208.418 110.582 212 115 212Z" fill="#120024"/>
<path fill-rule="evenodd" clip-rule="evenodd" d="M260.81 212.952L258.848 212.563C258.947 212.059 259 211.537 259 211C259 210.463 258.947 209.941 258.848 209.437L260.81 209.048C260.934 209.68 261 210.332 261 211C261 211.668 260.934 212.32 260.81 212.952ZM259.316 205.444L257.654 206.556C257.069 205.683 256.317 204.931 255.443 204.346L256.556 202.684C257.647 203.414 258.585 204.353 259.316 205.444ZM252.952 201.19L252.563 203.152C252.059 203.053 251.537 203 251 203C250.463 203 249.941 203.053 249.436 203.152L249.048 201.19C249.68 201.065 250.332 201 251 201C251.668 201 252.32 201.065 252.952 201.19ZM245.444 202.684L246.556 204.346C245.683 204.931 244.931 205.683 244.346 206.556L242.684 205.444C243.414 204.353 244.353 203.414 245.444 202.684ZM241.19 209.048C241.065 209.68 241 210.332 241 211C241 211.668 241.065 212.32 241.19 212.952L243.152 212.563C243.053 212.059 243 211.537 243 211C243 210.463 243.053 209.941 243.152 209.437L241.19 209.048ZM242.684 216.556L244.346 215.444C244.931 216.317 245.683 217.069 246.556 217.654L245.444 219.316C244.353 218.586 243.414 217.647 242.684 216.556ZM249.048 220.81L249.436 218.848C249.941 218.947 250.463 219 251 219C251.537 219 252.059 218.947 252.563 218.848L252.952 220.81C252.32 220.935 251.668 221 251 221C250.332 221 249.68 220.935 249.048 220.81ZM256.556 219.316L255.443 217.654C256.317 217.069 257.069 216.317 257.654 215.444L259.316 216.556C258.585 217.647 257.647 218.586 256.556 219.316Z" fill="#120024"/>
<path fill-rule="evenodd" clip-rule="evenodd" d="M722.192 195C724.401 195 726.192 193.209 726.192 191C726.192 188.791 724.401 187 722.192 187C719.983 187 718.192 188.791 718.192 191C718.192 193.209 719.983 195 722.192 195ZM722.192 197C725.505 197 728.192 194.314 728.192 191C728.192 187.686 725.505 185 722.192 185C718.878 185 716.192 187.686 716.192 191C716.192 194.314 718.878 197 722.192 197Z" fill="#120024"/>
<path fill-rule="evenodd" clip-rule="evenodd" d="M792 219C795.866 219 799 215.866 799 212C799 208.134 795.866 205 792 205C788.134 205 785 208.134 785 212C785 215.866 788.134 219 792 219ZM792 221C796.971 221 801 216.971 801 212C801 207.029 796.971 203 792 203C787.029 203 783 207.029 783 212C783 216.971 787.029 221 792 221Z" fill="#120024"/>
<path fill-rule="evenodd" clip-rule="evenodd" d="M114 37C117.866 37 121 33.866 121 30C121 26.134 117.866 23 114 23C110.134 23 107 26.134 107 30C107 33.866 110.134 37 114 37ZM114 39C118.97 39 123 34.9706 123 30C123 25.0294 118.97 21 114 21C109.029 21 105 25.0294 105 30C105 34.9706 109.029 39 114 39Z" fill="#120024"/>
<path fill-rule="evenodd" clip-rule="evenodd" d="M321.294 104.758C321.023 105.239 321.192 105.849 321.673 106.121C323.196 106.982 325.4 108.651 327.006 110.81C328.608 112.965 329.53 115.483 328.8 118.15C327.851 121.62 329.071 124.712 330.846 127.083C332.615 129.445 335.007 131.201 336.689 132.11C337.175 132.373 337.782 132.192 338.045 131.706C338.307 131.221 338.126 130.614 337.641 130.351C336.155 129.548 334.007 127.967 332.447 125.884C330.894 123.811 329.998 121.35 330.729 118.678C331.681 115.2 330.42 112.05 328.611 109.617C326.804 107.187 324.368 105.346 322.657 104.379C322.176 104.108 321.566 104.277 321.294 104.758Z" fill="#120024"/>
<path fill-rule="evenodd" clip-rule="evenodd" d="M1053.29 205.758C1053.02 206.239 1053.19 206.849 1053.67 207.121C1054.15 207.389 1054.7 207.741 1055.28 208.168C1055.72 208.495 1056.35 208.399 1056.68 207.954C1057 207.508 1056.91 206.883 1056.46 206.556C1055.82 206.085 1055.21 205.69 1054.66 205.379C1054.18 205.108 1053.57 205.277 1053.29 205.758ZM1058.22 209.344C1057.81 209.712 1057.78 210.344 1058.14 210.756C1058.99 211.702 1059.73 212.754 1060.26 213.88C1060.49 214.381 1061.08 214.598 1061.58 214.365C1062.08 214.132 1062.3 213.537 1062.07 213.037C1061.44 211.693 1060.58 210.479 1059.64 209.424C1059.27 209.012 1058.64 208.977 1058.22 209.344ZM1062.07 216.4C1061.52 216.392 1061.06 216.832 1061.05 217.385C1061.04 217.959 1060.97 218.547 1060.8 219.15C1060.6 219.898 1060.49 220.634 1060.47 221.354C1060.46 221.906 1060.9 222.365 1061.45 222.379C1062 222.393 1062.46 221.957 1062.47 221.404C1062.49 220.846 1062.57 220.27 1062.73 219.678C1062.94 218.912 1063.04 218.156 1063.05 217.415C1063.06 216.863 1062.62 216.409 1062.07 216.4ZM1061.89 224.328C1061.38 224.557 1061.16 225.15 1061.39 225.652C1061.99 226.981 1062.84 228.173 1063.77 229.201C1064.14 229.612 1064.77 229.646 1065.18 229.276C1065.59 228.907 1065.62 228.275 1065.25 227.864C1064.43 226.95 1063.71 225.927 1063.21 224.824C1062.98 224.322 1062.39 224.099 1061.89 224.328ZM1066.67 230.591C1066.35 231.041 1066.45 231.665 1066.9 231.986C1067.54 232.438 1068.15 232.816 1068.69 233.11C1069.18 233.373 1069.78 233.192 1070.04 232.706C1070.31 232.221 1070.13 231.614 1069.64 231.351C1069.17 231.099 1068.63 230.765 1068.06 230.357C1067.61 230.037 1066.99 230.141 1066.67 230.591Z" fill="#120024"/>
<path fill-rule="evenodd" clip-rule="evenodd" d="M71.7012 128.946C71.3142 129.34 71.32 129.974 71.7141 130.361C72.9625 131.586 74.6594 133.769 75.6513 136.271C76.6414 138.767 76.8802 141.438 75.4854 143.825C73.6697 146.931 74.0481 150.234 75.1495 152.983C76.2466 155.722 78.1029 158.038 79.4922 159.351C79.8934 159.731 80.5264 159.713 80.9058 159.312C81.2853 158.911 81.2676 158.278 80.8664 157.898C79.6397 156.738 77.9737 154.655 77.0061 152.24C76.0428 149.835 75.8139 147.226 77.2121 144.834C79.0312 141.721 78.6283 138.352 77.5105 135.533C76.3945 132.719 74.5174 130.31 73.1153 128.934C72.7213 128.547 72.0881 128.552 71.7012 128.946Z" fill="#120024"/>
<path fill-rule="evenodd" clip-rule="evenodd" d="M508.723 58.2945C508.242 58.0228 507.632 58.1922 507.36 58.673C506.499 60.1961 504.83 62.4001 502.671 64.0057C500.515 65.6082 497.997 66.5301 495.331 65.8005C491.86 64.8508 488.768 66.071 486.397 67.8465C484.036 69.6152 482.28 72.0074 481.37 73.6894C481.108 74.1752 481.288 74.782 481.774 75.0447C482.26 75.3074 482.867 75.1265 483.13 74.6407C483.933 73.1556 485.513 71.0072 487.596 69.4474C489.67 67.8945 492.13 66.9982 494.803 67.7296C498.28 68.6811 501.43 67.42 503.864 65.6107C506.293 63.8044 508.134 61.3678 509.101 59.6572C509.373 59.1764 509.204 58.5663 508.723 58.2945Z" fill="#120024"/>
<path fill-rule="evenodd" clip-rule="evenodd" d="M57.4572 24.3912C57.9939 24.1432 58.6129 24.1455 59.1479 24.3973L71.0299 29.991C71.7307 30.3209 72.178 31.0259 72.178 31.8005V46.464L83.8518 51.9597C84.5526 52.2896 84.9999 52.9946 84.9999 53.7692V68.4002C84.9999 69.1811 84.5453 69.8907 83.8358 70.2171L71.6635 75.8169C71.1263 76.0641 70.5073 76.0608 69.9727 75.8081L57.9941 70.1443L45.6635 75.8169C45.1263 76.0641 44.5073 76.0608 43.9727 75.8081L32.145 70.2156C31.4458 69.885 30.9999 69.1809 30.9999 68.4075V53.7743C30.9999 52.9945 31.4532 52.2857 32.1611 51.9587L44.178 46.4067V31.8055C44.178 31.0257 44.6312 30.317 45.3392 29.99L57.4572 24.3912ZM45.1179 48.1755L34.3615 53.1452L44.8276 58.0939L55.6299 53.1242L45.1179 48.1755ZM56.9999 54.6955L45.8218 59.838V73.5426L56.9999 68.4002V54.6955ZM58.9999 68.4075L69.8218 73.5244V59.8306L58.9999 54.7137V68.4075ZM60.3656 53.1471L70.8276 58.0939L81.63 53.1243L71.1448 48.1882L60.3656 53.1471ZM70.178 46.4066V32.7268L58.9999 37.8693V51.5711L70.178 46.4066ZM56.9999 51.5557V37.8619L46.178 32.745V46.4388L56.9999 51.5557ZM47.5396 31.1765L58.0057 36.1251L68.808 31.1556L58.296 26.2068L47.5396 31.1765ZM82.9999 54.6955L71.8218 59.838V73.5426L82.9999 68.4002V54.6955ZM43.8218 73.5244V59.8306L32.9999 54.7137V68.4075L43.8218 73.5244Z" fill="#120024"/>
<path fill-rule="evenodd" clip-rule="evenodd" d="M161.601 227.936L160.597 229.242C158.024 232.588 153.146 235 147.364 235C140.723 235 135.33 231.834 133.171 227.756L132.445 226.385L130.937 226.747C129.945 226.985 128.877 227.115 127.761 227.115C124.897 227.115 122.382 226.256 120.632 224.965C118.88 223.674 118 222.052 118 220.442C118 218.833 118.88 217.211 120.632 215.919C122.382 214.628 124.897 213.769 127.761 213.769C128.003 213.769 128.243 213.775 128.481 213.787L130.785 213.905L130.574 211.607C130.555 211.401 130.545 211.192 130.545 210.981C130.545 207.285 133.522 204.308 137.17 204.308C138.157 204.308 139.089 204.524 139.926 204.91L141.617 205.69L142.515 204.059C144.396 200.643 148.891 198 154.42 198C161.999 198 167.318 202.806 167.318 207.827C167.318 208.041 167.309 208.254 167.291 208.464L167.099 210.729L169.37 210.631C169.612 210.621 169.856 210.615 170.102 210.615C177.681 210.615 183 215.421 183 220.442C183 225.464 177.681 230.269 170.102 230.269C167.493 230.269 165.084 229.675 163.076 228.672L161.601 227.936ZM171.289 208.652C178.962 209.132 185 214.227 185 220.442C185 226.974 178.33 232.269 170.102 232.269C167.192 232.269 164.477 231.607 162.182 230.461C159.171 234.378 153.661 237 147.364 237C140.158 237 133.984 233.567 131.404 228.691C130.257 228.967 129.033 229.115 127.761 229.115C121.266 229.115 116 225.232 116 220.442C116 215.947 120.638 212.25 126.577 211.813C126.967 211.784 127.362 211.769 127.761 211.769C128.037 211.769 128.311 211.776 128.582 211.79C128.558 211.524 128.545 211.254 128.545 210.981C128.545 210.577 128.573 210.179 128.626 209.79C129.203 205.563 132.809 202.308 137.17 202.308C138.453 202.308 139.67 202.589 140.764 203.094C143.063 198.918 148.312 196 154.42 196C162.14 196 168.489 200.662 169.243 206.633C169.293 207.026 169.318 207.424 169.318 207.827C169.318 208.098 169.307 208.367 169.284 208.633C169.555 208.621 169.828 208.615 170.102 208.615C170.502 208.615 170.897 208.628 171.289 208.652Z" fill="#120024"/>
<path fill-rule="evenodd" clip-rule="evenodd" d="M471.13 34.333L472.133 35.6301C473.613 37.5445 476.496 39 480 39C484.036 39 487.191 37.0858 488.412 34.7914L489.138 33.4271L490.641 33.7858C491.219 33.9236 491.844 34 492.5 34C494.19 34 495.641 33.4947 496.621 32.7763C497.601 32.0569 498 31.2286 498 30.5C498 29.7714 497.601 28.9431 496.621 28.2237C495.641 27.5053 494.19 27 492.5 27C492.358 27 492.217 27.0036 492.077 27.0106L489.772 27.1272L489.985 24.8289C489.995 24.7211 490 24.6114 490 24.5C490 22.567 488.433 21 486.5 21C485.976 21 485.484 21.1139 485.043 21.3163L483.357 22.0897L482.459 20.4674C481.414 18.5798 478.821 17 475.5 17C470.891 17 468 19.8772 468 22.5C468 22.615 468.005 22.7287 468.014 22.8412L468.208 25.1063L465.936 25.0093C465.792 25.0031 465.647 25 465.5 25C460.891 25 458 27.8772 458 30.5C458 33.1228 460.891 36 465.5 36C467.057 36 468.483 35.6472 469.661 35.0622L471.13 34.333ZM464.022 23.0903C459.477 23.6508 456 26.7548 456 30.5C456 34.6421 460.253 38 465.5 38C467.356 38 469.087 37.5799 470.55 36.8535C472.471 39.337 475.984 41 480 41C484.595 41 488.532 38.8231 490.177 35.7312C490.909 35.9057 491.689 36 492.5 36C496.642 36 500 33.5376 500 30.5C500 27.8329 497.411 25.6091 493.976 25.1064C493.499 25.0366 493.005 25 492.5 25C492.324 25 492.149 25.0044 491.976 25.0132C491.992 24.8442 492 24.673 492 24.5C492 24.1347 491.964 23.7776 491.896 23.4322C491.399 20.9057 489.172 19 486.5 19C485.682 19 484.906 19.1785 484.209 19.4985C482.742 16.8505 479.395 15 475.5 15C470.692 15 466.717 17.8203 466.087 21.4798C466.03 21.8134 466 22.154 466 22.5C466 22.6718 466.007 22.8422 466.022 23.0111C465.849 23.0037 465.675 23 465.5 23C464.997 23 464.503 23.0308 464.022 23.0903Z" fill="#120024"/>
<path fill-rule="evenodd" clip-rule="evenodd" d="M230.188 234.296C230.148 234.282 230.109 234.269 230.069 234.256C230.04 231.841 227.411 229.889 224.172 229.889C223.725 229.889 223.29 229.926 222.871 229.997C222.071 228.711 220.606 228 218.931 228C217.135 228 215.58 228.818 214.827 230.285C214.081 230.031 213.253 229.889 212.379 229.889C210.18 229.889 208.262 230.789 207.249 232.122C206.096 231.507 204.705 231.148 203.207 231.148C199.227 231.148 196 233.685 196 236.815C196 239.944 199.227 242.481 203.207 242.481C204.282 242.481 205.302 242.296 206.219 241.964C207.753 243.769 210.816 245 214.345 245C217.868 245 220.928 243.772 222.464 241.972C223.561 242.297 224.811 242.481 226.138 242.481C230.48 242.481 234 240.508 234 238.074C234 236.47 232.472 235.067 230.188 234.296ZM206.843 239.611L207.743 240.669C208.776 241.884 211.186 243 214.345 243C217.499 243 219.907 241.887 220.943 240.674L221.787 239.684L223.033 240.054C223.934 240.322 224.992 240.481 226.138 240.481C228.032 240.481 229.647 240.047 230.719 239.446C231.855 238.809 232 238.244 232 238.074C232 237.951 231.948 237.679 231.537 237.288C231.12 236.891 230.424 236.474 229.452 236.159L228.086 235.716L228.069 234.28C228.064 233.839 227.823 233.285 227.133 232.773C226.444 232.263 225.404 231.889 224.172 231.889C223.836 231.889 223.512 231.917 223.203 231.969L221.882 232.191L221.174 231.054C220.804 230.46 220.05 230 218.931 230C217.733 230 216.953 230.523 216.607 231.198L215.818 232.737L214.181 232.178C213.647 231.996 213.037 231.889 212.379 231.889C210.674 231.889 209.404 232.592 208.841 233.333L207.81 234.689L206.307 233.887C205.455 233.432 204.388 233.148 203.207 233.148C199.856 233.148 198 235.211 198 236.815C198 238.419 199.856 240.481 203.207 240.481C204.053 240.481 204.843 240.336 205.538 240.084L206.843 239.611Z" fill="#120024"/>
<path fill-rule="evenodd" clip-rule="evenodd" d="M385.286 197.526C385.286 195.583 386.855 194 388.8 194H459.2C461.145 194 462.714 195.583 462.714 197.526V236.947H466.385C467.87 236.947 468.838 238.509 468.176 239.838L466.657 242.891C466.319 243.57 465.625 244 464.866 244H383.134C382.375 244 381.681 243.57 381.343 242.891L379.824 239.838C379.162 238.509 380.129 236.947 381.615 236.947H385.286V197.526ZM387.286 236.947H460.714V197.526C460.714 196.679 460.032 196 459.2 196H388.8C387.968 196 387.286 196.679 387.286 197.526V236.947ZM381.615 238.947L383.134 242H464.866L466.385 238.947H381.615ZM388.314 201.053C388.314 199.948 389.21 199.053 390.314 199.053H457.686C458.79 199.053 459.686 199.948 459.686 201.053V233.895C459.686 234.999 458.79 235.895 457.686 235.895H390.314C389.21 235.895 388.314 234.999 388.314 233.895V201.053ZM457.686 201.053H390.314V233.895H457.686V201.053Z" fill="#120024"/>
<path fill-rule="evenodd" clip-rule="evenodd" d="M1109.66 182.042C1109.85 182.014 1110.05 182.015 1110.24 182.044L1126.43 184.497C1126.65 184.53 1126.87 184.601 1127.07 184.706L1151.55 197.667C1152.05 197.933 1152.29 198.522 1152.12 199.065Lnan nanL1152.12 199.065C1151.94 199.607 1151.41 199.949 1150.84 199.875L1140.13 198.477L1147.07 207.98C1147.79 208.97 1147.46 210.371 1146.37 210.935L1138.95 214.78V228.223C1138.95 228.977 1138.52 229.667 1137.85 230.007L1110.85 243.674C1110.28 243.962 1109.61 243.962 1109.04 243.674L1082.04 230.007C1081.37 229.667 1080.95 228.977 1080.95 228.223V215.815L1071.63 210.991C1070.47 210.391 1070.19 208.858 1071.06 207.884L1079.59 198.32L1068.48 198.953C1067.91 198.986 1067.4 198.614 1067.25 198.063Lnan nanL1067.25 198.063C1067.11 197.512 1067.37 196.933 1067.88 196.678L1091.85 184.689C1092.05 184.593 1092.25 184.528 1092.47 184.498L1109.66 182.042ZM1082.18 198.423L1108.35 211.67L1098.71 222.761L1072.55 209.215L1082.18 198.423ZM1108.95 214.032L1100.22 224.073C1099.61 224.77 1098.61 224.962 1097.79 224.537L1082.95 216.851V228.223L1108.95 241.384V214.032ZM1110.95 241.384L1136.95 228.223V215.815L1120.18 224.499C1119.29 224.958 1118.21 224.695 1117.63 223.883L1110.95 214.488V241.384ZM1109.95 210.236L1135.73 197.184L1110.95 184.638V200.511C1110.95 201.063 1110.5 201.511 1109.95 201.511C1109.39 201.511 1108.95 201.063 1108.95 200.511V184.638L1084.16 197.184L1109.95 210.236ZM1115.96 184.933L1126.13 186.474L1146.58 197.302L1138.25 196.215L1115.96 184.933ZM1137.64 198.46L1111.44 211.725L1119.26 222.723L1145.45 209.159L1137.64 198.46ZM1104.08 184.859L1092.75 186.478L1072.23 196.736L1081.68 196.197L1104.08 184.859ZM1109.95 202.511C1110.5 202.511 1110.95 202.958 1110.95 203.511V206.511C1110.95 207.063 1110.5 207.511 1109.95 207.511C1109.39 207.511 1108.95 207.063 1108.95 206.511V203.511C1108.95 202.958 1109.39 202.511 1109.95 202.511Z" fill="#120024"/>
<path d="M941.164 79.9976L968.275 63.7301C968.686 63.4835 969.214 63.5632 969.534 63.9202L977.226 72.503C977.58 72.8978 978.18 72.9479 978.595 72.6173L994.572 59.8684C994.903 59.6047 995.384 59.6587 995.648 59.9891C995.975 60.3986 996.608 60.3659 996.891 59.9248L999.1 56.485C999.616 55.6804 998.817 54.6791 997.918 55.0043L994.071 56.3955C993.579 56.5737 993.407 57.1833 993.734 57.5927C993.998 57.923 993.944 58.4046 993.613 58.6683L978.771 70.5118C978.356 70.8424 977.756 70.7923 977.402 70.3975L969.832 61.9504C969.512 61.5935 968.984 61.5137 968.573 61.7604L940.373 78.681C940.009 78.8992 939.891 79.3709 940.11 79.7345C940.328 80.0981 940.8 80.2159 941.164 79.9976Z" fill="#120024"/>
<path d="M941.537 83.4107C941.537 82.8584 941.984 82.4107 942.537 82.4107H948.22C948.772 82.4107 949.22 82.8584 949.22 83.4107V96C949.22 96.5523 948.772 97 948.22 97H942.537C941.984 97 941.537 96.5523 941.537 96V83.4107Z" fill="#120024"/>
<path d="M952.293 78.8036C952.293 78.2513 952.74 77.8036 953.293 77.8036H958.976C959.528 77.8036 959.976 78.2513 959.976 78.8036V96C959.976 96.5523 959.528 97 958.976 97H953.293C952.74 97 952.293 96.5523 952.293 96V78.8036Z" fill="#120024"/>
<path d="M963.049 73.4286C963.049 72.8763 963.496 72.4286 964.049 72.4286H969.732C970.284 72.4286 970.732 72.8763 970.732 73.4286V96C970.732 96.5523 970.284 97 969.732 97H964.049C963.496 97 963.049 96.5523 963.049 96V73.4286Z" fill="#120024"/>
<path d="M973.805 78.8036C973.805 78.2513 974.253 77.8036 974.805 77.8036H980.488C981.04 77.8036 981.488 78.2513 981.488 78.8036V96C981.488 96.5523 981.04 97 980.488 97H974.805C974.253 97 973.805 96.5523 973.805 96V78.8036Z" fill="#120024"/>
<path d="M984.561 73.4286C984.561 72.8763 985.009 72.4286 985.561 72.4286H991.244C991.796 72.4286 992.244 72.8763 992.244 73.4286V96C992.244 96.5523 991.796 97 991.244 97H985.561C985.009 97 984.561 96.5523 984.561 96V73.4286Z" fill="#120024"/>
<path d="M995.317 66.5179C995.317 65.9656 995.765 65.5179 996.317 65.5179H1002C1002.55 65.5179 1003 65.9656 1003 66.5179V96C1003 96.5523 1002.55 97 1002 97H996.317C995.765 97 995.317 96.5523 995.317 96V66.5179Z" fill="#120024"/>
<path fill-rule="evenodd" clip-rule="evenodd" d="M643.071 21.4632C643.072 22.0154 642.625 22.4635 642.072 22.4639C640.739 22.465 639.423 22.4725 638.125 22.4865C637.573 22.4925 637.12 22.0496 637.114 21.4974C637.108 20.9451 637.551 20.4926 638.104 20.4866C639.409 20.4725 640.731 20.465 642.071 20.4639C642.623 20.4635 643.071 20.9109 643.071 21.4632ZM645.018 21.4708C645.023 20.9185 645.474 20.4746 646.026 20.4792C646.684 20.4847 647.346 20.4916 648.013 20.5001C648.675 20.5085 649.335 20.5219 649.991 20.5402C650.543 20.5556 650.979 21.0156 650.963 21.5677C650.948 22.1197 650.488 22.5548 649.936 22.5394C649.289 22.5214 648.64 22.5082 647.987 22.4999C647.324 22.4915 646.665 22.4846 646.01 22.4791C645.458 22.4745 645.014 22.0231 645.018 21.4708ZM635.167 21.5287C635.179 22.0809 634.741 22.5382 634.189 22.5502C632.856 22.5792 631.542 22.6155 630.247 22.6593C629.695 22.6779 629.233 22.2455 629.214 21.6936C629.196 21.1416 629.628 20.679 630.18 20.6604C631.483 20.6164 632.805 20.5798 634.145 20.5507C634.697 20.5387 635.155 20.9766 635.167 21.5287ZM652.872 21.6497C652.904 21.0983 653.377 20.6772 653.928 20.7092C655.249 20.7857 656.558 20.8813 657.857 20.9947C658.407 21.0427 658.814 21.5277 658.766 22.0779C658.718 22.6281 658.233 23.0351 657.683 22.9871C656.403 22.8754 655.114 22.7812 653.812 22.7058C653.261 22.6739 652.84 22.201 652.872 21.6497ZM627.268 21.7718C627.294 22.3234 626.867 22.7917 626.316 22.8176C624.983 22.8802 623.672 22.9513 622.381 23.0308C621.829 23.0648 621.355 22.6455 621.321 22.0942C621.287 21.543 621.706 21.0686 622.258 21.0346C623.559 20.9544 624.88 20.8829 626.222 20.8198C626.773 20.7939 627.242 21.2201 627.268 21.7718ZM619.378 22.2291C619.421 22.7797 619.009 23.2608 618.459 23.3037C617.129 23.4071 615.822 23.5202 614.537 23.6432C613.987 23.6959 613.499 23.2929 613.446 22.7431C613.394 22.1933 613.797 21.705 614.347 21.6524C615.644 21.5282 616.962 21.414 618.303 21.3097C618.854 21.2668 619.335 21.6785 619.378 22.2291ZM660.667 22.2711C660.73 21.7225 661.226 21.3291 661.775 21.3925C663.085 21.544 664.386 21.7126 665.679 21.8968C666.226 21.9746 666.606 22.481 666.528 23.0278C666.45 23.5746 665.944 23.9547 665.397 23.8768C664.12 23.695 662.837 23.5287 661.545 23.3793C660.997 23.3159 660.603 22.8197 660.667 22.2711ZM611.504 22.9478C611.568 23.4965 611.174 23.9927 610.626 24.0562C609.302 24.2095 608.003 24.3741 606.728 24.5502C606.181 24.6258 605.677 24.2436 605.601 23.6965C605.525 23.1494 605.908 22.6446 606.455 22.569C607.744 22.3909 609.058 22.2244 610.396 22.0695C610.944 22.006 611.441 22.3992 611.504 22.9478ZM668.417 23.3211C668.508 22.7764 669.024 22.4087 669.568 22.4999C670.864 22.7168 672.155 22.9482 673.441 23.1926C673.983 23.2957 674.34 23.8191 674.237 24.3617C674.133 24.9043 673.61 25.2605 673.067 25.1574C671.795 24.9156 670.519 24.6868 669.238 24.4724C668.693 24.3813 668.326 23.8658 668.417 23.3211ZM603.673 23.9862C603.762 24.5313 603.392 25.0453 602.847 25.1343C601.532 25.3489 600.245 25.577 598.984 25.8185C598.442 25.9224 597.918 25.567 597.814 25.0245C597.71 24.4821 598.065 23.9582 598.608 23.8542C599.887 23.6091 601.193 23.3779 602.525 23.1604C603.07 23.0714 603.584 23.4411 603.673 23.9862ZM676.111 24.7375C676.224 24.197 676.754 23.8509 677.295 23.9644C678.575 24.2334 679.854 24.5139 681.131 24.8042C681.67 24.9266 682.007 25.4624 681.885 26.0009C681.763 26.5395 681.227 26.8769 680.688 26.7545C679.42 26.4663 678.153 26.1882 676.884 25.9217C676.343 25.8082 675.997 25.278 676.111 24.7375ZM595.903 25.42C596.023 25.959 595.684 26.4936 595.145 26.6142C593.846 26.9047 592.576 27.2111 591.336 27.5335C590.802 27.6724 590.256 27.3517 590.117 26.8172C589.978 26.2827 590.299 25.7367 590.833 25.5978C592.096 25.2694 593.388 24.9577 594.709 24.6624C595.248 24.5418 595.782 24.8811 595.903 25.42ZM683.746 26.4379C683.875 25.901 684.415 25.5708 684.952 25.7004C686.22 26.0063 687.488 26.3204 688.76 26.6413C689.295 26.7764 689.62 27.32 689.485 27.8555C689.35 28.391 688.806 28.7156 688.27 28.5805C687.005 28.2611 685.743 27.9486 684.483 27.6446C683.946 27.515 683.616 26.9747 683.746 26.4379ZM588.236 27.3435C588.395 27.8723 588.096 28.4301 587.567 28.5895C586.295 28.9728 585.056 29.3749 583.849 29.796C583.327 29.9778 582.757 29.7025 582.575 29.181C582.393 28.6595 582.669 28.0894 583.19 27.9075C584.426 27.4767 585.692 27.0658 586.99 26.6746C587.519 26.5152 588.077 26.8147 588.236 27.3435ZM691.337 28.3311C691.476 27.7966 692.022 27.4761 692.556 27.6151C693.814 27.9423 695.077 28.2747 696.345 28.6107C696.879 28.7521 697.197 29.2995 697.056 29.8334C696.914 30.3672 696.367 30.6854 695.833 30.544C694.566 30.2085 693.307 29.8769 692.053 29.5507C691.518 29.4116 691.198 28.8656 691.337 28.3311ZM580.749 29.8653C580.955 30.3776 580.707 30.9602 580.195 31.1666C579.587 31.4115 578.988 31.6619 578.397 31.9177C577.89 32.1371 577.302 31.9042 577.082 31.3974C576.863 30.8905 577.096 30.3018 577.603 30.0823C578.209 29.8197 578.824 29.5627 579.448 29.3116C579.96 29.1051 580.542 29.3531 580.749 29.8653ZM698.904 30.3255C699.046 29.7918 699.594 29.4746 700.128 29.6168L700.567 29.7338C701.673 30.0289 702.786 30.3255 703.906 30.6229C704.439 30.7647 704.757 31.3123 704.615 31.8461C704.474 32.3799 703.926 32.6976 703.392 32.5559C702.27 32.2578 701.155 31.9605 700.047 31.665L699.613 31.5493C699.079 31.4071 698.762 30.8591 698.904 30.3255ZM706.462 32.3341C706.602 31.7998 707.149 31.4802 707.683 31.6202C708.933 31.9475 710.192 32.2746 711.463 32.6001C711.998 32.7371 712.321 33.2819 712.184 33.817C712.047 34.352 711.502 34.6746 710.967 34.5376C709.692 34.211 708.429 33.883 707.176 33.5549C706.642 33.4149 706.323 32.8683 706.462 32.3341ZM714.037 34.2848C714.17 33.7487 714.712 33.4221 715.248 33.5551C716.5 33.8657 717.763 34.1738 719.04 34.4784C719.577 34.6065 719.909 35.1459 719.78 35.6831C719.652 36.2203 719.113 36.5519 718.576 36.4238C717.292 36.1177 716.023 35.8081 714.767 35.4962C714.231 35.3632 713.904 34.8208 714.037 34.2848ZM721.642 36.1173C721.764 35.5788 722.3 35.2415 722.839 35.364C724.094 35.6495 725.363 35.9308 726.647 36.2068C727.187 36.323 727.53 36.8548 727.414 37.3948C727.298 37.9347 726.766 38.2783 726.226 38.1621C724.935 37.8843 723.658 37.6013 722.395 37.3142C721.857 37.1917 721.519 36.6558 721.642 36.1173ZM729.287 37.7853C729.396 37.2439 729.923 36.8936 730.465 37.0028C731.726 37.2572 733.002 37.506 734.293 37.7484C734.836 37.8502 735.194 38.3728 735.092 38.9156C734.99 39.4585 734.467 39.8159 733.924 39.7141C732.624 39.47 731.339 39.2195 730.069 38.9633C729.528 38.8541 729.178 38.3267 729.287 37.7853ZM736.977 39.2557C737.071 38.7115 737.589 38.3467 738.133 38.4408C739.398 38.6596 740.678 38.8717 741.974 39.0764C742.519 39.1626 742.892 39.6747 742.806 40.2202C742.719 40.7657 742.207 41.1381 741.662 41.052C740.356 40.8457 739.066 40.632 737.792 40.4116C737.248 40.3174 736.883 39.8 736.977 39.2557ZM744.691 40.5037C744.769 39.957 745.276 39.577 745.822 39.655C747.092 39.8362 748.378 40.01 749.68 40.1758C750.228 40.2456 750.615 40.7462 750.545 41.2941C750.476 41.842 749.975 42.2295 749.427 42.1598C748.115 41.9927 746.82 41.8176 745.54 41.6349C744.993 41.5569 744.613 41.0505 744.691 40.5037ZM752.442 41.521C752.504 40.9721 752.998 40.577 753.547 40.6384C754.824 40.7813 756.116 40.9163 757.425 41.0428C757.975 41.0959 758.377 41.5846 758.324 42.1343C758.271 42.684 757.783 43.0866 757.233 43.0335C755.914 42.9061 754.611 42.77 753.325 42.626C752.776 42.5646 752.381 42.0698 752.442 41.521ZM760.237 42.3046C760.282 41.7541 760.765 41.3442 761.315 41.3891C762.594 41.4932 763.888 41.5891 765.199 41.6763C765.75 41.713 766.167 42.1894 766.13 42.7405C766.093 43.2916 765.617 43.7086 765.066 43.6719C763.746 43.5841 762.442 43.4874 761.153 43.3825C760.602 43.3376 760.193 42.855 760.237 42.3046ZM768.029 42.8529C768.058 42.3014 768.528 41.8775 769.079 41.9061C769.731 41.9399 770.386 41.9716 771.045 42.001C771.596 42.0256 772.024 42.4929 771.999 43.0446C771.974 43.5963 771.507 44.0236 770.955 43.999C770.292 43.9694 769.632 43.9375 768.976 43.9034C768.424 43.8748 768 43.4045 768.029 42.8529Z" fill="#120024"/>
<path fill-rule="evenodd" clip-rule="evenodd" d="M521.917 195C521.259 195 520.616 195.026 519.988 195.078C519.437 195.123 518.955 194.713 518.91 194.163C518.865 193.612 519.274 193.13 519.825 193.085C520.508 193.029 521.206 193 521.917 193C522.625 193 523.316 193.043 523.991 193.127C524.539 193.196 524.928 193.695 524.86 194.243C524.791 194.791 524.292 195.18 523.744 195.112C523.152 195.038 522.544 195 521.917 195ZM621.605 195C620.951 195 620.317 195.025 619.7 195.073C619.149 195.115 618.668 194.704 618.625 194.153C618.583 193.602 618.994 193.121 619.545 193.079C620.215 193.026 620.901 193 621.605 193C622.329 193 623.033 193.028 623.718 193.083C624.269 193.127 624.679 193.609 624.635 194.16C624.591 194.71 624.108 195.121 623.558 195.077C622.928 195.026 622.277 195 621.605 195ZM616.733 194.46C616.871 194.994 616.55 195.54 616.015 195.678C614.773 196 613.609 196.43 612.517 196.956C612.019 197.195 611.422 196.986 611.182 196.488C610.943 195.991 611.152 195.393 611.65 195.154C612.859 194.572 614.145 194.097 615.514 193.742C616.049 193.604 616.594 193.925 616.733 194.46ZM516.914 194.5C517.054 195.034 516.735 195.581 516.201 195.721C514.938 196.053 513.739 196.493 512.6 197.026C512.099 197.26 511.504 197.044 511.27 196.544C511.036 196.043 511.252 195.448 511.752 195.214C512.997 194.632 514.31 194.15 515.692 193.787C516.227 193.647 516.773 193.966 516.914 194.5ZM626.626 194.497C626.772 193.964 627.321 193.65 627.854 193.795C629.26 194.178 630.568 194.693 631.79 195.323C632.281 195.577 632.473 196.18 632.22 196.671C631.966 197.162 631.363 197.354 630.872 197.101C629.775 196.534 628.598 196.071 627.328 195.724C626.795 195.579 626.481 195.029 626.626 194.497ZM526.699 194.722C526.906 194.21 527.489 193.962 528.001 194.17C529.275 194.685 530.472 195.356 531.603 196.158C532.053 196.478 532.159 197.102 531.84 197.552C531.521 198.003 530.896 198.109 530.446 197.79C529.429 197.069 528.367 196.475 527.251 196.024C526.739 195.817 526.492 195.234 526.699 194.722ZM609.538 197.489C609.867 197.932 609.775 198.559 609.332 198.888C608.335 199.629 607.4 200.463 606.518 201.379C606.135 201.776 605.502 201.788 605.104 201.405C604.706 201.022 604.695 200.389 605.078 199.991C606.029 199.004 607.046 198.096 608.139 197.283C608.582 196.954 609.208 197.046 609.538 197.489ZM509.521 197.559C509.836 198.012 509.725 198.635 509.272 198.951C508.215 199.687 507.219 200.508 506.282 201.399C505.881 201.779 505.248 201.763 504.868 201.362C504.488 200.962 504.504 200.329 504.904 199.949C505.91 198.994 506.983 198.108 508.128 197.31C508.582 196.994 509.205 197.106 509.521 197.559ZM633.912 197.787C634.26 197.358 634.89 197.293 635.319 197.641C636.401 198.519 637.398 199.499 638.323 200.561C638.686 200.977 638.642 201.609 638.226 201.971C637.81 202.334 637.178 202.291 636.815 201.875C635.957 200.89 635.042 199.992 634.058 199.193C633.63 198.845 633.564 198.216 633.912 197.787ZM533.273 198.796C533.667 198.408 534.3 198.413 534.687 198.807C535.607 199.74 536.482 200.762 537.319 201.854C537.655 202.292 537.572 202.92 537.134 203.256C536.696 203.592 536.068 203.509 535.732 203.071C534.937 202.034 534.116 201.076 533.263 200.21C532.875 199.817 532.88 199.184 533.273 198.796ZM503.501 202.851C503.93 203.199 503.995 203.829 503.647 204.257C502.827 205.266 502.064 206.328 501.355 207.425C501.055 207.889 500.436 208.022 499.973 207.722C499.509 207.422 499.375 206.803 499.675 206.34C500.42 205.187 501.225 204.066 502.094 202.996C502.442 202.568 503.072 202.503 503.501 202.851ZM603.871 202.88C604.315 203.209 604.408 203.835 604.08 204.279C603.335 205.285 602.632 206.352 601.962 207.469C601.678 207.943 601.064 208.096 600.59 207.812C600.116 207.528 599.963 206.914 600.247 206.441C600.945 205.276 601.684 204.154 602.472 203.089C602.801 202.645 603.427 202.552 603.871 202.88ZM639.448 203.596C639.907 203.29 640.528 203.415 640.834 203.875C641.582 205 642.28 206.182 642.939 207.405C643.201 207.891 643.019 208.498 642.533 208.76C642.047 209.022 641.44 208.84 641.178 208.354C640.543 207.176 639.877 206.048 639.168 204.982C638.862 204.522 638.988 203.901 639.448 203.596ZM538.21 204.808C538.675 204.51 539.293 204.645 539.591 205.11C540.29 206.201 540.965 207.338 541.623 208.509C541.893 208.991 541.723 209.6 541.241 209.871C540.76 210.141 540.15 209.97 539.879 209.489C539.237 208.345 538.581 207.242 537.907 206.189C537.609 205.724 537.745 205.105 538.21 204.808ZM498.96 209.47C499.449 209.726 499.639 210.33 499.383 210.82C498.769 211.995 498.211 213.189 497.705 214.384C497.489 214.892 496.902 215.13 496.394 214.914C495.885 214.699 495.648 214.112 495.863 213.604C496.389 212.363 496.97 211.12 497.61 209.894C497.866 209.404 498.47 209.215 498.96 209.47ZM599.665 209.501C600.157 209.752 600.354 210.353 600.104 210.846C599.525 211.984 598.972 213.154 598.436 214.349C598.21 214.852 597.619 215.078 597.115 214.852C596.611 214.626 596.386 214.034 596.612 213.53C597.158 212.312 597.725 211.112 598.32 209.94C598.571 209.448 599.173 209.251 599.665 209.501ZM643.431 210.579C643.933 210.348 644.527 210.568 644.758 211.069C645.319 212.289 645.857 213.536 646.379 214.796C646.59 215.306 646.348 215.891 645.837 216.102C645.327 216.314 644.742 216.071 644.531 215.561C644.016 214.318 643.489 213.096 642.941 211.906C642.71 211.404 642.929 210.811 643.431 210.579ZM542.132 211.541C542.624 211.289 543.226 211.483 543.479 211.974C544.07 213.127 544.652 214.302 545.227 215.487C545.468 215.984 545.26 216.582 544.764 216.823C544.267 217.064 543.668 216.857 543.427 216.36C542.857 215.184 542.282 214.023 541.699 212.887C541.447 212.396 541.641 211.793 542.132 211.541ZM596.359 216.623C596.869 216.834 597.113 217.418 596.902 217.929C596.407 219.131 595.924 220.343 595.445 221.559C595.242 222.073 594.662 222.325 594.148 222.122C593.634 221.92 593.382 221.339 593.584 220.825C594.065 219.606 594.553 218.382 595.053 217.167C595.264 216.656 595.848 216.413 596.359 216.623ZM495.676 216.802C496.199 216.98 496.479 217.548 496.301 218.071C495.862 219.361 495.484 220.629 495.163 221.849C495.023 222.384 494.476 222.703 493.942 222.562C493.408 222.422 493.089 221.875 493.229 221.341C493.562 220.076 493.953 218.764 494.408 217.427C494.585 216.904 495.153 216.624 495.676 216.802ZM699.934 217.501C700.485 217.473 700.956 217.897 700.984 218.448L699.985 218.5C700.984 218.448 700.984 218.448 700.984 218.448L700.984 218.45L700.984 218.453L700.985 218.461L700.986 218.49C700.987 218.514 700.988 218.549 700.99 218.594C700.993 218.685 700.996 218.815 700.998 218.983C701.002 219.318 701.001 219.801 700.98 220.407C700.96 220.959 700.497 221.391 699.945 221.371C699.393 221.352 698.961 220.889 698.981 220.337C699.001 219.765 699.002 219.313 698.998 219.007C698.996 218.853 698.993 218.736 698.991 218.66C698.99 218.621 698.989 218.593 698.988 218.574L698.987 218.551M646.589 217.986C647.103 217.784 647.683 218.038 647.885 218.552C648.189 219.331 648.492 220.113 648.795 220.894C648.978 221.366 649.161 221.838 649.343 222.308C649.543 222.822 649.288 223.402 648.774 223.602C648.259 223.802 647.679 223.547 647.479 223.033C647.294 222.557 647.111 222.083 646.927 221.609C646.626 220.832 646.325 220.057 646.022 219.281C645.821 218.767 646.075 218.187 646.589 217.986ZM545.579 218.534C546.078 218.298 546.674 218.511 546.91 219.011C547.108 219.429 547.305 219.847 547.502 220.264C547.86 221.021 548.217 221.778 548.575 222.533C548.812 223.032 548.6 223.628 548.101 223.865C547.602 224.102 547.006 223.89 546.769 223.391C546.409 222.633 546.05 221.872 545.692 221.113C545.495 220.697 545.298 220.281 545.102 219.866C544.866 219.366 545.079 218.77 545.579 218.534ZM699.794 223.122C700.342 223.195 700.727 223.698 700.654 224.246C700.499 225.404 700.278 226.685 699.962 228.036C699.836 228.573 699.298 228.907 698.76 228.782C698.223 228.656 697.889 228.118 698.015 227.58C698.314 226.3 698.524 225.084 698.671 223.982C698.744 223.434 699.247 223.05 699.794 223.122ZM593.446 223.919C593.96 224.121 594.213 224.701 594.011 225.215C593.527 226.445 593.041 227.667 592.547 228.87C592.338 229.381 591.754 229.625 591.243 229.415C590.732 229.206 590.488 228.621 590.697 228.111C591.186 226.921 591.667 225.709 592.149 224.483C592.352 223.969 592.932 223.716 593.446 223.919ZM493.498 224.537C494.041 224.637 494.401 225.158 494.301 225.701C494.177 226.378 494.074 227.024 493.991 227.635C493.916 228.182 493.412 228.565 492.865 228.491C492.318 228.416 491.935 227.912 492.009 227.365C492.097 226.723 492.205 226.046 492.334 225.341C492.433 224.797 492.954 224.438 493.498 224.537ZM649.517 225.487C650.029 225.279 650.612 225.525 650.82 226.037C651.328 227.285 651.845 228.514 652.381 229.712C652.607 230.216 652.381 230.808 651.877 231.033C651.373 231.259 650.781 231.033 650.556 230.529C650.008 229.304 649.481 228.053 648.967 226.79C648.759 226.278 649.005 225.695 649.517 225.487ZM548.923 225.575C549.419 225.332 550.018 225.536 550.261 226.032C550.837 227.204 551.419 228.358 552.011 229.488C552.267 229.977 552.078 230.581 551.589 230.838C551.1 231.094 550.496 230.905 550.239 230.416C549.637 229.268 549.048 228.097 548.466 226.914C548.223 226.418 548.427 225.819 548.923 225.575ZM698.274 230.465C698.795 230.648 699.068 231.219 698.885 231.74C698.468 232.922 697.97 234.124 697.374 235.314C697.126 235.808 696.526 236.008 696.032 235.76C695.538 235.513 695.338 234.912 695.586 234.418C696.141 233.311 696.607 232.187 696.998 231.076C697.182 230.555 697.753 230.281 698.274 230.465ZM590.485 231.194C590.989 231.421 591.213 232.013 590.986 232.516C590.432 233.748 589.86 234.946 589.26 236.099C589.006 236.589 588.402 236.779 587.912 236.525C587.422 236.27 587.231 235.666 587.486 235.176C588.065 234.064 588.621 232.9 589.163 231.696C589.389 231.192 589.981 230.968 590.485 231.194ZM552.497 232.498C552.975 232.221 553.587 232.384 553.864 232.862C554.52 233.996 555.191 235.089 555.883 236.13C556.188 236.59 556.063 237.211 555.603 237.516C555.143 237.822 554.522 237.697 554.217 237.237C553.499 236.156 552.805 235.027 552.132 233.864C551.856 233.386 552.019 232.774 552.497 232.498ZM652.749 232.861C653.24 232.607 653.843 232.799 654.097 233.289C654.716 234.481 655.363 235.625 656.05 236.707C656.346 237.173 656.208 237.791 655.742 238.087C655.275 238.383 654.657 238.245 654.362 237.779C653.638 236.639 652.962 235.444 652.322 234.21C652.068 233.719 652.259 233.116 652.749 232.861ZM695.139 237.272C695.591 237.588 695.702 238.211 695.386 238.664C694.654 239.711 693.827 240.725 692.892 241.683C692.506 242.078 691.873 242.086 691.478 241.7C691.083 241.314 691.075 240.681 691.461 240.286C692.315 239.411 693.073 238.482 693.746 237.519C694.063 237.066 694.686 236.955 695.139 237.272ZM586.955 238.203C587.42 238.501 587.555 239.12 587.257 239.585C586.507 240.755 585.708 241.852 584.848 242.856C584.488 243.275 583.857 243.324 583.438 242.964C583.018 242.605 582.97 241.973 583.329 241.554C584.12 240.633 584.864 239.612 585.573 238.505C585.871 238.04 586.49 237.905 586.955 238.203ZM556.712 239.051C557.142 238.705 557.772 238.774 558.117 239.205C558.93 240.219 559.771 241.154 560.646 241.997C561.044 242.381 561.056 243.014 560.672 243.411C560.289 243.809 559.656 243.821 559.258 243.437C558.313 242.526 557.415 241.526 556.557 240.456C556.211 240.026 556.281 239.396 556.712 239.051ZM656.923 239.737C657.348 239.385 657.979 239.445 658.331 239.87C659.167 240.881 660.058 241.804 661.015 242.626C661.434 242.985 661.482 243.617 661.122 244.036C660.762 244.455 660.131 244.503 659.712 244.143C658.659 243.239 657.689 242.232 656.79 241.145C656.438 240.719 656.497 240.089 656.923 239.737ZM690.145 242.848C690.468 243.297 690.366 243.921 689.918 244.244C688.891 244.983 687.771 245.657 686.551 246.251C686.055 246.493 685.456 246.286 685.214 245.789C684.973 245.293 685.179 244.694 685.676 244.453C686.793 243.909 687.814 243.293 688.749 242.621C689.198 242.298 689.823 242.4 690.145 242.848ZM582.058 244.308C582.396 244.744 582.316 245.372 581.88 245.71C580.775 246.565 579.581 247.278 578.28 247.819C577.77 248.031 577.185 247.79 576.972 247.28C576.76 246.77 577.001 246.185 577.511 245.973C578.636 245.504 579.679 244.884 580.656 244.129C581.092 243.791 581.72 243.871 582.058 244.308ZM562.141 244.617C562.448 244.158 563.069 244.035 563.528 244.342C564.559 245.032 565.637 245.6 566.771 246.031C567.287 246.227 567.547 246.804 567.351 247.321C567.154 247.837 566.577 248.096 566.06 247.9C564.774 247.411 563.562 246.771 562.416 246.004C561.957 245.697 561.833 245.076 562.141 244.617ZM662.786 245.198C663.051 244.713 663.659 244.535 664.143 244.8C665.227 245.392 666.391 245.877 667.648 246.239C668.179 246.392 668.485 246.946 668.332 247.477C668.179 248.008 667.625 248.314 667.094 248.161C665.695 247.757 664.395 247.216 663.184 246.555C662.7 246.29 662.522 245.682 662.786 245.198ZM683.574 246.428C683.736 246.956 683.439 247.516 682.91 247.677C681.728 248.039 680.471 248.333 679.136 248.551C678.591 248.641 678.077 248.271 677.988 247.726C677.899 247.181 678.268 246.667 678.813 246.578C680.063 246.373 681.232 246.099 682.326 245.764C682.854 245.603 683.413 245.9 683.574 246.428ZM575.103 247.763C575.169 248.312 574.779 248.81 574.23 248.876C573.555 248.958 572.859 249 572.141 249C571.436 249 570.746 248.96 570.073 248.881C569.524 248.816 569.132 248.32 569.196 247.771C569.26 247.223 569.757 246.83 570.306 246.894C570.9 246.964 571.512 247 572.141 247C572.782 247 573.397 246.963 573.99 246.891C574.538 246.824 575.036 247.215 575.103 247.763ZM670.323 247.832C670.37 247.282 670.854 246.873 671.404 246.92C672.032 246.973 672.68 247 673.351 247C673.982 247 674.596 246.985 675.195 246.955C675.746 246.928 676.216 247.353 676.243 247.905C676.27 248.456 675.845 248.926 675.293 248.953C674.661 248.984 674.014 249 673.351 249C672.626 249 671.921 248.97 671.236 248.913C670.685 248.866 670.277 248.382 670.323 247.832Z" fill="#120024"/>
<path fill-rule="evenodd" clip-rule="evenodd" d="M137.268 71C138.038 69.6667 139.962 69.6667 140.732 71L144.052 76.75C144.822 78.0833 143.859 79.75 142.32 79.75H135.68C134.141 79.75 133.178 78.0833 133.948 76.75L137.268 71ZM135.68 77.75H142.32L139 72L135.68 77.75ZM156.867 77.6834C158.354 77.2849 159.715 78.6457 159.317 80.1329L157.598 86.5461C157.2 88.0333 155.341 88.5314 154.252 87.4427L149.557 82.7479C148.469 81.6592 148.967 79.8003 150.454 79.4018L156.867 77.6834ZM118.683 80.1329C118.285 78.6457 119.646 77.2849 121.133 77.6834L127.546 79.4018C129.033 79.8003 129.531 81.6592 128.443 82.7479L123.748 87.4427C122.659 88.5314 120.8 88.0333 120.402 86.5461L118.683 80.1329ZM150.971 81.3336L155.666 86.0285L157.385 79.6152L150.971 81.3336ZM120.615 79.6152L122.334 86.0285L127.028 81.3337L120.615 79.6152ZM139 82.6667C130.532 82.6667 123.667 89.5316 123.667 98C123.667 106.468 130.532 113.333 139 113.333C147.468 113.333 154.333 106.468 154.333 98C154.333 89.5316 147.468 82.6667 139 82.6667ZM121.667 98C121.667 88.4271 129.427 80.6667 139 80.6667C148.573 80.6667 156.333 88.4271 156.333 98C156.333 107.573 148.573 115.333 139 115.333C129.427 115.333 121.667 107.573 121.667 98ZM117.75 92.9482C119.083 92.1784 120.75 93.1406 120.75 94.6802V101.32C120.75 102.859 119.083 103.822 117.75 103.052L112 99.732C110.667 98.9622 110.667 97.0377 112 96.2679L117.75 92.9482ZM157.25 94.6802C157.25 93.1406 158.917 92.1784 160.25 92.9482L166 96.268C167.333 97.0378 167.333 98.9623 166 99.7321L160.25 103.052C158.917 103.822 157.25 102.859 157.25 101.32V94.6802ZM113 98L118.75 101.32V94.6802L113 98ZM159.25 94.6802V101.32L165 98L159.25 94.6802ZM154.252 108.557C155.341 107.469 157.2 107.967 157.598 109.454L159.317 115.867C159.715 117.354 158.354 118.715 156.867 118.317L150.454 116.598C148.967 116.2 148.469 114.341 149.557 113.252L154.252 108.557ZM120.402 109.454C120.8 107.967 122.659 107.469 123.748 108.557L128.443 113.252C129.531 114.341 129.033 116.2 127.546 116.598L121.133 118.317C119.646 118.715 118.285 117.354 118.683 115.867L120.402 109.454ZM150.971 114.666L157.385 116.385L155.666 109.971L150.971 114.666ZM122.334 109.971L120.615 116.385L127.028 114.666L122.334 109.971ZM133.948 119.25C133.178 117.917 134.141 116.25 135.68 116.25H142.32C143.859 116.25 144.822 117.917 144.052 119.25L140.732 125C139.962 126.333 138.038 126.333 137.268 125L133.948 119.25ZM142.32 118.25H135.68L139 124L142.32 118.25Z" fill="#120024"/>
<path fill-rule="evenodd" clip-rule="evenodd" d="M165.19 110.913C165.514 110.466 166.14 110.366 166.587 110.69L168.254 111.899C168.701 112.223 168.8 112.848 168.476 113.295C168.152 113.742 167.527 113.842 167.08 113.518L165.413 112.31C164.966 111.985 164.866 111.36 165.19 110.913ZM170.19 114.538C170.514 114.091 171.14 113.991 171.587 114.315L174.92 116.732C175.367 117.056 175.467 117.681 175.143 118.129C174.819 118.576 174.193 118.675 173.746 118.351L170.413 115.935C169.966 115.61 169.866 114.985 170.19 114.538ZM176.857 119.371C177.181 118.924 177.806 118.825 178.254 119.149L181.587 121.565C182.034 121.89 182.134 122.515 181.81 122.962C181.485 123.409 180.86 123.509 180.413 123.185L177.08 120.768C176.633 120.444 176.533 119.818 176.857 119.371ZM183.524 124.205C183.848 123.758 184.473 123.658 184.92 123.982L188.254 126.399C188.701 126.723 188.8 127.348 188.476 127.795C188.152 128.242 187.527 128.342 187.08 128.018L183.746 125.601C183.299 125.277 183.199 124.652 183.524 124.205ZM150.103 124.082C150.61 123.863 151.199 124.096 151.418 124.603L152.084 126.145C152.304 126.652 152.07 127.24 151.564 127.46C151.057 127.679 150.468 127.445 150.249 126.939L149.582 125.397C149.363 124.89 149.596 124.301 150.103 124.082ZM131.152 128.012C131.698 128.096 132.072 128.606 131.988 129.152L131.613 131.59C131.529 132.135 131.019 132.51 130.473 132.426C129.927 132.342 129.553 131.831 129.637 131.285L130.012 128.848C130.096 128.302 130.606 127.928 131.152 128.012ZM152.103 128.707C152.61 128.488 153.199 128.721 153.418 129.228L154.751 132.311C154.97 132.818 154.737 133.407 154.23 133.626C153.723 133.845 153.135 133.612 152.915 133.105L151.582 130.022C151.363 129.515 151.596 128.926 152.103 128.707ZM190.19 129.038C190.514 128.591 191.14 128.491 191.587 128.815L194.92 131.232C195.367 131.556 195.467 132.181 195.143 132.629C194.819 133.076 194.193 133.175 193.746 132.851L190.413 130.435C189.966 130.11 189.866 129.485 190.19 129.038ZM196.857 133.871C197.181 133.424 197.806 133.325 198.254 133.649L201.587 136.065C202.034 136.39 202.134 137.015 201.81 137.462C201.485 137.909 200.86 138.009 200.413 137.685L197.08 135.268C196.632 134.944 196.533 134.318 196.857 133.871ZM154.77 134.874C155.277 134.655 155.865 134.888 156.084 135.395L157.418 138.478C157.637 138.985 157.404 139.574 156.897 139.793C156.39 140.012 155.801 139.779 155.582 139.272L154.249 136.189C154.03 135.682 154.263 135.093 154.77 134.874ZM130.027 135.324C130.573 135.408 130.947 135.919 130.863 136.465L130.113 141.34C130.029 141.885 129.519 142.26 128.973 142.176C128.427 142.092 128.053 141.581 128.137 141.035L128.887 136.16C128.971 135.615 129.481 135.24 130.027 135.324ZM203.524 138.705C203.848 138.258 204.473 138.158 204.92 138.482L206.587 139.69C207.034 140.015 207.134 140.64 206.81 141.087C206.485 141.534 205.86 141.634 205.413 141.31L203.746 140.101C203.299 139.777 203.199 139.152 203.524 138.705ZM157.436 141.04C157.943 140.821 158.532 141.055 158.751 141.561L159.418 143.103C159.637 143.61 159.404 144.199 158.897 144.418C158.39 144.637 157.801 144.404 157.582 143.897L156.915 142.355C156.696 141.848 156.929 141.26 157.436 141.04ZM128.527 145.074C129.073 145.158 129.447 145.669 129.363 146.215L128.988 148.652C128.904 149.198 128.394 149.572 127.848 149.488C127.302 149.404 126.928 148.894 127.012 148.348L127.387 145.91C127.471 145.365 127.981 144.99 128.527 145.074Z" fill="#120024"/>
<path fill-rule="evenodd" clip-rule="evenodd" d="M195.293 31.2929C195.683 30.9024 196.317 30.9024 196.707 31.2929L202.5 37.0858L208.293 31.2929C208.683 30.9024 209.317 30.9024 209.707 31.2929C210.098 31.6834 210.098 32.3166 209.707 32.7071L203.914 38.5L209.707 44.2929C210.098 44.6834 210.098 45.3166 209.707 45.7071C209.317 46.0976 208.683 46.0976 208.293 45.7071L202.5 39.9142L196.707 45.7071C196.317 46.0976 195.683 46.0976 195.293 45.7071C194.902 45.3166 194.902 44.6834 195.293 44.2929L201.086 38.5L195.293 32.7071C194.902 32.3166 194.902 31.6834 195.293 31.2929Z" fill="#120024"/>
<path fill-rule="evenodd" clip-rule="evenodd" d="M272 124.444C272.552 124.444 273 124.891 273 125.444V140H287.556C288.109 140 288.556 140.448 288.556 141C288.556 141.552 288.109 142 287.556 142H273V156.556C273 157.109 272.552 157.556 272 157.556C271.448 157.556 271 157.109 271 156.556V142H256.444C255.891 142 255.444 141.552 255.444 141C255.444 140.448 255.891 140 256.444 140H271V125.444C271 124.891 271.448 124.444 272 124.444Z" fill="#120024"/>
<path fill-rule="evenodd" clip-rule="evenodd" d="M322.293 203.293C322.683 202.902 323.316 202.902 323.707 203.293L333 212.586L342.293 203.293C342.683 202.902 343.316 202.902 343.707 203.293C344.098 203.683 344.098 204.317 343.707 204.707L334.414 214L343.707 223.293C344.098 223.683 344.098 224.317 343.707 224.707C343.316 225.098 342.683 225.098 342.293 224.707L333 215.414L323.707 224.707C323.316 225.098 322.683 225.098 322.293 224.707C321.902 224.317 321.902 223.683 322.293 223.293L331.586 214L322.293 204.707C321.902 204.317 321.902 203.683 322.293 203.293Z" fill="#120024"/>
<path fill-rule="evenodd" clip-rule="evenodd" d="M418 46.5147C418.552 46.5147 419 46.9624 419 47.5147V55H426.485C427.037 55 427.485 55.4477 427.485 56C427.485 56.5523 427.037 57 426.485 57H419V64.4853C419 65.0376 418.552 65.4853 418 65.4853C417.448 65.4853 417 65.0376 417 64.4853V57H409.515C408.962 57 408.515 56.5523 408.515 56C408.515 55.4477 408.962 55 409.515 55H417V47.5147C417 46.9624 417.448 46.5147 418 46.5147Z" fill="#120024"/>
<path fill-rule="evenodd" clip-rule="evenodd" d="M963 131.515C963.552 131.515 964 131.962 964 132.515V140H971.485C972.038 140 972.485 140.448 972.485 141C972.485 141.552 972.038 142 971.485 142H964V149.485C964 150.038 963.552 150.485 963 150.485C962.448 150.485 962 150.038 962 149.485V142H954.515C953.962 142 953.515 141.552 953.515 141C953.515 140.448 953.962 140 954.515 140H962V132.515C962 131.962 962.448 131.515 963 131.515Z" fill="#120024"/>
<path fill-rule="evenodd" clip-rule="evenodd" d="M1051.29 69.2929C1051.68 68.9024 1052.32 68.9024 1052.71 69.2929L1058 74.5858L1063.29 69.2929C1063.68 68.9024 1064.32 68.9024 1064.71 69.2929C1065.1 69.6834 1065.1 70.3166 1064.71 70.7071L1059.41 76L1064.71 81.2929C1065.1 81.6834 1065.1 82.3166 1064.71 82.7071C1064.32 83.0976 1063.68 83.0976 1063.29 82.7071L1058 77.4142L1052.71 82.7071C1052.32 83.0976 1051.68 83.0976 1051.29 82.7071C1050.9 82.3166 1050.9 81.6834 1051.29 81.2929L1056.59 76L1051.29 70.7071C1050.9 70.3166 1050.9 69.6834 1051.29 69.2929Z" fill="#120024"/>
<path fill-rule="evenodd" clip-rule="evenodd" d="M1063.77 110C1060.29 110 1057.46 112.828 1057.46 116.322C1057.46 118.271 1058.34 120.013 1059.73 121.174C1060.82 122.092 1062.23 122.644 1063.77 122.644C1067.24 122.644 1070.07 119.816 1070.07 116.322C1070.07 112.828 1067.24 110 1063.77 110ZM1055.46 116.322C1055.46 111.729 1059.18 108 1063.77 108C1068.35 108 1072.07 111.729 1072.07 116.322C1072.07 120.916 1068.35 124.644 1063.77 124.644C1062.1 124.644 1060.55 124.151 1059.25 123.304L1041.35 144.773C1042.24 144.66 1043.11 144.733 1043.96 144.938C1046.45 145.539 1048.86 147.317 1051.05 148.933L1051.14 148.997C1053.45 150.706 1055.54 152.228 1057.58 152.725C1058.56 152.963 1059.49 152.953 1060.43 152.612C1061.37 152.266 1062.39 151.553 1063.48 150.252L1069.86 142.605C1068.42 141.044 1067.54 138.956 1067.54 136.663C1067.54 131.831 1071.44 127.91 1076.27 127.91C1081.09 127.91 1085 131.831 1085 136.663C1085 141.494 1081.09 145.416 1076.27 145.416C1074.45 145.416 1072.77 144.86 1071.37 143.911L1065.01 151.534C1063.76 153.028 1062.47 153.994 1061.11 154.49C1059.75 154.99 1058.4 154.984 1057.1 154.668C1054.64 154.067 1052.25 152.303 1050.07 150.695L1049.95 150.606C1047.64 148.899 1045.54 147.377 1043.49 146.882C1042.5 146.644 1041.55 146.655 1040.61 146.999C1039.65 147.347 1038.62 148.063 1037.52 149.365L1037.52 149.368L1027.95 160.841C1029.21 162.3 1029.98 164.204 1029.98 166.285C1029.98 170.878 1026.26 174.607 1021.67 174.607C1020.13 174.607 1018.68 174.184 1017.45 173.447L991.591 204.46C993.019 205.955 993.898 207.984 993.898 210.217C993.898 214.811 990.184 218.539 985.596 218.539C983.901 218.539 982.323 218.029 981.009 217.154L974.768 224.64C974.414 225.065 973.784 225.122 973.36 224.768C972.935 224.414 972.878 223.784 973.232 223.36L979.489 215.854C978.128 214.372 977.295 212.391 977.295 210.217C977.295 205.624 981.009 201.895 985.596 201.895C987.233 201.895 988.76 202.371 990.046 203.19L1015.86 172.225C1014.33 170.715 1013.37 168.611 1013.37 166.285C1013.37 161.691 1017.09 157.963 1021.67 157.963C1023.46 157.963 1025.12 158.53 1026.47 159.494L1035.99 148.083C1035.99 148.081 1035.99 148.079 1035.99 148.078L1057.71 122.019C1056.32 120.531 1055.46 118.526 1055.46 116.322ZM1076.27 129.91C1072.55 129.91 1069.54 132.931 1069.54 136.663C1069.54 138.707 1070.44 140.538 1071.87 141.778C1073.05 142.799 1074.59 143.416 1076.27 143.416C1079.98 143.416 1083 140.395 1083 136.663C1083 132.931 1079.98 129.91 1076.27 129.91ZM1021.67 159.963C1018.2 159.963 1015.37 162.79 1015.37 166.285C1015.37 168.339 1016.35 170.163 1017.86 171.319C1018.92 172.127 1020.24 172.607 1021.67 172.607C1025.15 172.607 1027.98 169.779 1027.98 166.285C1027.98 164.44 1027.19 162.782 1025.93 161.626C1024.81 160.592 1023.32 159.963 1021.67 159.963ZM985.596 203.895C982.119 203.895 979.295 206.723 979.295 210.217C979.295 212.141 980.15 213.863 981.502 215.023C982.604 215.969 984.033 216.539 985.596 216.539C989.074 216.539 991.898 213.711 991.898 210.217C991.898 208.243 990.997 206.481 989.582 205.32C988.496 204.429 987.11 203.895 985.596 203.895Z" fill="#120024"/>
</svg>
