<svg width="86" height="86" viewBox="0 0 86 86" fill="none" xmlns="http://www.w3.org/2000/svg">
    <style><![CDATA[#object {transform: translate(0, 0);animation: bounds 2000ms ease-in-out infinite;}#shadow {translate: 50% 80px;animation: shadows 2000ms ease-in-out infinite;}@keyframes shadows {0% {transform: scale(1);}50% {transform: scale(0.7);}100% {transform: scale(1);}}@keyframes bounds {0% {transform: translate(0, 0);}50% {transform: translate(0, -16px);}100% {transform: translate(0, 0);}}]]></style>
    <ellipse id="shadow" rx="14" ry="4" fill="black" fill-opacity="0.4"/>
    <g id="object">
        <path d="M23.2917 47.4042C22.9535 47.3844 21.5 46.5137 21.5 43.842C21.5 38.1925 30.3202 33.5668 41.4896 33.1816C40.6489 30.0526 41.3708 27.6038 42.2263 26.1629C42.6183 25.5027 43.4654 25.372 44.1552 25.7148L44.3601 25.8167C45.4539 26.3604 45.8045 27.922 45.361 29.0549C44.8629 30.3275 44.4727 31.8664 44.2065 33.1721C53.0408 33.415 60.4528 36.3088 63.2766 40.2799C64.0689 41.3941 64.5 42.593 64.5 43.842C64.5 46.5137 63.2392 47.3732 62.7083 47.4042C62.7083 59.5535 55.9313 74.3403 44.7917 75.7863L43.6607 76.4211C43.2507 76.6513 42.7493 76.6513 42.3393 76.4211L41.2083 75.7863C39.2821 75.5363 37.4862 74.8873 35.8333 73.922C28.4485 69.6095 23.9168 58.9832 23.3517 49.4115C23.3118 48.7363 23.2917 48.0663 23.2917 47.4042Z" fill="#552713"/>
        <path fill-rule="evenodd" clip-rule="evenodd" d="M21.5 43.842C21.5 46.5136 22.9535 47.3844 23.2917 47.4042C25.171 47.5141 26.9548 47.6104 28.6667 47.6932C40.8273 48.2812 49.3585 48.1848 62.7083 47.4042C63.2392 47.3731 64.5 46.5136 64.5 43.842C64.5 42.593 64.0689 41.3941 63.2766 40.2799C60.4528 36.3088 53.0408 33.415 44.2065 33.1721C44.0693 33.845 43.9651 34.456 43.896 34.9367C43.8793 35.0531 43.6686 35.1196 43.3969 35.1457C42.892 35.1944 42.1765 35.104 42.1043 34.9367C41.8432 34.3308 41.641 33.7451 41.4896 33.1815C30.3202 33.5668 21.5 38.1925 21.5 43.842Z" fill="#774631"/>
        <path d="M44.7915 75.7863C55.9311 74.3403 62.7082 59.5534 62.7082 47.4042C49.3583 48.1848 40.8271 48.2812 28.6665 47.6932C26.9546 47.6104 25.1708 47.5141 23.2915 47.4042C23.2915 48.0663 23.3116 48.7363 23.3515 49.4115C25.2089 49.5199 26.973 49.6151 28.6667 49.697C37.3919 50.1188 44.2486 50.1884 52.3573 49.9057C57.063 49.7417 60.5422 54.2375 58.3763 58.3937C53.7994 67.1765 46.226 75.7804 35.8332 73.922C37.4861 74.8873 39.2819 75.5362 41.2082 75.7863L42.3392 76.4211C42.7492 76.6513 43.2505 76.6513 43.6605 76.4211L44.7915 75.7863Z" fill="#3A1708"/>
        <path d="M21.5 43.842C21.5 46.5137 22.9535 47.3844 23.2917 47.4042C25.171 47.5141 26.9548 47.6104 28.6667 47.6932C40.8273 48.2812 49.3585 48.1849 62.7083 47.4042C63.2392 47.3731 64.5 46.5137 64.5 43.842C64.5 42.593 64.0689 41.3941 63.2766 40.2799C63.2365 42.2094 61.5438 46.0685 55.0938 46.0685C53.8282 46.0685 52.2149 46.0904 50.3813 46.1153C40.534 46.2493 24.332 46.4696 21.5 43.842Z" fill="#66341E"/>
        <path d="M45.361 29.0549C45.8044 27.9219 45.4539 26.3603 44.3601 25.8167C44.6769 26.2959 45.0793 28.0226 44.1552 31.0955C43.231 34.1684 43.2646 35.076 43.3969 35.1457C43.6686 35.1195 43.8793 35.053 43.896 34.9366C43.9651 34.4559 44.0693 33.8449 44.2065 33.1721C44.4727 31.8663 44.8629 30.3274 45.361 29.0549Z" fill="#3A1708"/>
        <path fill-rule="evenodd" clip-rule="evenodd" d="M30.4582 42.0611C30.4582 43.0447 28.7602 44.7327 27.7707 44.7327C26.7812 44.7327 25.979 43.9353 25.979 42.9516C25.979 41.9679 27.677 40.28 28.6665 40.28C29.656 40.28 30.4582 41.0774 30.4582 42.0611ZM32.2498 40.28C32.7446 40.28 33.1457 39.8813 33.1457 39.3894C33.1457 38.8976 32.7446 38.4989 32.2498 38.4989C31.7551 38.4989 30.4582 38.8976 30.4582 39.3894C30.4582 39.8813 31.7551 40.28 32.2498 40.28Z" fill="#684333"/>
        <path d="M33.1457 39.3894C33.1457 39.8813 32.7446 40.28 32.2498 40.28C31.7551 40.28 30.4582 39.8813 30.4582 39.3894C30.4582 38.8976 31.7551 38.4989 32.2498 38.4989C32.7446 38.4989 33.1457 38.8976 33.1457 39.3894Z" fill="#B17459"/>
        <path d="M30.4582 42.0611C30.4582 43.0447 28.7602 44.7327 27.7707 44.7327C26.7812 44.7327 25.979 43.9353 25.979 42.9516C25.979 41.9679 27.677 40.28 28.6665 40.28C29.656 40.28 30.4582 41.0774 30.4582 42.0611Z" fill="#B17459"/>
        <path fill-rule="evenodd" clip-rule="evenodd" d="M33.1457 39.3894C33.1457 39.8813 32.7446 40.28 32.2498 40.28C31.7551 40.28 30.4582 39.8813 30.4582 39.3894C30.4582 38.8976 31.7551 38.4989 32.2498 38.4989C32.7446 38.4989 33.1457 38.8976 33.1457 39.3894ZM30.4582 42.0611C30.4582 43.0447 28.7602 44.7327 27.7707 44.7327C26.7812 44.7327 25.979 43.9353 25.979 42.9516C25.979 41.9679 27.677 40.28 28.6665 40.28C29.656 40.28 30.4582 41.0774 30.4582 42.0611Z" fill="#B17459"/>
    </g>
</svg>
