<svg width="300" height="650" viewBox="0 0 300 650" fill="none" xmlns="http://www.w3.org/2000/svg">
<rect width="300" height="650" fill="#6D85DA"/>
<path class="gear1" fill-rule="evenodd" clip-rule="evenodd" d="M45.814 9.01077L41.2101 14.388C40.7074 14.9753 40.0386 15.3965 39.2918 15.5962L33.7654 17.0744C33.0226 17.2731 32.2371 17.2434 31.5114 16.9892L24.8027 14.6396L18.006 19.8549L18.5529 26.9126C18.6126 27.6833 18.4375 28.4541 18.0507 29.1233L15.1882 34.0763C14.8035 34.7421 14.2271 35.2765 13.5342 35.61L7.12899 38.6923L6.01077 47.186L11.388 51.7899C11.9752 52.2926 12.3964 52.9614 12.5961 53.7082L14.0743 59.2346C14.273 59.9774 14.2434 60.7629 13.9892 61.4886L11.6396 68.1973L16.8549 74.994L23.9125 74.4471C24.6832 74.3874 25.454 74.5625 26.1233 74.9493L31.0763 77.8118C31.742 78.1965 32.2765 78.7729 32.6099 79.4658L35.6922 85.871L44.186 86.9892L48.7898 81.612C49.2926 81.0248 49.9613 80.6036 50.7081 80.4039L56.2345 78.9257C56.9773 78.727 57.7628 78.7566 58.4885 79.0108L65.1973 81.3604L71.9939 76.1451L71.4471 69.0875C71.3873 68.3167 71.5624 67.546 71.9492 66.8767L74.8117 61.9237C75.1965 61.258 75.7728 60.7235 76.4658 60.3901L82.871 57.3078L83.9892 48.814L78.612 44.2102C78.0248 43.7074 77.6035 43.0387 77.4038 42.2919L75.9256 36.7655C75.7269 36.0227 75.7566 35.2372 76.0107 34.5114L78.3604 27.8027L73.1451 21.006L66.0874 21.5529C65.3167 21.6127 64.5459 21.4376 63.8766 21.0508L58.9237 18.1883C58.2579 17.8035 57.7235 17.2271 57.39 16.5342L54.3077 10.129L45.814 9.01077ZM75.5163 52.0175C73.2974 68.8712 57.8361 80.7351 40.9825 78.5162C24.1288 76.2974 12.265 60.8361 14.4838 43.9825C16.7026 27.1288 32.1639 15.2649 49.0176 17.4838C65.8712 19.7026 77.7351 35.1639 75.5163 52.0175ZM54.6614 8.15829L45.9822 7.01566C45.3695 6.935 44.7576 7.16947 44.3557 7.6389L39.6909 13.0873C39.4508 13.3677 39.1315 13.5688 38.775 13.6641L33.2487 15.1423C32.894 15.2372 32.519 15.223 32.1725 15.1017L25.3757 12.7211C24.7938 12.5173 24.1484 12.6207 23.6593 12.996L16.7142 18.3252C16.224 18.7014 15.957 19.2999 16.0048 19.916L16.5589 27.0671C16.5874 27.4351 16.5038 27.803 16.3191 28.1226L13.4566 33.0756C13.2729 33.3934 12.9977 33.6486 12.6669 33.8078L6.17759 36.9306C5.62204 37.1979 5.23877 37.7274 5.15829 38.3386L4.01566 47.0178C3.935 47.6305 4.16947 48.2424 4.63889 48.6443L10.0873 53.3091C10.3676 53.5492 10.5687 53.8685 10.6641 54.225L12.1423 59.7513C12.2371 60.106 12.223 60.481 12.1016 60.8275L9.72113 67.6243C9.51734 68.2062 9.6207 68.8516 9.99602 69.3407L15.3252 76.2858C15.7014 76.776 16.2999 77.043 16.916 76.9952L24.067 76.4412C24.435 76.4126 24.803 76.4962 25.1225 76.6809L30.0755 79.5434C30.3934 79.7271 30.6485 80.0023 30.8077 80.3331L33.9306 86.8224C34.1979 87.378 34.7274 87.7612 35.3386 87.8417L44.0178 88.9843C44.6305 89.065 45.2424 88.8305 45.6443 88.3611L50.3091 82.9128C50.5491 82.6324 50.8684 82.4313 51.2249 82.3359L56.7513 80.8577C57.1059 80.7629 57.481 80.777 57.8274 80.8984L64.6243 83.2789C65.2062 83.4827 65.8516 83.3793 66.3407 83.004L73.2858 77.6749C73.776 77.2987 74.043 76.7001 73.9952 76.084L73.4411 68.933C73.4126 68.565 73.4962 68.197 73.6808 67.8775L76.5433 62.9245C76.727 62.6066 77.0022 62.3515 77.333 62.1923L83.8224 59.0694C84.378 58.8021 84.7612 58.2726 84.8417 57.6614L85.9843 48.9822C86.065 48.3695 85.8305 47.7576 85.3611 47.3557L79.9127 42.6909C79.6323 42.4509 79.4312 42.1316 79.3359 41.7751L77.8577 36.2487C77.7628 35.8941 77.777 35.519 77.8983 35.1725L80.2789 28.3757C80.4827 27.7938 80.3793 27.1484 80.004 26.6593L74.6749 19.7142C74.2987 19.224 73.7001 18.9571 73.084 19.0048L65.9329 19.5589C65.5649 19.5874 65.1969 19.5038 64.8774 19.3192L59.9244 16.4567C59.6066 16.273 59.3514 15.9978 59.1922 15.667L56.0694 9.17759C55.8021 8.62204 55.2726 8.23876 54.6614 8.15829ZM73.5334 51.7565C71.4587 67.515 57.0021 78.608 41.2435 76.5333C25.485 74.4587 14.392 60.002 16.4667 44.2435C18.5413 28.485 32.998 17.392 48.7565 19.4667C64.515 21.5413 75.608 35.998 73.5334 51.7565Z" fill="#CAD6FF"/>
<path fill-rule="evenodd" clip-rule="evenodd" d="M128.533 64.0769L139.586 66.5042C140.365 66.6752 141.004 67.2271 141.288 67.9721L144.595 76.6741C144.764 77.1177 145.062 77.5003 145.451 77.7719L151.516 82.004C151.907 82.2771 152.372 82.4252 152.849 82.429L162.12 82.5027C162.919 82.509 163.66 82.9187 164.091 83.5916L170.19 93.1234C170.62 93.7947 170.682 94.6374 170.355 95.3644L166.541 103.857C166.346 104.289 166.287 104.771 166.37 105.238L167.665 112.519C167.749 112.988 167.973 113.422 168.308 113.762L174.811 120.37C175.372 120.939 175.606 121.753 175.435 122.533L173.008 133.586C172.837 134.365 172.285 135.005 171.54 135.288L162.838 138.595C162.394 138.764 162.012 139.062 161.74 139.451L157.508 145.516C157.235 145.907 157.087 146.372 157.083 146.849L157.009 156.12C157.003 156.919 156.593 157.661 155.92 158.091L146.389 164.19C145.717 164.62 144.875 164.682 144.148 164.355L135.655 160.541C135.223 160.347 134.741 160.287 134.274 160.37L126.993 161.666C126.524 161.749 126.09 161.973 125.75 162.308L119.142 168.812C118.573 169.372 117.759 169.607 116.979 169.435L105.926 167.008C105.147 166.837 104.508 166.285 104.224 165.54L100.917 156.838C100.748 156.394 100.45 156.012 100.061 155.74L93.9964 151.508C93.6051 151.235 93.1404 151.087 92.6633 151.083L83.3918 151.009C82.593 151.003 81.8515 150.593 81.421 149.921L75.3218 140.389C74.8922 139.717 74.8302 138.875 75.1567 138.148L78.971 129.656C79.1655 129.223 79.225 128.741 79.1419 128.274L77.8464 120.993C77.7628 120.524 77.539 120.09 77.2043 119.75L70.7005 113.142C70.1402 112.573 69.9055 111.759 70.0769 110.979L72.5042 99.9258C72.6751 99.1473 73.2271 98.5076 73.972 98.2245L82.674 94.9168C83.1176 94.7482 83.5001 94.4499 83.7718 94.0607L88.0039 87.9965C88.2769 87.6053 88.4251 87.1405 88.4289 86.6634L88.5026 77.3919C88.5089 76.5931 88.9186 75.8516 89.5915 75.421L99.1234 69.3218C99.7947 68.8923 100.637 68.8302 101.364 69.1568L109.856 72.9712C110.289 73.1656 110.771 73.2252 111.238 73.142L118.519 71.8466C118.988 71.763 119.422 71.5391 119.762 71.2045L126.37 64.7006C126.939 64.1402 127.753 63.9056 128.533 64.0769ZM114.776 153.093C134.845 157.5 154.686 144.804 159.093 124.736C163.5 104.668 150.804 84.8262 130.736 80.4191C110.667 76.012 90.8262 88.7079 86.4191 108.776C82.0119 128.845 94.7079 148.686 114.776 153.093Z" fill="#CAD6FF"/>
<path d="M286.793 147.533C286.793 150.058 284.709 152.105 282.138 152.105C279.567 152.105 277.483 150.058 277.483 147.533C277.483 145.009 279.567 142.962 282.138 142.962C284.709 142.962 286.793 145.009 286.793 147.533Z" fill="white"/>
<path fill-rule="evenodd" clip-rule="evenodd" d="M240.241 139C239.556 139 239 139.546 239 140.219V161.705L247.984 147.491C248.974 145.925 251.307 145.962 252.244 147.56L258.086 157.514L260.497 153.964C261.486 152.507 263.669 152.518 264.643 153.985L275.931 171H291.759C292.444 171 293 170.454 293 169.781V140.219C293 139.546 292.444 139 291.759 139H240.241ZM282.138 152.105C284.709 152.105 286.793 150.058 286.793 147.533C286.793 145.009 284.709 142.962 282.138 142.962C279.567 142.962 277.483 145.009 277.483 147.533C277.483 150.058 279.567 152.105 282.138 152.105Z" fill="#CAD6FF"/>
<path d="M258.086 157.514L266 171H275.931L264.643 153.985C263.669 152.518 261.486 152.507 260.497 153.964L258.086 157.514Z" fill="#7D9AFF"/>
<path d="M239 169.781C239 170.454 239.556 171 240.241 171H266L258.086 157.514L252.244 147.56C251.307 145.962 248.974 145.925 247.984 147.491L239 161.705V169.781Z" fill="#9DB3FF"/>
<path d="M239 177C239 175.895 239.895 175 241 175H267C268.105 175 269 175.895 269 177C269 178.105 268.105 179 267 179H241C239.895 179 239 178.105 239 177Z" fill="#CAD6FF"/>
<path d="M239 183C239 181.895 239.895 181 241 181H271C272.105 181 273 181.895 273 183C273 184.105 272.105 185 271 185H241C239.895 185 239 184.105 239 183Z" fill="#CAD6FF"/>
<path d="M275 183C275 181.895 275.895 181 277 181H278C279.105 181 280 181.895 280 183C280 184.105 279.105 185 278 185H277C275.895 185 275 184.105 275 183Z" fill="#CAD6FF"/>
<path d="M282 183C282 181.895 282.895 181 284 181H291C292.105 181 293 181.895 293 183C293 184.105 292.105 185 291 185H284C282.895 185 282 184.105 282 183Z" fill="#CAD6FF"/>
<path d="M272 177C272 175.895 272.895 175 274 175H291C292.105 175 293 175.895 293 177C293 178.105 292.105 179 291 179H274C272.895 179 272 178.105 272 177Z" fill="#CAD6FF"/>
<path d="M239 189C239 187.895 239.895 187 241 187H251C252.105 187 253 187.895 253 189C253 190.105 252.105 191 251 191H241C239.895 191 239 190.105 239 189Z" fill="#CAD6FF"/>
<path d="M255 189C255 187.895 255.895 187 257 187H260C261.105 187 262 187.895 262 189C262 190.105 261.105 191 260 191H257C255.895 191 255 190.105 255 189Z" fill="#CAD6FF"/>
<path d="M264 189C264 187.895 264.895 187 266 187H276C277.105 187 278 187.895 278 189C278 190.105 277.105 191 276 191H266C264.895 191 264 190.105 264 189Z" fill="#CAD6FF"/>
<path d="M280 189C280 187.895 280.895 187 282 187H291C292.105 187 293 187.895 293 189C293 190.105 292.105 191 291 191H282C280.895 191 280 190.105 280 189Z" fill="#CAD6FF"/>
<path d="M189 18.5C189 21.5376 186.538 24 183.5 24C180.462 24 178 21.5376 178 18.5C178 15.4624 180.462 13 183.5 13C186.538 13 189 15.4624 189 18.5Z" fill="#CAD6FF" fill-opacity="0.5"/>
<path d="M45 178C45 180.209 43.2091 182 41 182C38.7909 182 37 180.209 37 178C37 175.791 38.7909 174 41 174C43.2091 174 45 175.791 45 178Z" fill="#CAD6FF" fill-opacity="0.5"/>
<path d="M232 105C232 108.314 229.314 111 226 111C222.686 111 220 108.314 220 105C220 101.686 222.686 99 226 99C229.314 99 232 101.686 232 105Z" fill="#CAD6FF" fill-opacity="0.5"/>
<path d="M290 244C290 246.761 287.761 249 285 249C282.239 249 280 246.761 280 244C280 241.239 282.239 239 285 239C287.761 239 290 241.239 290 244Z" fill="#CAD6FF" fill-opacity="0.5"/>
<path d="M14 297.5C14 299.433 12.433 301 10.5 301C8.567 301 7 299.433 7 297.5C7 295.567 8.567 294 10.5 294C12.433 294 14 295.567 14 297.5Z" fill="#CAD6FF" fill-opacity="0.5"/>
<path fill-rule="evenodd" clip-rule="evenodd" d="M69.261 217C64.6986 217 61.0001 220.692 61.0001 225.246V584.754C61.0001 589.308 64.6986 593 69.261 593H242.739C247.302 593 251 589.308 251 584.754V225.246C251 220.692 247.302 217 242.739 217H69.261ZM247.696 578.158V231.842C247.696 227.288 243.997 223.596 239.435 223.596H190.696V230.193C190.696 233.836 187.737 236.789 184.087 236.789H127.087C123.437 236.789 120.478 233.836 120.478 230.193V223.596H72.5653C68.003 223.596 64.3044 227.288 64.3044 231.842V578.158C64.3044 582.712 68.0029 586.404 72.5653 586.404H239.435C243.997 586.404 247.696 582.712 247.696 578.158Z" fill="#121212"/>
<path d="M247.696 231.842V578.158C247.696 582.712 243.997 586.404 239.435 586.404H72.5653C68.0029 586.404 64.3044 582.712 64.3044 578.158V231.842C64.3044 227.288 68.003 223.596 72.5653 223.596H120.478V230.193C120.478 233.836 123.437 236.789 127.087 236.789H184.087C187.737 236.789 190.696 233.836 190.696 230.193V223.596H239.435C243.997 223.596 247.696 227.288 247.696 231.842Z" fill="#5168BB"/>
<path d="M184.087 228.544C184.087 230.365 182.608 231.842 180.783 231.842C178.958 231.842 177.478 230.365 177.478 228.544C177.478 226.722 178.958 225.246 180.783 225.246C182.608 225.246 184.087 226.722 184.087 228.544Z" fill="#252525"/>
<path d="M172.522 228.544C172.522 229.91 171.412 231.018 170.044 231.018C168.675 231.018 167.565 229.91 167.565 228.544C167.565 227.178 168.675 226.07 170.044 226.07C171.412 226.07 172.522 227.178 172.522 228.544Z" fill="#252525"/>
<path d="M180.783 227.719C180.783 228.175 180.413 228.544 179.957 228.544C179.5 228.544 179.131 228.175 179.131 227.719C179.131 227.264 179.5 226.895 179.957 226.895C180.413 226.895 180.783 227.264 180.783 227.719Z" fill="#535353"/>
<path d="M241.725 596H70.2753C69.4286 596 68.5853 596.108 67.7657 596.32L57.1818 599.064C54.9087 599.653 55.3355 603 57.6837 603H254.316C256.665 603 257.091 599.653 254.818 599.064L244.234 596.32C243.415 596.108 242.572 596 241.725 596Z" fill="#5A75D6"/>
<path d="M74.0001 396C74.0001 392.686 76.6864 390 80.0001 390H158C161.314 390 164 392.686 164 396C164 399.314 161.314 402 158 402H80.0001C76.6864 402 74.0001 399.314 74.0001 396Z" fill="#CAD6FF"/>
<path d="M74.0001 412C74.0001 408.686 76.6864 406 80.0001 406H232C235.314 406 238 408.686 238 412C238 415.314 235.314 418 232 418H80.0001C76.6864 418 74.0001 415.314 74.0001 412Z" fill="#CAD6FF"/>
<path d="M219.15 271.4C219.15 279.211 212.82 285.543 205.012 285.543C197.203 285.543 190.874 279.211 190.874 271.4C190.874 263.589 197.203 257.257 205.012 257.257C212.82 257.257 219.15 263.589 219.15 271.4Z" fill="white"/>
<path fill-rule="evenodd" clip-rule="evenodd" d="M77.7702 245C75.6881 245 74.0001 246.689 74.0001 248.771V315.243L101.285 271.269C104.291 266.424 111.378 266.54 114.224 271.481L131.966 302.279L139.286 291.294C142.29 286.787 148.922 286.822 151.878 291.361L186.161 344H234.23C236.312 344 238 342.311 238 340.229V248.771C238 246.689 236.312 245 234.23 245H77.7702ZM205.012 285.543C212.82 285.543 219.15 279.211 219.15 271.4C219.15 263.589 212.82 257.257 205.012 257.257C197.203 257.257 190.874 263.589 190.874 271.4C190.874 279.211 197.203 285.543 205.012 285.543Z" fill="#CAD6FF"/>
<path d="M131.966 302.279L156 344H186.161L151.878 291.361C148.922 286.822 142.29 286.787 139.286 291.294L131.966 302.279Z" fill="#7D9AFF"/>
<path d="M74.0001 340.229C74.0001 342.311 75.6881 344 77.7702 344H156L131.966 302.279L114.224 271.481C111.378 266.54 104.291 266.424 101.285 271.269L74.0001 315.243V340.229Z" fill="#9DB3FF"/>
<path fill-rule="evenodd" clip-rule="evenodd" d="M80.9552 377.932L81.0846 376.941C81.3838 376.98 81.6894 377 82.0001 377H82.9446V378H82.0001C81.646 378 81.2972 377.977 80.9552 377.932ZM115.056 378V377H116C116.311 377 116.616 376.98 116.916 376.941L117.045 377.932C116.703 377.977 116.354 378 116 378H115.056ZM119.062 377.393L118.679 376.469C119.248 376.233 119.779 375.925 120.261 375.554L120.87 376.347C120.32 376.77 119.713 377.123 119.062 377.393ZM122.347 374.87L121.554 374.261C121.925 373.779 122.234 373.248 122.469 372.679L123.393 373.062C123.123 373.713 122.77 374.32 122.347 374.87ZM124 360.833H123V360C123 359.689 122.98 359.384 122.941 359.084L123.933 358.955C123.977 359.297 124 359.646 124 360V360.833ZM123.393 356.938L122.469 357.321C122.234 356.752 121.925 356.221 121.554 355.739L122.347 355.13C122.77 355.68 123.123 356.287 123.393 356.938ZM120.87 353.653L120.261 354.446C119.779 354.075 119.248 353.767 118.679 353.531L119.062 352.607C119.713 352.877 120.32 353.23 120.87 353.653ZM82.9446 352H82.0001C81.646 352 81.2972 352.023 80.9552 352.068L81.0846 353.059C81.3838 353.02 81.6894 353 82.0001 353H82.9446V352ZM78.9378 352.607L79.3209 353.531C78.7523 353.767 78.2212 354.075 77.7392 354.446L77.1299 353.653C77.6803 353.23 78.2874 352.877 78.9378 352.607ZM75.6529 355.13L76.4458 355.739C76.0755 356.221 75.7667 356.752 75.5309 357.321L74.6072 356.938C74.8769 356.287 75.2299 355.68 75.6529 355.13ZM74.0001 369.167H75.0001V370C75.0001 370.311 75.0203 370.616 75.0593 370.916L74.0677 371.045C74.0231 370.703 74.0001 370.354 74.0001 370V369.167ZM74.6072 373.062L75.5309 372.679C75.7667 373.248 76.0755 373.779 76.4458 374.261L75.6529 374.87C75.2299 374.32 74.8769 373.713 74.6072 373.062ZM78.9378 377.393L79.3209 376.469C78.7523 376.233 78.2212 375.925 77.7392 375.554L77.1298 376.347C77.6803 376.77 78.2874 377.123 78.9378 377.393ZM74.0001 367.5H75.0001V365.833H74.0001V367.5ZM74.0001 364.167H75.0001V362.5H74.0001V364.167ZM74.0001 360.833H75.0001V360C75.0001 359.689 75.0203 359.384 75.0593 359.084L74.0677 358.955C74.0231 359.297 74.0001 359.646 74.0001 360V360.833ZM84.8335 352V353H86.7223V352H84.8335ZM88.6112 352V353H90.5001V352H88.6112ZM92.389 352V353H94.2779V352H92.389ZM96.1668 352V353H98.0557V352H96.1668ZM99.9446 352V353H101.833V352H99.9446ZM103.722 352V353H105.611V352H103.722ZM107.5 352V353H109.389V352H107.5ZM111.278 352V353H113.167V352H111.278ZM115.056 352V353H116C116.311 353 116.616 353.02 116.916 353.059L117.045 352.068C116.703 352.023 116.354 352 116 352H115.056ZM124 362.5H123V364.167H124V362.5ZM124 365.833H123V367.5H124V365.833ZM124 369.167H123V370C123 370.311 122.98 370.616 122.941 370.916L123.933 371.045C123.977 370.703 124 370.354 124 370V369.167ZM113.167 378V377H111.278V378H113.167ZM109.389 378V377H107.5V378H109.389ZM105.611 378V377H103.722V378H105.611ZM101.833 378V377H99.9446V378H101.833ZM98.0557 378V377H96.1668V378H98.0557ZM94.2779 378V377H92.389V378H94.2779ZM90.5001 378V377H88.6112V378H90.5001ZM86.7223 378V377H84.8335V378H86.7223Z" fill="#9DB3FF"/>
<path fill-rule="evenodd" clip-rule="evenodd" d="M196 352C191.582 352 188 355.582 188 360V367C188 371.418 191.582 375 196 375H230C234.418 375 238 371.418 238 367V360C238 355.582 234.418 352 230 352H196Z" fill="#7D9AFF"/>
<path d="M238 370V367C238 371.418 234.418 375 230 375H196C191.582 375 188 371.418 188 367V370C188 374.418 191.582 378 196 378H230C234.418 378 238 374.418 238 370Z" fill="#6D8DFF"/>
<path d="M209 363V358.618C209 357.875 209.782 357.391 210.447 357.724L219.211 362.106C219.948 362.474 219.948 363.526 219.211 363.894L210.447 368.276C209.782 368.609 209 368.125 209 367.382V363Z" fill="white"/>
<path d="M137 68.5V75L143.5 68.5H137Z" fill="#292929"/>
<path fill-rule="evenodd" clip-rule="evenodd" d="M143.5 68.5L171 41H173H205L177.5 68.5H143.5Z" fill="#D8CA54"/>
<path d="M137 75H171L177.5 68.5H143.5L137 75Z" fill="#CBBE46"/>
<path d="M171 75H205L211.5 68.5H177.5L171 75Z" fill="#292929"/>
<path fill-rule="evenodd" clip-rule="evenodd" d="M211.5 68.5L239 41H273L245.5 68.5H211.5Z" fill="#D8CA54"/>
<path d="M205 75H239L245.5 68.5H211.5L205 75Z" fill="#CBBE46"/>
<path d="M239 75H273L279.5 68.5H245.5L239 75Z" fill="#292929"/>
<path d="M291 0L171 41H173L293 0H291Z" fill="#747474"/>
<path d="M151 135.995C151 135.998 151.002 136 151.005 136H160.939H161.059C161.579 136 162 135.579 162 135.059C161.059 136 150.889 136 150 135.056C150 135.575 150.42 135.995 150.939 135.995H151Z" fill="#C8C8C8"/>
<path d="M169.132 163.021C169.955 162.198 170.602 160.466 170.809 158.5C170.535 160.071 169.102 162.628 165.594 164.313L165.863 164.863L166.132 165.414C167.198 164.745 168.205 163.948 169.132 163.021Z" fill="#BFBFBF"/>
<path d="M170.844 156.229C170.667 153.941 168.573 154.806 167.766 156.954C167.414 157.893 166.889 158.779 166.132 159.536C165.493 160.175 164.794 160.719 164.055 161.168L165.594 164.313C169.102 162.628 170.535 160.071 170.809 158.5C170.887 157.764 170.903 156.995 170.844 156.229Z" fill="#CACACA"/>
<path fill-rule="evenodd" clip-rule="evenodd" d="M152.576 143.979C148.28 148.275 146.28 155.24 150.576 159.536L147.512 162.979C143.634 159.754 143 154.975 143 154C143 152.5 143.04 143.979 152.576 143.979ZM149.585 164.36C151.477 165.354 153.9 166.288 157 166.288C159.456 166.288 161.512 165.698 163.223 165.206L162 162.138C158.837 163.246 155.269 162.867 152.384 161L149.585 164.36Z" fill="#CACACA"/>
<path fill-rule="evenodd" clip-rule="evenodd" d="M146.413 164.213C145.957 163.843 145.515 163.446 145.091 163.021C138.452 156.382 140.452 145.618 147.091 138.979C148.309 137.761 149.555 136.766 151 135.995C151 135.998 151.002 136 151.005 136H160.939C158.716 137.823 154.892 141.657 153.052 143.502C152.874 143.681 152.714 143.841 152.576 143.979C143.04 143.979 143 152.5 143 154C143 154.975 143.634 159.754 147.512 162.979L146.963 163.596L146.413 164.213ZM148.5 165.662C153.173 168.411 158.877 168.736 163.794 166.637L163.508 165.921L163.223 165.206C161.512 165.698 159.456 166.288 157 166.288C153.9 166.288 151.477 165.354 149.585 164.36L149.042 165.011L148.5 165.662Z" fill="#BFBFBF"/>
<path fill-rule="evenodd" clip-rule="evenodd" d="M161 132V124C161 121.581 159.282 119.563 157 119.1V121.268C157.598 121.613 158 122.26 158 123C158 124.105 157.105 125 156 125C154.895 125 154 124.105 154 123C154 122.26 154.402 121.613 155 121.268V119.1C152.718 119.563 151 121.581 151 124V132C152 133 160 133 161 132Z" fill="#CACACA"/>
<path d="M151 134.117H161V132C160 133 152 133 151 132V134.117Z" fill="#C2C2C2"/>
<path fill-rule="evenodd" clip-rule="evenodd" d="M155 119.1V76C155 75.4477 155.448 75 156 75C156.552 75 157 75.4477 157 76V119.1V121.268C156.582 121.929 155.428 121.934 155 121.268V119.1Z" fill="#4B4B4B"/>
<path d="M155.732 122H156.268C156.672 122 157 121.672 157 121.268C156.582 121.929 155.428 121.934 155 121.268C155 121.672 155.328 122 155.732 122Z" fill="#3C3C3C"/>
<path fill-rule="evenodd" clip-rule="evenodd" d="M146.963 163.596C146.963 164.5 148 165 149.042 165.011L149.585 164.36L152.384 161C153 160 151.5 159 150.576 159.536L147.512 162.979L146.963 163.596Z" fill="#4B4B4B"/>
<path d="M146.413 164.213C146.286 164.564 146.383 164.89 146.608 165.149C146.839 165.418 147.205 165.616 147.596 165.699C147.899 165.763 148.218 165.758 148.5 165.662L149.042 165.011C148 165 146.963 164.5 146.963 163.596L146.413 164.213Z" fill="#3C3C3C"/>
<path fill-rule="evenodd" clip-rule="evenodd" d="M162 162.138C162 161 163.5 160.5 164.055 161.168L165.594 164.313L165.863 164.863C165.948 165.921 164.394 166.511 163.508 165.921L163.223 165.206L162 162.138Z" fill="#4B4B4B"/>
<path d="M163.794 166.637C164.07 166.975 164.546 167.027 165 166.9C165.371 166.796 165.727 166.573 165.948 166.288C166.148 166.032 166.238 165.726 166.132 165.414L165.863 164.863C165.948 165.921 164.394 166.511 163.508 165.921L163.794 166.637Z" fill="#3C3C3C"/>
<path fill-rule="evenodd" clip-rule="evenodd" d="M146.897 166.177L72.6083 216.926C72.5378 216.974 72.4543 217 72.3689 217C71.952 217 71.7851 216.462 72.129 216.226L146 165.566C146.241 165.906 146.398 166.076 146.897 166.177Z" fill="#363636"/>
<path d="M147.596 165.699C147.205 165.616 146.839 165.418 146.608 165.149L146 165.566C146.241 165.906 146.398 166.076 146.897 166.177L147.596 165.699Z" fill="#272727"/>
<path fill-rule="evenodd" clip-rule="evenodd" d="M166.521 166.675C166.511 166.689 166.5 166.703 166.49 166.716C166.27 167.014 166.138 167.193 165.674 167.353L239.394 216.929C239.463 216.975 239.545 217 239.628 217C240.042 217 240.207 216.464 239.863 216.232L166.521 166.675Z" fill="#363636"/>
<path d="M165.948 166.288C165.727 166.573 165.371 166.796 165 166.9L165.674 167.353C166.138 167.193 166.27 167.014 166.49 166.716L166.521 166.675L165.948 166.288Z" fill="#272727"/>
<path d="M151 134.117H150.939C150.42 134.117 150 134.538 150 135.056C150.889 136 161.059 136 162 135.059C162 134.539 161.579 134.117 161.059 134.117H161H151Z" fill="#D2D2D2"/>
<path fill-rule="evenodd" clip-rule="evenodd" d="M300 48L279.5 68.5H300V48Z" fill="#D8CA54"/>
<path fill-rule="evenodd" clip-rule="evenodd" d="M147 41H171L143.5 68.5H137V51C137 45.4772 141.477 41 147 41ZM177.5 68.5H211.5L239 41H205L177.5 68.5ZM279.5 68.5H245.5L273 41H300V48L279.5 68.5Z" fill="#3A3A3A"/>
<path fill-rule="evenodd" clip-rule="evenodd" d="M300 75H273L279.5 68.5H300V75Z" fill="#CBBE46"/>
<path d="M7 408H1V409V410H7V409V408Z" fill="#2F2F2F"/>
<path fill-rule="evenodd" clip-rule="evenodd" d="M17 408C24.732 408 31 401.732 31 394C31 390.083 29.3911 386.541 26.798 384C24.2729 381.526 20.8146 380 17 380C13.1854 380 9.72711 381.526 7.20203 384C4.60893 386.541 3 390.083 3 394C3 401.732 9.26801 408 17 408ZM17 399C19.7614 399 22 396.761 22 394C22 391.239 19.7614 389 17 389C14.2386 389 12 391.239 12 394C12 396.761 14.2386 399 17 399Z" fill="#505050"/>
<path d="M22 394C22 396.761 19.7614 399 17 399C14.2386 399 12 396.761 12 394C12 391.239 14.2386 389 17 389C19.7614 389 22 391.239 22 394Z" fill="#3C3C3C"/>
<path d="M17.5 380H17C20.8146 380 24.2729 381.526 26.798 384H65.202C67.7271 381.526 71.1854 380 75 380H73H71H65H63H57H55H49H47H41H39H33H31H25H23H17.5Z" fill="#0F0F0F"/>
<path d="M79 380H75C78.8146 380 82.2729 381.526 84.798 384H123.202C125.727 381.526 129.185 380 133 380H129H127H121H119H113H111H105H103H97H95H89H87H81H79Z" fill="#0F0F0F"/>
<path d="M137.942 378.368L143.138 381.368L142.638 382.234L142.138 383.1L136.942 380.1L137.442 379.234L137.942 378.368Z" fill="#2F2F2F"/>
<path d="M73 408H75C67.268 408 61 401.732 61 394C61 390.083 62.6089 386.541 65.202 384H26.798C29.3911 386.541 31 390.083 31 394C31 401.732 24.732 408 17 408H17.5H23H25H31H33H39H41H47H49H55H57H63H65H71H73Z" fill="#1B1B1B"/>
<path fill-rule="evenodd" clip-rule="evenodd" d="M75 408C82.732 408 89 401.732 89 394C89 390.083 87.3911 386.541 84.798 384C82.2729 381.526 78.8146 380 75 380C71.1854 380 67.7271 381.526 65.202 384C62.6089 386.541 61 390.083 61 394C61 401.732 67.268 408 75 408ZM75 399C77.7614 399 80 396.761 80 394C80 393.831 79.9916 393.664 79.9753 393.5C79.7244 390.973 77.5927 389 75 389C72.4073 389 70.2756 390.973 70.0247 393.5C70.0084 393.664 70 393.831 70 394C70 396.761 72.2386 399 75 399Z" fill="#505050"/>
<path d="M129 408H133C125.268 408 119 401.732 119 394C119 390.083 120.609 386.541 123.202 384H84.798C87.3911 386.541 89 390.083 89 394C89 401.732 82.732 408 75 408H79H81H87H89H95H97H103H105H111H113H119H121H127H129Z" fill="#1B1B1B"/>
<path d="M138 394C138 396.761 135.761 399 133 399C130.239 399 128 396.761 128 394C128 391.239 130.239 389 133 389C135.761 389 138 391.239 138 394Z" fill="#3C3C3C"/>
<path fill-rule="evenodd" clip-rule="evenodd" d="M133 408C140.732 408 147 401.732 147 394C147 386.268 140.732 380 133 380C129.185 380 125.727 381.526 123.202 384C120.609 386.541 119 390.083 119 394C119 401.732 125.268 408 133 408ZM133 399C135.761 399 138 396.761 138 394C138 391.239 135.761 389 133 389C130.239 389 128 391.239 128 394C128 396.761 130.239 399 133 399Z" fill="#505050"/>
<path d="M145.357 383.217L148.357 388.413L147.491 388.913L146.625 389.413L143.625 384.217L144.491 383.717L145.357 383.217Z" fill="#2F2F2F"/>
<path d="M149 397V391H148H147V394V397H148H149Z" fill="#2F2F2F"/>
<path d="M145.357 404.696L148.357 399.5L147.491 399L146.625 398.5L143.625 403.696L144.491 404.196L145.357 404.696Z" fill="#2F2F2F"/>
<path d="M138 409.61L143.196 406.61L142.696 405.744L142.196 404.878L137 407.878L137.5 408.744L138 409.61Z" fill="#2F2F2F"/>
<path d="M133 408H129V409V410H135V409V408H133Z" fill="#2F2F2F"/>
<path d="M127 408H121V409V410H127V409V408Z" fill="#2F2F2F"/>
<path d="M111 408H105V409V410H111V409V408Z" fill="#2F2F2F"/>
<path d="M119 408H113V409V410H119V409V408Z" fill="#2F2F2F"/>
<path d="M103 408H97V409V410H103V409V408Z" fill="#2F2F2F"/>
<path d="M95 408H89V409V410H95V409V408Z" fill="#2F2F2F"/>
<path d="M87 408H81V409V410H87V409V408Z" fill="#2F2F2F"/>
<path d="M79 408H75H73V409V410H79V409V408Z" fill="#2F2F2F"/>
<path d="M71 408H65V409V410H71V409V408Z" fill="#2F2F2F"/>
<path d="M63 408H57V409V410H63V409V408Z" fill="#2F2F2F"/>
<path d="M55 408H49V409V410H55V409V408Z" fill="#2F2F2F"/>
<path d="M47 408H41V409V410H47V409V408Z" fill="#2F2F2F"/>
<path d="M39 408H33V409V410H39V409V408Z" fill="#2F2F2F"/>
<path d="M15 408H9V409V410H15V409V408Z" fill="#2F2F2F"/>
<path d="M23 408H17.5H17V409V410H23V409V408Z" fill="#2F2F2F"/>
<path d="M31 408H25V409V410H31V409V408Z" fill="#2F2F2F"/>
<path fill-rule="evenodd" clip-rule="evenodd" d="M75 389C72.4073 389 70.2756 390.973 70.0247 393.5C70.2756 396.027 72.4073 398 75 398C77.5927 398 79.7244 396.027 79.9753 393.5C79.7244 390.973 77.5927 389 75 389Z" fill="#3C3C3C"/>
<path d="M75 399C77.7614 399 80 396.761 80 394C80 393.831 79.9916 393.664 79.9753 393.5C79.7244 396.027 77.5927 398 75 398C72.4073 398 70.2756 396.027 70.0247 393.5C70.0084 393.664 70 393.831 70 394C70 396.761 72.2386 399 75 399Z" fill="#303030"/>
<path d="M133 399C135.761 399 138 396.761 138 394C138 393.831 137.992 393.664 137.975 393.5C137.724 396.027 135.593 398 133 398C130.407 398 128.276 396.027 128.025 393.5C128.008 393.664 128 393.831 128 394C128 396.761 130.239 399 133 399Z" fill="#303030"/>
<path d="M17 399C19.7614 399 22 396.761 22 394C22 393.831 21.9916 393.664 21.9753 393.5C21.7244 396.027 19.5927 398 17 398C14.4073 398 12.2756 396.027 12.0247 393.5C12.0084 393.664 12 393.831 12 394C12 396.761 14.2386 399 17 399Z" fill="#303030"/>
<path d="M129 380H133H135V379V378H129V379V380Z" fill="#2F2F2F"/>
<path d="M121 380H127V379V378H121V379V380Z" fill="#2F2F2F"/>
<path d="M113 380H119V379V378H113V379V380Z" fill="#2F2F2F"/>
<path d="M127 380H129V379H127V380Z" fill="#1B1B1B"/>
<path d="M119 380H121V379H119V380Z" fill="#1B1B1B"/>
<path d="M111 380H113V379H111V380Z" fill="#1B1B1B"/>
<path d="M105 380H111V379V378H105V379V380Z" fill="#2F2F2F"/>
<path d="M103 380H105V379H103V380Z" fill="#1B1B1B"/>
<path d="M97 380H103V379V378H97V379V380Z" fill="#2F2F2F"/>
<path d="M95 380H97V379H95V380Z" fill="#1B1B1B"/>
<path d="M89 380H95V379V378H89V379V380Z" fill="#2F2F2F"/>
<path d="M87 380H89V379H87V380Z" fill="#1B1B1B"/>
<path d="M81 380H87V379V378H81V379V380Z" fill="#2F2F2F"/>
<path d="M79 380H81V379H79V380Z" fill="#1B1B1B"/>
<path d="M73 380H75H79V379V378H73V379V380Z" fill="#2F2F2F"/>
<path d="M1 380H7V379V378H1V379V380Z" fill="#2F2F2F"/>
<path d="M9 380H15V379V378H9V379V380Z" fill="#2F2F2F"/>
<path d="M7 380H9V379H7V380Z" fill="#1B1B1B"/>
<path d="M15 380H17V379H15V380Z" fill="#1B1B1B"/>
<path d="M17 380H17.5H23V379V378H17V379V380Z" fill="#2F2F2F"/>
<path d="M23 380H25V379H23V380Z" fill="#1B1B1B"/>
<path d="M25 380H31V379V378H25V379V380Z" fill="#2F2F2F"/>
<path d="M31 380H33V379H31V380Z" fill="#1B1B1B"/>
<path d="M33 380H39V379V378H33V379V380Z" fill="#2F2F2F"/>
<path d="M39 380H41V379H39V380Z" fill="#1B1B1B"/>
<path d="M41 380H47V379V378H41V379V380Z" fill="#2F2F2F"/>
<path d="M47 380H49V379H47V380Z" fill="#1B1B1B"/>
<path d="M49 380H55V379V378H49V379V380Z" fill="#2F2F2F"/>
<path d="M55 380H57V379H55V380Z" fill="#1B1B1B"/>
<path d="M57 380H63V379V378H57V379V380Z" fill="#2F2F2F"/>
<path d="M63 380H65V379H63V380Z" fill="#1B1B1B"/>
<path d="M65 380H71V379V378H65V379V380Z" fill="#2F2F2F"/>
<path d="M71 380H73V379H71V380Z" fill="#1B1B1B"/>
<path d="M147 394C147 401.732 140.732 408 133 408H135V409L137.5 408.744L137 407.878L142.196 404.878L142.696 405.744L144.491 404.196L143.625 403.696L146.625 398.5L147.491 399L148 397H147V394Z" fill="#1B1B1B"/>
<path d="M133 380C140.732 380 147 386.268 147 394V391H148L147.491 388.913L146.625 389.413L143.625 384.217L144.491 383.717L142.638 382.234L142.138 383.1L136.942 380.1L137.442 379.234L135 379V380H133Z" fill="#1B1B1B"/>
<path d="M9 408H7V409H9V408Z" fill="#1B1B1B"/>
<path d="M17 408H15V409H17V408Z" fill="#1B1B1B"/>
<path d="M25 408H23V409H25V408Z" fill="#1B1B1B"/>
<path d="M33 408H31V409H33V408Z" fill="#1B1B1B"/>
<path d="M41 408H39V409H41V408Z" fill="#1B1B1B"/>
<path d="M49 408H47V409H49V408Z" fill="#1B1B1B"/>
<path d="M57 408H55V409H57V408Z" fill="#1B1B1B"/>
<path d="M65 408H63V409H65V408Z" fill="#1B1B1B"/>
<path d="M73 408H71V409H73V408Z" fill="#1B1B1B"/>
<path d="M81 408H79V409H81V408Z" fill="#1B1B1B"/>
<path d="M89 408H87V409H89V408Z" fill="#1B1B1B"/>
<path d="M97 408H95V409H97V408Z" fill="#1B1B1B"/>
<path d="M105 408H103V409H105V408Z" fill="#1B1B1B"/>
<path d="M113 408H111V409H113V408Z" fill="#1B1B1B"/>
<path d="M121 408H119V409H121V408Z" fill="#1B1B1B"/>
<path d="M129 408H127V409H129V408Z" fill="#1B1B1B"/>
<path d="M75 400C77.7614 400 80 397.761 80 395C80 394.831 79.9916 394.664 79.9753 394.5C79.7244 397.027 77.5927 399 75 399C72.4073 399 70.2756 397.027 70.0247 394.5C70.0084 394.664 70 394.831 70 395C70 397.761 72.2386 400 75 400Z" fill="#474747"/>
<path d="M133 400C135.761 400 138 397.761 138 395C138 394.831 137.992 394.664 137.975 394.5C137.724 397.027 135.593 399 133 399C130.407 399 128.276 397.027 128.025 394.5C128.008 394.664 128 394.831 128 395C128 397.761 130.239 400 133 400Z" fill="#474747"/>
<path d="M17 400C19.7614 400 22 397.761 22 395C22 394.831 21.9916 394.664 21.9753 394.5C21.7244 397.027 19.5927 399 17 399C14.4073 399 12.2756 397.027 12.0247 394.5C12.0084 394.664 12 394.831 12 395C12 397.761 14.2386 400 17 400Z" fill="#474747"/>
<path fill-rule="evenodd" clip-rule="evenodd" d="M17 408H15H9H7H1H0V384H7.20203C4.60893 386.541 3 390.083 3 394C3 401.732 9.26801 408 17 408Z" fill="#1B1B1B"/>
<path fill-rule="evenodd" clip-rule="evenodd" d="M15 380H17C13.1854 380 9.72711 381.526 7.20203 384H0V380H1H7H9H15Z" fill="#0F0F0F"/>
<path fill-rule="evenodd" clip-rule="evenodd" d="M0 408H1V409H0V408Z" fill="#1B1B1B"/>
<path fill-rule="evenodd" clip-rule="evenodd" d="M1 380H0V379H1V380Z" fill="#1B1B1B"/>
<path fill-rule="evenodd" clip-rule="evenodd" d="M12 352C7.58172 352 4 355.582 4 360V367C4 371.418 7.58172 375 12 375H46C50.4183 375 54 371.418 54 367V360C54 355.582 50.4183 352 46 352H12Z" fill="#7D9AFF"/>
<path d="M54 370V367C54 371.418 50.4183 375 46 375H12C7.58172 375 4 371.418 4 367V370C4 374.418 7.58172 378 12 378H46C50.4183 378 54 374.418 54 370Z" fill="#6D8DFF"/>
<path d="M33 363V367.382C33 368.125 32.2177 368.609 31.5528 368.276L22.7889 363.894C22.0518 363.526 22.0518 362.474 22.7889 362.106L31.5528 357.724C32.2177 357.391 33 357.875 33 358.618V363Z" fill="white"/>
<path d="M111.018 639H262.249C265.277 639 266.974 635.926 265.965 633.48C265.403 634.894 264.065 636 262.249 636H111.018C109.212 636 107.868 634.897 107.304 633.483C106.286 635.943 108.011 639 111.018 639Z" fill="#4B4B4B"/>
<path fill-rule="evenodd" clip-rule="evenodd" d="M139 608.5C139.552 608.5 140 608.052 140 607.5C140 606.948 139.552 606.5 139 606.5C138.448 606.5 138 606.948 138 607.5C138 608.052 138.448 608.5 139 608.5Z" fill="#5A5A5A"/>
<path fill-rule="evenodd" clip-rule="evenodd" d="M235 608.5C235.552 608.5 236 608.052 236 607.5C236 606.948 235.552 606.5 235 606.5C234.448 606.5 234 606.948 234 607.5C234 608.052 234.448 608.5 235 608.5Z" fill="#5A5A5A"/>
<path d="M236 607.5C236 608.052 235.552 608.5 235 608.5C234.448 608.5 234 608.052 234 607.5C234 606.948 234.448 606.5 235 606.5C235.552 606.5 236 606.948 236 607.5Z" fill="#262626"/>
<path d="M140 626.5C140 627.052 139.552 627.5 139 627.5C138.448 627.5 138 627.052 138 626.5C138 625.948 138.448 625.5 139 625.5C139.552 625.5 140 625.948 140 626.5Z" fill="#5A5A5A"/>
<path d="M140 607.5C140 608.052 139.552 608.5 139 608.5C138.448 608.5 138 608.052 138 607.5C138 606.948 138.448 606.5 139 606.5C139.552 606.5 140 606.948 140 607.5Z" fill="#262626"/>
<path fill-rule="evenodd" clip-rule="evenodd" d="M138.642 609.704C138.701 609.721 138.762 609.736 138.823 609.748L139.037 609.791C138.902 609.774 138.77 609.744 138.642 609.704Z" fill="#5A5A5A"/>
<path d="M236 626.5C236 627.052 235.552 627.5 235 627.5C234.448 627.5 234 627.052 234 626.5C234 625.948 234.448 625.5 235 625.5C235.552 625.5 236 625.948 236 626.5Z" fill="#5A5A5A"/>
<path d="M175.311 617.095L186.999 614.741L184.425 614.223L172.654 616.56L175.311 617.095Z" fill="#9A9A9A"/>
<path d="M198.687 617.095L186.999 619.448L189.335 619.919L200.757 617.512L198.687 617.095Z" fill="#9A9A9A"/>
<path d="M198.69 597.905L187.002 600.259L190 600.862L202 598.572L198.69 597.905Z" fill="#9A9A9A"/>
<path fill-rule="evenodd" clip-rule="evenodd" d="M184.425 614.223L172.654 616.56L142 610.388L153.517 608L184.425 614.223Z" fill="#A7A7A7"/>
<path d="M139.789 609.765C139.535 609.816 139.282 609.823 139.037 609.791L142 610.388L153.517 608L151.036 607.5L139.789 609.765Z" fill="#9A9A9A"/>
<path d="M222.965 607.5L234.211 605.235C234.465 605.184 234.718 605.177 234.963 605.209L232.265 604.666L218.803 606.662L222.965 607.5Z" fill="#9A9A9A"/>
<path fill-rule="evenodd" clip-rule="evenodd" d="M179.503 595.453L171.332 597.103L163.133 595.453H179.503Z" fill="#A7A7A7"/>
<path d="M175.313 597.905L187.002 595.552L186.509 595.453L183 594.746L174.328 593H150.952L163.133 595.453H179.503L171.332 597.103L175.313 597.905Z" fill="#9A9A9A"/>
<path d="M223.051 593H199.675L187.494 595.453H210.87L223.051 593Z" fill="#9A9A9A"/>
<path fill-rule="evenodd" clip-rule="evenodd" d="M139 627.5C139.552 627.5 140 627.052 140 626.5C140 625.948 139.552 625.5 139 625.5C138.448 625.5 138 625.948 138 626.5C138 627.052 138.448 627.5 139 627.5Z" fill="#5A5A5A"/>
<path fill-rule="evenodd" clip-rule="evenodd" d="M139 627.5C139.552 627.5 140 627.052 140 626.5C140 625.948 139.552 625.5 139 625.5C138.448 625.5 138 625.948 138 626.5C138 627.052 138.448 627.5 139 627.5Z" fill="#5A5A5A"/>
<path fill-rule="evenodd" clip-rule="evenodd" d="M139 627.5C139.552 627.5 140 627.052 140 626.5C140 625.948 139.552 625.5 139 625.5C138.448 625.5 138 625.948 138 626.5C138 627.052 138.448 627.5 139 627.5Z" fill="#262626"/>
<path d="M264.863 631.973L252.126 620.973C251.4 620.345 250.472 620 249.512 620H213.115L235.174 624.442C236.419 624.692 237.212 625.905 236.946 627.152C236.868 627.519 236.706 627.848 236.485 628.123C236.908 628.243 237.1 628.405 236.949 628.57C236.715 628.824 235.744 629 234.669 629L234.662 629C234.514 629 234.364 628.996 234.214 628.989L189.337 626.888L187 626.779L139.786 628.989C138.542 629.048 137.317 628.86 137.051 628.57C136.9 628.406 137.091 628.243 137.512 628.123C137.292 627.848 137.13 627.519 137.052 627.152C136.786 625.905 137.579 624.692 138.823 624.442L160.882 620H122.597C121.572 620 120.586 620.394 119.842 621.1L108.263 632.1C107.824 632.517 107.508 632.988 107.304 633.483C107.868 634.897 109.212 636 111.018 636H262.249C264.065 636 265.403 634.894 265.965 633.48C265.739 632.932 265.377 632.416 264.863 631.973Z" fill="#5A5A5A"/>
<path d="M184.426 625.564L187 625.684L212.126 624.508L189.739 620H184.258L161.872 624.508L184.426 625.564Z" fill="#5A5A5A"/>
<path d="M175.312 626.231L172.655 626.107L157.461 625.396L146.643 627.574L175.312 626.231Z" fill="#5A5A5A"/>
<path d="M198.689 626.231L200.759 626.328L227.353 627.574L216.537 625.396L198.689 626.231Z" fill="#5A5A5A"/>
<path d="M137.051 628.57C137.317 628.86 138.542 629.048 139.786 628.989L187 626.779L189.337 626.888L234.214 628.989C234.364 628.996 234.514 629 234.662 629C234.513 629 234.362 628.985 234.211 628.954L227.353 627.574L200.759 626.328L198.689 626.231L216.537 625.396L212.126 624.508L187 625.684L184.426 625.564L161.872 624.508L157.461 625.396L172.655 626.107L175.312 626.231L146.643 627.574L139.786 628.954C138.909 629.131 138.041 628.782 137.512 628.123C137.091 628.243 136.9 628.406 137.051 628.57Z" fill="#474747"/>
<path fill-rule="evenodd" clip-rule="evenodd" d="M235 627.5C235.552 627.5 236 627.052 236 626.5C236 625.948 235.552 625.5 235 625.5C234.448 625.5 234 625.948 234 626.5C234 627.052 234.448 627.5 235 627.5Z" fill="#262626"/>
<path fill-rule="evenodd" clip-rule="evenodd" d="M139 627.5C139.552 627.5 140 627.052 140 626.5C140 625.948 139.552 625.5 139 625.5C138.448 625.5 138 625.948 138 626.5C138 627.052 138.448 627.5 139 627.5Z" fill="#5A5A5A"/>
<path fill-rule="evenodd" clip-rule="evenodd" d="M236.946 627.152C237.212 625.905 236.419 624.692 235.174 624.442L213.115 620L200.757 617.512L189.335 619.919L189.739 620L212.126 624.508L216.537 625.396L227.353 627.574L234.211 628.954C234.362 628.985 234.513 629 234.662 629L234.669 629C235.382 628.999 236.049 628.666 236.485 628.123C236.706 627.848 236.868 627.519 236.946 627.152ZM235 627.5C235.552 627.5 236 627.052 236 626.5C236 625.948 235.552 625.5 235 625.5C234.448 625.5 234 625.948 234 626.5C234 627.052 234.448 627.5 235 627.5Z" fill="#A7A7A7"/>
<path fill-rule="evenodd" clip-rule="evenodd" d="M139 627.5C139.552 627.5 140 627.052 140 626.5C140 625.948 139.552 625.5 139 625.5C138.448 625.5 138 625.948 138 626.5C138 627.052 138.448 627.5 139 627.5Z" fill="#262626"/>
<path fill-rule="evenodd" clip-rule="evenodd" d="M138.823 624.442C137.579 624.692 136.786 625.905 137.052 627.152C137.13 627.519 137.292 627.848 137.512 628.123C138.041 628.782 138.909 629.131 139.786 628.954L146.643 627.574L157.461 625.396L161.872 624.508L184.258 620L186.999 619.448L198.687 617.095L234.95 609.793C235.114 609.773 235.274 609.735 235.428 609.682C236.329 609.391 236.941 608.576 236.994 607.651C237.074 606.581 236.397 605.594 235.359 605.296C235.23 605.256 235.098 605.226 234.963 605.209C234.718 605.177 234.465 605.184 234.211 605.235L222.965 607.5L186.999 614.741L175.311 617.095L160.882 620L138.823 624.442ZM235 608.5C235.552 608.5 236 608.052 236 607.5C236 606.948 235.552 606.5 235 606.5C234.448 606.5 234 606.948 234 607.5C234 608.052 234.448 608.5 235 608.5ZM139 627.5C139.552 627.5 140 627.052 140 626.5C140 625.948 139.552 625.5 139 625.5C138.448 625.5 138 625.948 138 626.5C138 627.052 138.448 627.5 139 627.5Z" fill="#A7A7A7"/>
<path fill-rule="evenodd" clip-rule="evenodd" d="M139 608.5C139.552 608.5 140 608.052 140 607.5C140 606.948 139.552 606.5 139 606.5C138.448 606.5 138 606.948 138 607.5C138 608.052 138.448 608.5 139 608.5Z" fill="#5A5A5A"/>
<path fill-rule="evenodd" clip-rule="evenodd" d="M187.002 600.259L198.69 597.905L210.87 595.453H187.494L187.002 595.552L175.313 597.905L139.05 605.207C138.886 605.227 138.726 605.265 138.573 605.318C137.672 605.609 137.059 606.424 137.007 607.348C136.926 608.419 137.603 609.406 138.642 609.704C138.701 609.721 138.762 609.736 138.823 609.748L139.037 609.791C139.282 609.823 139.535 609.816 139.789 609.765L151.036 607.5L187.002 600.259ZM139 608.5C139.552 608.5 140 608.052 140 607.5C140 606.948 139.552 606.5 139 606.5C138.448 606.5 138 606.948 138 607.5C138 608.052 138.448 608.5 139 608.5Z" fill="#A7A7A7"/>
<path d="M202 598.572L190 600.862L218.803 606.662L232.265 604.666L202 598.572Z" fill="#A7A7A7"/>
<path fill-rule="evenodd" clip-rule="evenodd" d="M122.597 574C121.572 574 120.586 574.394 119.842 575.1L108.263 586.1C107.824 586.517 107.508 586.988 107.304 587.483C107.868 588.897 109.212 590 111.018 590H262.249C264.065 590 265.403 588.894 265.965 587.48C265.739 586.932 265.377 586.416 264.863 585.973L252.126 574.973C251.4 574.345 250.472 574 249.512 574H122.597Z" fill="#5A5A5A"/>
<path d="M111.018 593H262.249C265.277 593 266.974 589.926 265.965 587.48C265.403 588.894 264.065 590 262.249 590H111.018C109.212 590 107.868 588.897 107.304 587.483C106.286 589.943 108.011 593 111.018 593Z" fill="#4B4B4B"/>
<path d="M106 458C106 453.582 109.582 450 114 450H263C266.866 450 270 453.134 270 457V574C270 578.418 266.418 582 262 582H114C109.582 582 106 578.418 106 574V572.938V458Z" fill="#7D9AFF"/>
<path d="M114 505C114 502.239 116.239 500 119 500H234C236.761 500 239 502.239 239 505C239 507.761 236.761 510 234 510H119C116.239 510 114 507.761 114 505Z" fill="white"/>
<path d="M114 519C114 516.239 116.239 514 119 514H257C259.761 514 262 516.239 262 519C262 521.761 259.761 524 257 524H119C116.239 524 114 521.761 114 519Z" fill="white"/>
<path d="M114 540C114 537.791 115.791 536 118 536H168C170.209 536 172 537.791 172 540C172 542.209 170.209 544 168 544H118C115.791 544 114 542.209 114 540Z" fill="white"/>
<path d="M114 550C114 547.791 115.791 546 118 546H176C178.209 546 180 547.791 180 550C180 552.209 178.209 554 176 554H118C115.791 554 114 552.209 114 550Z" fill="white"/>
<path d="M114 560C114 557.791 115.791 556 118 556H160C162.209 556 164 557.791 164 560C164 562.209 162.209 564 160 564H118C115.791 564 114 562.209 114 560Z" fill="white"/>
<path d="M114 570C114 567.791 115.791 566 118 566H160C162.209 566 164 567.791 164 570C164 572.209 162.209 574 160 574H118C115.791 574 114 572.209 114 570Z" fill="white"/>
<path d="M184 466C184 461.582 187.582 458 192 458H254C258.418 458 262 461.582 262 466V488C262 492.418 258.418 496 254 496H192C187.582 496 184 492.418 184 488V466Z" fill="#9DB3FF"/>
<path d="M206 544C206 539.582 209.582 536 214 536H254C258.418 536 262 539.582 262 544V566C262 570.418 258.418 574 254 574H214C209.582 574 206 570.418 206 566V544Z" fill="#9DB3FF"/>
<path fill-rule="evenodd" clip-rule="evenodd" d="M170 459H122C118.134 459 115 462.134 115 466V488C115 491.866 118.134 495 122 495H170C173.866 495 177 491.866 177 488V466C177 462.134 173.866 459 170 459ZM122 458C117.582 458 114 461.582 114 466V488C114 492.418 117.582 496 122 496H170C174.418 496 178 492.418 178 488V466C178 461.582 174.418 458 170 458H122Z" fill="#5168BB"/>
<path fill-rule="evenodd" clip-rule="evenodd" d="M152.119 465.098C152.617 465.336 152.828 465.933 152.59 466.431L142.074 488.431C141.835 488.93 141.238 489.14 140.74 488.902C140.242 488.664 140.031 488.067 140.269 487.569L145.527 476.569L150.785 465.569C151.023 465.07 151.62 464.86 152.119 465.098ZM155.809 465.224C156.238 464.876 156.868 464.941 157.216 465.37L165.353 475.39C166.216 476.282 166.216 477.718 165.353 478.61L157.216 488.63C156.868 489.059 156.238 489.124 155.809 488.776C155.38 488.428 155.315 487.798 155.663 487.37L163.868 477.266L163.909 477.225C164.03 477.107 164.03 476.893 163.909 476.775L163.868 476.734L155.663 466.63C155.315 466.202 155.38 465.572 155.809 465.224ZM136.432 465.231C136.857 465.583 136.916 466.214 136.563 466.639L128.026 476.923C128.011 476.941 128 476.967 128 477C128 477.033 128.011 477.059 128.026 477.077L136.563 487.361C136.916 487.786 136.857 488.417 136.432 488.769C136.007 489.122 135.377 489.064 135.024 488.639L126.487 478.355C125.838 477.572 125.838 476.428 126.487 475.645L135.024 465.361C135.377 464.936 136.007 464.878 136.432 465.231Z" fill="#9DB3FF"/>
<path d="M255 441H107C102.582 441 99 444.582 99 449V565C99 569.08 102.054 572.446 106 572.938V458C106 453.582 109.582 450 114 450H263V449C263 444.582 259.418 441 255 441Z" fill="#5574E1" fill-opacity="0.5"/>
</svg>
