<svg width="450" height="200" viewBox="0 0 450 200" fill="none" xmlns="http://www.w3.org/2000/svg">
<rect width="450" height="200" fill="url(#paint0_linear_263_2)"/>
<path d="M189.956 68.4886C187.134 67.2869 181.102 63.6817 179.554 58.8747C177.618 52.8661 181.247 46.1363 182.94 43.9732C184.634 41.8101 187.537 38.4453 191.892 36.2821C196.246 34.119 201.327 32.4366 204.713 32.1962C208.1 31.9559 211.729 31.7155 216.81 32.9173C221.89 34.119 225.035 36.5225 226.97 38.2049C228.906 39.8873 233.371 44.4124 235.61 49.305C238.029 54.5926 238.341 59.3554 238.341 61.7589C238.341 64.1624 237.615 69.2096 236.163 72.8148C234.712 76.42 233.502 78.3428 231.809 80.5059C230.115 82.669 227.212 86.7549 226.486 88.6777C227.454 86.7549 230.656 81.8228 236.163 78.1025C242.211 74.0166 244.631 74.7376 248.743 71.3728C248.743 69.3699 248.308 64.595 246.566 61.5185C248.017 60.9577 251.743 60.2687 255.033 61.9992C256.404 62.7203 258.323 63.8259 258.904 65.3641C260.597 65.2039 264.758 65.5083 267.855 68.0079C269.065 68.9843 270.516 70.8921 271 73.2955C270.677 74.8978 269.548 78.1025 266.645 79.7849C262.913 81.948 260.114 82.1884 256.727 81.948C257.291 82.669 259.001 84.2553 261.323 84.8322C262.097 85.0244 263.904 85.0725 264.71 85.0725C265.597 84.3515 267.758 83.1497 269.307 84.1111C271.282 85.3376 270.516 87.476 269.79 88.197C268.434 89.5442 267.371 90.1198 263.984 91.3215C261.565 92.2829 260.597 93.2443 257.936 94.6864C257.049 95.1671 254.646 96.1285 252.13 96.1285C248.985 96.1285 246.808 95.4074 242.937 93.725C244.227 93.0841 247.388 91.7541 249.711 91.5619C252.614 91.3215 254.791 91.8022 256.485 93.004C255.43 93.3624 254.845 93.519 253.824 93.725C253.017 93.4846 250.872 93.1482 248.743 93.725C249.63 94.0454 251.985 94.5422 254.307 93.9653C257.21 93.2443 257.21 93.0039 259.146 91.8022C261.081 90.6005 263.984 89.1584 266.162 88.4374C268.339 87.7163 268.823 86.0339 268.581 85.7935C268.339 85.5532 267.613 85.3129 265.436 86.9953C263.742 87.1555 259.775 86.9953 257.452 85.0725C255.13 83.1497 253.259 79.9451 252.614 78.5832C253.985 79.2241 257.21 80.4579 259.146 80.2656C261.565 80.0252 264.468 79.0638 265.678 78.1025C266.887 77.1411 268.581 75.4586 269.065 73.5359C268.742 72.254 267.516 69.45 265.194 68.4886C262.291 67.2869 261.807 67.2869 257.936 67.2869C257.614 66.5658 256.581 64.9315 255.033 64.1624C253.098 63.201 251.646 62.7203 249.227 62.9606C249.792 64.5629 250.872 68.6328 250.679 72.0938C249.792 73.0552 247.388 75.1222 244.872 75.699C241.727 77.1411 241.486 77.1411 238.099 79.0638C234.712 80.9866 229.148 86.2742 226.486 92.5233C224.357 97.5225 223.18 106.463 222.858 110.309C222.212 105.422 221.551 94.3018 224.067 88.9181C227.212 82.1884 229.873 80.7463 232.293 76.1797C234.712 71.6131 235.196 70.4114 235.921 66.5658C236.647 62.7203 237.131 55.7502 233.26 48.7802C231.566 45.7288 226.244 38.6856 221.164 36.5225C218.826 35.4009 212.648 33.3018 206.649 33.8787C199.149 34.5997 195.037 36.7628 193.585 37.4839C192.133 38.2049 187.537 40.8487 184.876 44.4539C182.215 48.0591 181.005 52.145 181.005 55.0292C181.005 57.9133 181.973 62.7203 187.053 65.6044C186.408 64.2425 185.505 60.7975 187.053 57.9133C188.988 54.3081 190.924 52.8661 193.585 52.3854C196.246 51.9047 201.085 52.3854 203.988 55.7502C206.891 59.1151 206.165 63.922 205.197 67.7676C204.23 71.6131 198.907 76.9007 198.907 85.0725C198.907 93.2443 199.633 100.695 203.746 106.704C207.858 112.712 212.455 116.077 217.293 116.077H256.727C257.614 115.917 259.388 115.26 259.388 113.914C259.388 112.232 258.42 111.27 255.759 111.27C253.63 111.27 245.84 112.552 242.211 113.193C244.872 111.27 250.485 107.136 251.646 105.983C253.098 104.541 255.517 102.137 256.243 100.695C256.969 99.253 257.383 97.855 256.415 95.6919C257.129 95.4476 257.515 95.3009 258.108 94.9708C258.35 95.3714 258.904 96.7534 258.904 98.2916C258.904 100.214 257.936 101.897 256.243 104.06C254.888 105.79 250.84 108.947 248.985 110.309C251.001 109.828 255.565 109.011 257.694 109.588C260.355 110.309 261.081 111.751 261.323 113.674C261.565 115.597 259.388 117.279 257.452 117.76C256.807 117.84 255.323 118 254.549 118H217.293C215.116 118 210.665 117.375 205.439 111.991C203.584 110.149 199.536 104.829 198.182 98.2916C196.488 90.1198 196.972 84.5918 197.456 81.4673C197.94 78.3428 200.359 72.5745 201.81 70.4114C203.262 68.2482 203.746 64.643 203.988 62.7203C204.23 60.7975 204.471 58.8747 201.81 56.4713C199.149 54.0678 196.972 54.0678 196.004 54.0678C195.037 54.0678 192.859 54.0678 191.166 55.5099C189.472 56.952 188.505 59.1151 188.263 60.3168C188.021 61.5185 188.021 62.2396 188.263 63.6817C188.456 64.8353 189.472 67.367 189.956 68.4886Z" fill="white"/>
<path d="M137.921 142.136H135.239V153.119H122.647V142.136H120V167.458H122.647V155.492H135.239V167.458H137.921V142.136Z" fill="white"/>
<path d="M146.5 149.864H143.886V167.458H146.5V149.864ZM146.636 142.203H143.751V145.085H146.636V142.203Z" fill="white"/>
<path d="M161.482 165.119C160.837 165.559 160.057 165.797 159.208 165.797C155.135 165.797 153.811 162.475 153.811 158.508C153.811 154.983 155.271 151.864 158.97 151.864C162.534 151.864 163.892 155.119 163.892 158.61C163.892 161.119 163.281 163.763 161.482 165.119ZM153.845 165.356C155.067 166.949 156.595 168 159.344 168C164.537 168 166.675 163.627 166.675 158.78C166.675 154 164.639 149.695 159.378 149.695C157.307 149.695 155.067 150.644 153.879 152.576V142H151.436V164.407C151.436 165.322 151.368 166.644 151.198 167.458H153.744L153.845 165.356Z" fill="white"/>
<path d="M172.53 157.288C172.802 154.407 174.397 151.864 177.486 151.864C180.778 151.864 182.441 154.034 182.679 157.288H172.53ZM182.441 161.729C181.796 164.305 180.235 165.797 177.927 165.797C174.024 165.797 172.463 163.017 172.463 159.458H184.817C185.19 159.458 185.394 159.254 185.394 158.814C185.394 153.525 183.086 149.695 177.452 149.695C172.293 149.695 169.679 154.102 169.679 158.847C169.679 163.661 172.089 168 177.282 168C181.525 168 184.172 166.102 185.258 161.729H182.441Z" fill="white"/>
<path d="M192.336 157.458C192.336 153.763 194.711 152.305 196.985 152.305C197.63 152.305 197.97 152.373 198.479 152.542V149.864C198.106 149.729 197.427 149.695 196.884 149.695C195.119 149.695 193.659 150.407 192.336 152.441L192.404 150.237H189.79V167.458H192.336V157.458Z" fill="white"/>
<path d="M215.172 156.034C215.172 151.932 213.305 149.695 209.47 149.695C207.263 149.695 205.532 150.407 203.937 152.441L204.005 150.237H201.493V167.458H203.937V157.458C203.937 153.763 206.313 151.864 208.587 151.864C211.472 151.864 212.558 153.356 212.558 156.746V167.458H215.172V156.034Z" fill="white"/>
<path d="M229.953 161.559C229.682 163.356 228.901 164.814 227.17 165.492C226.627 165.695 225.982 165.797 225.202 165.797C223.267 165.797 221.672 164.949 221.672 162.644C221.672 158.373 227.578 158.983 230.157 158.983C230.157 159.864 230.089 160.712 229.953 161.559ZM232.669 167.458C232.533 166.78 232.499 165.627 232.499 164.847V155.627C232.533 151.559 230.089 149.695 226.186 149.695C222.826 149.695 219.703 151.288 219.534 154.915H222.351C222.622 152.475 224.116 151.864 226.152 151.864C228.426 151.864 229.818 152.712 230.055 155.525V156.78C227.951 156.78 224.659 156.542 222.385 157.627C220.213 158.542 218.923 160.169 218.923 162.61C218.923 166.068 221.536 168 224.794 168C226.967 168 229.105 166.915 230.089 165.593L230.191 167.458H232.669Z" fill="white"/>
<path d="M245.629 165.492C245.052 165.763 244.543 165.898 243.729 165.898C242.473 165.898 241.59 165.356 241.59 163.22V152.373H245.426V150.169H241.59V145.254H239.079V150.169H235.719V152.373H239.079V163.559C239.079 167.186 240.912 168 243.389 168C244.102 168 244.916 167.898 245.629 167.661V165.492Z" fill="white"/>
<path d="M251.868 149.864H249.255V167.458H251.868V149.864ZM252.004 142.203H249.119V145.085H252.004V142.203Z" fill="white"/>
<path d="M266.172 165.186C265.493 165.593 264.678 165.797 263.728 165.797C259.926 165.797 258.399 162.102 258.399 158.847C258.399 155.627 259.926 151.864 263.728 151.864C267.529 151.864 269.124 155.627 269.124 158.847C269.124 161.424 268.208 163.864 266.172 165.186ZM269.905 165.186C271.263 163.458 271.908 161.153 271.908 158.847C271.908 154.203 269.328 149.695 263.728 149.695C258.162 149.695 255.65 154.203 255.65 158.847C255.65 163.492 258.162 168 263.728 168C266.579 168 268.581 166.847 269.905 165.186Z" fill="white"/>
<path d="M289.483 156.034C289.483 151.932 287.616 149.695 283.781 149.695C281.575 149.695 279.844 150.407 278.249 152.441L278.316 150.237H275.805V167.458H278.249V157.458C278.249 153.763 280.624 151.864 282.898 151.864C285.783 151.864 286.869 153.356 286.869 156.746V167.458H289.483V156.034Z" fill="white"/>
<path d="M308.101 142.034H305.42V167.458H308.101V142.034Z" fill="white"/>
<path d="M322.363 144.475H330V142.136H311.91V144.475H319.682V167.458H322.363V144.475Z" fill="white"/>
<defs>
<linearGradient id="paint0_linear_263_2" x1="0" y1="0" x2="325" y2="325" gradientUnits="userSpaceOnUse">
<stop stop-color="#120024"/>
<stop offset="1" stop-color="#1D003A"/>
</linearGradient>
</defs>
</svg>
