<svg width="32" height="32" viewBox="0 0 32 32" fill="none" xmlns="http://www.w3.org/2000/svg">
<g clip-path="url(#clip0_577_401)">
<path d="M16 32C24.8366 32 32 24.8366 32 16C32 7.16344 24.8366 0 16 0C7.16344 0 0 7.16344 0 16C0 24.8366 7.16344 32 16 32Z" fill="#0091E2"/>
<path d="M25.8531 14.4219C25.8031 14.3812 25.35 14.0406 24.3938 14.0406C24.1406 14.0406 23.8875 14.0594 23.6375 14.1062C23.4531 12.8344 22.4031 12.2156 22.3563 12.1875L22.1 12.0375L21.9313 12.2812C21.7188 12.6094 21.5656 12.9688 21.475 13.35C21.3031 14.075 21.4063 14.7562 21.775 15.3375C21.3313 15.5844 20.6156 15.6469 20.4719 15.65H8.65625C8.34688 15.65 8.09688 15.9 8.09688 16.2094C8.08438 17.2438 8.25938 18.2719 8.6125 19.2437C9.01875 20.3125 9.625 21.0969 10.4125 21.5781C11.2938 22.1187 12.7281 22.4281 14.3563 22.4281C15.0906 22.4313 15.825 22.3625 16.5469 22.2281C17.55 22.0437 18.5156 21.6937 19.4031 21.1906C20.1344 20.7656 20.7938 20.2281 21.3531 19.5938C22.2875 18.5344 22.8469 17.3531 23.2625 16.3062H23.4281C24.4531 16.3062 25.0844 15.8969 25.4313 15.5531C25.6625 15.3344 25.8438 15.0688 25.9594 14.7719L26.0313 14.5562L25.8531 14.4219ZM9.75 15.3094H11.3344C11.4094 15.3094 11.4719 15.2469 11.4719 15.1719V13.7625C11.4719 13.6875 11.4094 13.625 11.3344 13.6219H9.75C9.675 13.6219 9.6125 13.6844 9.6125 13.7594V15.1719C9.6125 15.25 9.675 15.3094 9.75 15.3094ZM11.9344 15.3094H13.5188C13.5938 15.3094 13.6563 15.2469 13.6563 15.1719V13.7625C13.6563 13.6875 13.5938 13.625 13.5188 13.6219H11.9344C11.8563 13.6219 11.7938 13.6844 11.7938 13.7625V15.1719C11.7938 15.25 11.8563 15.3094 11.9344 15.3094ZM14.1469 15.3125H15.7313C15.8063 15.3125 15.8688 15.25 15.8688 15.175V13.7656C15.8688 13.6906 15.8063 13.6281 15.7313 13.625H14.1469C14.0719 13.625 14.0094 13.6875 14.0094 13.7625V15.175C14.0094 15.25 14.0719 15.3094 14.1469 15.3125ZM16.3375 15.3125H17.9219C17.9969 15.3125 18.0594 15.25 18.0625 15.175V13.7656C18.0625 13.6875 18 13.625 17.9219 13.625H16.3375C16.2625 13.625 16.2 13.6875 16.2 13.7625V15.175C16.2 15.25 16.2594 15.3125 16.3375 15.3125ZM11.9313 13.2812H13.5156C13.5906 13.2812 13.6531 13.2188 13.6531 13.1406V11.7312C13.6531 11.6562 13.5906 11.5938 13.5156 11.5938H11.9313C11.8531 11.5938 11.7938 11.6562 11.7906 11.7312V13.1406C11.7938 13.2188 11.8563 13.2812 11.9313 13.2812ZM14.1469 13.2812H15.7313C15.8063 13.2812 15.8688 13.2188 15.8688 13.1406V11.7312C15.8688 11.6562 15.8063 11.5938 15.7313 11.5938H14.1469C14.0719 11.5938 14.0094 11.6562 14.0094 11.7312V13.1406C14.0094 13.2188 14.0719 13.2812 14.1469 13.2812ZM16.3375 13.2812H17.9219C18 13.2812 18.0594 13.2188 18.0625 13.1406V11.7312C18.0625 11.6531 18 11.5938 17.9219 11.5938H16.3375C16.2625 11.5938 16.2 11.6562 16.2 11.7312V13.1406C16.2 13.2188 16.2594 13.2812 16.3375 13.2812ZM16.3375 11.2531H17.9219C18 11.2531 18.0625 11.1906 18.0625 11.1125V9.7C18.0625 9.625 18 9.5625 17.9219 9.5625H16.3375C16.2625 9.5625 16.2 9.625 16.2 9.7V11.1125C16.2 11.1906 16.2594 11.2531 16.3375 11.2531ZM18.5438 15.3125H20.1281C20.2031 15.3125 20.2656 15.25 20.2656 15.175V13.7656C20.2656 13.6875 20.2031 13.6281 20.1281 13.625H18.5438C18.4688 13.625 18.4063 13.6875 18.4063 13.7625V15.175C18.4063 15.25 18.4688 15.3125 18.5438 15.3125Z" fill="white"/>
</g>
<defs>
<clipPath id="clip0_577_401">
<rect width="32" height="32" fill="white"/>
</clipPath>
</defs>
</svg>
