<svg width="32" height="32" viewBox="0 0 32 32" fill="none" xmlns="http://www.w3.org/2000/svg">
<g clip-path="url(#clip0_568_378)">
<path d="M21.2815 10.1713L24.0631 7.36264L24.2485 6.18002C19.1796 1.52615 11.122 2.05384 6.55258 7.28111C5.28333 8.73294 4.34171 10.543 3.83958 12.4121L4.83583 12.2703L10.399 11.344L10.8285 10.9005C13.3031 8.1564 17.4872 7.78722 20.3445 10.122L21.2815 10.1713Z" fill="#EA4335"/>
<path d="M28.0256 12.3296C27.3862 9.95219 26.0736 7.81502 24.2485 6.18018L20.3445 10.1221C21.993 11.4822 22.9321 13.5311 22.8918 15.6801V16.3799C24.8107 16.3799 26.3665 17.9506 26.3665 19.8881C26.3665 21.8257 24.8107 23.3571 22.8918 23.3571H15.933L15.2497 24.106V28.314L15.933 28.9742H22.8918C27.8831 29.0135 31.9608 24.9993 31.9997 19.9595C32.0232 16.9048 30.5316 14.041 28.0256 12.3296Z" fill="#4285F4"/>
<path d="M8.9838 28.974H15.9329V23.3568H8.9838C8.48867 23.3567 8.00917 23.2493 7.55892 23.0415L6.57305 23.3469L3.77192 26.1556L3.52792 27.1115C5.0988 28.3092 7.01542 28.9826 8.9838 28.974Z" fill="#34A853"/>
<path d="M8.9838 10.7525C3.99242 10.7825 -0.0295784 14.8926 0.000171612 19.9323C0.0167966 22.7466 1.31855 25.3958 3.52792 27.1114L7.55892 23.0414C5.81005 22.2436 5.03292 20.1655 5.82305 18.3998C6.61305 16.6341 8.6713 15.8494 10.4199 16.6471C11.1905 16.9986 11.8077 17.6218 12.1558 18.3998L16.1868 14.3298C14.4717 12.0659 11.8067 10.7423 8.9838 10.7525Z" fill="#FBBC05"/>
</g>
<defs>
<clipPath id="clip0_568_378">
<rect width="32" height="26" fill="white" transform="translate(0 3)"/>
</clipPath>
</defs>
</svg>
