<svg width="32" height="32" viewBox="0 0 32 32" fill="none" xmlns="http://www.w3.org/2000/svg">
<path d="M14.9521 0.00879478C14.8833 0.0150509 14.6643 0.0369473 14.4673 0.0525875C9.92219 0.462362 5.66491 2.91476 2.96852 6.68406C1.46706 8.77986 0.506745 11.1572 0.143891 13.6753C0.0156403 14.5542 0 14.8139 0 16.0057C0 17.1975 0.0156403 17.4571 0.143891 18.3361C1.01349 24.3451 5.28954 29.3937 11.089 31.2643C12.1275 31.599 13.2223 31.8274 14.4673 31.965C14.9521 32.0182 17.0479 32.0182 17.5327 31.965C19.6817 31.7273 21.5022 31.1955 23.2978 30.279C23.573 30.1382 23.6262 30.1007 23.5887 30.0694C23.5636 30.0506 22.3906 28.4772 20.983 26.5754L18.4242 23.1189L15.218 18.3736C13.4538 15.7648 12.0023 13.6315 11.9898 13.6315C11.9773 13.6283 11.9648 15.7367 11.9586 18.311C11.9492 22.8186 11.946 23 11.8897 23.1063C11.8084 23.2596 11.7458 23.3222 11.6145 23.391C11.5144 23.4411 11.4268 23.4504 10.9544 23.4504H10.4133L10.2694 23.3597C10.1756 23.3003 10.1067 23.2221 10.0598 23.1314L9.99413 22.9906L10.0004 16.7189L10.0098 10.444L10.1067 10.322C10.1568 10.2563 10.2631 10.1718 10.3382 10.1312C10.4665 10.0686 10.5165 10.0624 11.0577 10.0624C11.6958 10.0624 11.8022 10.0874 11.9679 10.2688C12.0149 10.3189 13.7509 12.9339 15.828 16.0839C17.905 19.2338 20.7453 23.5349 22.1404 25.6463L24.6741 29.4845L24.8023 29.4C25.9378 28.6618 27.139 27.6107 28.0899 26.5159C30.1138 24.1918 31.4182 21.3578 31.8561 18.3361C31.9844 17.4571 32 17.1975 32 16.0057C32 14.8139 31.9844 14.5542 31.8561 13.6753C30.9865 7.66627 26.7105 2.61759 20.911 0.747015C19.8882 0.415442 18.7996 0.187094 17.5797 0.0494595C17.2794 0.0181789 15.2117 -0.0162277 14.9521 0.00879478ZM21.5022 9.687C21.6524 9.76207 21.7744 9.90596 21.8182 10.0561C21.8432 10.1374 21.8495 11.8766 21.8432 15.7961L21.8338 21.4203L20.8422 19.9001L19.8475 18.3799V14.2915C19.8475 11.6483 19.86 10.1625 19.8788 10.0905C19.9288 9.91534 20.0383 9.77771 20.1885 9.69638C20.3167 9.63069 20.3636 9.62444 20.8547 9.62444C21.3177 9.62444 21.399 9.63069 21.5022 9.687Z" fill="black"/>
<path d="M24.5177 29.5532C24.4082 29.622 24.3738 29.6689 24.4708 29.6157C24.5396 29.5751 24.6522 29.4906 24.6334 29.4875C24.624 29.4875 24.5709 29.5188 24.5177 29.5532Z" fill="black"/>
<path d="M24.3019 29.6941C24.2456 29.7379 24.2456 29.741 24.3144 29.7066C24.3519 29.6878 24.3832 29.666 24.3832 29.6597C24.3832 29.6347 24.3675 29.6409 24.3019 29.6941Z" fill="black"/>
<path d="M24.1455 29.7879C24.0892 29.8316 24.0892 29.8348 24.158 29.8004C24.1955 29.7816 24.2268 29.7597 24.2268 29.7534C24.2268 29.7284 24.2111 29.7347 24.1455 29.7879Z" fill="black"/>
<path d="M23.989 29.8816C23.9327 29.9254 23.9327 29.9285 24.0015 29.8941C24.0391 29.8753 24.0704 29.8535 24.0704 29.8472C24.0704 29.8222 24.0547 29.8284 23.989 29.8816Z" fill="black"/>
<path d="M23.7513 30.0069C23.6324 30.0695 23.6387 30.0945 23.7576 30.0351C23.8107 30.0069 23.8514 29.9788 23.8514 29.9725C23.8514 29.9506 23.8483 29.9537 23.7513 30.0069Z" fill="black"/>
</svg>
