<svg width="200" height="200" viewBox="0 0 200 200" fill="none" xmlns="http://www.w3.org/2000/svg">
<rect width="200" height="200" rx="28.5714" fill="url(#paint0_linear_969_757)"/>
<path d="M56.9026 91.9525C53.4316 90.4673 46.0134 86.0117 44.1093 80.0709C41.7292 72.6449 46.1919 64.3278 48.2746 61.6544C50.3572 58.9811 53.9274 54.8225 59.2828 52.1491C64.6381 49.4758 70.886 47.3965 75.0513 47.0995C79.2165 46.8024 83.6793 46.5054 89.9272 47.9906C96.1751 49.4758 100.043 52.4462 102.423 54.5255C104.803 56.6047 110.295 62.1971 113.048 68.2438C116.023 74.7787 116.406 80.665 116.406 83.6354C116.406 86.6058 115.514 92.8436 113.729 97.2992C111.944 101.755 110.456 104.131 108.373 106.804C106.291 109.478 102.721 114.527 101.828 116.904C103.018 114.527 106.956 108.432 113.729 103.834C121.167 98.7844 124.142 99.6755 129.2 95.5169C129.2 93.0416 128.664 87.1404 126.522 83.3383C128.307 82.6452 132.889 81.7937 136.935 83.9324C138.621 84.8235 140.981 86.1899 141.695 88.091C143.778 87.8929 148.895 88.2692 152.704 91.3584C154.191 92.5651 155.976 94.9229 156.571 97.8933C156.175 99.8735 154.786 103.834 151.216 105.913C146.626 108.587 143.183 108.884 139.018 108.587C139.712 109.478 141.814 111.438 144.671 112.151C145.623 112.389 147.844 112.448 148.836 112.448C149.927 111.557 152.585 110.072 154.489 111.26C156.918 112.776 155.976 115.419 155.084 116.31C153.416 117.975 152.109 118.686 147.943 120.171C144.968 121.359 143.778 122.548 140.505 124.33C139.415 124.924 136.459 126.112 133.365 126.112C129.497 126.112 126.82 125.221 122.059 123.142C123.646 122.35 127.534 120.706 130.39 120.468C133.96 120.171 136.638 120.765 138.72 122.251C137.423 122.694 136.703 122.887 135.448 123.142C134.456 122.845 131.818 122.429 129.2 123.142C130.291 123.538 133.186 124.152 136.043 123.439C139.613 122.548 139.613 122.251 141.993 120.765C144.373 119.28 147.943 117.498 150.621 116.607C153.299 115.716 153.894 113.636 153.596 113.339C153.299 113.042 152.406 112.745 149.728 114.825C147.646 115.023 142.767 114.825 139.91 112.448C137.054 110.072 134.753 106.111 133.96 104.428C135.646 105.22 139.613 106.745 141.993 106.507C144.968 106.21 148.538 105.022 150.026 103.834C151.514 102.646 153.596 100.567 154.191 98.1903C153.795 96.6061 152.287 93.1406 149.431 91.9525C145.861 90.4673 145.266 90.4673 140.505 90.4673C140.109 89.5762 138.839 87.5563 136.935 86.6058C134.555 85.4176 132.77 84.8235 129.795 85.1206C130.489 87.1008 131.818 92.1307 131.58 96.4081C130.489 97.5962 127.534 100.151 124.439 100.864C120.572 102.646 120.274 102.646 116.109 105.022C111.944 107.399 105.101 113.933 101.828 121.656C99.2098 127.835 97.7619 138.885 97.3652 143.637C96.5718 137.598 95.7586 123.855 98.8528 117.201C102.721 108.884 105.993 107.101 108.968 101.458C111.944 95.814 112.539 94.3288 113.431 89.5762C114.324 84.8235 114.919 76.2094 110.158 67.5952C108.075 63.8241 101.53 55.1195 95.2825 52.4462C92.4065 51.06 84.8099 48.4659 77.4314 49.1788C68.2083 50.0699 63.1505 52.7432 61.3654 53.6343C59.5803 54.5255 53.9274 57.7929 50.6547 62.2485C47.382 66.7041 45.8944 71.7538 45.8944 75.3182C45.8944 78.8827 47.0845 84.8235 53.3324 88.388C52.539 86.7048 51.4283 82.4472 53.3324 78.8827C55.7125 74.4271 58.0927 72.6449 61.3654 72.0508C64.6381 71.4567 70.5885 72.0508 74.1587 76.2094C77.7289 80.3679 76.8364 86.3087 75.6463 91.0614C74.4562 95.814 67.9108 102.349 67.9108 112.448C67.9108 122.548 68.8034 131.756 73.8612 139.182C78.919 146.608 84.5719 150.766 90.5222 150.766H139.018C140.109 150.568 142.291 149.756 142.291 148.093C142.291 146.014 141.1 144.826 137.828 144.826C135.21 144.826 125.629 146.41 121.167 147.202C124.439 144.826 131.342 139.716 132.77 138.291C134.555 136.508 137.53 133.538 138.423 131.756C139.315 129.974 139.825 128.246 138.635 125.572C139.512 125.271 139.987 125.089 140.717 124.681C141.015 125.176 141.695 126.884 141.695 128.785C141.695 131.162 140.505 133.241 138.423 135.914C136.757 138.053 131.778 141.954 129.497 143.637C131.977 143.043 137.59 142.033 140.208 142.746C143.481 143.637 144.373 145.42 144.671 147.796C144.968 150.172 142.291 152.252 139.91 152.846C139.117 152.945 137.292 153.143 136.34 153.143H90.5222C87.8446 153.143 82.3702 152.37 75.9438 145.717C73.6628 143.439 68.6844 136.865 67.0183 128.785C64.9356 118.686 65.5307 111.854 66.1257 107.993C66.7207 104.131 69.6959 97.0021 71.481 94.3288C73.2662 91.6554 73.8612 87.1998 74.1587 84.8235C74.4562 82.4472 74.7537 80.0709 71.481 77.1005C68.2083 74.1301 65.5307 74.1301 64.3406 74.1301C63.1505 74.1301 60.4728 74.1301 58.3902 75.9123C56.3076 77.6946 55.1175 80.3679 54.82 81.8531C54.5225 83.3383 54.5225 84.2294 54.82 86.0117C55.058 87.4375 56.3076 90.5663 56.9026 91.9525Z" fill="white"/>
<defs>
<linearGradient id="paint0_linear_969_757" x1="0" y1="0" x2="200" y2="200" gradientUnits="userSpaceOnUse">
<stop stop-color="#120024"/>
<stop offset="1" stop-color="#1D003A"/>
</linearGradient>
</defs>
</svg>
