<svg width="32" height="32" viewBox="0 0 32 32" fill="none" xmlns="http://www.w3.org/2000/svg">
<g clip-path="url(#clip0_511_487)">
<path d="M22.1726 22.2593C23.3535 22.131 24.2494 21.0631 24.2086 19.7813C24.168 18.4997 23.1499 17.4744 21.9282 17.4744H21.8469C20.5844 17.5171 19.6071 18.6278 19.6479 19.9522C19.6886 20.5931 19.9329 21.1484 20.2994 21.5329C18.9149 24.3954 16.7974 26.4887 13.6211 28.2403C11.4629 29.4366 9.22325 29.8638 6.98362 29.5648C5.15112 29.3084 3.72587 28.4541 2.82987 27.0441C1.52687 24.9507 1.40475 22.6864 2.50425 20.4222C3.278 18.7987 4.4995 17.6025 5.27325 17.0044C5.11037 16.449 4.866 15.5091 4.74387 14.8256C-1.16075 19.3115 -0.549876 25.378 1.24187 28.2403C2.58562 30.3765 5.314 31.7009 8.32737 31.7009C9.14175 31.7009 9.95612 31.6154 10.7706 31.4019C15.983 30.3338 19.933 27.0868 22.1726 22.2593ZM29.3396 16.9617C26.2447 13.1594 21.684 11.0661 16.4716 11.0661H15.8201C15.4536 10.2971 14.6799 9.78434 13.8247 9.78434H13.7432C12.481 9.82709 11.5037 10.9378 11.5444 12.2623C11.5851 13.5439 12.6031 14.5693 13.8247 14.5693H13.9061C14.802 14.5265 15.5757 13.9284 15.9015 13.1167H16.6345C19.7294 13.1167 22.6612 14.0565 25.3082 15.8936C27.3442 17.3035 28.8102 19.1406 29.6246 21.362C30.3169 23.1564 30.2761 24.908 29.5431 26.4034C28.403 28.6676 26.4891 29.9066 23.9644 29.9066C22.3355 29.9066 20.7881 29.3938 19.9736 29.0093C19.5257 29.4366 18.7112 30.12 18.1411 30.5474C19.8922 31.4018 21.684 31.8718 23.3942 31.8718C27.3035 31.8718 30.1947 29.6074 31.2942 27.3432C32.4751 24.8652 32.3936 20.5931 29.3396 16.9617ZM8.65312 22.9854C8.69387 24.2671 9.71187 25.2924 10.9335 25.2924H11.015C12.2774 25.2497 13.2546 24.1389 13.2139 22.8145C13.1732 21.5328 12.1551 20.5076 10.9335 20.5076H10.8521C10.7706 20.5076 10.6484 20.5076 10.5671 20.5502C8.8975 17.6451 8.20525 14.4838 8.44962 11.0659C8.61237 8.5026 9.42687 6.28101 10.8521 4.44391C12.033 2.86318 14.3134 2.09419 15.8609 2.05157C20.1772 1.96607 22.0096 7.60536 22.1319 9.86971C22.6612 9.99783 23.5571 10.297 24.168 10.5106C23.6792 3.58968 19.6071 0.000976562 15.698 0.000976562C12.033 0.000976562 8.65312 2.77794 7.30925 6.87925C5.43612 12.3477 6.65775 17.6025 8.93812 21.7465C8.73462 22.0455 8.61237 22.5154 8.65312 22.9854Z" fill="#764ABC"/>
</g>
<defs>
<clipPath id="clip0_511_487">
<rect width="32" height="32" fill="white"/>
</clipPath>
</defs>
</svg>
