<svg width="32" height="32" viewBox="0 0 32 32" fill="none" xmlns="http://www.w3.org/2000/svg">
<path d="M15.664 7.24798C10.496 7.41223 8.96 11.104 8.608 13.104C9.06666 12.3626 10.512 10.736 12.64 10.736C15.12 10.736 17.008 13.504 18.16 14.368C19.5596 15.4177 22.3719 16.8037 26.064 15.68C29.008 14.784 30.3733 11.6586 30.672 10.176C29.248 12.112 27.088 13.2748 24.416 11.904C22.576 10.96 21.2 7.07201 15.664 7.24798Z" fill="#07B6D5"/>
<path d="M8.352 16.0322C3.184 16.1964 1.648 19.8882 1.296 21.8882C1.75466 21.1468 3.2 19.5202 5.328 19.5202C7.808 19.5202 9.696 22.2882 10.848 23.1522C12.2476 24.2019 15.0599 25.5879 18.752 24.4642C21.696 23.5682 23.0613 20.4428 23.36 18.9602C21.936 20.8962 19.776 22.059 17.104 20.6882C15.264 19.7442 13.888 15.8562 8.352 16.0322Z" fill="#07B6D5"/>
</svg>
