<svg width="32" height="32" viewBox="0 0 32 32" xmlns="http://www.w3.org/2000/svg">
<path fill-rule="evenodd" clip-rule="evenodd" d="M28 8C28 5.79086 26.2091 4 24 4H8C5.79086 4 4 5.79086 4 8V24C4 26.2091 5.79086 28 8 28H24C26.2091 28 28 26.2091 28 24V8ZM10.7071 17.7841C10.3166 17.3936 10.3166 16.7604 10.7071 16.3699L11.5429 15.5341C11.9334 15.1436 12.5666 15.1436 12.9571 15.5341L14.5381 17.1152C14.7522 17.3292 15.1059 17.3054 15.2894 17.0647L20.0631 10.8011C20.3996 10.3596 21.0313 10.2767 21.4704 10.6164L22.4038 11.3386C22.8389 11.6752 22.9203 12.3001 22.5861 12.7371L15.9439 21.42C15.5764 21.9003 14.8701 21.9471 14.4425 21.5195L10.7071 17.7841Z" />
</svg>
