<svg width="32" height="32" viewBox="0 0 32 32" fill="none" xmlns="http://www.w3.org/2000/svg">
<path d="M26 16V6.5C26 5.67157 25.1792 5 24.1667 5H5.83333C4.82081 5 4 5.67157 4 6.5V21.5C4 22.3284 4.82081 23 5.83333 23H18" stroke-width="2"/>
<path d="M18 20H7.95319C7.27951 20 6.81885 19.464 7.06905 18.9713L9.86171 13.4718C10.1041 12.9945 10.8701 12.8463 11.3656 13.1808L17.0215 16.9996L18.9967 15.4437C19.4406 15.094 20.1853 15.1725 20.4968 15.602L20.595 15.7373C20.7188 15.9081 20.7855 16.1136 20.7855 16.3245V16.5898" stroke-width="2"/>
<path d="M20.0249 25.5L20 19.055C19.9979 18.5045 20.4411 18.0558 20.9915 18.0512L27.0249 18" stroke-width="2" stroke-linecap="round"/>
<path d="M29.4653 27.5287L20.6725 18.736" stroke-width="2" stroke-linecap="round"/>
<circle cx="20.5" cy="10.5" r="1.5" stroke-width="2"/>
</svg>
