<svg width="32" height="32" viewBox="0 0 32 32" fill="none" xmlns="http://www.w3.org/2000/svg">
<path d="M16.6638 21.9743L13.0129 25.6252C11.1798 27.4583 8.20785 27.4583 6.37479 25.6252C4.54174 23.7922 4.54174 20.8202 6.37479 18.9871L11.6853 13.6767C13.5183 11.8436 16.4903 11.8436 18.3233 13.6767C18.8541 14.2074 19.2311 14.8336 19.4545 15.5M15.3362 10.0257L18.9871 6.37479C20.8202 4.54174 23.7922 4.54174 25.6252 6.37479C27.4583 8.20785 27.4583 11.1798 25.6252 13.0129L20.3147 18.3233C18.4817 20.1564 15.5097 20.1564 13.6767 18.3233C13.1459 17.7926 12.7689 17.1664 12.5455 16.5" stroke-linecap="round"/>
</svg>
