<svg width="32" height="32" viewBox="0 0 32 32" fill="none" xmlns="http://www.w3.org/2000/svg">
<path d="M26 9L25.0997 26.1051C25.0438 27.1674 24.1662 28 23.1025 28H8.89751C7.83379 28 6.95618 27.1674 6.90027 26.1051L6 9M26 9V9C26.5523 9 27 8.55228 27 8V7C27 6.44772 26.5523 6 26 6H19.4901C19.0504 6 18.6622 5.71275 18.5337 5.29222L18.0496 3.70778C17.9211 3.28725 17.533 3 17.0932 3H14.9068C14.467 3 14.0789 3.28725 13.9504 3.70778L13.4663 5.29222C13.3378 5.71275 12.9496 6 12.5099 6H6C5.44772 6 5 6.44772 5 7V8C5 8.55228 5.44772 9 6 9V9M26 9H6M16 12.5V24.5M22 12.5L21.5 24.449M10 12.5L10.5 24.5" stroke-width="2" stroke-linecap="round"/>
</svg>
