<svg width="32" height="32" viewBox="0 0 32 32" fill="none" xmlns="http://www.w3.org/2000/svg">
<path fill-rule="evenodd" clip-rule="evenodd" d="M10.5789 26H13.1551H16.7147C18.2752 26 19.5956 25.7802 20.6759 25.3407C21.7655 24.9011 22.5919 24.2463 23.1551 23.3764C23.7184 22.4973 24 21.4167 24 20.1346C24 19.3288 23.8246 18.5733 23.4737 17.8681C23.132 17.163 22.5826 16.5907 21.8255 16.1511C21.4913 15.9506 21.1091 15.7967 20.679 15.6894C20.869 15.6141 21.048 15.5298 21.2161 15.4368C22.0194 14.9973 22.6057 14.4295 22.9751 13.7335C23.3536 13.0375 23.5429 12.2775 23.5429 11.4533C23.5429 10.5192 23.3721 9.71337 23.0305 9.03571C22.6888 8.3489 22.1948 7.78114 21.5485 7.33242C20.9021 6.8837 20.1127 6.54945 19.1801 6.32967C18.2567 6.10989 17.2087 6 16.036 6H9V26H10.5789ZM16.7147 22.7857C17.4441 22.7857 18.0397 22.6712 18.5014 22.4423C18.9631 22.2042 19.3047 21.8837 19.5263 21.4808C19.7479 21.0778 19.8587 20.6154 19.8587 20.0934C19.8587 19.5073 19.7572 18.9991 19.554 18.5687C19.3601 18.1383 19.0462 17.8086 18.6122 17.5797C18.1782 17.3416 17.6057 17.2225 16.8947 17.2225H13.1551V22.7857H16.7147ZM17.9197 14.1044C17.4303 14.2967 16.8024 14.3929 16.036 14.3929H13.1551V9.22802H16.036C16.8116 9.22802 17.4441 9.31502 17.9335 9.48901C18.4321 9.663 18.7969 9.94231 19.0277 10.3269C19.2678 10.7115 19.3878 11.2152 19.3878 11.8379C19.3878 12.3874 19.2632 12.8544 19.0139 13.239C18.7738 13.6145 18.409 13.9029 17.9197 14.1044Z" fill="#333333"/>
</svg>
