<svg width="32" height="32" viewBox="0 0 32 32" fill="none" xmlns="http://www.w3.org/2000/svg">
<path fill-rule="evenodd" clip-rule="evenodd" d="M28 6C28 4.89543 27.1046 4 26 4H6C4.89543 4 4 4.89543 4 6V26C4 27.1046 4.89543 28 6 28H26C27.1046 28 28 27.1046 28 26V6ZM23.0815 11.2929C23.472 11.6834 23.472 12.3166 23.0815 12.7071L15.6569 20.1317C15.2663 20.5223 14.6332 20.5223 14.2426 20.1317L9.29289 15.182C8.90237 14.7915 8.90237 14.1583 9.29289 13.7678C9.68342 13.3772 10.3166 13.3772 10.7071 13.7678L14.2426 17.3033C14.6332 17.6938 15.2663 17.6938 15.6569 17.3033L21.6673 11.2929C22.0578 10.9024 22.691 10.9024 23.0815 11.2929Z" fill="#333333"/>
</svg>
