<svg width="32" height="32" viewBox="0 0 32 32" fill="none" xmlns="http://www.w3.org/2000/svg">
<path d="M4 6C4 4.89543 4.89543 4 6 4H13C14.1046 4 15 4.89543 15 6V15C15 16.1046 14.1046 17 13 17H6C4.89543 17 4 16.1046 4 15V6Z" fill="#333333"/>
<path d="M4 21C4 19.8954 4.89543 19 6 19H13C14.1046 19 15 19.8954 15 21V26C15 27.1046 14.1046 28 13 28H6C4.89543 28 4 27.1046 4 26V21Z" fill="#333333"/>
<path d="M17 14C17 12.8954 17.8954 12 19 12H26C27.1046 12 28 12.8954 28 14V26C28 27.1046 27.1046 28 26 28H19C17.8954 28 17 27.1046 17 26V14Z" fill="#333333"/>
<path d="M17 6C17 4.89543 17.8954 4 19 4H26C27.1046 4 28 4.89543 28 6V8C28 9.10457 27.1046 10 26 10H19C17.8954 10 17 9.10457 17 8V6Z" fill="#333333"/>
</svg>
