<svg width="32" height="32" viewBox="0 0 32 32" fill="none" xmlns="http://www.w3.org/2000/svg">
<path fill-rule="evenodd" clip-rule="evenodd" d="M28 7L25 4H6C4.89543 4 4 4.89543 4 6V26C4 27.1046 4.89543 28 6 28H26C27.1046 28 28 27.1046 28 26V7ZM26 25C26 26.1046 25.1046 27 24 27H8C6.89543 27 6 26.1046 6 25V15H26V25ZM24.5858 6C24.5858 5.44772 24.1381 5 23.5858 5H12C11.4477 5 11 5.44772 11 6V12C11 12.5523 11.4477 13 12 13H23.5858C24.1381 13 24.5858 12.5523 24.5858 12V6Z" fill="#333333"/>
<path d="M22 6C22.5523 6 23 6.44772 23 7V11C23 11.5523 22.5523 12 22 12C21.4477 12 21 11.5523 21 11V7C21 6.44772 21.4477 6 22 6Z" fill="#333333"/>
</svg>
