<svg width="32" height="32" viewBox="0 0 32 32" fill="none" xmlns="http://www.w3.org/2000/svg">
<path fill-rule="evenodd" clip-rule="evenodd" d="M6 4C4.89543 4 4 4.89543 4 6V26C4 27.1046 4.5 28 5.5 28C6.5 28 7 27 7 26V12C7 10.3431 8.34315 9 10 9H27.7324C27.3866 8.40219 26.7403 8 26 8H18.2361C17.4785 8 16.786 7.572 16.4472 6.89443L15.5528 5.10557C15.214 4.428 14.5215 4 13.7639 4H6Z" fill="#333333"/>
<path d="M8 12C8 10.8954 8.89543 10 10 10H28C29.1046 10 30 10.8954 30 12V26C30 27.1046 29.1046 28 28 28H10C8.89543 28 8 27.1046 8 26V12Z" fill="#333333"/>
</svg>
