<svg width="32" height="32" viewBox="0 0 32 32" fill="none" xmlns="http://www.w3.org/2000/svg">
<path fill-rule="evenodd" clip-rule="evenodd" d="M27 4H5C4.44772 4 4 4.44772 4 5V27C4 27.5523 4.44772 28 5 28H27C27.5523 28 28 27.5523 28 27V5C28 4.44772 27.5523 4 27 4ZM27 3H5C3.89543 3 3 3.89543 3 5V27C3 28.1046 3.89543 29 5 29H27C28.1046 29 29 28.1046 29 27V5C29 3.89543 28.1046 3 27 3Z" fill="#333333"/>
<path fill-rule="evenodd" clip-rule="evenodd" d="M5 20V26.5C5 26.7761 5.22386 27 5.5 27H26.5C26.7761 27 27 26.7761 27 26.5V20C24 15.5 23 15.5 22 15.5C21.4142 15.5 20.6569 16.3579 20.0294 17.0685C19.5858 17.5711 19.2071 18 19 18C18.8629 18 18.5376 17.6238 18.0656 17.0778C16.8166 15.6333 15.5 11.5 12 11.5C9 11.5 6 17.5 5 20Z" fill="#333333"/>
<path d="M25 8.5C25 9.88071 23.8807 11 22.5 11C21.1193 11 20 9.88071 20 8.5C20 7.11929 21.1193 6 22.5 6C23.8807 6 25 7.11929 25 8.5Z" fill="#333333"/>
</svg>
