<svg width="32" height="32" viewBox="0 0 32 32" fill="none" xmlns="http://www.w3.org/2000/svg">
<path d="M9 15.5C9 15.2239 9.22386 15 9.5 15H22.5C22.7761 15 23 15.2239 23 15.5C23 15.7761 22.7761 16 22.5 16H9.5C9.22386 16 9 15.7761 9 15.5Z" fill="#333333"/>
<path fill-rule="evenodd" clip-rule="evenodd" d="M23.5 20C25.9853 20 28 17.9853 28 15.5C28 13.0147 25.9853 11 23.5 11H19.5C19.2239 11 19 10.7761 19 10.5C19 10.2239 19.2239 10 19.5 10H23.5C26.5376 10 29 12.4624 29 15.5C29 18.5376 26.5376 21 23.5 21H19.5C19.2239 21 19 20.7761 19 20.5C19 20.2239 19.2239 20 19.5 20H23.5Z" fill="#333333"/>
<path d="M4 15.5C4 13.0147 6.01472 11 8.5 11H12.5C12.7761 11 13 10.7761 13 10.5C13 10.2239 12.7761 10 12.5 10H8.5C5.46243 10 3 12.4624 3 15.5C3 18.5376 5.46243 21 8.5 21H12.5C12.7761 21 13 20.7761 13 20.5C13 20.2239 12.7761 20 12.5 20H8.5C6.01472 20 4 17.9853 4 15.5Z" fill="#333333"/>
</svg>
