<svg width="32" height="32" viewBox="0 0 32 32" fill="none" xmlns="http://www.w3.org/2000/svg">
<path fill-rule="evenodd" clip-rule="evenodd" d="M7 5C7 3.34315 8.34315 2 10 2H22C23.6569 2 25 3.34315 25 5V27C25 28.6569 23.6569 30 22 30H10C8.34315 30 7 28.6569 7 27V5ZM9 5C9 4.44772 9.44772 4 10 4H12C12 4.55228 12.4477 5 13 5H19C19.5523 5 20 4.55228 20 4H22C22.5523 4 23 4.44772 23 5V25C23 25.5523 22.5523 26 22 26H10C9.44772 26 9 25.5523 9 25V5ZM16 29C16.5523 29 17 28.5523 17 28C17 27.4477 16.5523 27 16 27C15.4477 27 15 27.4477 15 28C15 28.5523 15.4477 29 16 29Z" fill="#333333"/>
</svg>
