<svg width="32" height="32" viewBox="0 0 32 32" fill="none" xmlns="http://www.w3.org/2000/svg">
<path fill-rule="evenodd" clip-rule="evenodd" d="M19.3428 19.6497C19.4711 19.9617 19.5353 20.3182 19.5353 20.7193C19.5353 21.2451 19.3978 21.7086 19.1228 22.1096C18.8478 22.5107 18.4354 22.8226 17.8854 23.0455C17.3446 23.2683 16.6709 23.3797 15.8643 23.3797C15.2502 23.3797 14.6728 23.3128 14.132 23.1791C13.6004 23.0455 13.1329 22.8405 12.7296 22.5642C12.3263 22.279 12.0101 21.9135 11.7809 21.4679C11.561 21.0223 11.451 20.4831 11.451 19.8503H8C8 20.8841 8.22456 21.7888 8.67369 22.5642C9.12282 23.3307 9.72777 23.9724 10.4885 24.4893C11.2493 24.9973 12.0926 25.3761 13.0183 25.6257C13.9533 25.8752 14.9019 26 15.8643 26C16.9368 26 17.9083 25.8797 18.7791 25.639C19.659 25.3895 20.4106 25.0374 21.0339 24.5829C21.6664 24.1194 22.1522 23.5624 22.4913 22.9118C22.8304 22.2522 23 21.5125 23 20.6925C23 19.9082 22.8625 19.2086 22.5875 18.5936C22.3632 18.0846 22.0473 17.62 21.6399 17.2H24V16H20.0434C19.8059 15.8652 19.554 15.736 19.2878 15.6123C18.4629 15.2201 17.4959 14.8636 16.3868 14.5428C15.6535 14.3378 15.0165 14.1239 14.4757 13.9011C13.9349 13.6783 13.4858 13.4421 13.1283 13.1925C12.7709 12.934 12.505 12.6578 12.3309 12.3636C12.1567 12.0606 12.0697 11.7264 12.0697 11.361C12.0697 10.844 12.2026 10.3806 12.4684 9.97059C12.7342 9.56061 13.1375 9.23529 13.6783 8.99465C14.2191 8.75401 14.8973 8.63369 15.7131 8.63369C16.5747 8.63369 17.2851 8.77629 17.8442 9.0615C18.4125 9.3467 18.8341 9.73886 19.1091 10.238C19.3932 10.7282 19.5353 11.2941 19.5353 11.9358H22.9588C22.9588 10.8485 22.6654 9.85472 22.0788 8.95455C21.5014 8.05437 20.6719 7.3369 19.5903 6.80214C18.5179 6.26738 17.2392 6 15.7544 6C14.7003 6 13.7379 6.13369 12.8671 6.40107C11.9963 6.65954 11.2401 7.02941 10.5985 7.5107C9.96609 7.98307 9.47571 8.54456 9.12741 9.19519C8.78827 9.84581 8.6187 10.5677 8.6187 11.361C8.6187 12.1631 8.78368 12.8717 9.11366 13.4866C9.44363 14.0927 9.90651 14.6319 10.5023 15.1043C10.9199 15.4291 11.387 15.7277 11.9037 16H8V17.2H14.958C15.0486 17.2281 15.1399 17.2559 15.2319 17.2834C16.1027 17.5419 16.8176 17.7959 17.3767 18.0455C17.945 18.2861 18.385 18.5357 18.6966 18.7941C19.0082 19.0526 19.2236 19.3378 19.3428 19.6497Z" fill="#333333"/>
</svg>
