<svg width="32" height="32" viewBox="0 0 32 32" fill="none" xmlns="http://www.w3.org/2000/svg">
<path d="M19.5224 6H22.5075V17.082C22.5075 18.3424 22.2209 19.3979 21.6478 20.2483C21.0746 21.0987 20.2945 21.7403 19.3075 22.1731C18.3284 22.5983 17.2338 22.8109 16.0239 22.8109C14.7741 22.8109 13.6597 22.5983 12.6806 22.1731C11.7015 21.7403 10.9294 21.0987 10.3642 20.2483C9.80697 19.3979 9.52836 18.3424 9.52836 17.082V6H12.5134V17.082C12.5134 17.8793 12.6567 18.5361 12.9433 19.0524C13.2299 19.5611 13.6358 19.937 14.1612 20.18C14.6866 20.4229 15.3075 20.5444 16.0239 20.5444C16.7403 20.5444 17.3572 20.4229 17.8746 20.18C18.4 19.937 18.806 19.5611 19.0925 19.0524C19.3791 18.5361 19.5224 17.8793 19.5224 17.082V6Z" fill="#333333"/>
<path d="M8 24.861H24V26H8V24.861Z" fill="#333333"/>
</svg>
