<svg width="32" height="32" viewBox="0 0 32 32" fill="none" xmlns="http://www.w3.org/2000/svg">
<g clip-path="url(#clip0_512_424)">
<path d="M29.7692 19.545C26.0437 20.2905 25.7876 19.0669 25.7876 19.0669C29.7211 13.4046 31.3655 6.21729 29.9464 4.45823C26.0752 -0.340159 19.3739 1.92917 19.2621 1.98808L19.2261 1.99434C18.4901 1.84611 17.6664 1.75781 16.7406 1.74315C15.0549 1.71635 13.7762 2.17187 12.8059 2.88569C12.8059 2.88569 0.851498 -1.89187 1.40748 8.89436C1.52576 11.189 4.79774 26.257 8.70043 21.7058C10.1269 20.0415 11.5051 18.6344 11.5051 18.6344C12.1896 19.0755 13.0091 19.3006 13.8682 19.2197L13.935 19.1648C13.9142 19.3714 13.9237 19.5735 13.9617 19.8128C12.9563 20.9025 13.2518 21.0938 11.2419 21.4952C9.20827 21.9018 10.403 22.6256 11.183 22.8148C12.1286 23.0442 14.3163 23.3692 15.7945 21.3618L15.7356 21.5908C16.1295 21.8969 16.4061 23.5818 16.3598 25.1091C16.3134 26.6366 16.2824 27.6852 16.5928 28.5043C16.9032 29.3233 17.2126 31.1662 19.8547 30.617C22.0624 30.1581 23.2064 28.9687 23.3656 26.9847C23.4785 25.5743 23.7341 25.7828 23.7503 24.5218L23.9553 23.9248C24.1917 22.0128 23.9928 21.396 25.353 21.6829L25.6835 21.7111C26.6846 21.7553 27.9948 21.5549 28.7638 21.2081C30.4197 20.4626 31.4017 19.2179 29.769 19.545H29.7692Z" fill="#336791"/>
<path fill-rule="evenodd" clip-rule="evenodd" d="M29.1495 21.0195C29.3635 20.9062 29.5614 20.7865 29.7379 20.6659C29.7402 20.6643 29.7424 20.6627 29.7447 20.6612C29.7529 20.6556 29.761 20.65 29.769 20.6444C29.7691 20.6444 29.7691 20.6443 29.7692 20.6443C29.8404 20.5949 29.9079 20.5454 29.9715 20.4963C29.9715 20.4962 29.9715 20.4962 29.9715 20.4962C29.9838 20.4867 29.996 20.4772 30.008 20.4677C30.7397 19.8885 30.9044 19.3615 29.9083 19.5199C29.8642 19.5269 29.8179 19.5352 29.7692 19.545C29.7691 19.545 29.7691 19.545 29.769 19.545C29.7222 19.5544 29.6758 19.5635 29.63 19.5722C29.488 19.5994 29.3512 19.6237 29.2194 19.6452C29.0343 19.6754 28.8591 19.7001 28.6933 19.72C27.9566 19.8083 27.4056 19.7999 26.9938 19.7409C26.9072 19.7285 26.8268 19.7138 26.7521 19.6974C25.8794 19.5053 25.7876 19.0668 25.7876 19.0668C29.7211 13.4046 31.3654 6.21728 29.9464 4.45822C26.0752 -0.340172 19.3739 1.92916 19.2621 1.98807L19.2261 1.99432C18.4901 1.8461 17.6664 1.7578 16.7406 1.74314C15.0549 1.71634 13.7762 2.17186 12.8059 2.88567C12.8059 2.88567 0.851494 -1.89188 1.40748 8.89434C1.52575 11.189 4.79773 26.257 8.70043 21.7058C8.74157 21.6577 8.78268 21.61 8.82371 21.5624C9.10596 21.2353 9.38481 20.9197 9.64985 20.6245C10.6821 19.4746 11.5051 18.6344 11.5051 18.6344C11.8259 18.8411 12.1764 19.0004 12.5466 19.103C12.6037 19.1188 12.6612 19.1332 12.7191 19.1463C12.9049 19.1882 13.0952 19.216 13.2887 19.2284C13.4791 19.2407 13.6726 19.2381 13.8682 19.2197L13.935 19.1648C13.9309 19.2053 13.928 19.2456 13.9263 19.286C13.919 19.452 13.9312 19.6204 13.9617 19.8128C13.9513 19.8241 13.941 19.8352 13.9309 19.8463C13.7343 20.0614 13.5887 20.2408 13.4649 20.3933C13.4107 20.46 13.3607 20.5216 13.3125 20.5788C12.9403 21.0198 12.6703 21.2011 11.3849 21.4662C11.3584 21.4716 11.3314 21.4771 11.304 21.4827C11.2835 21.4868 11.2629 21.491 11.2419 21.4952C10.934 21.5567 10.7001 21.6256 10.5276 21.6987C10.1902 21.8417 10.0875 22.0012 10.1247 22.1552C10.1943 22.4425 10.752 22.7103 11.183 22.8148C11.1942 22.8175 11.2055 22.8202 11.2171 22.823C11.2587 22.8329 11.3024 22.8428 11.3483 22.8528C12.1032 23.0161 13.4181 23.1613 14.6174 22.4479C14.9725 22.2367 15.3175 21.9501 15.6348 21.5664C15.6889 21.501 15.7422 21.4329 15.7945 21.3617L15.7356 21.5908C15.9374 21.7476 16.1085 22.2665 16.221 22.9406C16.3282 23.5822 16.3824 24.3644 16.3598 25.1091C16.3134 26.6366 16.2824 27.6852 16.5928 28.5043C16.6237 28.5856 16.6545 28.677 16.6876 28.7752C16.9877 29.6658 17.475 31.1117 19.8547 30.617C22.0624 30.1581 23.2064 28.9687 23.3656 26.9847C23.4196 26.3098 23.5063 26.0056 23.5838 25.7336C23.6683 25.4373 23.7418 25.1793 23.7503 24.5218L23.9553 23.9248C23.9925 23.6237 24.0189 23.3548 24.0423 23.1164C24.1677 21.841 24.207 21.4412 25.353 21.6829L25.6835 21.7111C26.6846 21.7553 27.9948 21.5549 28.7638 21.2081C28.8971 21.1481 29.0259 21.0849 29.1495 21.0195ZM29.3491 22.4298C28.327 22.8907 26.7816 23.1081 25.6204 23.0568L25.5911 23.0555L25.4449 23.0431C25.4399 23.0928 25.4345 23.1466 25.4289 23.2038C25.4038 23.4574 25.3723 23.776 25.334 24.0852L25.3173 24.2209L25.1336 24.7558C25.111 25.3761 25.0292 25.7164 24.933 26.055C24.9286 26.0705 24.9242 26.0858 24.9198 26.1012C24.8566 26.3218 24.794 26.5404 24.7501 27.0891L24.75 27.0893C24.6515 28.318 24.2331 29.4222 23.3919 30.2936C22.5614 31.1538 21.4356 31.6661 20.1456 31.9343C19.3285 32.1041 18.5793 32.1127 17.9052 31.9326C17.2141 31.7479 16.6898 31.3879 16.3047 30.9613C15.9348 30.5515 15.7137 30.1037 15.5706 29.7527C15.4982 29.5751 15.4401 29.4076 15.3947 29.2739C15.3828 29.2389 15.3722 29.2076 15.3627 29.1792C15.3315 29.0868 15.3108 29.0255 15.2895 28.9691C14.8839 27.8988 14.9239 26.6106 14.9658 25.2595C14.9678 25.1963 14.9698 25.1329 14.9717 25.0695C14.9844 24.6514 14.9696 24.2205 14.9338 23.8208C13.2865 24.6024 11.5825 24.3004 10.8461 24.1217L11.1597 22.9053L10.8462 24.1217C10.8462 24.1217 10.8461 24.1217 10.8461 24.1217C10.5444 24.0485 10.2117 23.9276 9.91053 23.7678C9.71993 23.6666 9.40364 23.4791 9.14551 23.1772C8.63284 23.5907 8.02867 23.8733 7.33029 23.902C6.33394 23.943 5.5336 23.4506 4.96322 22.9127C3.86094 21.8734 2.99556 20.0847 2.33142 18.3321C1.6434 16.5165 1.08573 14.4991 0.693018 12.7987C0.306895 11.1269 0.0564808 9.65874 0.020549 8.96162C-0.130055 6.03987 0.556165 3.90337 1.94522 2.47917C3.32229 1.06726 5.16559 0.587371 6.82284 0.500004C8.48218 0.412527 10.1141 0.706955 11.2948 1.00358C11.8243 1.13658 12.2774 1.27374 12.6201 1.38609C13.7457 0.739129 15.1198 0.370052 16.7632 0.396165M24.8265 22.9632C24.8266 22.9632 24.8275 22.9632 24.8295 22.9633C24.8275 22.9633 24.8265 22.9632 24.8265 22.9632ZM29.3491 22.4298C29.8453 22.2063 30.2996 21.9421 30.6787 21.668C31.0376 21.4086 31.4069 21.0848 31.657 20.7188C31.7755 20.5453 31.9492 20.2455 31.9874 19.8596C32.034 19.3878 31.8617 18.8492 31.374 18.4896C30.9846 18.2024 30.5552 18.1538 30.31 18.1456C30.0339 18.1364 29.7527 18.1727 29.4882 18.2257C28.7705 18.3693 28.2343 18.4249 27.8409 18.4363C29.4284 15.8403 30.5728 13.0618 31.2188 10.6357C31.5996 9.20523 31.8186 7.85476 31.8369 6.70746C31.8539 5.63869 31.705 4.45236 31.04 3.62797L31.04 3.62792C28.7576 0.798899 25.6402 0.0826535 23.211 0.0545951C21.9968 0.04057 20.9221 0.195687 20.1441 0.357C19.7534 0.438003 19.4317 0.521788 19.1975 0.589556C19.1775 0.595337 19.1581 0.601023 19.1393 0.606602C18.4097 0.481707 17.62 0.409734 16.7633 0.396166" fill="black"/>
<path fill-rule="evenodd" clip-rule="evenodd" d="M16.7482 1.19052C15.1019 1.16433 13.7976 1.57511 12.7744 2.25196C12.6894 2.22139 12.5807 2.18333 12.4509 2.1401C12.1154 2.02832 11.6383 1.88151 11.0678 1.73994C9.93213 1.45813 8.40265 1.19106 6.87572 1.276C5.34943 1.36091 3.77344 1.80148 2.61946 2.98738C1.46147 4.17741 0.803566 6.04019 0.946469 8.81181C0.978153 9.42651 1.21273 10.8305 1.5977 12.4973C1.98485 14.1736 2.53212 16.1503 3.20166 17.9171C3.86327 19.663 4.67072 21.278 5.60953 22.1633C6.08533 22.6119 6.65074 22.9253 7.29116 22.8989C7.93444 22.8724 8.52274 22.5088 9.05546 21.8875L9.05556 21.8874C9.76312 21.0616 10.4374 20.3243 10.9349 19.7932C11.1836 19.5279 11.3878 19.3143 11.5297 19.1673C11.5523 19.1439 11.5733 19.1222 11.5926 19.1022C12.147 19.3913 12.7678 19.5615 13.4199 19.5779C13.421 19.5941 13.4222 19.6102 13.4237 19.6264C13.2944 19.775 13.1886 19.9054 13.0991 20.0156C13.0685 20.0533 13.0399 20.0886 13.0128 20.1215C12.8756 20.2884 12.7852 20.3864 12.6803 20.4654C12.4731 20.6214 12.1433 20.7534 11.149 20.952L11.1489 20.952C10.6261 21.0566 10.2261 21.1949 9.97354 21.3947C9.83919 21.501 9.71945 21.6464 9.6743 21.8364C9.62806 22.031 9.67532 22.2079 9.75125 22.3445C9.88802 22.5905 10.1468 22.7632 10.3558 22.8742C10.5826 22.9946 10.8406 23.0886 11.071 23.1445C11.9238 23.3515 13.8982 23.6697 15.4881 22.2673C15.4779 23.4877 15.4958 24.6599 15.5417 25.669C15.5743 26.3861 15.6214 27.0258 15.6836 27.5445C15.7441 28.0482 15.8233 28.4821 15.9371 28.7581L15.9371 28.7582C16.1173 29.195 16.4336 29.9321 17.097 30.4742C17.7884 31.0392 18.7919 31.344 20.2321 31.0447L20.2322 31.0447C21.3782 30.8063 22.2337 30.4424 22.8448 29.8262C23.4568 29.2091 23.7681 28.3949 23.9495 27.3743C24.1566 26.2105 24.5152 23.4104 24.684 21.9049C24.6889 21.9064 24.6938 21.9079 24.6987 21.9094C25.0784 22.0239 25.561 22.0649 26.0512 22.0597C27.0297 22.0493 28.2011 21.8512 28.9586 21.5101L28.9587 21.5101C29.4 21.3113 29.7992 21.0781 30.1252 20.8424C30.4443 20.6116 30.7186 20.3603 30.8847 20.1173C30.9655 19.9989 31.0476 19.8442 31.0649 19.6692C31.0851 19.4658 31.013 19.2482 30.8136 19.101C30.6469 18.978 30.4447 18.9453 30.279 18.9398C30.103 18.9339 29.9006 18.9569 29.6765 19.0018C27.8513 19.3672 26.9326 19.2462 26.4968 19.0896C26.4003 19.055 26.328 19.0188 26.2744 18.9859C28.1699 16.1807 29.5173 13.0432 30.2308 10.3631C30.5996 8.97818 30.8028 7.70127 30.8196 6.64585C30.836 5.61653 30.6775 4.70208 30.2197 4.13445C28.2014 1.63265 25.4495 0.958533 23.2038 0.918011C21.2552 0.882849 19.647 1.32192 19.1304 1.48959C18.3967 1.31055 17.6034 1.20412 16.7482 1.19052ZM20.7194 2.02262C22.744 2.89989 24.1677 4.33003 25.0961 5.62909C25.6643 6.42409 26.0532 7.17826 26.2858 7.74394C26.4015 8.02532 26.4822 8.26893 26.5259 8.45361C26.5469 8.54215 26.5643 8.63742 26.5665 8.72444C26.5674 8.75966 26.567 8.82111 26.5493 8.89016C26.5705 9.46444 26.5043 9.95263 26.431 10.4221C26.4219 10.4808 26.4127 10.5391 26.4034 10.5971C26.3339 11.0359 26.2661 11.4633 26.2493 11.9748L26.2493 11.975C26.2354 12.3896 26.2703 12.8351 26.3132 13.3249C26.3166 13.3635 26.32 13.4023 26.3235 13.4413L26.3236 13.4427C26.3632 13.8914 26.4057 14.3728 26.4112 14.8624C26.4224 15.852 26.284 16.9127 25.6579 17.9501C25.6943 18.0012 25.7293 18.0519 25.7626 18.1021C27.463 15.4857 28.6802 12.6059 29.337 10.1392C29.6936 8.79959 29.8812 7.59593 29.8966 6.63202C29.9123 5.64202 29.7442 4.99836 29.4926 4.68641C27.7021 2.4669 25.2613 1.85089 23.1866 1.81345C22.2466 1.79649 21.39 1.89912 20.7194 2.02262ZM25.6796 19.6756C25.6732 19.6778 25.6671 19.6798 25.6614 19.6816C25.5975 19.7023 25.5171 19.7225 25.4538 19.7383L25.4537 19.7383C25.4334 19.7434 25.4148 19.7481 25.3991 19.7522C25.3193 19.773 25.2508 19.7936 25.1877 19.8204C25.0724 19.8694 24.974 19.939 24.8989 20.078C24.8192 20.2257 24.7451 20.4908 24.7686 20.9656C24.7912 20.9832 24.8472 21.0163 24.9727 21.0542C25.2205 21.1289 25.5938 21.1689 26.0411 21.1642C26.9378 21.1546 27.9688 20.9684 28.5699 20.6978C28.9563 20.5237 29.3006 20.3216 29.5735 20.1243C29.696 20.0357 29.7993 19.9516 29.8837 19.8748C29.8769 19.8761 29.8701 19.8775 29.8632 19.8789C27.9628 20.2594 26.8453 20.1699 26.1762 19.9295C25.9713 19.8559 25.8084 19.768 25.6796 19.6756ZM24.7551 20.952C24.7555 20.9519 24.7573 20.9537 24.7597 20.9578C24.7559 20.9541 24.7548 20.9521 24.7551 20.952ZM23.8472 21.0219C23.8169 20.444 23.8985 20.0005 24.0812 19.6623C24.2738 19.3058 24.5538 19.1122 24.817 19.0002C24.9432 18.9465 25.064 18.9121 25.1598 18.8872L25.1612 18.8868C25.0803 18.7205 24.9445 18.5092 24.7335 18.2394C24.4805 17.9158 24.1962 17.5043 23.962 16.9533C23.9182 16.8505 23.7995 16.6376 23.6116 16.3031L23.611 16.3019C23.4313 15.982 23.2044 15.578 22.9689 15.1263C22.5003 14.2273 21.983 13.1122 21.7281 12.0524C21.4797 11.0197 21.444 9.88596 22.1576 9.1023C22.7962 8.40113 23.9008 8.12307 25.5084 8.28043C25.485 8.21711 25.4584 8.14878 25.4283 8.0758C25.2204 7.57009 24.864 6.87617 24.3374 6.13937C23.3171 4.71163 21.6811 3.15392 19.2798 2.45804L18.429 2.25515C17.899 2.15499 17.3342 2.09555 16.733 2.08599C15.1618 2.061 13.9944 2.47879 13.1156 3.1158C11.6387 4.18648 10.9044 5.9322 10.5468 7.47228C10.3874 8.15898 10.3064 8.78993 10.2656 9.27607C10.2743 9.27129 10.2831 9.26652 10.292 9.26175C10.7779 8.99928 11.432 8.72746 12.1169 8.57419C12.7932 8.42286 13.5566 8.37435 14.2228 8.6239C14.9245 8.88676 15.4487 9.45436 15.6546 10.3777C16.1386 12.5493 16.0856 14.0128 15.826 15.1224C15.6968 15.6748 15.5192 16.1276 15.3447 16.5217C15.2774 16.6737 15.2143 16.8097 15.1551 16.937C15.0542 17.1543 14.9649 17.3464 14.8869 17.5499C14.8649 17.6074 14.8433 17.6638 14.822 17.7191L14.822 17.7193C14.6479 18.1727 14.501 18.5554 14.4159 18.8963C14.4793 18.8805 14.5434 18.87 14.6081 18.8645C14.9276 18.8374 15.1938 18.9445 15.3404 19.0035L15.3502 19.0075L15.3504 19.0075C15.4594 19.0514 15.5617 19.1086 15.6564 19.1758C15.8567 19.3181 16.023 19.5051 16.1478 19.7047C16.3327 20.0005 16.451 20.3628 16.4387 20.7303C16.3912 22.478 16.3998 24.2204 16.464 25.6295C16.4961 26.3347 16.5419 26.9513 16.6006 27.4409C16.6612 27.9455 16.7309 28.2718 16.7943 28.4256C16.9732 28.8594 17.2206 29.4043 17.6917 29.7893C18.1349 30.1514 18.8367 30.4188 20.0387 30.169C21.1002 29.9482 21.7501 29.6383 22.1795 29.2053C22.6081 28.7731 22.8726 28.1625 23.0398 27.2221L23.0398 27.222C23.2912 25.8091 23.7761 21.8892 23.8472 21.0219ZM25.6294 9.19477C23.9983 8.99797 23.2117 9.29753 22.8495 9.69525C22.4529 10.1308 22.3915 10.8691 22.6271 11.8489C22.8563 12.8017 23.3327 13.8397 23.7927 14.7221C24.0213 15.1606 24.2422 15.5539 24.4223 15.8746L24.4415 15.9089L24.4416 15.909L24.4417 15.9091C24.6057 16.2012 24.7499 16.4578 24.8154 16.6118C24.8936 16.7958 24.9786 16.9615 25.0669 17.1124C25.4076 16.3841 25.4967 15.6339 25.4881 14.8722C25.483 14.4176 25.4434 13.9685 25.4033 13.5142C25.4 13.4764 25.3967 13.4386 25.3934 13.4008C25.3509 12.9158 25.3107 12.4204 25.3266 11.9459C25.3453 11.3771 25.4218 10.8961 25.4912 10.4593C25.5004 10.4015 25.5095 10.3445 25.5183 10.2881C25.5759 9.91846 25.6231 9.57179 25.6294 9.19477ZM9.30302 10.247C9.30295 10.244 9.30288 10.2401 9.3028 10.2355C9.30261 10.2241 9.30239 10.208 9.30226 10.1872C9.302 10.1457 9.30208 10.0858 9.30337 10.0096C9.30594 9.85705 9.31334 9.63863 9.33252 9.37004C9.37082 8.83367 9.45641 8.09302 9.6462 7.2755C9.97404 5.86337 10.6261 4.16493 11.9385 2.91799C11.6441 2.82443 11.2697 2.71447 10.8391 2.60761C9.74917 2.33716 8.32276 2.09257 6.92857 2.17013C5.53374 2.24772 4.22337 2.64378 3.29078 3.60216C2.36221 4.55642 1.73334 6.14559 1.86851 8.76708C1.89596 9.29972 2.11476 10.6398 2.49855 12.3015C2.88016 13.9537 3.41704 15.8899 4.06815 17.6081C4.72721 19.3472 5.47695 20.7893 6.25298 21.521C6.6346 21.8809 6.96603 22.0159 7.252 22.0041C7.53512 21.9925 7.90278 21.8314 8.34571 21.3148C9.06425 20.4762 9.74791 19.7286 10.2518 19.1909C10.4851 18.9418 10.6801 18.7375 10.8225 18.5897C9.66685 17.6315 8.98454 16.0797 9.22846 14.3875C9.42398 13.0312 9.38675 11.8379 9.34381 11.053C9.33767 10.9409 9.33142 10.8371 9.32571 10.7424L9.32571 10.7423C9.31281 10.5282 9.3027 10.3603 9.30302 10.247ZM11.767 18.161C12.2859 18.4935 12.887 18.6827 13.5195 18.6836C13.6218 18.2763 13.7869 17.8477 13.9507 17.4223C13.9744 17.3609 13.998 17.2996 14.0214 17.2384L14.0215 17.2382C14.1093 17.009 14.2213 16.7673 14.3318 16.5289L14.3318 16.5287C14.3883 16.407 14.4443 16.2862 14.4964 16.1683C14.6584 15.8025 14.8134 15.4044 14.9257 14.9242C15.1492 13.9687 15.2145 12.6405 14.7523 10.567C14.6055 9.90869 14.274 9.60313 13.8902 9.45938C13.471 9.30233 12.9193 9.31375 12.3244 9.44687C11.7381 9.57807 11.165 9.81522 10.7411 10.0442C10.5287 10.1589 10.3653 10.2654 10.2615 10.3473C10.2498 10.3566 10.2394 10.3651 10.2302 10.3728C10.2334 10.4358 10.2383 10.5138 10.244 10.6053L10.244 10.6055C10.2883 11.3157 10.3835 12.8416 10.1428 14.5115C9.91924 16.0621 10.6475 17.4435 11.767 18.161ZM25.387 18.8258C25.39 18.8243 25.3917 18.8236 25.3919 18.8236C25.3921 18.8236 25.3905 18.8244 25.387 18.8258ZM14.6884 19.7567C14.6339 19.7613 14.5071 19.7883 14.3061 20.0065L14.3058 20.0068C14.2898 20.0242 14.2741 20.0413 14.2588 20.0582C14.0807 20.2542 13.9498 20.4153 13.8306 20.5621C13.7979 20.6023 13.7662 20.6414 13.7346 20.6799C13.5911 20.8544 13.4437 21.0243 13.2463 21.1729C12.8492 21.4719 12.3172 21.633 11.3353 21.8292C11.0972 21.8768 10.9185 21.9267 10.7875 21.975C10.7458 21.9903 10.7105 22.005 10.6807 22.0185C10.7145 22.0411 10.754 22.0647 10.7989 22.0885C10.9518 22.1697 11.1355 22.237 11.295 22.2757L11.2951 22.2757C12.2061 22.4969 14.1192 22.762 15.419 20.9964C15.4788 20.9152 15.512 20.8164 15.516 20.702C15.5217 20.5344 15.4659 20.341 15.3584 20.169C15.2495 19.9948 15.1125 19.8814 14.9969 19.8349C14.8425 19.7728 14.7644 19.7503 14.6884 19.7567Z" fill="white"/>
<path d="M13.5385 9.86273C13.3306 9.83458 13.1308 9.8398 12.9739 9.87586C12.896 9.89378 12.8205 9.92115 12.7592 9.96228C12.6979 10.0034 12.6376 10.0682 12.6246 10.1601C12.6126 10.2438 12.6456 10.3302 12.6806 10.3958C12.7192 10.4681 12.7756 10.5437 12.8443 10.6137C12.9802 10.7522 13.1816 10.886 13.4206 10.9181C13.6616 10.9507 13.8792 10.8716 14.0357 10.7687C14.1145 10.7169 14.1816 10.6568 14.232 10.596C14.2793 10.5389 14.3237 10.4671 14.3346 10.3915C14.3478 10.2996 14.3081 10.2213 14.2606 10.1653C14.2132 10.1095 14.1483 10.0631 14.0784 10.0252C13.9376 9.94884 13.7467 9.89085 13.5385 9.86273Z" fill="white"/>
<path fill-rule="evenodd" clip-rule="evenodd" d="M24.5579 9.72489C24.6086 9.75892 24.6511 9.80734 24.6604 9.87156C24.669 9.93169 24.6452 10.0009 24.6121 10.0628C24.5773 10.1279 24.5255 10.1978 24.461 10.2635C24.333 10.394 24.1466 10.5163 23.93 10.5454C23.7124 10.5748 23.5136 10.5037 23.3683 10.4082C23.2954 10.3602 23.234 10.305 23.1887 10.2504C23.145 10.1977 23.1104 10.1386 23.1022 10.0825L23.1022 10.0822C23.0932 10.0179 23.1205 9.96011 23.1598 9.9139C23.199 9.86773 23.2551 9.82679 23.3202 9.79153C23.4508 9.72076 23.6318 9.66504 23.8328 9.63787C24.0338 9.6107 24.2237 9.6163 24.3692 9.64974C24.4416 9.6664 24.5072 9.69089 24.5579 9.72489Z" fill="white"/>
</g>
<defs>
<clipPath id="clip0_512_424">
<rect width="32" height="32" fill="white"/>
</clipPath>
</defs>
</svg>
