<svg width="32" height="32" viewBox="0 0 32 32" fill="none" xmlns="http://www.w3.org/2000/svg">
<g clip-path="url(#clip0_568_377)">
<path d="M16 18.8048C17.5752 18.8048 18.8522 17.549 18.8522 15.9998C18.8522 14.4507 17.5752 13.1948 16 13.1948C14.4248 13.1948 13.1478 14.4507 13.1478 15.9998C13.1478 17.549 14.4248 18.8048 16 18.8048Z" fill="#61DAFB"/>
<path d="M16 21.7466C24.4524 21.7466 31.3044 19.1736 31.3044 15.9998C31.3044 12.8259 24.4524 10.2529 16 10.2529C7.54765 10.2529 0.695656 12.8259 0.695656 15.9998C0.695656 19.1736 7.54765 21.7466 16 21.7466Z" stroke="#61DAFB"/>
<path d="M10.9394 18.8733C15.1656 26.0722 20.8573 30.6216 23.6522 29.0347C26.4471 27.4477 25.2868 20.3254 21.0606 13.1265C16.8344 5.92764 11.1427 1.37827 8.34783 2.96521C5.55294 4.55215 6.71323 11.6745 10.9394 18.8733Z" stroke="#61DAFB"/>
<path d="M10.9394 13.1263C6.71322 20.3252 5.55294 27.4475 8.34783 29.0344C11.1427 30.6214 16.8344 26.072 21.0606 18.8731C25.2868 11.6742 26.4471 4.55191 23.6522 2.96497C20.8573 1.37803 15.1656 5.9274 10.9394 13.1263Z" stroke="#61DAFB"/>
</g>
<defs>
<clipPath id="clip0_568_377">
<rect width="32" height="28" fill="white" transform="translate(0 2)"/>
</clipPath>
</defs>
</svg>
