<svg width="32" height="32" viewBox="0 0 32 32" fill="none" xmlns="http://www.w3.org/2000/svg">
<g clip-path="url(#clip0_512_376)">
<path d="M31.5907 14.2744L25.284 3.36183C24.7381 2.41436 23.3952 1.63623 22.2971 1.63623H9.69667C8.60467 1.63623 7.2556 2.41436 6.70973 3.36183L0.409332 14.2744C-0.136668 15.2218 -0.136668 16.7717 0.409332 17.7193L6.7096 28.638C7.25547 29.5856 8.5984 30.3637 9.69653 30.3637H22.3032C23.3952 30.3637 24.7379 29.5856 25.2901 28.6381L31.5904 17.7194C32.1364 16.7718 32.1367 15.2218 31.5907 14.2744ZM14.6351 7.6729C14.6351 6.95756 15.2187 6.37396 15.934 6.37396C16.6493 6.37396 17.2329 6.95756 17.2329 7.6729V15.4352C17.2329 16.1506 16.6493 16.7341 15.934 16.7341C15.2187 16.7341 14.6351 16.1506 14.6351 15.4352V7.6729ZM15.934 24.2454C11.0771 24.2454 7.12373 20.2921 7.12373 15.4352C7.13 12.649 8.44773 10.0324 10.6817 8.36316C10.8035 8.27215 10.9421 8.20611 11.0896 8.16883C11.237 8.13154 11.3903 8.12375 11.5407 8.1459C11.6912 8.16806 11.8358 8.21972 11.9662 8.29791C12.0966 8.37611 12.2103 8.4793 12.3007 8.60156C12.3917 8.72338 12.4578 8.86199 12.4951 9.00942C12.5324 9.15685 12.5401 9.3102 12.518 9.46065C12.4958 9.6111 12.4442 9.75569 12.366 9.88612C12.2878 10.0165 12.1845 10.1302 12.0623 10.2206C9.182 12.3604 8.5796 16.4329 10.7193 19.3132C12.8592 22.1936 16.9317 22.7958 19.812 20.6561C21.4624 19.4325 22.4351 17.4934 22.4351 15.4352C22.4324 14.4168 22.1915 13.4131 21.7317 12.5044C21.2719 11.5957 20.6059 10.8072 19.7869 10.2018C19.2723 9.8253 19.1656 9.0973 19.5421 8.58276C19.9187 8.0681 20.6465 7.96143 21.1612 8.3381C23.4139 10.0009 24.738 12.6365 24.7443 15.4352C24.7443 20.2984 20.7909 24.2454 15.934 24.2454Z" fill="#6CB33E"/>
</g>
<defs>
<clipPath id="clip0_512_376">
<rect width="32" height="32" fill="white"/>
</clipPath>
</defs>
</svg>
