<svg width="32" height="32" viewBox="0 0 32 32" fill="none" xmlns="http://www.w3.org/2000/svg">
<path fill-rule="evenodd" clip-rule="evenodd" d="M12.3855 6.18841C12.635 6.43963 12.635 6.84692 12.3855 7.09814L5.54269 16L12.3855 24.9019C12.635 25.1531 12.635 25.5604 12.3855 25.8116C12.1359 26.0628 11.7313 26.0628 11.4818 25.8116L4.18716 16.4549C3.93761 16.2036 3.93761 15.7964 4.18716 15.5451L11.4818 6.18841C11.7313 5.9372 12.1359 5.9372 12.3855 6.18841ZM19.6145 6.18841C19.8641 5.9372 20.2687 5.9372 20.5182 6.18841L27.8128 15.5451C28.0624 15.7964 28.0624 16.2036 27.8128 16.4549L20.5182 25.8116C20.2687 26.0628 19.8641 26.0628 19.6145 25.8116C19.365 25.5604 19.365 25.1531 19.6145 24.9019L26.4573 16L19.6145 7.09814C19.365 6.84692 19.365 6.43963 19.6145 6.18841Z" fill="#333333"/>
</svg>
