<svg width="32" height="32" viewBox="0 0 32 32" fill="none" xmlns="http://www.w3.org/2000/svg">
<path d="M8.55025 24.3995C7.37868 23.2279 7.37868 21.3284 8.55025 20.1569L14.2071 14.5C14.4418 14.2653 14.7057 14.0776 14.9872 13.9369C16.1105 13.3755 17.5129 13.5631 18.4497 14.5C19.1837 15.234 19.4579 16.2536 19.2722 17.201C19.3294 17.1518 19.3851 17.1001 19.4394 17.0459L21.1587 15.3265C20.9395 14.5057 20.5079 13.7298 19.864 13.0858C19.068 12.2899 18.0705 11.8184 17.0358 11.6713C15.8305 11.5 14.5748 11.7689 13.5282 12.4779C13.2689 12.6535 13.0225 12.8562 12.7929 13.0858L7.13604 18.7426C5.18341 20.6953 5.18341 23.8611 7.13604 25.8137C9.08866 27.7663 12.2545 27.7663 14.2071 25.8137L19.3106 20.7102C18.3645 21.0376 17.3397 21.0728 16.3768 20.8156L12.7929 24.3995C11.6213 25.5711 9.72182 25.5711 8.55025 24.3995Z" fill="#333333"/>
<path d="M25.4497 7.5C26.6213 8.67157 26.6213 10.5711 25.4497 11.7426L19.7929 17.3995C19.5582 17.6342 19.2942 17.8219 19.0128 17.9626C17.8894 18.524 16.4871 18.3364 15.5502 17.3995C14.8163 16.6655 14.5421 15.6459 14.7278 14.6985L12.8413 16.573C13.0605 17.3938 13.4921 18.1697 14.136 18.8137C14.932 19.6096 15.9295 20.0811 16.9642 20.2282C18.1694 20.3995 19.4252 20.1306 20.4718 19.4216C20.7311 19.246 20.9775 19.0433 21.2071 18.8137L26.864 13.1569C28.8166 11.2042 28.8166 8.03841 26.864 6.08579C24.9113 4.13317 21.7455 4.13317 19.7929 6.08579L14.6894 11.1893C15.6355 10.8619 16.6602 10.8268 17.6232 11.0839L21.2071 7.5C22.3787 6.32843 24.2782 6.32843 25.4497 7.5Z" fill="#333333"/>
</svg>
