<svg width="32" height="32" viewBox="0 0 32 32" fill="none" xmlns="http://www.w3.org/2000/svg">
<path d="M6 7C6 6.44772 6.44772 6 7 6H16C16.5523 6 17 6.44772 17 7V9C17 9.55228 17.4477 10 18 10C18.5523 10 19 9.55228 19 9V5C19 4.44772 18.5523 4 18 4H5C4.44772 4 4 4.44772 4 5V27C4 27.5523 4.44772 28 5 28H18C18.5523 28 19 27.5523 19 27V23C19 22.4477 18.5523 22 18 22C17.4477 22 17 22.4477 17 23V25C17 25.5523 16.5523 26 16 26H7C6.44772 26 6 25.5523 6 25V7Z" fill="#333333"/>
<path fill-rule="evenodd" clip-rule="evenodd" d="M22.3431 8.92893L28.7071 15.2929C29.0976 15.6834 29.0976 16.3166 28.7071 16.7071L22.3431 23.0711C21.9526 23.4616 21.3195 23.4616 20.9289 23.0711C20.5384 22.6805 20.5384 22.0474 20.9289 21.6569L25.5858 17H14C13.4477 17 13 16.5523 13 16C13 15.4477 13.4477 15 14 15H25.5858L20.9289 10.3431C20.5384 9.95262 20.5384 9.31946 20.9289 8.92893C21.3195 8.53841 21.9526 8.53841 22.3431 8.92893Z" fill="#333333"/>
</svg>
