<svg width="32" height="32" viewBox="0 0 32 32" fill="none" xmlns="http://www.w3.org/2000/svg">
<path fill-rule="evenodd" clip-rule="evenodd" d="M16 27C22.0751 27 27 22.0751 27 16C27 9.92487 22.0751 5 16 5C9.92487 5 5 9.92487 5 16C5 22.0751 9.92487 27 16 27ZM16 29C23.1797 29 29 23.1797 29 16C29 8.8203 23.1797 3 16 3C8.8203 3 3 8.8203 3 16C3 23.1797 8.8203 29 16 29Z" fill="#333333"/>
<path d="M15 8H17C17.5523 8 18 8.44772 18 9V14H23C23.5523 14 24 14.4477 24 15V17C24 17.5523 23.5523 18 23 18H18V23C18 23.5523 17.5523 24 17 24H15C14.4477 24 14 23.5523 14 23V18L9 18C8.44772 18 8 17.5523 8 17V15C8 14.4477 8.44772 14 9 14H14V9C14 8.44772 14.4477 8 15 8Z" fill="#333333"/>
</svg>
