<svg width="32" height="32" viewBox="0 0 32 32" fill="none" xmlns="http://www.w3.org/2000/svg">
<g clip-path="url(#clip0_568_375)">
<path d="M28 6.28857L25.9046 29.426L16.4859 31.9998L7.09314 29.4296L5 6.28857H28Z" fill="#264DE4"/>
<path d="M24.1108 27.9527L25.9014 8.18066H16.5V30.0325L24.1108 27.9527Z" fill="#2965F1"/>
<path d="M9.79848 16.7637L10.0565 19.6018H16.5V16.7637H9.79848Z" fill="#EBEBEB"/>
<path d="M16.5 11.019H16.49H9.27994L9.54168 13.8572H16.5V11.019Z" fill="#EBEBEB"/>
<path d="M16.5 27.0876V24.1347L16.4874 24.1381L13.2806 23.2846L13.0756 21.021H11.5174H10.1852L10.5886 25.4773L16.4868 27.0912L16.5 27.0876Z" fill="#EBEBEB"/>
<path d="M10.4129 0H13.9003V1.4375H11.8713V2.875H13.9003V4.3125H10.4129V0Z" fill="black"/>
<path d="M14.5978 0H18.0852V1.25H16.0561V1.5H18.0852V4.375H14.5978V3.0625H16.6268V2.8125H14.5978V0Z" fill="black"/>
<path d="M18.7827 0H22.2701V1.25H20.241V1.5H22.2701V4.375H18.7827V3.0625H20.8117V2.8125H18.7827V0Z" fill="black"/>
<path d="M20.0357 19.6017L19.7014 23.2825L16.49 24.1369V27.0897L22.3929 25.4771L22.4362 24.9976L23.1128 17.5257L23.1831 16.7635L23.7029 11.019H16.49V13.8572H20.5474L20.2854 16.7635H16.49V19.6017H20.0357Z" fill="white"/>
</g>
<defs>
<clipPath id="clip0_568_375">
<rect width="23" height="32" fill="white" transform="translate(5)"/>
</clipPath>
</defs>
</svg>
