<svg width="32" height="32" viewBox="0 0 32 32" fill="none" xmlns="http://www.w3.org/2000/svg">
<g clip-path="url(#clip0_513_382)">
<path d="M19.62 11.5578L16.417 14.5378L13.445 8.54276L14.983 5.09476C15.383 4.39476 16.007 4.40276 16.397 5.09476L19.62 11.5578Z" fill="#FFA000"/>
<path d="M13.445 8.54297L16.417 14.538L4.44699 25.673L13.445 8.54297Z" fill="#F57F17"/>
<path d="M23.123 7.00298C23.695 6.45298 24.287 6.64098 24.438 7.41998L27.554 25.525L17.226 31.725C16.866 31.925 15.906 32.011 15.906 32.011C15.906 32.011 15.032 31.907 14.699 31.711L4.44699 25.673L23.123 7.00298Z" fill="#FFCA28"/>
<path d="M13.445 8.54322L4.448 25.6732L8.455 0.638224C8.603 -0.141776 9.047 -0.216776 9.443 0.471224L13.445 8.54322Z" fill="#FFA000"/>
</g>
<defs>
<clipPath id="clip0_513_382">
<rect width="32" height="32" fill="white"/>
</clipPath>
</defs>
</svg>
