<svg width="32" height="32" viewBox="0 0 32 32" fill="none" xmlns="http://www.w3.org/2000/svg">
<path d="M6.775 0H8.2125V1.425H9.5375V0H10.975V4.3125H9.5375V2.875H8.225V4.3125H6.775M12.875 1.4375H11.6063V0H15.5875V1.4375H14.3125V4.3125H12.875M16.2188 0H17.725L18.65 1.51875L19.575 0H21.0813V4.3125H19.6438V2.175L18.6375 3.725L17.6313 2.175V4.3125H16.2188M21.7938 0H23.2313V2.8875H25.2688V4.3125H21.7938" fill="black"/>
<path d="M6.725 29.4376L4.6625 6.2876H27.3375L25.275 29.4251L15.9812 32.0001" fill="#E44D26"/>
<path d="M16 30.0312V8.1875H25.2687L23.5 27.9375" fill="#F16529"/>
<path d="M8.875 11.0186H16V13.8561H11.9875L12.25 16.7623H16V19.5936H9.65M9.775 21.0186H12.625L12.825 23.2873L16 24.1373V27.0998L10.175 25.4748" fill="#EBEBEB"/>
<path d="M23.1 11.0186H15.9875V13.8561H22.8375M22.5813 16.7623H15.9875V19.5998H19.4875L19.1563 23.2873L15.9875 24.1373V27.0873L21.8 25.4748" fill="white"/>
</svg>
