<svg width="32" height="32" viewBox="0 0 32 32" fill="none" xmlns="http://www.w3.org/2000/svg">
<g clip-path="url(#clip0_513_410)">
<path d="M12.8955 2.84468C12.543 2.49048 12.0512 2.27174 11.5046 2.27174C10.96 2.27174 10.472 2.49048 10.1237 2.84468H10.1137C9.76223 3.19716 9.54349 3.68924 9.54349 4.23385C9.54349 4.78053 9.76223 5.26847 10.1137 5.61887L10.1237 5.62682C10.472 5.97929 10.96 6.19596 11.5046 6.19596C12.0512 6.19596 12.543 5.97929 12.8955 5.62682L12.9006 5.61887C13.2538 5.26847 13.4705 4.78053 13.4705 4.23385C13.4705 3.68924 13.2538 3.19716 12.9006 2.84468H12.8955ZM11.5046 29.7029C12.0512 29.7029 12.543 29.4804 12.8955 29.1321L12.9006 29.1217C13.2538 28.7741 13.4705 28.282 13.4705 27.7412C13.4705 27.1945 13.2538 26.7045 12.9006 26.3503H12.8955C12.543 25.9919 12.0512 25.7753 11.5046 25.7753C10.96 25.7753 10.472 25.9919 10.1237 26.3503H10.1137C9.76223 26.7045 9.54349 27.1945 9.54349 27.7412C9.54349 28.282 9.76223 28.7741 10.1137 29.1217L10.1237 29.1321C10.472 29.4804 10.96 29.7029 11.5046 29.7029ZM22.1949 23.7586C22.6811 23.631 23.1214 23.319 23.3899 22.8473L23.4262 22.7785C23.665 22.331 23.7085 21.8148 23.581 21.3572C23.4524 20.8672 23.1366 20.4339 22.6659 20.1626L22.6386 20.1443C22.1801 19.8931 21.6576 19.8385 21.1776 19.9681C20.6897 20.0897 20.2515 20.4156 19.9844 20.8835C19.7138 21.3469 19.6571 21.8815 19.7867 22.3735C19.9204 22.8573 20.2332 23.2948 20.7007 23.5682H20.7038C21.1724 23.8373 21.7032 23.8861 22.1949 23.7586ZM13.5182 13.9767C13.0026 13.4625 12.2921 13.1404 11.5046 13.1404C10.7201 13.1404 10.0114 13.4625 9.49684 13.9767C8.98471 14.4892 8.66887 15.1979 8.66887 15.9834C8.66887 16.7709 8.98471 17.4817 9.49684 18.0001C10.0114 18.5101 10.7201 18.8301 11.5046 18.8301C12.2921 18.8301 13.0026 18.5101 13.5182 18.0001C14.0313 17.4817 14.3472 16.7709 14.3472 15.9834C14.3472 15.1979 14.0313 14.4892 13.5182 13.9767ZM12.3861 10.6323C13.5272 10.8203 14.5538 11.367 15.3372 12.1566H15.3434C15.4678 12.282 15.5895 12.4178 15.7018 12.5554L17.6608 11.4219C17.3975 10.6261 17.3854 9.79397 17.5969 9.01438C17.8764 7.9694 18.5537 7.03395 19.569 6.44684L19.6025 6.4268C20.6067 5.85765 21.7485 5.74016 22.7793 6.01972C23.8229 6.29894 24.7645 6.97935 25.3506 7.99393V7.996C25.9339 9.00436 26.0525 10.1623 25.7739 11.2032C25.4965 12.2475 24.816 13.1891 23.8018 13.7721L23.5343 13.9304H23.507C22.5688 14.3775 21.537 14.4466 20.5894 14.1975C19.8112 13.9908 19.0973 13.5575 18.5385 12.94L16.5826 14.07C16.8072 14.665 16.932 15.3071 16.932 15.9834C16.932 16.6576 16.8072 17.3076 16.5826 17.9068L18.5385 19.0326C19.0973 18.4072 19.8112 17.9818 20.5894 17.7751C21.633 17.4897 22.7903 17.6113 23.8018 18.2005L23.8664 18.2309V18.2351C24.8437 18.826 25.4996 19.7414 25.7739 20.7739C26.0525 21.8085 25.9339 22.9669 25.3506 23.9773L25.3154 24.0481L25.3112 24.0419C24.7252 25.0161 23.8018 25.6761 22.7824 25.9553C21.7364 26.2307 20.5794 26.1132 19.569 25.5323V25.524C18.5537 24.9369 17.8764 23.9994 17.5969 22.9569C17.3854 22.1793 17.3975 21.3469 17.6608 20.5514L15.7018 19.4214C15.5895 19.5593 15.4678 19.6889 15.3434 19.8143L15.3372 19.8202C14.5538 20.606 13.5272 21.1527 12.3861 21.3348V23.5986C13.1992 23.7686 13.928 24.1757 14.4992 24.7465L14.502 24.7527C15.2674 25.514 15.7412 26.5749 15.7412 27.7412C15.7412 28.9037 15.2674 29.958 14.502 30.7234L14.4992 30.7355C13.7286 31.5009 12.6708 31.9747 11.5046 31.9747C10.3445 31.9747 9.28535 31.5009 8.51682 30.7355H8.51405V30.7234C7.74759 29.958 7.27279 28.9037 7.27279 27.7412C7.27279 26.5749 7.74759 25.514 8.51405 24.7527V24.7465H8.51682C9.087 24.1757 9.81683 23.7686 10.6279 23.5986V21.3348C9.48578 21.1527 8.46222 20.606 7.67986 19.8202L7.67157 19.8143C6.69362 18.8322 6.08232 17.4817 6.08232 15.9834C6.08232 14.4892 6.69362 13.1387 7.67157 12.1566H7.67986C8.46222 11.367 9.48578 10.8203 10.6279 10.6323V8.37854C9.81683 8.20231 9.087 7.79558 8.51682 7.22851H8.51405V7.22229C7.74759 6.45306 7.27279 5.40013 7.27279 4.23385C7.27279 3.07345 7.74759 2.01049 8.51405 1.24507L8.51682 1.24127C9.28535 0.473768 10.3445 0 11.5046 0C12.6708 0 13.7286 0.473768 14.4992 1.24127V1.24507H14.502C15.2674 2.01049 15.7412 3.07345 15.7412 4.23385C15.7412 5.40013 15.2674 6.45306 14.502 7.22229L14.4992 7.22851C13.928 7.79558 13.1992 8.20231 12.3861 8.37854V10.6323ZM23.3899 9.1298L23.3736 9.10561C23.1031 8.64981 22.6718 8.34606 22.1949 8.2144C21.7032 8.08481 21.1724 8.13976 20.7007 8.40895H20.7038C20.2332 8.67607 19.9184 9.11356 19.7867 9.60357C19.6571 10.0894 19.7138 10.6261 19.9844 11.0936L19.9933 11.1061C20.2646 11.5674 20.6959 11.877 21.1776 12.0025C21.6617 12.1383 22.2012 12.0816 22.6659 11.8103L22.6912 11.7982C23.1487 11.5249 23.4535 11.0936 23.581 10.6199C23.7106 10.1319 23.6591 9.59735 23.3899 9.1298Z" fill="#1A1919"/>
</g>
<defs>
<clipPath id="clip0_513_410">
<rect width="32" height="32" fill="white"/>
</clipPath>
</defs>
</svg>
