<svg width="32" height="31" viewBox="0 0 32 31" fill="none" xmlns="http://www.w3.org/2000/svg">
<g clip-path="url(#clip0_577_375)">
<path d="M15.8921 0.444061C15.6171 0.457883 15.3476 0.525916 15.0994 0.644168L4.28247 5.80004C4.0025 5.93342 3.75651 6.12749 3.56275 6.36784C3.36899 6.6082 3.23246 6.88865 3.16328 7.18837L0.494664 18.7698C0.433042 19.0366 0.426145 19.313 0.474383 19.5825C0.522621 19.852 0.625012 20.1092 0.775498 20.3389C0.811988 20.395 0.851231 20.4494 0.893089 20.5017L8.38016 29.7881C8.57396 30.0284 8.81999 30.2224 9.09996 30.3557C9.37994 30.489 9.68667 30.5582 9.99738 30.5582L22.0041 30.5554C22.3147 30.5556 22.6214 30.4867 22.9013 30.3536C23.1813 30.2205 23.4274 30.0268 23.6213 29.7867L31.1056 20.499C31.2995 20.2586 31.4362 19.978 31.5054 19.6782C31.5746 19.3783 31.5746 19.0669 31.5054 18.767L28.8327 7.18561C28.7635 6.88589 28.627 6.60544 28.4332 6.36508C28.2394 6.12473 27.9934 5.93066 27.7135 5.79728L16.8951 0.644168C16.583 0.495417 16.2381 0.426609 15.8921 0.444061Z" fill="#326CE5"/>
<path d="M15.9993 4.38525C15.6418 4.38529 15.3518 4.70657 15.3519 5.10288C15.3519 5.10896 15.3531 5.11478 15.3533 5.12082C15.3527 5.17467 15.3501 5.23954 15.3519 5.28643C15.3604 5.51501 15.4104 5.68995 15.4404 5.90055C15.4949 6.35129 15.5405 6.72493 15.5124 7.07222C15.485 7.20317 15.3883 7.32294 15.3021 7.40619L15.2869 7.67944C14.8983 7.71155 14.5072 7.77036 14.1165 7.85884C12.4354 8.23961 10.988 9.10346 9.88598 10.2698C9.81448 10.2211 9.68938 10.1316 9.65218 10.1042C9.53659 10.1198 9.41976 10.1553 9.26759 10.0669C8.97785 9.87237 8.71396 9.60381 8.39465 9.2803C8.24834 9.12555 8.14239 8.97819 7.96856 8.82902C7.92908 8.79515 7.86884 8.74933 7.82468 8.71448C7.68878 8.60639 7.52849 8.55002 7.37369 8.54473C7.17466 8.53793 6.98306 8.61556 6.85767 8.77244C6.63477 9.05134 6.70613 9.47761 7.01677 9.72467C7.01992 9.72718 7.02328 9.72913 7.02645 9.73158C7.06914 9.76609 7.12141 9.81032 7.16064 9.83922C7.34511 9.97508 7.51361 10.0446 7.69741 10.1525C8.08464 10.391 8.40565 10.5888 8.66027 10.8273C8.7597 10.9331 8.77708 11.1194 8.79031 11.2L8.99783 11.3849C7.88695 13.0526 7.37283 15.1125 7.67666 17.2115L7.40551 17.2901C7.33405 17.3822 7.23306 17.527 7.12744 17.5703C6.79431 17.6749 6.41938 17.7134 5.96675 17.7607C5.75424 17.7783 5.57088 17.7678 5.34559 17.8104C5.29601 17.8198 5.22692 17.8377 5.17267 17.8504C5.17078 17.8508 5.16902 17.8514 5.16713 17.8518C5.16418 17.8525 5.16029 17.8539 5.15745 17.8546C4.77584 17.9465 4.53069 18.2964 4.60961 18.6412C4.68855 18.986 5.0613 19.1957 5.4452 19.1132C5.44797 19.1125 5.452 19.1124 5.45488 19.1118C5.45922 19.1108 5.46303 19.1087 5.46733 19.1077C5.52085 19.0959 5.58791 19.0829 5.63473 19.0704C5.85622 19.0112 6.01664 18.9243 6.21577 18.8482C6.64416 18.6949 6.99897 18.5669 7.34464 18.517C7.48901 18.5057 7.64112 18.6058 7.71678 18.6481L7.999 18.5998C8.64844 20.6084 10.0095 22.2319 11.7329 23.2506L11.6153 23.5321C11.6576 23.6414 11.7044 23.7893 11.6728 23.8973C11.5472 24.2224 11.3319 24.5655 11.0868 24.948C10.9681 25.1248 10.8467 25.2619 10.7396 25.4642C10.7139 25.5126 10.6813 25.5869 10.6565 25.6381C10.4901 25.9932 10.6122 26.4023 10.9318 26.5558C11.2535 26.7103 11.6528 26.5473 11.8255 26.1915C11.8258 26.191 11.8267 26.1906 11.8269 26.1901C11.8271 26.1897 11.8267 26.1891 11.8269 26.1887C11.8515 26.1382 11.8864 26.0719 11.9072 26.0245C11.9989 25.8148 12.0294 25.6352 12.0939 25.4324C12.2652 25.0032 12.3593 24.5528 12.5952 24.2721C12.6597 24.1953 12.765 24.1657 12.8742 24.1366L13.0208 23.8716C14.5232 24.4469 16.205 24.6013 17.8849 24.2207C18.2682 24.1339 18.6381 24.0216 18.9958 23.8868C19.037 23.9597 19.1136 24.0999 19.1342 24.1352C19.2451 24.1712 19.3661 24.1898 19.4648 24.3353C19.6412 24.636 19.7619 24.9917 19.9089 25.4214C19.9734 25.6241 20.0053 25.8038 20.097 26.0134C20.1179 26.0612 20.1526 26.1285 20.1773 26.179C20.3497 26.5361 20.7502 26.6996 21.0723 26.5448C21.3919 26.3912 21.5141 25.9821 21.3476 25.627C21.3229 25.5759 21.2889 25.5015 21.2632 25.4531C21.1561 25.2509 21.0347 25.1151 20.916 24.9384C20.6709 24.5558 20.4676 24.2381 20.3419 23.913C20.2893 23.7453 20.3507 23.6411 20.3917 23.5321C20.3672 23.5041 20.3147 23.3457 20.2838 23.2713C22.0748 22.2163 23.3959 20.5323 24.0162 18.5874C24.1 18.6005 24.2456 18.6262 24.2929 18.6357C24.3903 18.5716 24.4798 18.488 24.6554 18.5018C25.0011 18.5517 25.3559 18.6798 25.7843 18.833C25.9834 18.9091 26.1438 18.9974 26.3653 19.0566C26.4121 19.0691 26.4792 19.0808 26.5327 19.0925C26.537 19.0935 26.5408 19.0956 26.5451 19.0966C26.548 19.0973 26.5521 19.0974 26.5548 19.098C26.9387 19.1804 27.3116 18.9709 27.3904 18.626C27.4692 18.2812 27.2242 17.9313 26.8426 17.8394C26.7871 17.8268 26.7083 17.8054 26.6544 17.7952C26.4291 17.7527 26.2458 17.7632 26.0333 17.7455C25.5806 17.6982 25.2057 17.6597 24.8726 17.5551C24.7368 17.5025 24.6401 17.3413 24.5931 17.2749L24.3317 17.199C24.4672 16.2207 24.4307 15.2024 24.1961 14.1836C23.9593 13.1553 23.5409 12.2149 22.9828 11.3863C23.0499 11.3254 23.1766 11.2135 23.2125 11.1806C23.223 11.0647 23.214 10.9432 23.3342 10.8149C23.5888 10.5764 23.9099 10.3786 24.2971 10.1401C24.4809 10.0322 24.6508 9.96268 24.8352 9.8268C24.8769 9.79607 24.9339 9.74742 24.9777 9.71226C25.2883 9.46511 25.3598 9.03886 25.1368 8.76002C24.9138 8.48118 24.4818 8.45491 24.1712 8.70206C24.127 8.73698 24.067 8.78254 24.0273 8.8166C23.8535 8.96578 23.7461 9.11312 23.5998 9.26788C23.2805 9.59141 23.0166 9.86131 22.7269 10.0559C22.6013 10.1288 22.4175 10.1036 22.334 10.0987L22.0878 10.2739C20.6836 8.80509 18.7718 7.866 16.7132 7.68358C16.7074 7.59752 16.6999 7.44196 16.698 7.39515C16.6137 7.3147 16.5119 7.24602 16.4863 7.07222C16.4581 6.72493 16.5051 6.35129 16.5596 5.90055C16.5897 5.68995 16.6396 5.51501 16.6481 5.28643C16.6501 5.23447 16.647 5.15907 16.6468 5.10288C16.6467 4.70657 16.3569 4.38522 15.9993 4.38525ZM15.1886 9.39484L14.9963 12.7829L14.9825 12.7898C14.9696 13.0929 14.7196 13.3349 14.4125 13.3349C14.2868 13.3349 14.1707 13.2946 14.0764 13.2259L14.0708 13.2286L11.286 11.2593C12.1419 10.4197 13.2366 9.79929 14.4983 9.51353C14.7288 9.46133 14.9591 9.42259 15.1886 9.39484ZM16.8114 9.39484C18.2844 9.57557 19.6466 10.2409 20.6905 11.2607L17.9237 13.2176L17.914 13.2134C17.6684 13.3924 17.3224 13.348 17.131 13.1086C17.0525 13.0105 17.0114 12.8952 17.0065 12.7787L17.0037 12.7774L16.8114 9.39484ZM10.2761 12.5248L12.8188 14.7936L12.8161 14.8074C13.0456 15.0064 13.0794 15.3518 12.888 15.5913C12.8096 15.6894 12.7046 15.7551 12.592 15.7859L12.5892 15.7969L9.32985 16.7353C9.16396 15.2221 9.52147 13.7512 10.2761 12.5248ZM21.7046 12.5262C22.0824 13.137 22.3684 13.8193 22.5388 14.559C22.707 15.2898 22.7493 16.0193 22.6799 16.7243L19.4039 15.7831L19.4012 15.7693C19.1078 15.6893 18.9275 15.3916 18.9958 15.0931C19.0238 14.9708 19.0889 14.8673 19.177 14.7908L19.1757 14.7839L21.7046 12.5262ZM15.4778 14.9689H16.5195L17.1669 15.7762L16.9345 16.7836L15.9993 17.2322L15.0614 16.7823L14.8289 15.7748L15.4778 14.9689ZM18.8174 17.7317C18.8616 17.7295 18.9057 17.7335 18.9488 17.7414L18.9543 17.7345L22.3257 18.3031C21.8323 19.6859 20.8882 20.8839 19.6267 21.6856L18.3179 18.5322L18.3221 18.5266C18.2019 18.248 18.3222 17.9212 18.5988 17.7883C18.6696 17.7543 18.7436 17.7355 18.8174 17.7317ZM13.155 17.7455C13.4123 17.7491 13.6431 17.9273 13.7028 18.1885C13.7308 18.3108 13.7172 18.432 13.671 18.5391L13.6807 18.5515L12.3858 21.6732C11.1752 20.8982 10.2109 19.7378 9.69507 18.3141L13.0374 17.7483L13.043 17.7552C13.0803 17.7483 13.1183 17.745 13.155 17.7455ZM15.9786 19.1132C16.0682 19.1099 16.1591 19.1282 16.2456 19.1698C16.3589 19.2242 16.4464 19.3099 16.5015 19.4126H16.514L18.1616 22.3825C17.9478 22.454 17.7279 22.5151 17.5031 22.5661C16.243 22.8515 14.9869 22.765 13.8495 22.3784L15.493 19.414H15.4958C15.5944 19.2301 15.7814 19.1204 15.9786 19.1132Z" fill="white" stroke="white" stroke-width="0.25"/>
</g>
<defs>
<clipPath id="clip0_577_375">
<rect width="32" height="31" fill="white"/>
</clipPath>
</defs>
</svg>
