<svg width="32" height="32" viewBox="0 0 32 32" fill="none" xmlns="http://www.w3.org/2000/svg">
<path d="M30.7463 23.3681C29.0385 24.2582 20.192 27.8956 18.3086 28.8775C16.4252 29.8595 15.379 29.85 13.8911 29.1387C12.4034 28.4275 2.98913 24.6247 1.29325 23.8141C0.44575 23.4091 0 23.0671 0 22.7441V19.5096C0 19.5096 12.2562 16.8415 14.2349 16.1316C16.2134 15.4217 16.8999 15.3961 18.5836 16.0128C20.2676 16.6298 30.3359 18.4463 32 19.0558L31.9993 22.2446C31.9995 22.5643 31.6155 22.9151 30.7463 23.3681Z" fill="#912626"/>
<path d="M30.7456 20.1523C29.038 21.0421 20.1918 24.6796 18.3084 25.6613C16.4251 26.6435 15.3789 26.6338 13.8911 25.9226C12.4033 25.2118 2.98938 21.4085 1.29363 20.5983C-0.402122 19.7877 -0.437623 19.2298 1.22813 18.5776C2.89388 17.9251 12.2561 14.252 14.235 13.5421C16.2135 12.8325 16.8999 12.8066 18.5836 13.4236C20.2675 14.0403 29.061 17.5405 30.7249 18.1498C32.3894 18.76 32.4533 19.2623 30.7456 20.1523Z" fill="#C6302B"/>
<path d="M30.7463 18.1341C29.0385 19.0244 20.192 22.6616 18.3086 23.6439C16.4252 24.6255 15.379 24.616 13.8911 23.9047C12.4032 23.1939 2.98913 19.3907 1.29325 18.5801C0.44575 18.1751 0 17.8336 0 17.5105V14.2756C0 14.2756 12.2562 11.6076 14.2349 10.8977C16.2134 10.1879 16.8999 10.1621 18.5836 10.779C20.2677 11.3959 30.336 13.212 32 13.8216L31.9993 17.0107C31.9995 17.3304 31.6155 17.6811 30.7463 18.1341Z" fill="#912626"/>
<path d="M30.7456 14.9189C29.038 15.8089 20.1918 19.4461 18.3084 20.4283C16.4251 21.41 15.3789 21.4004 13.8911 20.6891C12.4033 19.9784 2.98938 16.1751 1.29363 15.3649C-0.402122 14.5545 -0.437623 13.9965 1.22813 13.344C2.89388 12.6919 12.2563 9.01851 14.235 8.30876C16.2135 7.59901 16.8999 7.57326 18.5836 8.19013C20.2675 8.80688 29.061 12.3068 30.7249 12.9164C32.3894 13.5264 32.4533 14.0289 30.7456 14.9189Z" fill="#C6302B"/>
<path d="M30.7463 12.7066C29.0385 13.5966 20.192 17.2341 18.3086 18.2164C16.4252 19.1981 15.379 19.1885 13.8911 18.4772C12.4032 17.7664 2.98913 13.9631 1.29325 13.1529C0.44575 12.7475 0 12.4059 0 12.0831V8.84811C0 8.84811 12.2562 6.18024 14.2349 5.47049C16.2134 4.76049 16.8999 4.73499 18.5836 5.35174C20.2677 5.96861 30.336 7.78474 32 8.39436L31.9993 11.5834C31.9995 11.9027 31.6155 12.2535 30.7463 12.7066Z" fill="#912626"/>
<path d="M30.7456 9.49149C29.038 10.3815 20.1918 14.019 18.3084 15.0007C16.4251 15.9825 15.3789 15.9729 13.8911 15.262C12.4034 14.5507 2.98938 10.7477 1.29375 9.93736C-0.402124 9.12711 -0.437499 8.56899 1.22813 7.91661C2.89388 7.26436 12.2563 3.59149 14.235 2.88149C16.2135 2.17161 16.8999 2.14611 18.5836 2.76299C20.2675 3.37986 29.061 6.87974 30.7249 7.48936C32.3894 8.09886 32.4533 8.60149 30.7456 9.49149Z" fill="#C6302B"/>
<path d="M19.9104 6.34461L17.1591 6.63023L16.5433 8.11223L15.5485 6.45848L12.3716 6.17298L14.7421 5.31811L14.0309 4.00586L16.2503 4.87386L18.3425 4.18886L17.777 5.54573L19.9104 6.34461ZM16.379 13.5344L11.2444 11.4047L18.6019 10.2754L16.379 13.5344ZM9.26025 7.16836C11.4321 7.16836 13.1928 7.85086 13.1928 8.69261C13.1928 9.53461 11.4321 10.217 9.26025 10.217C7.08838 10.217 5.32775 9.53448 5.32775 8.69261C5.32775 7.85086 7.08838 7.16836 9.26025 7.16836Z" fill="white"/>
<path d="M23.1619 6.74964L27.5164 8.47039L23.1656 10.1895L23.1619 6.74964Z" fill="#621B1C"/>
<path d="M18.3444 8.65514L23.1619 6.74951L23.1656 10.1894L22.6933 10.3741L18.3444 8.65514Z" fill="#9A2928"/>
</svg>
