<svg width="32" height="32" viewBox="0 0 32 32" fill="none" xmlns="http://www.w3.org/2000/svg">
<g clip-path="url(#clip0_568_376)">
<path d="M27.537 17.3694C26.4212 17.3754 25.4515 17.6555 24.6396 18.0696C24.3416 17.4546 24.0437 16.9066 23.9911 16.5048C23.9327 16.0359 23.8626 15.7498 23.9327 15.1896C24.0028 14.6295 24.3183 13.8319 24.3124 13.771C24.3066 13.7101 24.2423 13.4239 23.5998 13.4178C22.9572 13.4117 22.4022 13.5457 22.338 13.7223C22.2737 13.8988 22.1511 14.3007 22.0693 14.7147C21.9583 15.3236 20.7841 17.4972 20.1124 18.6358C19.8962 18.1913 19.7093 17.8017 19.6684 17.4911C19.61 17.0223 19.5399 16.7361 19.61 16.176C19.6801 15.6158 19.9955 14.8182 19.9897 14.7573C19.9838 14.6964 19.9196 14.4103 19.277 14.4042C18.6344 14.3981 18.0795 14.532 18.0152 14.7086C17.951 14.8852 17.8809 15.2992 17.7465 15.7011C17.6122 16.1029 16.0525 19.7318 15.6436 20.6694C15.4333 21.1504 15.2522 21.534 15.1237 21.7958C15.1237 21.7958 15.1178 21.8141 15.1003 21.8445C14.9893 22.0698 14.9251 22.1916 14.9251 22.1916C14.9251 22.1916 14.9251 22.1916 14.9251 22.1977C14.8374 22.362 14.744 22.5143 14.6972 22.5143C14.6622 22.5143 14.5979 22.0759 14.7089 21.4792C14.9426 20.2188 15.4975 18.2583 15.4917 18.1913C15.4917 18.1548 15.5968 17.8138 15.1295 17.6373C14.6739 17.4607 14.5103 17.7529 14.4694 17.7529C14.4285 17.7529 14.3993 17.8564 14.3993 17.8564C14.3993 17.8564 14.9075 15.6524 13.4296 15.6524C12.5067 15.6524 11.2332 16.7057 10.6023 17.6555C10.2051 17.8808 9.35807 18.3618 8.45263 18.8793C8.10798 19.0803 7.75164 19.2812 7.41867 19.4699C7.39531 19.4456 7.37194 19.4151 7.34857 19.3908C5.56106 17.3998 2.25474 15.9933 2.39494 13.3204C2.44752 12.3462 2.7688 9.78899 8.7447 6.68377C13.6633 4.15698 17.5771 4.85718 18.2547 6.40979C19.2244 8.62605 16.1576 12.742 11.0755 13.3387C9.13609 13.564 8.11966 12.7846 7.86263 12.4923C7.59392 12.1879 7.55303 12.1697 7.45372 12.2305C7.29016 12.3219 7.39531 12.5959 7.45372 12.7542C7.6056 13.1682 8.23065 13.8988 9.28797 14.2581C10.2226 14.5747 12.495 14.7512 15.2463 13.6431C18.3248 12.401 20.7316 8.94875 20.0247 6.05664C19.3179 3.12191 14.6447 2.15382 10.2226 3.79167C7.59392 4.76585 4.74324 6.30019 2.69286 8.29727C0.256934 10.6718 -0.128607 12.7359 0.0291143 13.6005C0.595744 16.6692 4.65562 18.6662 6.27957 20.1458C6.19779 20.1945 6.12185 20.2371 6.05759 20.2736C5.24562 20.6938 2.1496 22.3803 1.37851 24.1643C0.50228 26.1857 1.51871 27.6348 2.19049 27.8297C4.27592 28.4324 6.41977 27.3487 7.57055 25.5586C8.72134 23.7685 8.58114 21.4427 8.04956 20.3771C8.04372 20.365 8.03788 20.3528 8.02619 20.3406C8.23649 20.2128 8.45263 20.0788 8.66292 19.9509C9.07767 19.6952 9.48658 19.4578 9.83707 19.2629C9.63846 19.8292 9.49242 20.505 9.42232 21.4792C9.3347 22.6239 9.7845 24.1095 10.3745 24.694C10.6374 24.9497 10.947 24.9558 11.1456 24.9558C11.8349 24.9558 12.1445 24.3591 12.4891 23.6528C12.9097 22.7883 13.2894 21.7836 13.2894 21.7836C13.2894 21.7836 12.8163 24.4992 14.1014 24.4992C14.5687 24.4992 15.0419 23.8659 15.2522 23.5432C15.2522 23.5493 15.2522 23.5493 15.2522 23.5493C15.2522 23.5493 15.2639 23.5311 15.2872 23.4884C15.334 23.4093 15.3632 23.3606 15.3632 23.3606C15.3632 23.3606 15.3632 23.3545 15.3632 23.3484C15.5501 23.0074 15.9707 22.2342 16.5957 20.9495C17.4019 19.2934 18.1788 17.2232 18.1788 17.2232C18.1788 17.2232 18.2489 17.7286 18.4884 18.5688C18.6286 19.062 18.9207 19.6039 19.1543 20.1275C18.9674 20.4015 18.8506 20.5537 18.8506 20.5537C18.8506 20.5537 18.8506 20.5537 18.8564 20.5598C18.7045 20.7668 18.541 20.9921 18.3599 21.2113C17.7232 22.0028 16.9638 22.91 16.8586 23.1718C16.7359 23.4824 16.7651 23.7076 16.9988 23.8903C17.1682 24.0243 17.472 24.0425 17.7816 24.0243C18.354 23.9816 18.7571 23.8355 18.9557 23.7442C19.2653 23.6285 19.6275 23.4519 19.9663 23.1901C20.5914 22.7091 20.9711 22.0211 20.936 21.1139C20.9185 20.6146 20.7608 20.1153 20.568 19.6465C20.6264 19.5613 20.679 19.476 20.7374 19.3908C21.7246 17.8869 22.4899 16.2369 22.4899 16.2369C22.4899 16.2369 22.56 16.7422 22.7995 17.5825C22.9163 18.0087 23.1558 18.4714 23.3661 18.922C22.4373 19.7074 21.8648 20.6207 21.6604 21.2174C21.2923 22.3255 21.5786 22.8248 22.1218 22.9405C22.3672 22.9953 22.7177 22.8735 22.9747 22.7578C23.3018 22.6482 23.6874 22.4595 24.0554 22.1794C24.6804 21.6984 25.2821 21.0286 25.2471 20.1214C25.2296 19.7074 25.1244 19.2995 24.9784 18.9037C25.767 18.5627 26.7834 18.374 28.0802 18.5323C30.8608 18.8733 31.4099 20.6816 31.3048 21.4427C31.1996 22.2037 30.6155 22.6178 30.4227 22.7456C30.2299 22.8735 30.1657 22.9161 30.1832 23.0074C30.2066 23.1414 30.3 23.1353 30.4636 23.111C30.6914 23.0683 31.924 22.496 31.9765 21.0956C32.0642 19.3055 30.4285 17.3511 27.537 17.3694ZM6.0868 24.9071C5.16384 25.9544 3.87869 26.3501 3.32375 26.0152C2.72791 25.656 2.96157 24.1095 4.09483 23.0014C4.78413 22.3255 5.67205 21.6984 6.26205 21.3148C6.3964 21.2296 6.59501 21.1078 6.83452 20.9556C6.87541 20.9312 6.89877 20.919 6.89877 20.919C6.94551 20.8886 6.99224 20.8582 7.03897 20.8277C7.45372 22.4108 7.0565 23.8051 6.0868 24.9071ZM12.8046 20.1458C12.4833 20.9617 11.8115 23.0501 11.4026 22.9344C11.0521 22.837 10.836 21.2539 11.3325 19.6891C11.5837 18.9037 12.1153 17.966 12.4249 17.6007C12.9273 17.0162 13.4822 16.8214 13.6166 17.0588C13.786 17.3694 13.0032 19.6343 12.8046 20.1458ZM18.3482 22.91C18.2139 22.9831 18.0853 23.0318 18.0269 22.9953C17.986 22.9709 18.0853 22.8735 18.0853 22.8735C18.0853 22.8735 18.7805 22.0941 19.055 21.741C19.2128 21.534 19.3997 21.2904 19.5983 21.0165C19.5983 21.0408 19.5983 21.0713 19.5983 21.0956C19.5983 22.0272 18.7338 22.6543 18.3482 22.91ZM22.6242 21.8932C22.5249 21.8202 22.5424 21.5766 22.8754 20.8155C23.0039 20.5172 23.3077 20.0179 23.8276 19.5369C23.886 19.7318 23.9269 19.9205 23.921 20.0971C23.9152 21.2722 23.1091 21.7106 22.6242 21.8932Z" fill="#CD6799"/>
</g>
<defs>
<clipPath id="clip0_568_376">
<rect width="32" height="25" fill="white" transform="translate(0 3)"/>
</clipPath>
</defs>
</svg>
