<svg width="282" height="30" viewBox="0 0 282 30" fill="none" xmlns="http://www.w3.org/2000/svg">
<path d="M60.6514 0.156454H57.5615V12.8292H43.0508V0.156454H40V29.3742H43.0508V15.5671H57.5615V29.3742H60.6514V0.156454Z" fill="#120024"/>
<path d="M70.538 9.07432H67.5263V29.3742H70.538V9.07432ZM70.6944 0.234682H67.3699V3.55932H70.6944V0.234682Z" fill="#120024"/>
<path d="M87.8031 26.6754C87.06 27.1838 86.1604 27.4576 85.1826 27.4576C80.4891 27.4576 78.9637 23.6245 78.9637 19.0482C78.9637 14.9804 80.6455 11.382 84.9088 11.382C89.0156 11.382 90.5801 15.1369 90.5801 19.1656C90.5801 22.06 89.8761 25.1108 87.8031 26.6754ZM79.0028 26.9492C80.4108 28.7875 82.1709 30 85.339 30C91.3232 30 93.7873 24.9544 93.7873 19.3611C93.7873 13.8462 91.4406 8.87875 85.3781 8.87875C82.9923 8.87875 80.4108 9.97392 79.0419 12.2034V0H76.2258V25.854C76.2258 26.91 76.1476 28.4355 75.952 29.3742H78.8855L79.0028 26.9492Z" fill="#120024"/>
<path d="M100.535 17.6402C100.848 14.3155 102.686 11.382 106.246 11.382C110.039 11.382 111.956 13.8853 112.23 17.6402H100.535ZM111.956 22.764C111.213 25.7366 109.414 27.4576 106.754 27.4576C102.256 27.4576 100.457 24.2503 100.457 20.1434H114.694C115.124 20.1434 115.359 19.9087 115.359 19.4003C115.359 13.2986 112.699 8.87875 106.206 8.87875C100.261 8.87875 97.2497 13.9635 97.2497 19.4394C97.2497 24.9935 100.027 30 106.011 30C110.9 30 113.951 27.8096 115.202 22.764H111.956Z" fill="#120024"/>
<path d="M123.358 17.8357C123.358 13.5724 126.096 11.8905 128.717 11.8905C129.46 11.8905 129.851 11.9687 130.438 12.1643V9.07432C130.007 8.91786 129.225 8.87875 128.599 8.87875C126.565 8.87875 124.884 9.70013 123.358 12.0469L123.436 9.50456H120.425V29.3742H123.358V17.8357Z" fill="#120024"/>
<path d="M149.674 16.193C149.674 11.4602 147.523 8.87875 143.103 8.87875C140.561 8.87875 138.566 9.70013 136.728 12.0469L136.806 9.50456H133.912V29.3742H136.728V17.8357C136.728 13.5724 139.466 11.382 142.086 11.382C145.411 11.382 146.662 13.103 146.662 17.0143V29.3742H149.674V16.193Z" fill="#120024"/>
<path d="M166.708 22.5684C166.395 24.6415 165.496 26.3233 163.501 27.1056C162.875 27.3403 162.132 27.4576 161.233 27.4576C159.003 27.4576 157.165 26.4798 157.165 23.8201C157.165 18.8918 163.97 19.5958 166.943 19.5958C166.943 20.6128 166.865 21.5906 166.708 22.5684ZM169.837 29.3742C169.681 28.5919 169.642 27.2621 169.642 26.3625V15.7236C169.681 11.03 166.865 8.87875 162.367 8.87875C158.495 8.87875 154.896 10.7171 154.701 14.9022H157.947C158.26 12.086 159.981 11.382 162.328 11.382C164.948 11.382 166.552 12.3598 166.826 15.6063V17.0535C164.401 17.0535 160.607 16.7797 157.986 18.0313C155.483 19.0874 153.997 20.9648 153.997 23.781C153.997 27.7705 157.008 30 160.763 30C163.266 30 165.73 28.7484 166.865 27.2229L166.982 29.3742H169.837Z" fill="#120024"/>
<path d="M184.773 27.1056C184.108 27.4185 183.521 27.575 182.582 27.575C181.135 27.575 180.118 26.9492 180.118 24.485V11.9687H184.538V9.42634H180.118V3.75489H177.224V9.42634H173.352V11.9687H177.224V24.8761C177.224 29.0613 179.336 30 182.191 30C183.013 30 183.951 29.8827 184.773 29.6089V27.1056Z" fill="#120024"/>
<path d="M191.962 9.07432H188.951V29.3742H191.962V9.07432ZM192.119 0.234682H188.794V3.55932H192.119V0.234682Z" fill="#120024"/>
<path d="M208.445 26.7536C207.663 27.2229 206.724 27.4576 205.629 27.4576C201.249 27.4576 199.489 23.1943 199.489 19.4394C199.489 15.7236 201.249 11.382 205.629 11.382C210.01 11.382 211.848 15.7236 211.848 19.4394C211.848 22.412 210.792 25.2282 208.445 26.7536ZM212.748 26.7536C214.312 24.7588 215.055 22.0991 215.055 19.4394C215.055 14.0808 212.083 8.87875 205.629 8.87875C199.215 8.87875 196.32 14.0808 196.32 19.4394C196.32 24.7979 199.215 30 205.629 30C208.915 30 211.222 28.6701 212.748 26.7536Z" fill="#120024"/>
<path d="M235.309 16.193C235.309 11.4602 233.158 8.87875 228.738 8.87875C226.196 8.87875 224.201 9.70013 222.363 12.0469L222.441 9.50456H219.547V29.3742H222.363V17.8357C222.363 13.5724 225.1 11.382 227.721 11.382C231.046 11.382 232.297 13.103 232.297 17.0143V29.3742H235.309V16.193Z" fill="#120024"/>
<path d="M256.764 0.0391129H253.675V29.3742H256.764V0.0391129Z" fill="#120024"/>
<path d="M273.2 2.85528H282V0.156454H261.153V2.85528H270.11V29.3742H273.2V2.85528Z" fill="#120024"/>
<path d="M3.81084 12.7286C2.82913 12.3094 0.731073 11.0517 0.192534 9.3749C-0.48064 7.27886 0.781561 4.93128 1.37059 4.17671C1.95962 3.42213 2.96938 2.24834 4.48402 1.49377C5.99866 0.739191 7.76574 0.152298 8.9438 0.0684566C10.1218 -0.0153853 11.3841 -0.0992271 13.1511 0.319982C14.9182 0.739191 16.0121 1.57761 16.6853 2.16451C17.3585 2.7514 18.9117 4.32989 19.6903 6.03661C20.5318 7.88113 20.6402 9.54259 20.6402 10.381C20.6402 11.2194 20.3878 12.9801 19.8829 14.2377C19.378 15.4954 18.9573 16.1661 18.3682 16.9207C17.7792 17.6752 16.7694 19.1006 16.517 19.7713C16.8536 19.1006 17.9674 17.38 19.8829 16.0823C21.9865 14.6569 22.828 14.9085 24.2585 13.7347C24.2585 13.036 24.107 11.3703 23.5012 10.2972C24.0061 10.1015 25.3019 9.86119 26.4463 10.4648C26.9231 10.7164 27.5907 11.102 27.7927 11.6386C28.3817 11.5827 29.829 11.6889 30.9061 12.5609C31.3268 12.9015 31.8317 13.567 32 14.4054C31.8878 14.9644 31.4951 16.0823 30.4854 16.6691C29.1871 17.4237 28.2134 17.5076 27.0353 17.4237C27.2317 17.6752 27.8263 18.2286 28.6341 18.4298C28.9034 18.4969 29.5317 18.5137 29.8122 18.5137C30.1207 18.2621 30.8724 17.8429 31.411 18.1783C32.098 18.6061 31.8317 19.3521 31.5793 19.6036C31.1076 20.0736 30.7378 20.2743 29.5597 20.6936C28.7183 21.0289 28.3817 21.3643 27.4561 21.8673C27.1475 22.035 26.3117 22.3704 25.4366 22.3704C24.3426 22.3704 23.5853 22.1189 22.239 21.532C22.6878 21.3084 23.7873 20.8445 24.5951 20.7774C25.6048 20.6936 26.3622 20.8612 26.9512 21.2804C26.5843 21.4055 26.3808 21.4601 26.0256 21.532C25.7451 21.4481 24.999 21.3308 24.2585 21.532C24.567 21.6438 25.3861 21.817 26.1939 21.6158C27.2036 21.3643 27.2036 21.2804 27.8768 20.8612C28.55 20.442 29.5597 19.939 30.3171 19.6875C31.0744 19.4359 31.2427 18.849 31.1585 18.7652C31.0744 18.6814 30.8219 18.5975 30.0646 19.1844C29.4756 19.2403 28.0956 19.1844 27.2878 18.5137C26.48 17.8429 25.8292 16.725 25.6048 16.2499C26.0817 16.4735 27.2036 16.9039 27.8768 16.8368C28.7183 16.753 29.728 16.4176 30.1488 16.0823C30.5695 15.7469 31.1585 15.16 31.3268 14.4893C31.2146 14.0421 30.7883 13.0639 29.9805 12.7286C28.9707 12.3094 28.8024 12.3094 27.4561 12.3094C27.3439 12.0578 26.9849 11.4877 26.4463 11.2194C25.7731 10.8841 25.2683 10.7164 24.4268 10.8002C24.6231 11.3592 24.999 12.7789 24.9317 13.9862C24.6231 14.3216 23.7873 15.0426 22.9122 15.2438C21.8182 15.7469 21.7341 15.7469 20.556 16.4176C19.378 17.0884 17.4426 18.9329 16.517 21.1128C15.7765 22.8567 15.367 25.9756 15.2548 27.3171C15.0304 25.6123 14.8004 21.7332 15.6755 19.8551C16.7694 17.5076 17.6951 17.0045 18.5365 15.4115C19.378 13.8185 19.5463 13.3993 19.7987 12.0578C20.0512 10.7164 20.2195 8.28496 18.8731 5.85355C18.2837 4.78913 16.4329 2.33219 14.6658 1.57761C13.8524 1.18635 11.7038 0.454132 9.61697 0.655352C7.00842 0.906878 5.57793 1.66145 5.07305 1.91298C4.56816 2.16451 2.96938 3.08677 2.04376 4.34439C1.11815 5.60202 0.697415 7.02733 0.697415 8.03343C0.697415 9.03954 1.034 10.7164 2.80108 11.7225C2.57669 11.2474 2.26254 10.0456 2.80108 9.03954C3.47426 7.78191 4.14743 7.27886 5.07305 7.11118C5.99866 6.94349 7.68159 7.11117 8.69135 8.28496C9.70112 9.45875 9.44868 11.1356 9.11209 12.4771C8.7755 13.8185 6.92427 15.663 6.92427 18.5137C6.92427 21.3643 7.17671 23.9634 8.60721 26.0594C10.0377 28.1555 11.6365 29.3293 13.3194 29.3293H27.0353C27.3439 29.2734 27.961 29.0442 27.961 28.5747C27.961 27.9878 27.6244 27.6524 26.6988 27.6524C25.9583 27.6524 23.2487 28.0996 21.9865 28.3232C22.9122 27.6524 24.8644 26.2103 25.2683 25.8079C25.7731 25.3049 26.6146 24.4664 26.867 23.9634C27.1195 23.4603 27.2635 22.9727 26.927 22.2181C27.1751 22.1329 27.3096 22.0817 27.516 21.9666C27.6001 22.1063 27.7927 22.5884 27.7927 23.125C27.7927 23.7957 27.4561 24.3826 26.867 25.1372C26.3958 25.7408 24.9878 26.842 24.3426 27.3171C25.0439 27.1494 26.6314 26.8643 27.3719 27.0655C28.2975 27.3171 28.55 27.8201 28.6341 28.4908C28.7183 29.1616 27.961 29.7485 27.2878 29.9162C27.0634 29.9441 26.5473 30 26.278 30H13.3194C12.5621 30 11.0138 29.782 9.19623 27.904C8.55111 27.2612 7.14305 25.4055 6.67183 23.125C6.08281 20.2743 6.2511 18.346 6.41939 17.256C6.58769 16.1661 7.42915 14.1539 7.93403 13.3993C8.43891 12.6447 8.60721 11.3871 8.69135 10.7164C8.7755 10.0456 8.85965 9.37491 7.93403 8.53649C7.00842 7.69807 6.2511 7.69807 5.91451 7.69807C5.57793 7.69807 4.8206 7.69807 4.23158 8.20112C3.64255 8.70417 3.30596 9.45875 3.22182 9.87796C3.13767 10.2972 3.13767 10.5487 3.22182 11.0517C3.28913 11.4542 3.64255 12.3373 3.81084 12.7286Z" fill="url(#paint0_linear_868_800)"/>
<defs>
<linearGradient id="paint0_linear_868_800" x1="0" y1="0" x2="31.9394" y2="30.0643" gradientUnits="userSpaceOnUse">
<stop stop-color="#120024"/>
<stop offset="1" stop-color="#1D003A"/>
</linearGradient>
</defs>
</svg>
