<svg width="300" height="300" viewBox="0 0 300 300" fill="none" xmlns="http://www.w3.org/2000/svg">
<path d="M291.429 203.572C291.429 252.094 251.71 291.429 202.714 291.429C191.932 291.429 181.599 289.524 172.04 286.035C167.225 284.278 161.918 284.278 157.102 286.035C147.543 289.524 137.211 291.429 126.429 291.429C87.8599 291.429 55.0397 267.054 42.8174 233.011C41.6354 229.719 39.6692 226.756 37.089 224.394C19.5523 208.343 8.57141 185.37 8.57141 159.857C8.5714 148.945 10.5804 138.497 14.2521 128.856C15.7894 124.82 16.0888 120.405 15.1119 116.198C13.6366 109.843 12.8571 103.226 12.8571 96.4287C12.8571 47.9065 52.5759 8.57156 101.571 8.57156C116.137 8.57156 129.882 12.0478 142.008 18.2082C148.344 21.4269 155.942 21.4269 162.277 18.2082C174.403 12.0478 188.149 8.57156 202.714 8.57156C251.71 8.57155 291.429 47.9065 291.429 96.4287C291.429 111.832 287.426 126.309 280.395 138.896C276.57 145.743 276.57 154.257 280.395 161.105C287.426 173.692 291.429 188.169 291.429 203.572Z" fill="#B896C9" fill-opacity="0.25"/>
<path fill-rule="evenodd" clip-rule="evenodd" d="M58.4084 98.0222C60.6061 97.1431 63.1002 98.2121 63.9793 100.41L75.1222 128.267C76.0012 130.464 74.9323 132.959 72.7346 133.838C70.537 134.717 68.0428 133.648 67.1638 131.45L56.0209 103.593C55.1419 101.395 56.2108 98.9012 58.4084 98.0222ZM34.8628 120.243C36.3862 118.432 39.0897 118.198 40.9013 119.721L59.7584 135.578C61.57 137.102 61.8036 139.805 60.2802 141.617C58.7569 143.428 56.0534 143.662 54.2418 142.139L35.3847 126.281C33.5731 124.758 33.3395 122.055 34.8628 120.243Z" fill="#B896C9"/>
<path d="M266.53 151.409C266.97 147.409 263.841 143.913 259.82 143.913H250.768L234.006 184.51L232.863 187.279L251.371 278.105C251.589 280.162 249.977 282.001 247.862 282.001C250.439 282.001 252.371 280.069 252.659 277.51L252.659 277.506L252.663 277.477L266.53 151.409Z" fill="#A27EB4"/>
<path d="M72.6029 149.931L72.1964 153.626H129.914L131.057 150.857L133.924 143.913H79.3133C75.8707 143.913 72.9796 146.506 72.6029 149.931Z" fill="#A27EB4"/>
<path d="M272.675 90.8574L262.934 66.8574L256.541 82.341C256.179 83.2161 256.596 84.2184 257.471 84.5798L272.675 90.8574Z" fill="white"/>
<path d="M272.675 90.8574L257.471 84.5798C257.11 85.4549 257.526 86.4572 258.401 86.8185L272.021 92.4419L272.675 90.8574Z" fill="#F2F2F2"/>
<path fill-rule="evenodd" clip-rule="evenodd" d="M205.135 135.233L200.218 123.407L171.775 135.233H205.135ZM161.755 136.471C161.619 136.274 161.501 136.061 161.406 135.831C160.679 134.083 161.507 132.076 163.255 131.349L197.586 117.076L183.313 82.745C182.586 80.9966 183.414 78.9899 185.162 78.2629C186.911 77.536 188.918 78.3641 189.644 80.1126L203.918 114.443L238.248 100.17C239.997 99.4432 242.004 100.271 242.73 102.02C243.457 103.768 242.629 105.775 240.881 106.502L206.55 120.775L212.561 135.233H214.855H218.451C221.66 135.233 224.425 137.493 225.066 140.639L225.169 141.145L234.006 184.51L250.768 143.913L272.021 92.4419L258.401 86.8185C257.526 86.4572 257.11 85.4549 257.471 84.5798C256.596 84.2184 256.179 83.2161 256.541 82.341L262.934 66.8574L181.481 33.2259C180.606 32.8646 179.604 33.2811 179.243 34.1562L133.924 143.913L131.057 150.857H146.934C149.022 150.857 150.992 149.891 152.271 148.239L157.763 141.145L160.314 137.851C160.728 137.316 161.215 136.853 161.755 136.471Z" fill="#FAFAFA"/>
<path d="M151.128 151.008L156.62 143.913L159.17 140.62C160.449 138.968 162.419 138.001 164.507 138.001H206.286L205.135 135.233H171.775L165.888 137.681C164.369 138.312 162.655 137.77 161.755 136.471C161.215 136.853 160.728 137.316 160.314 137.851L157.763 141.145L152.271 148.239C150.992 149.891 149.022 150.857 146.934 150.857H131.057L129.914 153.626H145.791C147.879 153.626 149.849 152.659 151.128 151.008Z" fill="#F2F2F2"/>
<path d="M223.923 143.408L224.026 143.913L232.863 187.279L234.006 184.51L225.169 141.145L225.066 140.639C224.425 137.493 221.66 135.233 218.451 135.233H214.855H212.561L213.712 138.001H217.308C220.516 138.001 223.282 140.261 223.923 143.408Z" fill="#F2F2F2"/>
<path d="M165.65 135.233C164.239 135.233 162.881 135.674 161.755 136.471C162.655 137.77 164.369 138.312 165.888 137.681L171.775 135.233H165.65Z" fill="#966DAB"/>
<path fill-rule="evenodd" clip-rule="evenodd" d="M189.644 80.1126C188.918 78.3641 186.911 77.536 185.162 78.2629C183.414 78.9899 182.586 80.9966 183.313 82.745L197.586 117.076L163.255 131.349C161.507 132.076 160.679 134.083 161.406 135.831C161.501 136.061 161.619 136.274 161.755 136.471C162.881 135.674 164.239 135.233 165.65 135.233H171.775L200.218 123.407L205.135 135.233H207.429H212.561L206.55 120.775L240.881 106.502C242.629 105.775 243.457 103.768 242.73 102.02C242.004 100.271 239.997 99.4432 238.248 100.17L203.918 114.443L189.644 80.1126Z" fill="#A27EB4"/>
<path d="M206.286 138.001H213.712L212.561 135.233H207.429H205.135L206.286 138.001Z" fill="#966DAB"/>
<path fill-rule="evenodd" clip-rule="evenodd" d="M56.9734 276.595L33.5671 161.733C32.7137 157.545 35.9113 153.626 40.1819 153.626H72.1964H129.914H145.791C147.879 153.626 149.849 152.659 151.128 151.008L156.62 143.913L159.17 140.62C160.449 138.968 162.419 138.001 164.507 138.001H206.286H213.712H217.308C220.516 138.001 223.282 140.261 223.923 143.408L224.026 143.913L232.863 187.279L251.371 278.105C251.589 280.162 249.977 282.001 247.862 282.001H244.57H63.5882C60.3798 282.001 57.6145 279.741 56.9734 276.595ZM162.857 211.715C166.644 211.715 169.714 208.069 169.714 203.572C169.714 199.074 166.644 195.429 162.857 195.429C159.07 195.429 156 199.074 156 203.572C156 208.069 159.07 211.715 162.857 211.715ZM96.3572 246.295C98.3908 242.462 103.073 239.097 110.183 236.719C117.173 234.38 125.855 233.226 134.802 233.304C143.739 233.381 152.718 234.685 160.274 237.098C167.937 239.546 173.609 242.964 176.589 246.881C178.023 248.765 180.711 249.13 182.595 247.696C184.479 246.263 184.844 243.574 183.411 241.691C178.891 235.75 171.277 231.615 162.882 228.933C154.38 226.217 144.529 224.816 134.876 224.732C125.235 224.649 115.568 225.879 107.464 228.59C99.4807 231.26 92.3235 235.61 88.7857 242.277C87.6763 244.368 88.4718 246.962 90.5627 248.072C92.6535 249.181 95.2478 248.385 96.3572 246.295ZM100.286 211.715C104.073 211.715 107.143 208.069 107.143 203.572C107.143 199.074 104.073 195.429 100.286 195.429C96.4986 195.429 93.4286 199.074 93.4286 203.572C93.4286 208.069 96.4986 211.715 100.286 211.715Z" fill="#B896C9"/>
<path d="M140.362 101.934C132.694 103.669 114.764 105.022 104.392 96.5555M104.392 96.5555C117.096 106.799 134.882 85.6177 120.296 75.7363C105.992 66.0461 91.9794 85.2048 103.669 95.9308M104.392 96.5555C104.141 96.3508 103.9 96.1424 103.669 95.9308M103.669 95.9308C91.2178 92.7245 67.5698 78.2246 72.5911 45.8749" stroke="#B896C9" stroke-width="4" stroke-linecap="round" stroke-dasharray="8 8"/>
</svg>
