<svg width="352" height="300" viewBox="0 0 352 300" fill="none" xmlns="http://www.w3.org/2000/svg">
<rect width="352" height="300" fill="#FFC998"/>
<path d="M346 198.962C346 246.48 299.661 285 242.5 285C229.921 285 217.866 283.135 206.714 279.718C201.095 277.997 194.905 277.997 189.286 279.718C178.134 283.135 166.079 285 153.5 285C108.503 285 70.213 261.13 55.9536 227.792C54.5747 224.568 52.2807 221.666 49.2705 219.353C28.8111 203.635 16 181.138 16 156.153C16 145.466 18.3438 135.235 22.6275 125.794C24.421 121.841 24.7703 117.517 23.6306 113.397C21.9094 107.175 21 100.695 21 94.0379C21 46.5205 67.3385 8 124.5 8C141.493 7.99999 157.529 11.4043 171.676 17.4371C179.068 20.5891 187.932 20.5891 195.324 17.4371C209.471 11.4043 225.507 7.99999 242.5 7.99999C299.661 7.99999 346 46.5205 346 94.0379C346 109.122 341.331 123.299 333.128 135.625C328.665 142.331 328.665 150.669 333.128 157.375C341.331 169.701 346 183.878 346 198.962Z" fill="white" fill-opacity="0.25"/>
<path d="M51.9993 101C48.0031 120.367 46.5416 129.5 47 156C49.4999 300.5 309.999 301 309.999 163.5C310.385 136.623 307.986 122.143 298.499 97.5C284.5 65 262 58 215.499 56.5H129.499C97.9999 58 65.4999 65.5 51.9993 101Z" stroke="white" stroke-width="2" stroke-dasharray="4 4"/>
<path fill-rule="evenodd" clip-rule="evenodd" d="M183.005 116.508C183.005 117.42 182.258 118.16 181.337 118.16C180.415 118.16 179.668 117.42 179.668 116.508C179.668 115.595 180.415 114.855 181.337 114.855C182.258 114.855 183.005 115.595 183.005 116.508ZM180.502 115.957C180.656 115.957 180.78 115.834 180.78 115.682C180.78 115.53 180.656 115.406 180.502 115.406C180.349 115.406 180.224 115.53 180.224 115.682C180.224 115.834 180.349 115.957 180.502 115.957Z" fill="#492300"/>
<path fill-rule="evenodd" clip-rule="evenodd" d="M183.561 116.508C183.561 117.725 182.565 118.711 181.337 118.711C180.108 118.711 179.112 117.725 179.112 116.508C179.112 115.291 180.108 114.305 181.337 114.305C182.565 114.305 183.561 115.291 183.561 116.508ZM181.337 118.16C182.258 118.16 183.005 117.42 183.005 116.508C183.005 115.595 182.258 114.855 181.337 114.855C180.415 114.855 179.668 115.595 179.668 116.508C179.668 117.42 180.415 118.16 181.337 118.16Z" fill="#984900"/>
<path d="M180.78 115.682C180.78 115.834 180.656 115.957 180.502 115.957C180.349 115.957 180.224 115.834 180.224 115.682C180.224 115.53 180.349 115.406 180.502 115.406C180.656 115.406 180.78 115.53 180.78 115.682Z" fill="white"/>
<path fill-rule="evenodd" clip-rule="evenodd" d="M85.1325 122.016C85.1325 115.932 90.1119 111 96.2543 111H259.746C265.888 111 270.867 115.932 270.867 122.016V195.364V210.141C270.867 211.357 269.872 212.344 268.643 212.344H87.3568C86.1284 212.344 85.1325 211.357 85.1325 210.141V195.364V122.016ZM87.3568 124.219V195.364V207.937C87.3568 209.154 88.3527 210.141 89.5812 210.141H266.419C267.647 210.141 268.643 209.154 268.643 207.937V195.364V124.219C268.643 123.002 267.647 122.016 266.419 122.016L89.5812 122.016C88.3527 122.016 87.3568 123.002 87.3568 124.219ZM181.337 118.711C182.565 118.711 183.561 117.725 183.561 116.508C183.561 115.291 182.565 114.305 181.337 114.305C180.108 114.305 179.112 115.291 179.112 116.508C179.112 117.725 180.108 118.711 181.337 118.711Z" fill="#FFAB5E"/>
<path d="M178 116.508C178 117.42 177.253 118.16 176.332 118.16C175.41 118.16 174.663 117.42 174.663 116.508C174.663 115.595 175.41 114.855 176.332 114.855C177.253 114.855 178 115.595 178 116.508Z" fill="#984900"/>
<path d="M52.5712 252H303.429C307.478 252 309.977 247.964 308.635 244.531C308.566 244.355 308.487 244.18 308.398 244.008C307.514 245.751 305.719 247.043 303.429 247.043H52.5712C50.2806 247.043 48.486 245.751 47.6022 244.008C45.7705 247.539 48.3142 252 52.5712 252Z" fill="#FFAB5E"/>
<path d="M224.385 241.916L222.534 237.171V239.544L224.385 244.289H253.987V241.916H224.385Z" fill="#FFAB5E"/>
<path d="M222.534 237.171L224.385 241.916H253.987L249.978 237.171H240.573L237.335 232.426H228.701L229.935 234.799L231.168 237.171H229.935H222.534Z" fill="#FAD9BB"/>
<path d="M303.677 241.916L277.51 220.563H274.602H238.26L257.687 241.916H303.677Z" fill="#FAD9BB"/>
<path d="M303.677 241.916H257.687L238.26 220.563V222.936L257.687 244.289H303.677V241.916Z" fill="#FFAB5E"/>
<path d="M274.602 218.191L268.787 213.445H231.785L236.102 218.191H274.602Z" fill="#FAD9BB"/>
<path d="M238.26 220.563H274.602V218.191H236.102L231.785 213.445V215.635L233.943 218.191L236.102 220.563H238.26Z" fill="#FFAB5E"/>
<path d="M213.284 213.445L215.134 218.191H233.943L231.785 215.635L229.935 213.445H213.284Z" fill="#FAD9BB"/>
<path d="M215.134 218.191L213.284 213.445V215.818L215.134 220.563H216.059H233.943V218.191H215.134Z" fill="#FFAB5E"/>
<path d="M216.059 220.563L218.834 227.681H241.961L235.948 220.563H233.943H216.059Z" fill="#FAD9BB"/>
<path d="M218.834 227.681L216.059 220.563V222.936L218.834 230.053H241.961V227.681H218.834Z" fill="#FFAB5E"/>
<path d="M229.935 237.171H231.168L229.935 234.799L228.701 232.426V234.799L229.935 237.171Z" fill="#FFAB5E"/>
<path d="M78.6873 220.563L52.323 241.916H220.684L213.746 220.563H212.975H81.6166H78.6873Z" fill="#FAD9BB"/>
<path d="M220.684 241.916H52.323V244.289H220.684V241.916Z" fill="#FFAB5E"/>
<path d="M81.6166 220.563H212.975V218.191H81.6166V220.563Z" fill="#FFAB5E"/>
<path d="M87.4753 213.445L81.6166 218.191H212.975L211.434 213.445H87.4753Z" fill="#FAD9BB"/>
<path fill-rule="evenodd" clip-rule="evenodd" d="M308.174 243.617C307.956 243.268 307.657 242.98 307.336 242.72L273.019 214.861C272.699 214.601 272.417 214.299 272.128 214.005C271.088 212.949 269.655 212.344 268.148 212.344H87.8522C86.3452 212.344 84.9122 212.949 83.872 214.005C83.5828 214.299 83.3011 214.601 82.9808 214.861L48.6636 242.719C48.3433 242.979 48.0439 243.268 47.8257 243.617C47.745 243.746 47.6706 243.876 47.6022 244.008C48.486 245.751 50.2806 247.043 52.5712 247.043H303.429C305.719 247.043 307.514 245.751 308.398 244.008C308.329 243.876 308.255 243.746 308.174 243.617ZM268.787 213.445L274.602 218.191V220.563H277.51L303.677 241.916V244.289H257.687L238.26 222.936V220.563H236.102L233.943 218.191V220.563H235.948L241.961 227.681V230.053H218.834L216.059 222.936V220.563H215.134L213.284 215.818V213.445H229.935L231.785 215.635V213.445H268.787ZM52.323 241.916L78.6873 220.563H81.6166V218.191L87.4753 213.445H211.434L212.975 218.191V220.563H213.746L220.684 241.916V244.289H52.323V241.916ZM249.978 237.171L253.987 241.916V244.289H224.385L222.534 239.544V237.171H229.935L228.701 234.799V232.426H237.335L240.573 237.171H249.978Z" fill="#FFB571"/>
<path d="M266.419 210.141H89.5812C88.3527 210.141 87.3568 209.154 87.3568 207.937V195.364V124.219C87.3568 123.002 88.3527 122.016 89.5812 122.016L266.419 122.016C267.647 122.016 268.643 123.002 268.643 124.219V195.364V207.937C268.643 209.154 267.647 210.141 266.419 210.141Z" fill="#FFE8D3"/>
<path d="M121 143C121 149.627 115.627 155 109 155C102.373 155 97 149.627 97 143C97 136.373 102.373 131 109 131C115.627 131 121 136.373 121 143Z" fill="#FFAB5E"/>
<path d="M97 163C97 161.895 97.8954 161 99 161H143C144.105 161 145 161.895 145 163C145 164.105 144.105 165 143 165H99C97.8954 165 97 164.105 97 163Z" fill="#FAD9BB"/>
<path d="M97 172C97 170.895 97.8954 170 99 170H132C133.105 170 134 170.895 134 172C134 173.105 133.105 174 132 174H99C97.8954 174 97 173.105 97 172Z" fill="#FAD9BB"/>
<path d="M97 181C97 179.895 97.8954 179 99 179H151C152.105 179 153 179.895 153 181C153 182.105 152.105 183 151 183H99C97.8954 183 97 182.105 97 181Z" fill="#FAD9BB"/>
<path d="M97 190C97 188.895 97.8954 188 99 188H142C143.105 188 144 188.895 144 190C144 191.105 143.105 192 142 192H99C97.8954 192 97 191.105 97 190Z" fill="#FAD9BB"/>
<path fill-rule="evenodd" clip-rule="evenodd" d="M256.528 200C260.946 200 264.528 196.418 264.528 192V105H182.528V169.528C182.528 171.043 181.672 172.428 180.317 173.106L174.106 176.211C172.631 176.948 172.631 179.052 174.106 179.789L180.317 182.894C181.672 183.572 182.528 184.957 182.528 186.472V192C182.528 196.418 186.11 200 190.528 200H256.528Z" fill="white"/>
<path d="M264.528 94C264.528 89.5817 260.946 86 256.528 86H190.528C186.11 86 182.528 89.5817 182.528 94V105H264.528V94Z" fill="#FFAB5E"/>
<path d="M255.85 155.067C255.85 156.566 254.615 157.781 253.091 157.781C251.568 157.781 250.332 156.566 250.332 155.067C250.332 153.568 251.568 152.352 253.091 152.352C254.615 152.352 255.85 153.568 255.85 155.067Z" fill="white"/>
<path fill-rule="evenodd" clip-rule="evenodd" d="M228.263 150C227.857 150 227.528 150.324 227.528 150.724V163.481L232.852 155.042C233.438 154.112 234.821 154.134 235.376 155.082L238.838 160.993L240.267 158.885C240.853 158.02 242.147 158.026 242.723 158.897L249.413 169H258.792C259.199 169 259.528 168.676 259.528 168.276V150.724C259.528 150.324 259.199 150 258.792 150H228.263ZM253.091 157.781C254.615 157.781 255.85 156.566 255.85 155.067C255.85 153.568 254.615 152.352 253.091 152.352C251.568 152.352 250.332 153.568 250.332 155.067C250.332 156.566 251.568 157.781 253.091 157.781Z" fill="#FAD9BB"/>
<path d="M238.838 160.993L243.528 169H249.413L242.723 158.897C242.147 158.026 240.853 158.02 240.267 158.885L238.838 160.993Z" fill="#FFAB5E"/>
<path d="M227.528 168.276C227.528 168.676 227.857 169 228.263 169H243.528L238.838 160.993L235.376 155.082C234.821 154.134 233.438 154.112 232.852 155.042L227.528 163.481V168.276Z" fill="#FFB571"/>
<path d="M188.528 114C188.528 112.895 189.423 112 190.528 112H234.528C235.632 112 236.528 112.895 236.528 114C236.528 115.105 235.632 116 234.528 116H190.528C189.423 116 188.528 115.105 188.528 114Z" fill="#FAD9BB"/>
<path d="M188.528 123C188.528 121.895 189.423 121 190.528 121H223.528C224.632 121 225.528 121.895 225.528 123C225.528 124.105 224.632 125 223.528 125H190.528C189.423 125 188.528 124.105 188.528 123Z" fill="#FAD9BB"/>
<path d="M188.528 132C188.528 130.895 189.423 130 190.528 130H242.528C243.632 130 244.528 130.895 244.528 132C244.528 133.105 243.632 134 242.528 134H190.528C189.423 134 188.528 133.105 188.528 132Z" fill="#FAD9BB"/>
<path d="M188.528 141C188.528 139.895 189.423 139 190.528 139H233.528C234.632 139 235.528 139.895 235.528 141C235.528 142.105 234.632 143 233.528 143H190.528C189.423 143 188.528 142.105 188.528 141Z" fill="#FAD9BB"/>
<path d="M188.528 150C188.528 148.895 189.423 148 190.528 148H220.528C221.632 148 222.528 148.895 222.528 150C222.528 151.105 221.632 152 220.528 152H190.528C189.423 152 188.528 151.105 188.528 150Z" fill="#FAD9BB"/>
<path d="M188.528 159C188.528 157.895 189.423 157 190.528 157H220.528C221.632 157 222.528 157.895 222.528 159C222.528 160.105 221.632 161 220.528 161H190.528C189.423 161 188.528 160.105 188.528 159Z" fill="#FAD9BB"/>
<path d="M188.528 168C188.528 166.895 189.423 166 190.528 166H220.528C221.632 166 222.528 166.895 222.528 168C222.528 169.105 221.632 170 220.528 170H190.528C189.423 170 188.528 169.105 188.528 168Z" fill="#FAD9BB"/>
<path d="M188.528 177C188.528 175.895 189.423 175 190.528 175H242.528C243.632 175 244.528 175.895 244.528 177C244.528 178.105 243.632 179 242.528 179H190.528C189.423 179 188.528 178.105 188.528 177Z" fill="#FAD9BB"/>
<path d="M188.528 186C188.528 184.895 189.423 184 190.528 184H233.528C234.632 184 235.528 184.895 235.528 186C235.528 187.105 234.632 188 233.528 188H190.528C189.423 188 188.528 187.105 188.528 186Z" fill="#FAD9BB"/>
<path d="M215.128 99.792C213.6 99.792 212.416 99.708 211.576 99.54C211.36 95.532 211.164 93.108 210.988 92.268L210.628 92.352C210.436 92.392 210.252 92.436 210.076 92.484C209.9 92.524 209.712 92.584 209.512 92.664L209.5 92.256C209.5 92.12 209.648 91.996 209.944 91.884C210.24 91.764 210.596 91.672 211.012 91.608C211.436 91.536 211.812 91.5 212.14 91.5C212.5 91.5 212.912 91.564 213.376 91.692C213.848 91.82 214.252 92.012 214.588 92.268C214.924 92.516 215.092 92.812 215.092 93.156C215.092 93.548 214.94 93.896 214.636 94.2C214.34 94.496 213.952 94.708 213.472 94.836C214.176 94.956 214.832 95.172 215.44 95.484C216.048 95.788 216.536 96.168 216.904 96.624C217.272 97.072 217.456 97.556 217.456 98.076C217.456 98.676 217.224 99.112 216.76 99.384C216.296 99.656 215.752 99.792 215.128 99.792ZM214.816 99.108C215.408 99.108 215.864 99.044 216.184 98.916C216.504 98.78 216.664 98.492 216.664 98.052C216.664 97.588 216.524 97.2 216.244 96.888C215.972 96.568 215.648 96.32 215.272 96.144C214.904 95.96 214.444 95.768 213.892 95.568C213.452 95.416 213.124 95.284 212.908 95.172C212.7 95.052 212.596 94.92 212.596 94.776C212.596 94.672 212.648 94.592 212.752 94.536C212.856 94.48 213.04 94.4 213.304 94.296C213.664 94.176 213.944 94.048 214.144 93.912C214.352 93.768 214.456 93.568 214.456 93.312C214.456 92.936 214.228 92.648 213.772 92.448C213.316 92.24 212.804 92.136 212.236 92.136C212.076 92.136 211.884 92.152 211.66 92.184C211.868 93.528 212.012 94.66 212.092 95.58C212.172 96.492 212.228 97.552 212.26 98.76C212.372 98.872 212.656 98.956 213.112 99.012C213.568 99.068 214.136 99.1 214.816 99.108Z" fill="white"/>
<path d="M220.958 99.804C220.158 99.804 219.554 99.668 219.146 99.396C218.738 99.116 218.534 98.612 218.534 97.884C218.694 93.884 218.95 91.976 219.302 92.16C219.478 92.168 219.566 92.44 219.566 92.976C219.566 93.304 219.51 93.996 219.398 95.052C219.254 96.268 219.182 97.16 219.182 97.728L219.194 98.076C219.194 98.252 219.246 98.428 219.35 98.604C219.462 98.78 219.602 98.876 219.77 98.892L222.122 99.096C222.21 99.104 222.254 99.188 222.254 99.348C222.254 99.492 222.218 99.592 222.146 99.648C222.082 99.704 221.966 99.748 221.798 99.78L220.958 99.804Z" fill="white"/>
<path d="M226.312 99.792C225.648 99.792 225.052 99.656 224.524 99.384C224.004 99.112 223.596 98.728 223.3 98.232C223.004 97.736 222.856 97.164 222.856 96.516C222.856 96.076 222.944 95.672 223.12 95.304C223.296 94.936 223.552 94.644 223.888 94.428C224.224 94.204 224.62 94.092 225.076 94.092C225.94 94.092 226.708 94.24 227.38 94.536C228.06 94.824 228.588 95.24 228.964 95.784C229.348 96.328 229.54 96.956 229.54 97.668C229.54 98.14 229.364 98.536 229.012 98.856C228.668 99.176 228.244 99.412 227.74 99.564C227.244 99.716 226.768 99.792 226.312 99.792ZM226.084 99.168C226.884 99.168 227.556 99.048 228.1 98.808C228.652 98.568 228.928 98.168 228.928 97.608C228.928 96.632 228.552 95.9 227.8 95.412C227.048 94.916 226.088 94.668 224.92 94.668C224.36 94.668 223.964 94.836 223.732 95.172C223.508 95.5 223.396 95.948 223.396 96.516C223.396 96.988 223.508 97.428 223.732 97.836C223.964 98.236 224.284 98.56 224.692 98.808C225.1 99.048 225.564 99.168 226.084 99.168Z" fill="white"/>
<path d="M236.61 100.608C236.338 100.608 236.154 100.464 236.058 100.176C235.97 99.896 235.926 99.588 235.926 99.252L235.962 98.904C235.57 99.152 235.106 99.348 234.57 99.492C234.042 99.636 233.486 99.708 232.902 99.708C232.478 99.708 232.102 99.612 231.774 99.42C231.446 99.22 231.19 98.952 231.006 98.616C230.83 98.272 230.742 97.884 230.742 97.452C230.742 96.796 230.998 96.176 231.51 95.592C232.022 95 232.65 94.52 233.394 94.152C234.146 93.776 234.842 93.564 235.482 93.516C235.802 93.484 236.074 93.556 236.298 93.732C236.522 93.9 236.634 94.136 236.634 94.44C236.466 94.44 236.266 94.396 236.034 94.308C236.002 94.3 235.918 94.276 235.782 94.236C235.646 94.196 235.506 94.176 235.362 94.176C234.794 94.176 234.19 94.34 233.55 94.668C232.918 94.996 232.386 95.432 231.954 95.976C231.53 96.512 231.318 97.076 231.318 97.668C231.318 97.948 231.402 98.192 231.57 98.4C231.746 98.6 231.962 98.756 232.218 98.868C232.482 98.972 232.746 99.024 233.01 99.024C233.642 99.024 234.162 99 234.57 98.952C234.978 98.896 235.33 98.756 235.626 98.532C235.922 98.3 236.07 97.948 236.07 97.476C236.07 97.252 236.022 97.096 235.926 97.008H233.79C233.678 97.008 233.57 96.952 233.466 96.84C233.37 96.728 233.322 96.616 233.322 96.504C233.322 96.304 233.382 96.204 233.502 96.204C233.598 96.204 233.75 96.244 233.958 96.324C234.15 96.412 234.314 96.456 234.45 96.456C234.626 96.456 234.898 96.432 235.266 96.384C235.33 96.376 235.446 96.364 235.614 96.348C235.782 96.332 235.934 96.324 236.07 96.324C236.206 96.324 236.338 96.384 236.466 96.504C236.602 96.616 236.666 96.744 236.658 96.888L236.586 99.66C236.642 99.772 236.738 99.868 236.874 99.948C236.922 99.972 236.962 100 236.994 100.032C237.026 100.072 237.046 100.112 237.054 100.152C237.094 100.24 237.054 100.336 236.934 100.44C236.814 100.552 236.706 100.608 236.61 100.608Z" fill="white"/>
<path d="M35 77C35 75.8954 35.8954 75 37 75H75C76.1046 75 77 75.8954 77 77V115C77 116.105 76.1046 117 75 117H37C35.8954 117 35 116.105 35 115V77Z" fill="white"/>
<path d="M67.3795 99.9508C66.2908 99.3295 65.2089 98.712 64.1397 98.1111C58.0256 94.6749 52.3246 91.7778 48.1299 91.7778C44.5299 91.7778 40.6064 93.3107 37 95.3727V113C37 114.105 37.8954 115 39 115H51.7677C56.6686 113.944 66.8343 111.471 68.2894 110.024C69.3028 109.016 72.1515 107.947 75 107.332V104.184C72.4721 102.857 69.9075 101.393 67.3795 99.9508Z" fill="#FFB571"/>
<path d="M67.3795 99.9508C69.9075 101.393 72.4721 102.857 75 104.184V90.7658C70.9365 92.7306 66.4806 96.1017 64.1397 98.1111C65.2089 98.712 66.2908 99.3295 67.3795 99.9508Z" fill="#FFAB5E"/>
<path d="M48.1299 91.7778C52.3246 91.7778 58.0256 94.6749 64.1397 98.1111C66.4806 96.1017 70.9365 92.7306 75 90.7658V79C75 77.8954 74.1046 77 73 77H64.6005C65.1121 77.5204 65.4095 78.1419 65.4095 78.8095C65.4095 80.6417 63.17 82.127 60.4075 82.127C59.2465 82.127 58.178 81.8647 57.3292 81.4245C56.8673 81.8599 56.2436 82.127 55.5571 82.127C54.5475 82.127 53.6736 81.5494 53.2509 80.7083C52.9359 80.8449 52.588 80.9206 52.2224 80.9206C50.7993 80.9206 49.6457 79.7729 49.6457 78.3571C49.6457 77.8588 49.7886 77.3936 50.036 77H41.4649C41.8052 77.5883 42 78.2714 42 79C42 81.2091 40.2091 83 38 83C37.6547 83 37.3196 82.9562 37 82.874V95.3727C40.6064 93.3107 44.5299 91.7778 48.1299 91.7778Z" fill="#FAD9BB"/>
<path d="M49.6457 78.3571C49.6457 79.7729 50.7993 80.9206 52.2224 80.9206C52.588 80.9206 52.9359 80.8449 53.2509 80.7083C53.6736 81.5494 54.5475 82.127 55.5571 82.127C56.2436 82.127 56.8673 81.8599 57.3292 81.4245C58.178 81.8647 59.2465 82.127 60.4075 82.127C63.17 82.127 65.4095 80.6417 65.4095 78.8095C65.4095 78.1419 65.1121 77.5204 64.6005 77H50.036C49.7886 77.3936 49.6457 77.8588 49.6457 78.3571Z" fill="white"/>
<path d="M72.2303 111.381C71.0177 112.467 66.5401 114.246 64.3484 115H73C74.1046 115 75 114.105 75 113V109.387C73.7897 110.096 72.824 110.849 72.2303 111.381Z" fill="#FFB571"/>
<path d="M68.2894 110.024C66.8343 111.471 56.6686 113.944 51.7677 115H64.3484C66.5401 114.246 71.0177 112.467 72.2303 111.381C72.824 110.849 73.7897 110.096 75 109.387V107.332C72.1515 107.947 69.3028 109.016 68.2894 110.024Z" fill="#FFAB5E"/>
<path d="M38 83C40.2091 83 42 81.2091 42 79C42 78.2714 41.8052 77.5883 41.4649 77H39C37.8954 77 37 77.8954 37 79V82.874C37.3196 82.9562 37.6547 83 38 83Z" fill="white"/>
<path fill-rule="evenodd" clip-rule="evenodd" d="M115 36C115 34.8954 115.895 34 117 34H155C156.105 34 157 34.8954 157 36V74C157 75.1046 156.105 76 155 76H117C115.895 76 115 75.1046 115 74V36ZM136 43H152.967C153.45 43 153.652 43.6187 153.261 43.9039L136.295 56.2849C136.119 56.4131 135.881 56.4131 135.705 56.2849L118.739 43.9039C118.348 43.6187 118.55 43 119.033 43H136ZM130.725 57.0138C132.014 56.3107 132.131 54.5043 130.943 53.6406L117.794 44.0775C117.464 43.8372 117 44.0732 117 44.4819V63.6577C117 64.0373 117.406 64.2784 117.739 64.0967L130.725 57.0138ZM119.221 64.0611L132.871 56.6158C133.559 56.2407 134.402 56.3016 135.029 56.7716L135.7 57.275C135.878 57.4083 136.122 57.4083 136.3 57.275L136.971 56.7716C137.598 56.3016 138.441 56.2407 139.129 56.6158L152.779 64.0611C153.233 64.3091 153.057 65 152.539 65H119.461C118.943 65 118.767 64.3091 119.221 64.0611ZM141.057 53.6406C139.869 54.5043 139.986 56.3106 141.275 57.0138L154.261 64.0967C154.594 64.2784 155 64.0373 155 63.6577V44.4819C155 44.0732 154.536 43.8372 154.206 44.0775L141.057 53.6406Z" fill="white"/>
<path d="M117.794 44.0775L130.943 53.6406C132.131 54.5043 132.014 56.3107 130.725 57.0138L117.739 64.0967C117.406 64.2784 117 64.0373 117 63.6577V44.4819C117 44.0732 117.464 43.8372 117.794 44.0775Z" fill="#FFB571"/>
<path d="M136 43H152.967C153.45 43 153.652 43.6187 153.261 43.9039L136.295 56.2849C136.119 56.4131 135.881 56.4131 135.705 56.2849L118.739 43.9039C118.348 43.6187 118.55 43 119.033 43H136Z" fill="#FFAB5E"/>
<path d="M119.221 64.0611L132.871 56.6158C133.559 56.2407 134.402 56.3016 135.029 56.7716L135.7 57.275C135.878 57.4083 136.122 57.4083 136.3 57.275L136.971 56.7716C137.598 56.3016 138.441 56.2407 139.129 56.6158L152.779 64.0611C153.233 64.3091 153.057 65 152.539 65H119.461C118.943 65 118.767 64.3091 119.221 64.0611Z" fill="#FFB571"/>
<path d="M154.261 64.0967L141.275 57.0138C139.986 56.3106 139.869 54.5043 141.057 53.6406L154.206 44.0775C154.536 43.8372 155 44.0732 155 44.4819V63.6577C155 64.0373 154.594 64.2784 154.261 64.0967Z" fill="#FFB571"/>
<path d="M196 36C196 34.8954 196.895 34 198 34H236C237.105 34 238 34.8954 238 36V74C238 75.1046 237.105 76 236 76H198C196.895 76 196 75.1046 196 74V36Z" fill="white"/>
<path d="M198 43C198 41.8954 198.895 41 200 41H234C235.105 41 236 41.8954 236 43V65H198V43Z" fill="#492300"/>
<path fill-rule="evenodd" clip-rule="evenodd" d="M236 65H198V67C198 68.1046 198.895 69 200 69H234C235.105 69 236 68.1046 236 67V65ZM229 66.5C229 66.2239 228.776 66 228.5 66H212H199.5C199.224 66 199 66.2239 199 66.5C199 66.7761 199.224 67 199.5 67H212H228.5C228.776 67 229 66.7761 229 66.5Z" fill="#FFAB5E"/>
<path fill-rule="evenodd" clip-rule="evenodd" d="M229 66.5C229 66.2239 228.776 66 228.5 66H212V67H228.5C228.776 67 229 66.7761 229 66.5Z" fill="#FAD9BB"/>
<path d="M199.5 66C199.224 66 199 66.2239 199 66.5C199 66.7761 199.224 67 199.5 67H212V66H199.5Z" fill="#492300"/>
<path d="M234 67L232 68V66L234 67Z" fill="white"/>
<path fill-rule="evenodd" clip-rule="evenodd" d="M221 53L215 56.4641V49.5359L221 53ZM217 58.5C220.038 58.5 222.5 56.0376 222.5 53C222.5 49.9624 220.038 47.5 217 47.5C213.962 47.5 211.5 49.9624 211.5 53C211.5 56.0376 213.962 58.5 217 58.5ZM217 59C220.314 59 223 56.3137 223 53C223 49.6863 220.314 47 217 47C213.686 47 211 49.6863 211 53C211 56.3137 213.686 59 217 59Z" fill="white"/>
<path fill-rule="evenodd" clip-rule="evenodd" d="M317 77C317 75.8954 316.105 75 315 75H277C275.895 75 275 75.8954 275 77V115C275 116.105 275.895 117 277 117H315C316.105 117 317 116.105 317 115V77ZM291.911 108.568C291.204 109.279 290.069 109.087 289.596 108.176L287.709 104.54L285.26 106.333C284.381 106.977 283.181 106.449 282.965 105.324L281.289 96.6022L277.719 93.2264C276.784 92.3431 277.196 90.6822 278.412 90.4238L313.216 83.0332C314.689 82.7204 315.617 84.695 314.518 85.802L291.911 108.568Z" fill="white"/>
<path d="M287.709 104.54L285.091 99.5L285.26 106.333L287.709 104.54Z" fill="#FFAB5E"/>
<path d="M289.596 108.176C290.069 109.087 291.204 109.279 291.911 108.568L314.518 85.802C315.617 84.695 314.689 82.7204 313.216 83.0332L278.412 90.4238C277.196 90.6822 276.784 92.3431 277.719 93.2264L281.289 96.6022L314.5 83.5L285.091 99.5L287.709 104.54L289.596 108.176Z" fill="#FFB571"/>
<path d="M314.5 83.5L281.289 96.6022L282.965 105.324C283.181 106.449 284.381 106.977 285.26 106.333L285.091 99.5L314.5 83.5Z" fill="#FB9D47"/>
<path d="M265 33.5C265 31.0147 268.358 29 272.5 29C274.254 29 275.867 29.3611 277.144 29.9662C279.138 28.7385 281.702 28 284.5 28C287.49 28 290.214 28.8434 292.259 30.226C293.465 29.4526 294.926 29 296.5 29C300.642 29 304 32.134 304 36C304 36.2821 303.982 36.5602 303.947 36.8336C307.551 38.0155 310 40.3337 310 43C310 46.866 304.851 50 298.5 50C295.395 50 292.577 49.2508 290.507 48.0331C289.076 50.9075 284.69 53 279.5 53C274.29 53 269.89 50.8915 268.476 48C264.345 47.988 261 44.8586 261 41C261 38.2162 262.741 35.8119 265.262 34.684C265.091 34.3068 265 33.9098 265 33.5Z" fill="white"/>
<path d="M25.9592 26.14C25.9592 22.4618 30.9617 19.48 37.1327 19.48C39.7452 19.48 42.1483 20.0144 44.0511 20.9099C47.0214 19.093 50.842 18 55.0102 18C59.4647 18 63.5222 19.2483 66.5692 21.2944C68.3664 20.1498 70.5427 19.48 72.8878 19.48C79.0587 19.48 84.0612 24.1183 84.0612 29.84C84.0612 30.2575 84.0346 30.6692 83.9828 31.0737C89.3514 32.823 93 36.2539 93 40.2C93 45.9217 85.3295 50.56 75.8673 50.56C71.2409 50.56 67.0427 49.4511 63.9601 47.6489C61.8282 51.9032 55.2928 55 47.5612 55C39.8001 55 33.2442 51.8794 31.138 47.5999C24.9834 47.5822 20 42.9507 20 37.24C20 33.12 22.5938 29.5617 26.35 27.8924C26.0952 27.334 25.9592 26.7465 25.9592 26.14Z" fill="white"/>
<path d="M15 269.5C15 267.015 18.3579 265 22.5 265C24.2536 265 25.8667 265.361 27.1439 265.966C29.1377 264.738 31.7021 264 34.5 264C37.49 264 40.2135 264.843 42.2588 266.226C43.4651 265.453 44.9259 265 46.5 265C50.6421 265 54 268.134 54 272C54 272.282 53.9821 272.56 53.9474 272.834C57.5509 274.016 60 276.334 60 279C60 282.866 54.8513 286 48.5 286C45.3946 286 42.5766 285.251 40.5075 284.033C39.0764 286.908 34.6897 289 29.5 289C24.2904 289 19.89 286.891 18.4762 284C14.345 283.988 11 280.859 11 277C11 274.216 12.7411 271.812 15.2623 270.684C15.0913 270.307 15 269.91 15 269.5Z" fill="white"/>
<path d="M151.796 96.92C151.796 98.3118 149.946 99.44 147.663 99.44C146.697 99.44 145.808 99.2378 145.104 98.899C144.006 99.5864 142.593 100 141.051 100C139.403 100 137.903 99.5277 136.776 98.7535C136.111 99.1865 135.306 99.44 134.439 99.44C132.156 99.44 130.306 97.685 130.306 95.52C130.306 95.362 130.316 95.2063 130.335 95.0532C128.349 94.3913 127 93.0931 127 91.6C127 89.435 129.837 87.68 133.337 87.68C135.048 87.68 136.601 88.0996 137.741 88.7815C138.529 87.1718 140.947 86 143.806 86C146.677 86 149.101 87.1808 149.88 88.8C152.157 88.8067 154 90.5592 154 92.72C154 94.2789 153.041 95.6253 151.651 96.2569C151.746 96.4682 151.796 96.6905 151.796 96.92Z" fill="white"/>
<path d="M333.796 222.92C333.796 224.312 331.946 225.44 329.663 225.44C328.697 225.44 327.808 225.238 327.104 224.899C326.006 225.586 324.593 226 323.051 226C321.403 226 319.903 225.528 318.776 224.753C318.111 225.187 317.306 225.44 316.439 225.44C314.156 225.44 312.306 223.685 312.306 221.52C312.306 221.362 312.316 221.206 312.335 221.053C310.349 220.391 309 219.093 309 217.6C309 215.435 311.837 213.68 315.337 213.68C317.048 213.68 318.601 214.1 319.741 214.781C320.529 213.172 322.947 212 325.806 212C328.677 212 331.101 213.181 331.88 214.8C334.157 214.807 336 216.559 336 218.72C336 220.279 335.041 221.625 333.651 222.257C333.746 222.468 333.796 222.691 333.796 222.92Z" fill="white"/>
</svg>
