<svg width="350" height="300" viewBox="0 0 350 300" fill="none" xmlns="http://www.w3.org/2000/svg">
<rect width="350" height="300" fill="#A35EC4"/>
<path d="M259.5 161C274 161 282 146 302 141.5V124C296.451 124 290.696 119.962 283.444 114.874C271.095 106.21 254.406 94.5 227 94.5C211.8 94.5 185.208 114.167 173.811 124C177.339 125.993 180.907 128.04 184.499 130.1C199.407 138.652 214.7 147.425 229 153.428C230.174 153.92 231.341 154.394 232.5 154.848C242.166 158.63 251.313 161 259.5 161Z" fill="#A35EC3"/>
<path d="M294 182H56C50.4772 182 46 177.523 46 172V145C23.9355 164.443 14.5893 165.899 0 162V300H350V112.5C337.5 132.5 327.5 136.5 304 141V172C304 177.523 299.523 182 294 182Z" fill="#D091EE"/>
<path d="M57.845 54C51.5 54 48 57.5 48 63.6923V88.6729C52.5581 92.6152 58.5006 95 65 95C79.3594 95 91 83.3594 91 69C91 63.4133 89.238 58.2382 86.2394 54H57.845Z" fill="white"/>
<path d="M46 62C46 56.4771 50.4772 52 56 52H84.6729C79.9053 46.4877 72.86 43 65 43C50.6406 43 39 54.6406 39 69C39 75.8613 41.6578 82.1019 46 86.7484V62Z" fill="#FFC998"/>
<path d="M56 52C50.4772 52 46 56.4771 46 62V86.7484C46.632 87.4246 47.2997 88.0671 48 88.6729V63.6923C48 57.5 51.5 54 57.845 54H86.2394C85.7495 53.3076 85.2265 52.6401 84.6729 52H56Z" fill="#62237E"/>
<path d="M92.5 267.5L67 300H104H148.5H166H177L170.578 292.096C170.526 292.032 170.483 291.976 170.435 291.908C169.571 290.68 160.288 277.294 156 263C151.5 248 157 213.5 148.5 204.5C139.917 195.412 162 184.5 170.5 182H129.5C120 187.5 113.985 196.956 117.5 207.5C125.5 231.5 98.5 259.5 92.5 267.5Z" fill="#A35EC3"/>
<path fill-rule="evenodd" clip-rule="evenodd" d="M133 180H57.845C52.4077 180 48 175.661 48 170.308V143C61 129.667 93.8 103 121 103C134.837 103 153.643 112.606 173.811 124C177.339 125.993 180.907 128.04 184.499 130.1C199.407 138.652 214.7 147.425 229 153.428C219 150.855 193.5 157.5 187.5 163.5C182.7 168.3 149.167 176.5 133 180ZM174.5 180H292.155C297.592 180 302 175.661 302 170.308V141.5C282 146 274 161 259.5 161C251.313 161 242.166 158.63 232.5 154.848C218.5 154.196 205.5 163.5 200.5 168C196.5 171.6 181.73 177.5 174.5 180Z" fill="#D091EE"/>
<path d="M187.5 163.5C182.7 168.3 149.167 176.5 133 180H174.5C181.73 177.5 196.5 171.6 200.5 168C205.5 163.5 218.5 154.196 232.5 154.848C231.341 154.394 230.174 153.92 229 153.428C219 150.855 193.5 157.5 187.5 163.5Z" fill="#A35EC3"/>
<path d="M129.022 52C128.346 52.571 127.759 53.2459 127.288 54H175.332C174.616 53.2684 173.774 52.5971 172.825 52H129.022Z" fill="#62237E"/>
<path d="M210.69 52C211.09 52.7255 211.582 53.3982 212.154 54H268.518C269.03 53.3821 269.441 52.7138 269.735 52H210.69Z" fill="#62237E"/>
<path d="M238.899 65.5644C249.098 67.5007 258.08 65.312 258.96 60.6759C259.089 59.9953 259.037 59.2997 258.821 58.6022C263.054 58.0096 266.544 56.3792 268.518 54H212.154C212.545 54.4111 212.972 54.7892 213.433 55.1283C214.359 58.6176 217.207 61.4464 220.991 62.1647C223.206 62.5853 225.389 62.2149 227.247 61.2517C230.24 63.1292 234.301 64.6915 238.899 65.5644Z" fill="white"/>
<path d="M270.145 50.6236C271.5 42 262.699 36.4363 252.5 34.5C247.027 33.4609 243.056 35.3053 239.317 37.0417L238.945 37.2143C236.968 35.7107 234.426 34.5657 231.552 34.0201C225.841 32.9358 220.482 34.5348 217.864 37.7261C213.85 38.2716 210.453 41.3188 209.656 45.5179C209.218 47.8239 209.637 50.0941 210.69 52H269.735C269.917 51.5582 270.055 51.099 270.145 50.6236Z" fill="#E2A3FF"/>
<path d="M161.5 49C160.433 49 159.389 49.0675 158.378 49.1966C156.179 47.2481 152.795 46 149 46C144.227 46 140.105 47.9738 138.172 50.8318C137.06 50.2986 135.815 50 134.5 50C132.413 50 130.502 50.7521 129.022 52H172.825C169.87 50.1402 165.885 49 161.5 49Z" fill="#E2A3FF"/>
<path d="M126 58.5C126 63.1944 129.806 67 134.5 67C135.706 67 136.853 66.7488 137.893 66.2959C139.287 69.0849 142.17 71 145.5 71C147.764 71 149.822 70.1145 151.346 68.6708C154.146 70.1302 157.67 71 161.5 71C170.613 71 178 66.0751 178 60C178 57.7864 177.019 55.7256 175.332 54H127.288C126.472 55.305 126 56.8474 126 58.5Z" fill="white"/>
<path fill-rule="evenodd" clip-rule="evenodd" d="M268.518 54C269.03 53.3821 269.441 52.7138 269.735 52H294C299.523 52 304 56.4771 304 62V124V141V172C304 177.523 299.523 182 294 182H56C50.4772 182 46 177.523 46 172V145V86.7484C46.632 87.4246 47.2997 88.0671 48 88.6729V143V170.308C48 175.661 52.4077 180 57.845 180H133H174.5H292.155C297.592 180 302 175.661 302 170.308V141.5V124V63.6923C302 58.3394 297.592 54 292.155 54H268.518ZM212.154 54C211.582 53.3982 211.09 52.7255 210.69 52H172.825C173.774 52.5971 174.616 53.2684 175.332 54H212.154ZM127.288 54C127.759 53.2459 128.346 52.571 129.022 52H84.6729C85.2265 52.6401 85.7495 53.3076 86.2394 54H127.288Z" fill="#62237E"/>
<path d="M302 63.6923C302 58.3394 297.592 54 292.155 54H268.518C266.544 56.3792 263.054 58.0096 258.821 58.6022C259.037 59.2997 259.089 59.9953 258.96 60.6759C258.08 65.312 249.098 67.5007 238.899 65.5644C234.301 64.6915 230.24 63.1292 227.247 61.2517C225.389 62.2149 223.206 62.5853 220.991 62.1647C217.207 61.4464 214.359 58.6176 213.433 55.1283C212.972 54.7892 212.545 54.4111 212.154 54H175.332C177.019 55.7256 178 57.7864 178 60C178 66.0751 170.613 71 161.5 71C157.67 71 154.146 70.1302 151.346 68.6708C149.822 70.1145 147.764 71 145.5 71C142.17 71 139.287 69.0849 137.893 66.2959C136.853 66.7488 135.706 67 134.5 67C129.806 67 126 63.1944 126 58.5C126 56.8474 126.472 55.305 127.288 54H86.2394C89.238 58.2382 91 63.4133 91 69C91 83.3594 79.3594 95 65 95C58.5006 95 52.5581 92.6152 48 88.6729V143C61 129.667 93.8 103 121 103C134.837 103 153.643 112.606 173.811 124C185.208 114.167 211.8 94.5 227 94.5C254.406 94.5 271.095 106.21 283.444 114.874C290.696 119.962 296.451 124 302 124V63.6923Z" fill="#F1D3FF"/>
<path d="M229 134C229 131.239 231.239 129 234 129H290C292.761 129 295 131.239 295 134V220C295 222.761 292.761 225 290 225H234C231.239 225 229 222.761 229 220V134Z" fill="white"/>
<path d="M295 134V220C295 222.761 292.761 225 290 225H234C234 227.761 236.239 230 239 230H295C297.761 230 300 227.761 300 225V139C300 136.239 297.761 134 295 134Z" fill="white" fill-opacity="0.5"/>
<path fill-rule="evenodd" clip-rule="evenodd" d="M290 131H234C232.343 131 231 132.343 231 134V220C231 221.657 232.343 223 234 223H290C291.657 223 293 221.657 293 220V134C293 132.343 291.657 131 290 131ZM234 129C231.239 129 229 131.239 229 134V220C229 222.761 231.239 225 234 225H290C292.761 225 295 222.761 295 220V134C295 131.239 292.761 129 290 129H234Z" fill="#62237E"/>
<path d="M237 141C237 138.791 238.791 137 241 137H247C249.209 137 251 138.791 251 141V147C251 149.209 249.209 151 247 151H241C238.791 151 237 149.209 237 147V141Z" fill="#6D85DA"/>
<path d="M255 141C255 138.791 256.791 137 259 137H265C267.209 137 269 138.791 269 141V147C269 149.209 267.209 151 265 151H259C256.791 151 255 149.209 255 147V141Z" fill="#639B69"/>
<path d="M273 141C273 138.791 274.791 137 277 137H283C285.209 137 287 138.791 287 141V147C287 149.209 285.209 151 283 151H277C274.791 151 273 149.209 273 147V141Z" fill="#FFC998"/>
<path d="M237 159C237 156.791 238.791 155 241 155H247C249.209 155 251 156.791 251 159V165C251 167.209 249.209 169 247 169H241C238.791 169 237 167.209 237 165V159Z" fill="#A35EC3"/>
<path d="M255 159C255 156.791 256.791 155 259 155H265C267.209 155 269 156.791 269 159V165C269 167.209 267.209 169 265 169H259C256.791 169 255 167.209 255 165V159Z" fill="#D9D9D9"/>
<path d="M273 159C273 156.791 274.791 155 277 155H283C285.209 155 287 156.791 287 159V165C287 167.209 285.209 169 283 169H277C274.791 169 273 167.209 273 165V159Z" fill="#D9D9D9"/>
<path d="M119.5 103.5C119.776 103.5 120 103.276 120 103C120 102.724 119.776 102.5 119.5 102.5C119.224 102.5 119 102.724 119 103C119 103.276 119.224 103.5 119.5 103.5Z" fill="#D9D9D9"/>
<path d="M91.5 103C91.5 103.276 91.2761 103.5 91 103.5C90.7239 103.5 90.5 103.276 90.5 103C90.5 102.724 90.7239 102.5 91 102.5C91.2761 102.5 91.5 102.724 91.5 103ZM91.5 103H119M151 103C151 103.276 151.224 103.5 151.5 103.5C151.776 103.5 152 103.276 152 103C152 102.724 151.776 102.5 151.5 102.5C151.224 102.5 151 102.724 151 103ZM151 103H120M119 103C119 103.276 119.224 103.5 119.5 103.5C119.776 103.5 120 103.276 120 103M119 103C119 102.724 119.224 102.5 119.5 102.5C119.776 102.5 120 102.724 120 103" stroke="white" stroke-width="0.5"/>
<path d="M153.973 107.992L153.345 106.735L154.695 106.195L151.5 103V104.204V107.473L152.879 106.921L153.109 107.381L153.526 108.215L153.973 107.992Z" fill="#333333"/>
<path d="M152.879 106.921L151.5 107.473V104.204L151.034 103.738V108.211L152.413 107.659L153.061 108.953L153.508 108.73L152.879 107.473L153.109 107.381L152.879 106.921Z" fill="#333333" fill-opacity="0.3"/>
<rect x="237" y="177" width="50" height="39" rx="2" fill="url(#paint0_linear_160_131)"/>
<path d="M237.49 179C237.49 177.895 238.368 177 239.451 177H284.549C285.632 177 286.51 177.895 286.51 179V214C286.51 215.105 285.632 216 284.549 216H239.451C238.368 216 237.49 215.105 237.49 214V179Z" fill="url(#paint1_radial_160_131)"/>
<path fill-rule="evenodd" clip-rule="evenodd" d="M239.451 176.5H284.549C285.903 176.5 287 177.619 287 179V214C287 215.381 285.903 216.5 284.549 216.5H239.451C238.097 216.5 237 215.381 237 214V179C237 177.619 238.097 176.5 239.451 176.5ZM239.451 177C238.368 177 237.49 177.895 237.49 179V214C237.49 215.105 238.368 216 239.451 216H284.549C285.632 216 286.51 215.105 286.51 214V179C286.51 177.895 285.632 177 284.549 177H239.451Z" fill="#62237E"/>
<path fill-rule="evenodd" clip-rule="evenodd" d="M274.059 186.294L269.059 194.954C268.689 195.596 268.714 196.356 269.059 196.955L269.108 197.298C269.201 197.938 269.868 198.323 270.468 198.083L270.791 197.955C271.481 197.954 272.153 197.596 272.523 196.954L277.523 188.294L277.956 188.544C278.195 188.682 278.501 188.6 278.639 188.361C278.777 188.122 278.695 187.816 278.456 187.678L278.023 187.428L281.023 182.232C281.575 181.275 281.247 180.052 280.291 179.5C279.334 178.948 278.111 179.275 277.559 180.232L274.559 185.428L274.126 185.178C273.887 185.04 273.581 185.122 273.443 185.361C273.305 185.6 273.387 185.906 273.626 186.044L274.059 186.294ZM274.925 186.794L269.925 195.454C269.649 195.933 269.813 196.544 270.291 196.821C270.769 197.097 271.381 196.933 271.657 196.454L276.657 187.794L274.925 186.794Z" fill="white"/>
<path d="M206.533 110.353L214.061 107.645L215.209 109.358L206.74 112.404L206.533 110.353Z" fill="#EEEEEE"/>
<path d="M214.061 107.645L206.533 110.353L183.197 39.5741L186.961 38.2201L214.061 107.645Z" fill="#62237E"/>
<path fill-rule="evenodd" clip-rule="evenodd" d="M206.74 112.404L215.209 109.358C216.034 110.007 217.306 111.46 217.782 113.34C217.607 114.413 217.188 115.227 217 115.5C216.281 115.322 215.367 114.426 215 114L215.611 116.353C215.617 116.373 215.622 116.394 215.627 116.415L215.611 116.353C215.259 115.115 213.178 114.16 212.165 113.834C212.696 114.901 212.61 117.056 212.5 118C212.1 118 211.333 117.333 211 117C211.8 118.2 211.882 120.329 211.823 121.244C208.677 119.429 206.241 116.601 206.74 112.404Z" fill="white"/>
<path d="M220.456 123.943C218.867 123.778 216.796 123.356 214.743 122.597C213.746 122.229 212.753 121.781 211.823 121.244C211.882 120.329 211.8 118.2 211 117C211.333 117.333 212.1 118 212.5 118C212.61 117.056 212.696 114.901 212.165 113.834C213.178 114.16 215.259 115.115 215.611 116.353L215.627 116.415C215.622 116.394 215.617 116.373 215.611 116.353L215 114C215.367 114.426 216.281 115.322 217 115.5C217.188 115.227 217.607 114.413 217.782 113.34C218.018 114.275 218.058 115.315 217.747 116.415C217.485 117.344 217.482 118.255 217.641 119.11C218.049 121.304 219.526 123.13 220.456 123.943Z" fill="#994FBB"/>
<path fill-rule="evenodd" clip-rule="evenodd" d="M72 168L86 176.106L79.8719 177.752L76.2751 184L72 168Z" fill="white"/>
<path fill-rule="evenodd" clip-rule="evenodd" d="M55.8719 177.752L62 176.106L48 168L52.2751 184L55.8719 177.752ZM52.6163 181.403L55.2121 176.894L59.4153 175.765L49.5898 170.076L52.6163 181.403Z" fill="white"/>
<path fill-rule="evenodd" clip-rule="evenodd" d="M47 224C47 227.866 50.134 231 54 231C57.866 231 61 227.866 61 224C61 220.134 57.866 217 54 217C50.134 217 47 220.134 47 224ZM54 216C49.5817 216 46 219.582 46 224C46 228.418 49.5817 232 54 232C58.4183 232 62 228.418 62 224C62 219.582 58.4183 216 54 216Z" fill="white"/>
<path fill-rule="evenodd" clip-rule="evenodd" d="M87 217H73V231H87V217ZM72 216V232H88V216H72Z" fill="white"/>
<path fill-rule="evenodd" clip-rule="evenodd" d="M48.7158 193H59.2842L60 196.398L58.8323 196.745L58.3445 194.429H54.6018V206.571H56.4072V208H51.5928V206.571H53.3982V194.429H49.6555L49.1677 196.745L48 196.398L48.7158 193Z" fill="white"/>
<path fill-rule="evenodd" clip-rule="evenodd" d="M87.3536 192.646C87.5488 192.842 87.5488 193.158 87.3536 193.354L73.3536 207.354C73.1583 207.549 72.8417 207.549 72.6464 207.354C72.4512 207.158 72.4512 206.842 72.6464 206.646L86.6464 192.646C86.8417 192.451 87.1583 192.451 87.3536 192.646Z" fill="white"/>
<path fill-rule="evenodd" clip-rule="evenodd" d="M72 168L86 176.106L79.8719 177.752L76.2751 184L72 168ZM55.8719 177.752L62 176.106L48 168L52.2751 184L55.8719 177.752ZM54 216C49.5817 216 46 219.582 46 224C46 228.418 49.5817 232 54 232C58.4183 232 62 228.418 62 224C62 219.582 58.4183 216 54 216ZM88 216H72V232H88V216ZM60 196.398L58.8323 196.745L58.3445 194.429H54.6018V206.571H56.4072V208H51.5928V206.571H53.3982V194.429H49.6555L49.1677 196.745L48 196.398L48.7158 193H59.2842L60 196.398ZM87.3536 192.646C87.5488 192.842 87.5488 193.158 87.3536 193.354L73.3536 207.354C73.1583 207.549 72.8417 207.549 72.6464 207.354C72.4512 207.158 72.4512 206.842 72.6464 206.646L86.6464 192.646C86.8417 192.451 87.1583 192.451 87.3536 192.646ZM59.4153 175.765L49.5898 170.076L52.6163 181.403L55.2121 176.894L59.4153 175.765ZM54 231C50.134 231 47 227.866 47 224C47 220.134 50.134 217 54 217C57.866 217 61 220.134 61 224C61 227.866 57.866 231 54 231ZM87 217H73V231H87V217Z" fill="#333333"/>
<path d="M49.5898 170.076L59.4153 175.765L55.2121 176.894L52.6163 181.403L49.5898 170.076Z" fill="white"/>
<path d="M54 231C50.134 231 47 227.866 47 224C47 220.134 50.134 217 54 217C57.866 217 61 220.134 61 224C61 227.866 57.866 231 54 231Z" fill="white"/>
<path d="M73 217H87V231H73V217Z" fill="white"/>
<path fill-rule="evenodd" clip-rule="evenodd" d="M86 176.106L72 168L76.2751 184L79.8719 177.752L86 176.106ZM62 176.106L55.8719 177.752L52.2751 184L48 168L62 176.106ZM46 224C46 219.582 49.5817 216 54 216C58.4183 216 62 219.582 62 224C62 228.418 58.4183 232 54 232C49.5817 232 46 228.418 46 224ZM72 216H88V232H72V216ZM58.8323 196.745L60 196.398L59.2842 193H48.7158L48 196.398L49.1677 196.745L49.6555 194.429H53.3982V206.571H51.5928V208H56.4072V206.571H54.6018V194.429H58.3445L58.8323 196.745ZM87.3536 193.354C87.5488 193.158 87.5488 192.842 87.3536 192.646C87.1583 192.451 86.8417 192.451 86.6464 192.646L72.6464 206.646C72.4512 206.842 72.4512 207.158 72.6464 207.354C72.8417 207.549 73.1583 207.549 73.3536 207.354L87.3536 193.354ZM42 162H90C91.1046 162 92 162.895 92 164V236C92 237.105 91.1046 238 90 238H42C40.8954 238 40 237.105 40 236V164C40 162.895 40.8954 162 42 162Z" fill="white"/>
<path fill-rule="evenodd" clip-rule="evenodd" d="M90 160H42C39.7909 160 38 161.791 38 164V236C38 238.209 39.7909 240 42 240H90C92.2091 240 94 238.209 94 236V164C94 161.791 92.2091 160 90 160ZM90 162H42C40.8954 162 40 162.895 40 164V236C40 237.105 40.8954 238 42 238H90C91.1046 238 92 237.105 92 236V164C92 162.895 91.1046 162 90 162Z" fill="#62237E"/>
<path d="M42 160H90C92.2091 160 94 161.791 94 164V236C96.2091 236 98 234.209 98 232V160C98 157.791 96.2091 156 94 156H46C43.7909 156 42 157.791 42 160Z" fill="white" fill-opacity="0.5"/>
<path d="M92 20.5C92 18.0147 95.3579 16 99.5 16C101.254 16 102.867 16.3611 104.144 16.9662C106.138 15.7385 108.702 15 111.5 15C114.49 15 117.214 15.8434 119.259 17.226C120.465 16.4526 121.926 16 123.5 16C127.642 16 131 19.134 131 23C131 23.2821 130.982 23.5602 130.947 23.8336C134.551 25.0155 137 27.3337 137 30C137 33.866 131.851 37 125.5 37C122.395 37 119.577 36.2508 117.507 35.0331C116.076 37.9075 111.69 40 106.5 40C101.29 40 96.89 37.8915 95.4762 35C91.345 34.988 88 31.8586 88 28C88 25.2162 89.7411 22.8119 92.2623 21.684C92.0913 21.3068 92 20.9098 92 20.5Z" fill="#E2A3FF"/>
<path d="M177.796 31.92C177.796 33.3118 175.946 34.44 173.663 34.44C172.697 34.44 171.808 34.2378 171.104 33.899C170.006 34.5864 168.593 35 167.051 35C165.403 35 163.903 34.5277 162.776 33.7535C162.111 34.1865 161.306 34.44 160.439 34.44C158.156 34.44 156.306 32.685 156.306 30.52C156.306 30.362 156.316 30.2063 156.335 30.0532C154.349 29.3913 153 28.0931 153 26.6C153 24.435 155.837 22.68 159.337 22.68C161.048 22.68 162.601 23.0996 163.741 23.7815C164.529 22.1718 166.947 21 169.806 21C172.677 21 175.101 22.1808 175.88 23.8C178.157 23.8067 180 25.5592 180 27.72C180 29.2789 179.041 30.6253 177.651 31.2569C177.746 31.4682 177.796 31.6905 177.796 31.92Z" fill="#E2A3FF"/>
<path d="M184 262.5C184 259.3 182.667 256.5 182 255.5C184 255.5 184.833 256.833 185 257.5C185.4 257.1 185.5 256 185.5 255.5C186 256 186.333 256.833 186.5 257.5C187.3 257.1 187.5 254.667 187.5 253.5C189.1 254.3 189.5 256.833 189.5 258C189.9 256.4 191.333 255.333 192 255C190.5 256 190.5 258.667 190.5 260C190.5 258.8 192.5 257.833 193.5 257.5C192.3 258.3 192 261.167 192 262.5H184Z" fill="#E2A3FF"/>
<path d="M70.4348 255C70.4348 251.089 68.8116 247.667 68 246.444C70.4348 246.444 71.4493 248.074 71.6522 248.889C72.1391 248.4 72.2609 247.056 72.2609 246.444C72.8696 247.056 73.2754 248.074 73.4783 248.889C74.4522 248.4 74.6957 245.426 74.6957 244C76.6435 244.978 77.1304 248.074 77.1304 249.5C77.6174 247.544 79.3623 246.241 80.1739 245.833C78.3478 247.056 78.3478 250.315 78.3478 251.944C78.3478 250.478 80.7826 249.296 82 248.889C80.5391 249.867 80.1739 253.37 80.1739 255H70.4348Z" fill="#E2A3FF"/>
<path d="M103.391 214C103.391 211.867 102.464 210 102 209.333C103.391 209.333 103.971 210.222 104.087 210.667C104.365 210.4 104.435 209.667 104.435 209.333C104.783 209.667 105.014 210.222 105.13 210.667C105.687 210.4 105.826 208.778 105.826 208C106.939 208.533 107.217 210.222 107.217 211C107.496 209.933 108.493 209.222 108.957 209C107.913 209.667 107.913 211.444 107.913 212.333C107.913 211.533 109.304 210.889 110 210.667C109.165 211.2 108.957 213.111 108.957 214H103.391Z" fill="#E2A3FF"/>
<path d="M172.5 205C172.5 201.8 173.833 199 174.5 198C172.5 198 171.667 199.333 171.5 200C171.1 199.6 171 198.5 171 198C170.5 198.5 170.167 199.333 170 200C169.2 199.6 169 197.167 169 196C167.4 196.8 167 199.333 167 200.5C166.6 198.9 165.167 197.833 164.5 197.5C166 198.5 166 201.167 166 202.5C166 201.3 164 200.333 163 200C164.2 200.8 164.5 203.667 164.5 205H172.5Z" fill="#E2A3FF"/>
<path d="M227.913 266C227.913 263.156 226.638 260.667 226 259.778C227.913 259.778 228.71 260.963 228.87 261.556C229.252 261.2 229.348 260.222 229.348 259.778C229.826 260.222 230.145 260.963 230.304 261.556C231.07 261.2 231.261 259.037 231.261 258C232.791 258.711 233.174 260.963 233.174 262C233.557 260.578 234.928 259.63 235.565 259.333C234.13 260.222 234.13 262.593 234.13 263.778C234.13 262.711 236.043 261.852 237 261.556C235.852 262.267 235.565 264.815 235.565 266H227.913Z" fill="#E2A3FF"/>
<path d="M273.609 285C273.609 281.444 271.87 278.333 271 277.222C273.609 277.222 274.696 278.704 274.913 279.444C275.435 279 275.565 277.778 275.565 277.222C276.217 277.778 276.652 278.704 276.87 279.444C277.913 279 278.174 276.296 278.174 275C280.261 275.889 280.783 278.704 280.783 280C281.304 278.222 283.174 277.037 284.043 276.667C282.087 277.778 282.087 280.741 282.087 282.222C282.087 280.889 284.696 279.815 286 279.444C284.435 280.333 284.043 283.519 284.043 285H273.609Z" fill="#E2A3FF"/>
<path d="M206.391 281C206.391 278.867 205.464 277 205 276.333C206.391 276.333 206.971 277.222 207.087 277.667C207.365 277.4 207.435 276.667 207.435 276.333C207.783 276.667 208.014 277.222 208.13 277.667C208.687 277.4 208.826 275.778 208.826 275C209.939 275.533 210.217 277.222 210.217 278C210.496 276.933 211.493 276.222 211.957 276C210.913 276.667 210.913 278.444 210.913 279.333C210.913 278.533 212.304 277.889 213 277.667C212.165 278.2 211.957 280.111 211.957 281H206.391Z" fill="#E2A3FF"/>
<defs>
<linearGradient id="paint0_linear_160_131" x1="262" y1="177" x2="262" y2="216" gradientUnits="userSpaceOnUse">
<stop stop-color="white"/>
<stop offset="1"/>
</linearGradient>
<radialGradient id="paint1_radial_160_131" cx="0" cy="0" r="1" gradientUnits="userSpaceOnUse" gradientTransform="translate(285.5 177.5) rotate(179.39) scale(47.0027 37.3307)">
<stop stop-color="#AE00FF"/>
<stop offset="0.979167" stop-color="#AE00FF" stop-opacity="0"/>
<stop offset="1" stop-color="white" stop-opacity="0"/>
</radialGradient>
</defs>
</svg>
