<svg width="450" height="300" viewBox="0 0 450 300" fill="none" xmlns="http://www.w3.org/2000/svg">
<rect width="450" height="300" fill="#639B68"/>
<path d="M313.295 198.649L312.763 214.086C312.693 216.099 312.498 218.073 312.187 220H321C324.866 220 328 223.134 328 227C328 230.866 324.866 234 321 234H307.529C297.688 252.77 275.486 263.497 253.327 257.184L237.819 252.766C229.441 250.379 220.559 250.379 212.181 252.766L196.673 257.184C179.327 262.126 161.954 256.626 150.506 245H95C91.134 245 88 241.866 88 238C88 234.134 91.134 231 95 231H141.035C138.788 225.834 137.446 220.141 137.237 214.086L136.89 204H127C123.134 204 120 200.866 120 197C120 193.134 123.134 190 127 190H135.585C134.964 187.261 134.095 184.583 132.989 182H116C112.134 182 109 178.866 109 175C109 171.134 112.134 168 116 168H124.495L120.086 161.534C116.534 156.326 114.202 150.714 112.993 145H73C69.134 145 66 141.866 66 138C66 134.134 69.134 131 73 131H112.219C112.35 129.658 112.538 128.323 112.784 127H95C91.134 127 88 123.866 88 120C88 116.134 91.134 113 95 113H117.785C122.996 103.518 131.564 95.7329 142.826 91.6811L157.552 86.3833C162.865 84.472 167.76 81.6242 172.016 78H159C155.134 78 152 74.866 152 71C152 67.134 155.134 64 159 64H184.202L188.306 58.7879C206.981 35.0707 243.019 35.0707 261.694 58.7879L267.373 66H321C324.866 66 328 69.134 328 73C328 76.866 324.866 80 321 80H280.504C282.539 81.5039 284.696 82.8422 286.956 84H305C308.866 84 312 87.134 312 91C312 91.8806 311.837 92.7233 311.541 93.4995C319.915 97.4856 326.529 103.66 331.05 111H375C378.866 111 382 114.134 382 118C382 121.866 378.866 125 375 125H336.798C337.104 126.321 337.353 127.655 337.543 129H395C398.866 129 402 132.134 402 136C402 139.866 398.866 143 395 143H337.384C336.324 149.402 333.88 155.719 329.914 161.534L325.505 168H351C354.866 168 358 171.134 358 175C358 178.866 354.866 182 351 182H317.011C314.763 187.25 313.494 192.893 313.295 198.649Z" fill="#78AB7D"/>
<path fill-rule="evenodd" clip-rule="evenodd" d="M366.78 157.966L358.793 157.525C358.93 155.035 359 152.526 359 150C359 147.474 358.93 144.965 358.793 142.475L366.78 142.034C366.926 144.671 367 147.327 367 150C367 152.673 366.926 155.329 366.78 157.966ZM365.015 126.202L357.126 127.533C356.285 122.551 355.17 117.663 353.796 112.885L361.484 110.673C362.941 115.739 364.124 120.921 365.015 126.202ZM356.225 95.6441L348.835 98.7086C346.908 94.0607 344.726 89.5442 342.307 85.1765L349.305 81.3005C351.869 85.9295 354.182 90.7168 356.225 95.6441ZM340.82 67.8231L334.299 72.458C331.391 68.3665 328.258 64.4449 324.919 60.7112L330.883 55.3784C334.42 59.3336 337.738 63.4881 340.82 67.8231ZM319.622 44.1173L314.289 50.0806C310.555 46.7417 306.633 43.6092 302.542 40.701L307.177 34.1804C311.512 37.2617 315.666 40.5803 319.622 44.1173ZM293.7 25.6948L289.823 32.6931C285.456 30.2741 280.939 28.0922 276.291 26.1648L279.356 18.775C284.283 20.8183 289.071 23.131 293.7 25.6948ZM264.327 13.5161L262.115 21.2045C257.337 19.8302 252.449 18.7146 247.467 17.8739L248.798 9.98537C254.079 10.8765 259.261 12.0591 264.327 13.5161ZM232.966 8.2197L232.525 16.2075C230.035 16.0698 227.526 16 225 16C222.474 16 219.965 16.0698 217.475 16.2075L217.034 8.2197C219.671 8.07388 222.327 8 225 8C227.673 8 230.329 8.07388 232.966 8.2197ZM201.202 9.98538L202.533 17.8739C197.551 18.7146 192.663 19.8302 187.885 21.2045L185.673 13.5161C190.739 12.0591 195.921 10.8765 201.202 9.98538ZM170.644 18.775L173.709 26.1648C169.061 28.0922 164.544 30.2741 160.177 32.6931L156.3 25.6948C160.929 23.131 165.717 20.8183 170.644 18.775ZM142.823 34.1804L147.458 40.701C143.366 43.6092 139.445 46.7417 135.711 50.0806L130.378 44.1173C134.334 40.5803 138.488 37.2617 142.823 34.1804ZM119.117 55.3784L125.081 60.7112C121.742 64.4449 118.609 68.3665 115.701 72.458L109.18 67.8231C112.262 63.4881 115.58 59.3336 119.117 55.3784ZM100.695 81.3005L107.693 85.1765C105.274 89.5442 103.092 94.0607 101.165 98.7086L93.775 95.6441C95.8183 90.7168 98.131 85.9295 100.695 81.3005ZM88.5161 110.673L96.2045 112.885C94.8302 117.663 93.7146 122.551 92.8739 127.533L84.9854 126.202C85.8765 120.921 87.0591 115.739 88.5161 110.673ZM83.2197 142.034C83.0739 144.671 83 147.327 83 150C83 152.673 83.0739 155.329 83.2197 157.966L91.2075 157.525C91.0698 155.035 91 152.526 91 150C91 147.474 91.0698 144.965 91.2075 142.475L83.2197 142.034ZM84.9854 173.798L92.8739 172.467C93.7146 177.449 94.8302 182.337 96.2045 187.115L88.5161 189.327C87.0591 184.261 85.8765 179.079 84.9854 173.798ZM93.775 204.356L101.165 201.291C103.092 205.939 105.274 210.456 107.693 214.823L100.695 218.7C98.131 214.071 95.8183 209.283 93.775 204.356ZM109.18 232.177L115.701 227.542C118.609 231.633 121.742 235.555 125.081 239.289L119.117 244.622C115.58 240.666 112.262 236.512 109.18 232.177ZM130.378 255.883L135.711 249.919C139.445 253.258 143.367 256.391 147.458 259.299L142.823 265.82C138.488 262.738 134.334 259.42 130.378 255.883ZM156.3 274.305L160.177 267.307C164.544 269.726 169.061 271.908 173.709 273.835L170.644 281.225C165.717 279.182 160.929 276.869 156.3 274.305ZM185.673 286.484L187.885 278.796C192.663 280.17 197.551 281.285 202.533 282.126L201.202 290.015C195.921 289.124 190.739 287.941 185.673 286.484ZM217.034 291.78L217.475 283.793C219.965 283.93 222.474 284 225 284C227.526 284 230.035 283.93 232.525 283.793L232.966 291.78C230.329 291.926 227.673 292 225 292C222.327 292 219.671 291.926 217.034 291.78ZM248.798 290.015L247.467 282.126C252.449 281.285 257.337 280.17 262.115 278.796L264.327 286.484C259.261 287.941 254.079 289.124 248.798 290.015ZM279.356 281.225L276.291 273.835C280.939 271.908 285.456 269.726 289.823 267.307L293.7 274.305C289.071 276.869 284.283 279.182 279.356 281.225ZM307.177 265.82L302.542 259.299C306.633 256.391 310.555 253.258 314.289 249.919L319.622 255.883C315.666 259.42 311.512 262.738 307.177 265.82ZM330.883 244.622L324.919 239.289C328.258 235.555 331.391 231.633 334.299 227.542L340.82 232.177C337.738 236.512 334.42 240.666 330.883 244.622ZM349.305 218.7L342.307 214.823C344.726 210.456 346.908 205.939 348.835 201.291L356.225 204.356C354.182 209.283 351.869 214.071 349.305 218.7ZM361.484 189.327L353.796 187.115C355.17 182.337 356.285 177.449 357.126 172.467L365.015 173.798C364.124 179.079 362.941 184.261 361.484 189.327Z" fill="#A7CCAA"/>
<path d="M173.466 149.877C178.101 152.922 178.841 159.984 175.118 165.649C171.396 171.314 164.621 173.437 159.986 170.391C155.351 167.346 154.611 160.284 158.334 154.619C162.056 148.954 168.831 146.831 173.466 149.877Z" fill="#6D85DA"/>
<path d="M200.48 116.893C205.115 119.939 205.855 127 202.132 132.665C198.41 138.33 191.635 140.453 187 137.408C182.365 134.362 181.625 127.301 185.347 121.636C189.07 115.971 195.845 113.847 200.48 116.893Z" fill="#639B69"/>
<path d="M239.323 94.3526C243.958 97.3982 244.698 104.46 240.976 110.125C237.253 115.79 230.478 117.913 225.843 114.867C221.208 111.822 220.468 104.76 224.191 99.0953C227.913 93.4303 234.688 91.3069 239.323 94.3526Z" fill="#FFC998"/>
<path fill-rule="evenodd" clip-rule="evenodd" d="M163.652 213.894C149.929 206.822 137.988 185.722 143.819 160.343C148.523 139.865 164.799 116.602 201.047 95.674C273.608 53.7807 322.83 135.532 302.002 175.526C299.531 180.271 296.074 184.428 291.554 187.721C263.309 208.296 253.322 202.949 245.201 198.6C241.065 196.386 237.413 194.431 232.081 196.289C225.161 198.701 219.151 202.898 213.188 207.063C199.738 216.454 186.525 225.681 163.652 213.894ZM175.118 165.649C178.841 159.984 178.101 152.922 173.466 149.877C168.831 146.831 162.056 148.954 158.334 154.619C154.611 160.284 155.351 167.346 159.986 170.391C164.621 173.437 171.396 171.314 175.118 165.649ZM202.132 132.665C205.855 127 205.115 119.939 200.48 116.893C195.845 113.847 189.07 115.971 185.347 121.636C181.625 127.301 182.365 134.362 187 137.408C191.635 140.453 198.41 138.33 202.132 132.665ZM240.976 110.125C244.698 104.46 243.958 97.3982 239.323 94.3526C234.688 91.3069 227.913 93.4303 224.191 99.0953C220.468 104.76 221.208 111.822 225.843 114.867C230.478 117.913 237.253 115.79 240.976 110.125ZM276.705 177.661C277.727 176.106 278.519 174.479 279.086 172.834C281.526 165.762 279.818 158.344 274.386 154.775C267.691 150.376 257.874 153.49 252.46 161.73C249.769 165.825 248.672 170.417 249.071 174.539C249.475 178.711 251.411 182.403 254.779 184.615C261.474 189.014 271.29 185.901 276.705 177.661Z" fill="#D1F1D4"/>
<path d="M228.074 208.26C243.878 202.752 244.92 230.744 287.547 199.692C295.574 193.845 300.246 185.274 302.002 175.526C299.531 180.271 296.074 184.428 291.554 187.721C263.309 208.296 253.322 202.949 245.201 198.6C241.065 196.386 237.413 194.431 232.081 196.289C225.161 198.701 219.151 202.898 213.188 207.063C199.738 216.454 186.525 225.681 163.652 213.894C149.929 206.822 137.988 185.722 143.819 160.343C130.353 190.875 143.813 217.706 159.646 225.865C192.66 242.879 205.55 216.111 228.074 208.26Z" fill="white" fill-opacity="0.5"/>
<path d="M274.386 154.775C267.691 150.376 257.874 153.49 252.46 161.73C249.769 165.825 248.672 170.417 249.071 174.539C249.639 172.894 250.431 171.267 251.452 169.712C256.867 161.472 266.683 158.359 273.379 162.758C276.746 164.971 278.682 168.662 279.086 172.834C281.526 165.762 279.818 158.344 274.386 154.775Z" fill="white" fill-opacity="0.5"/>
<path d="M179.197 157.834L189.75 154.037L191.359 156.438L179.487 160.709L179.197 157.834Z" fill="#A7CCAA"/>
<path d="M189.75 154.037L179.197 157.834L146.481 58.6086L151.758 56.7104L189.75 154.037Z" fill="#75C27D"/>
<path fill-rule="evenodd" clip-rule="evenodd" d="M179.487 160.709L191.359 156.438C192.516 157.349 194.3 159.386 194.966 162.021C194.721 163.525 194.134 164.666 193.87 165.049C192.862 164.8 191.581 163.544 191.067 162.946L191.923 166.245C191.931 166.274 191.939 166.303 191.946 166.332L191.923 166.245C191.43 164.509 188.512 163.171 187.091 162.714C187.837 164.21 187.716 167.231 187.562 168.554C187.001 168.554 185.926 167.619 185.459 167.152C186.581 168.834 186.695 171.819 186.612 173.101C182.203 170.557 178.787 166.592 179.487 160.709Z" fill="white"/>
<path d="M198.715 176.885C196.488 176.654 193.584 176.062 190.706 174.999C189.309 174.482 187.917 173.854 186.612 173.101C186.695 171.819 186.581 168.834 185.459 167.152C185.926 167.619 187.001 168.554 187.562 168.554C187.716 167.231 187.837 164.21 187.091 162.714C188.512 163.171 191.43 164.509 191.923 166.245L191.946 166.332C191.939 166.303 191.931 166.274 191.923 166.245L191.067 162.946C191.581 163.544 192.862 164.8 193.87 165.049C194.134 164.666 194.721 163.525 194.966 162.021C195.298 163.332 195.353 164.79 194.918 166.332C194.551 167.634 194.546 168.911 194.769 170.11C195.34 173.186 197.411 175.746 198.715 176.885Z" fill="#4BA754"/>
<path d="M52.5 35L53.6455 40.2181L57 42L53.6455 43.7819L52.5 49L51.3545 43.7819L48 42L51.3545 40.2181L52.5 35Z" fill="#A7CCAA"/>
<path d="M136.5 21L137.646 26.2181L141 28L137.646 29.7819L136.5 35L135.354 29.7819L132 28L135.354 26.2181L136.5 21Z" fill="#A7CCAA"/>
<path d="M413.5 40L414.646 45.2181L418 47L414.646 48.7819L413.5 54L412.354 48.7819L409 47L412.354 45.2181L413.5 40Z" fill="#A7CCAA"/>
<path d="M333.5 21L335.155 28.0817L340 30.5L335.155 32.9183L333.5 40L331.845 32.9183L327 30.5L331.845 28.0817L333.5 21Z" fill="#A7CCAA"/>
<path d="M345.5 73L346.646 78.2181L350 80L346.646 81.7819L345.5 87L344.354 81.7819L341 80L344.354 78.2181L345.5 73Z" fill="#A7CCAA"/>
<path d="M92.5 80L93.6455 85.2181L97 87L93.6455 88.7819L92.5 94L91.3545 88.7819L88 87L91.3545 85.2181L92.5 80Z" fill="#A7CCAA"/>
<path d="M152.5 92L154.155 99.4544L159 102L154.155 104.546L152.5 112L150.845 104.546L146 102L150.845 99.4544L152.5 92Z" fill="#A7CCAA"/>
<path d="M335.5 255L336.646 260.218L340 262L336.646 263.782L335.5 269L334.354 263.782L331 262L334.354 260.218L335.5 255Z" fill="#A7CCAA"/>
<path d="M422.5 189L423.646 194.218L427 196L423.646 197.782L422.5 203L421.354 197.782L418 196L421.354 194.218L422.5 189Z" fill="#A7CCAA"/>
<path d="M38 236L39.7819 244.2L45 247L39.7819 249.8L38 258L36.2181 249.8L31 247L36.2181 244.2L38 236Z" fill="#A7CCAA"/>
<path d="M107.5 245L108.646 250.218L112 252L108.646 253.782L107.5 259L106.354 253.782L103 252L106.354 250.218L107.5 245Z" fill="#A7CCAA"/>
<path d="M30.5 108L31.6455 113.218L35 115L31.6455 116.782L30.5 122L29.3545 116.782L26 115L29.3545 113.218L30.5 108Z" fill="#A7CCAA"/>
<circle cx="400" cy="79" r="20" fill="#78AB7D"/>
<circle cx="356" cy="249" r="20" fill="#78AB7D"/>
<circle cx="61" cy="217" r="20" fill="#78AB7D"/>
<circle cx="51" cy="87" r="20" fill="#78AB7D"/>
<path d="M389.558 69.6945C389.844 68.6276 390.94 67.9944 392.007 68.2803L411.326 73.4567C412.393 73.7426 413.026 74.8393 412.74 75.9062L409.634 87.4973C409.348 88.5642 408.252 89.1974 407.185 88.9115L405.253 88.3939C403.899 89.584 402.674 90.2911 400.613 90.2564C401.354 89.4199 401.613 88.4539 401.389 87.3586L387.866 83.7351C386.799 83.4493 386.166 82.3526 386.452 81.2857L389.558 69.6945Z" fill="#A7CCAA"/>
<g clip-path="url(#clip0_865_470)">
<path d="M36.4166 80.0425C36.1307 78.9756 36.7638 77.8789 37.8308 77.593L44.5923 75.7813C45.6592 75.4954 46.7559 76.1286 47.0417 77.1955L49.3711 85.8888C49.657 86.9558 49.0238 88.0524 47.9569 88.3383L41.1954 90.1501C40.1285 90.4359 39.0318 89.8028 38.7459 88.7358L36.4166 80.0425Z" fill="#A7CCAA"/>
<path d="M40.2988 94.5314C40.013 93.4645 40.6461 92.3678 41.7131 92.0819L48.4745 90.2702C49.5415 89.9843 50.6381 90.6175 50.924 91.6844L52.2181 96.514C52.504 97.5809 51.8708 98.6776 50.8039 98.9635L44.0424 100.775C42.9755 101.061 41.8788 100.428 41.5929 99.361L40.2988 94.5314Z" fill="#A7CCAA"/>
<path d="M51.0442 84.4053C50.7583 83.3383 51.3914 82.2417 52.4584 81.9558L59.2198 80.144C60.2868 79.8582 61.3835 80.4913 61.6693 81.5583L64.7752 93.1494C65.061 94.2163 64.4279 95.313 63.361 95.5989L56.5995 97.4106C55.5325 97.6965 54.4359 97.0633 54.15 95.9964L51.0442 84.4053Z" fill="#A7CCAA"/>
<path d="M48.9736 76.6779C48.6877 75.6109 49.3209 74.5143 50.3878 74.2284L57.1493 72.4166C58.2162 72.1308 59.3129 72.7639 59.5988 73.8309L60.1164 75.7627C60.4023 76.8296 59.7691 77.9263 58.7022 78.2122L51.9407 80.0239C50.8738 80.3098 49.7771 79.6766 49.4912 78.6097L48.9736 76.6779Z" fill="#A7CCAA"/>
</g>
<g clip-path="url(#clip1_865_470)">
<path fill-rule="evenodd" clip-rule="evenodd" d="M343.235 239.997C342.168 240.283 341.535 241.38 341.821 242.447L346.997 261.765C347.283 262.832 347.998 263.568 348.964 263.309C349.929 263.05 350.154 261.955 349.895 260.989L346.271 247.466C345.842 245.865 346.792 244.22 348.393 243.791L365.521 239.202C365.032 238.714 364.304 238.493 363.589 238.684L356.089 240.694C355.358 240.89 354.578 240.656 354.075 240.089L352.748 238.593C352.246 238.026 351.466 237.792 350.734 237.988L343.235 239.997Z" fill="#A7CCAA"/>
<path d="M347.237 247.207C346.951 246.14 347.585 245.043 348.651 244.757L366.038 240.099C367.105 239.813 368.202 240.446 368.488 241.513L372.111 255.036C372.397 256.103 371.764 257.199 370.697 257.485L353.31 262.144C352.243 262.43 351.147 261.797 350.861 260.73L347.237 247.207Z" fill="#A7CCAA"/>
</g>
<g clip-path="url(#clip2_865_470)">
<path d="M74.3528 210.116C75.4197 209.83 76.5164 210.463 76.8023 211.53L77.5788 214.428C77.8646 215.495 77.2315 216.591 76.1645 216.877L75.1986 217.136L73.3869 210.375L74.3528 210.116Z" fill="#A7CCAA"/>
<path fill-rule="evenodd" clip-rule="evenodd" d="M51.0505 223.607L43.4058 222.031L49.2387 216.845L50.2047 216.586L72.421 210.633L74.2327 217.395L52.0164 223.348L51.0505 223.607ZM50.7917 222.641L49.4976 217.811L46.1515 220.778L46.4103 221.744L50.7917 222.641Z" fill="#A7CCAA"/>
</g>
<defs>
<clipPath id="clip0_865_470">
<rect width="32" height="32" fill="white" transform="translate(31 75.2822) rotate(-15)"/>
</clipPath>
<clipPath id="clip1_865_470">
<rect width="32" height="32" fill="white" transform="translate(336.404 237.686) rotate(-15)"/>
</clipPath>
<clipPath id="clip2_865_470">
<rect width="32" height="32" fill="white" transform="translate(55 195) rotate(30)"/>
</clipPath>
</defs>
</svg>
