<svg width="450" height="300" viewBox="0 0 450 300" fill="none" xmlns="http://www.w3.org/2000/svg">
<rect width="450" height="300" fill="#FF8888"/>
<path fill-rule="evenodd" clip-rule="evenodd" d="M233.405 40.3359C233.405 41.8828 232.151 43.1367 230.603 43.1367C229.056 43.1367 227.802 41.8828 227.802 40.3359C227.802 38.7891 229.056 37.5352 230.603 37.5352C232.151 37.5352 233.405 38.7891 233.405 40.3359ZM229.203 39.4023C229.46 39.4023 229.67 39.1934 229.67 38.9355C229.67 38.6777 229.46 38.4688 229.203 38.4688C228.945 38.4688 228.736 38.6777 228.736 38.9355C228.736 39.1934 228.945 39.4023 229.203 39.4023Z" fill="#540000"/>
<path fill-rule="evenodd" clip-rule="evenodd" d="M234.339 40.3359C234.339 42.3984 232.667 44.0703 230.603 44.0703C228.54 44.0703 226.868 42.3984 226.868 40.3359C226.868 38.2735 228.54 36.6016 230.603 36.6016C232.667 36.6016 234.339 38.2735 234.339 40.3359ZM230.603 43.1367C232.151 43.1367 233.405 41.8828 233.405 40.3359C233.405 38.7891 232.151 37.5352 230.603 37.5352C229.056 37.5352 227.802 38.7891 227.802 40.3359C227.802 41.8828 229.056 43.1367 230.603 43.1367Z" fill="#840000"/>
<path d="M229.67 38.9355C229.67 39.1934 229.46 39.4023 229.203 39.4023C228.945 39.4023 228.736 39.1934 228.736 38.9355C228.736 38.6777 228.945 38.4688 229.203 38.4688C229.46 38.4688 229.67 38.6777 229.67 38.9355Z" fill="#FFC4C4"/>
<path fill-rule="evenodd" clip-rule="evenodd" d="M69.0393 49.6719C69.0393 39.3597 77.4017 31 87.7172 31H362.283C372.598 31 380.961 39.3597 380.961 49.6719V174V199.047C380.961 201.109 379.288 202.781 377.225 202.781H72.7749C70.7118 202.781 69.0393 201.109 69.0393 199.047V174V49.6719ZM72.7749 53.4062V174V195.312C72.7749 197.375 74.4473 199.047 76.5104 199.047H373.49C375.553 199.047 377.225 197.375 377.225 195.312V174V53.4062C377.225 51.3438 375.553 49.6719 373.49 49.6719L76.5104 49.6719C74.4473 49.6719 72.7749 51.3438 72.7749 53.4062ZM230.603 44.0703C232.667 44.0703 234.339 42.3984 234.339 40.3359C234.339 38.2735 232.667 36.6016 230.603 36.6016C228.54 36.6016 226.868 38.2735 226.868 40.3359C226.868 42.3984 228.54 44.0703 230.603 44.0703Z" fill="#C74B4B"/>
<path d="M225 40.3359C225 41.8828 223.746 43.1367 222.198 43.1367C220.651 43.1367 219.397 41.8828 219.397 40.3359C219.397 38.7891 220.651 37.5352 222.198 37.5352C223.746 37.5352 225 38.7891 225 40.3359Z" fill="#840000"/>
<path d="M14.3562 270H435.644C442.444 270 446.641 263.159 444.387 257.34C444.272 257.042 444.139 256.746 443.989 256.453C442.504 259.408 439.491 261.598 435.644 261.598H14.3562C10.5094 261.598 7.49558 259.408 6.01139 256.453C2.93515 262.438 7.20706 270 14.3562 270Z" fill="#C74B4B"/>
<path d="M302.898 252.908L299.791 244.865V248.886L302.898 256.93H352.611V252.908H302.898Z" fill="#C74B4B"/>
<path d="M299.791 244.865L302.898 252.908H352.611L345.879 244.865H330.085L324.647 236.822H310.148L312.219 240.843L314.29 244.865H312.219H299.791Z" fill="#F97676"/>
<path d="M436.061 252.908L392.116 216.713H387.233H326.201L358.825 252.908H436.061Z" fill="#F97676"/>
<path d="M436.061 252.908H358.825L326.201 216.713V220.735L358.825 256.93H436.061V252.908Z" fill="#C74B4B"/>
<path d="M387.233 212.692L377.468 204.648H315.326L322.576 212.692H387.233Z" fill="#F97676"/>
<path d="M326.201 216.713H387.233V212.692H322.576L315.326 204.648V208.361L318.951 212.692L322.576 216.713H326.201Z" fill="#C74B4B"/>
<path d="M284.255 204.648L287.362 212.692H318.951L315.326 208.361L312.219 204.648H284.255Z" fill="#F97676"/>
<path d="M287.362 212.692L284.255 204.648V208.67L287.362 216.713H288.916H318.951V212.692H287.362Z" fill="#C74B4B"/>
<path d="M288.916 216.713L293.576 228.778H332.415L322.317 216.713H318.951H288.916Z" fill="#F97676"/>
<path d="M293.576 228.778L288.916 216.713V220.735L293.576 232.8H332.415V228.778H293.576Z" fill="#C74B4B"/>
<path d="M312.219 244.865H314.29L312.219 240.843L310.148 236.822V240.843L312.219 244.865Z" fill="#C74B4B"/>
<path d="M58.2152 216.713L13.9394 252.908H296.684L285.032 216.713H283.737H63.1348H58.2152Z" fill="#F97676"/>
<path d="M296.684 252.908H13.9394V256.93H296.684V252.908Z" fill="#C74B4B"/>
<path d="M63.1348 216.713H283.737V212.692H63.1348V216.713Z" fill="#C74B4B"/>
<path d="M72.9739 204.648L63.1348 212.692H283.737L281.148 204.648H72.9739Z" fill="#F97676"/>
<path fill-rule="evenodd" clip-rule="evenodd" d="M443.613 255.79C443.247 255.199 442.744 254.71 442.206 254.269L384.574 207.049C384.036 206.608 383.563 206.095 383.078 205.597C381.331 203.807 378.924 202.781 376.393 202.781H73.6068C71.0759 202.781 68.6694 203.807 66.9224 205.597C66.4368 206.095 65.9636 206.608 65.4258 207.049L7.79384 254.269C7.25598 254.71 6.7531 255.199 6.38666 255.79C6.25119 256.009 6.12618 256.23 6.01139 256.453C7.49558 259.408 10.5094 261.598 14.3562 261.598H435.644C439.491 261.598 442.504 259.408 443.989 256.453C443.874 256.23 443.749 256.009 443.613 255.79ZM377.468 204.648L387.233 212.692V216.713H392.116L436.061 252.908V256.93H358.825L326.201 220.735V216.713H322.576L318.951 212.692V216.713H322.317L332.415 228.778V232.8H293.576L288.916 220.735V216.713H287.362L284.255 208.67V204.648H312.219L315.326 208.361V204.648H377.468ZM13.9394 252.908L58.2152 216.713H63.1348V212.692L72.9739 204.648H281.148L283.737 212.692V216.713H285.032L296.684 252.908V256.93H13.9394V252.908ZM345.879 244.865L352.611 252.908V256.93H302.898L299.791 248.886V244.865H312.219L310.148 240.843V236.822H324.647L330.085 244.865H345.879Z" fill="#EC6969"/>
<path d="M72.7749 202.781C70.7118 202.781 69.0393 201.109 69.0393 199.047V174H0V300H450V174H380.961V199.047C380.961 201.109 379.288 202.781 377.225 202.781H376.393C378.924 202.781 381.331 203.807 383.078 205.597C383.563 206.095 384.036 206.608 384.574 207.049L442.206 254.269C442.744 254.71 443.247 255.199 443.613 255.79C443.749 256.009 443.874 256.23 443.989 256.453C444.139 256.746 444.272 257.042 444.387 257.34C446.641 263.159 442.444 270 435.644 270H14.3562C7.20706 270 2.93515 262.438 6.01139 256.453C6.12618 256.23 6.25119 256.009 6.38666 255.79C6.7531 255.199 7.25598 254.71 7.79384 254.269L65.4258 207.049C65.9636 206.608 66.4368 206.095 66.9224 205.597C68.6694 203.807 71.0759 202.781 73.6068 202.781H72.7749Z" fill="#E46363"/>
<path d="M76.5104 199.047H373.49C375.553 199.047 377.225 197.375 377.225 195.312V174H72.7749V195.312C72.7749 197.375 74.4473 199.047 76.5104 199.047Z" fill="#FF9D9D"/>
<path fill-rule="evenodd" clip-rule="evenodd" d="M72.7749 174V53.4062C72.7749 51.3438 74.4473 49.6719 76.5104 49.6719L373.49 49.6719C375.553 49.6719 377.225 51.3438 377.225 53.4062V174H72.7749ZM164.949 103.878C166.772 109.566 173.874 113.832 177.198 115.254C176.628 113.927 175.432 110.931 175.204 109.566C174.919 107.86 174.919 107.007 175.204 105.585C175.489 104.163 176.628 101.603 178.622 99.8968C180.616 98.1904 183.18 98.1904 184.32 98.1904C185.459 98.1904 188.023 98.1904 191.156 101.034C194.29 103.878 194.005 106.154 193.72 108.429C193.435 110.704 192.866 114.97 191.156 117.529C189.447 120.089 186.599 126.914 186.029 130.612C185.459 134.309 184.889 140.85 186.883 150.519C188.479 158.255 193.245 164.55 195.429 166.73C201.583 173.1 206.824 173.84 209.388 173.84H253.258C254.169 173.84 255.916 173.65 256.676 173.555C258.955 172.987 261.519 170.996 261.234 168.721C260.949 166.446 260.095 164.739 256.961 163.886C254.454 163.203 249.08 164.17 246.706 164.739C248.89 163.128 253.657 159.393 255.252 157.345C257.246 154.785 258.385 152.795 258.385 150.519C258.385 148.699 257.734 147.064 257.449 146.59C256.75 146.981 256.295 147.154 255.455 147.443C256.594 150.003 256.106 151.657 255.252 153.363C254.397 155.07 251.548 157.914 249.839 159.62C248.472 160.985 241.863 165.877 238.729 168.152C243.002 167.394 252.175 165.877 254.682 165.877C257.816 165.877 258.955 167.014 258.955 169.005C258.955 170.598 256.866 171.375 255.822 171.565H209.388C203.691 171.565 198.278 167.583 193.435 160.473C188.593 153.363 187.738 144.547 187.738 134.878C187.738 128.474 190.486 123.568 192.674 119.662C193.79 117.67 194.76 115.938 195.145 114.401C196.284 109.851 197.139 104.163 193.72 100.181C190.302 96.1996 184.604 95.6308 181.471 96.1996C178.337 96.7684 176.058 98.4748 173.779 102.741C171.956 106.154 173.02 110.23 173.779 111.841C167.797 108.429 166.658 102.741 166.658 99.328C166.658 95.9152 168.082 91.0805 171.216 86.8146C174.349 82.5486 179.762 79.4202 181.471 78.5671C181.53 78.5374 181.594 78.5056 181.661 78.4719C183.522 77.5378 188.33 75.1246 196.854 74.3011C203.919 73.6186 211.192 76.1023 213.946 77.4295C219.928 79.989 226.194 88.3231 228.189 91.9337C232.747 100.181 232.177 108.429 231.323 112.979C230.468 117.529 229.898 118.951 227.05 124.355C225.842 126.646 224.582 128.273 223.25 129.994C221.441 132.331 219.497 134.842 217.364 139.428C214.402 145.798 215.18 158.956 215.94 164.739C216.32 160.189 217.706 149.609 220.213 143.694C223.347 136.3 229.898 130.043 233.887 127.768C237.025 125.977 237.87 125.596 239.893 124.683C240.44 124.436 241.074 124.15 241.863 123.786C244.826 123.104 247.655 120.658 248.7 119.52C248.928 115.425 247.655 110.609 246.991 108.713C249.839 108.429 251.549 108.997 253.827 110.135C255.651 111.045 256.866 112.979 257.246 113.832C261.804 113.832 262.374 113.832 265.792 115.254C268.527 116.392 269.97 119.71 270.35 121.227C269.78 123.502 267.786 125.492 266.362 126.63C264.937 127.768 261.519 128.905 258.67 129.19C256.391 129.417 252.593 127.957 250.979 127.199C251.738 128.81 253.941 132.602 256.676 134.878C259.411 137.153 264.083 137.342 266.077 137.153C268.641 135.162 269.495 135.446 269.78 135.731C270.065 136.015 269.495 138.006 266.931 138.859C264.368 139.712 260.949 141.419 258.67 142.841C258.278 143.085 257.953 143.296 257.667 143.482C256.29 144.377 255.803 144.694 252.973 145.4C250.238 146.083 247.465 145.495 246.421 145.116C248.928 144.433 251.454 144.831 252.403 145.116C253.606 144.872 254.295 144.687 255.537 144.263C253.543 142.841 250.979 142.272 247.56 142.556C244.826 142.784 241.103 144.357 239.584 145.116C244.142 147.107 246.706 147.96 250.409 147.96C253.372 147.96 256.201 146.822 257.246 146.253C258.467 145.588 259.385 145.01 260.22 144.484C261.527 143.66 262.629 142.966 264.368 142.272C268.356 140.85 269.608 140.169 271.204 138.575C272.059 137.722 272.96 135.191 270.635 133.74C268.811 132.602 266.267 134.024 265.222 134.878C264.273 134.878 262.146 134.821 261.234 134.593C258.499 133.911 256.486 132.034 255.822 131.18C259.81 131.465 263.106 131.18 267.501 128.621C270.92 126.63 272.249 122.838 272.629 120.942C272.059 118.098 270.35 115.841 268.925 114.685C265.279 111.728 260.379 111.367 258.385 111.557C257.702 109.737 255.442 108.429 253.827 107.576C249.953 105.528 245.566 106.343 243.857 107.007C245.908 110.647 246.421 116.297 246.421 118.667C243.98 120.674 242.046 121.452 239.816 122.35C237.621 123.233 235.14 124.232 231.608 126.63C225.123 131.032 221.352 136.868 220.213 139.143C221.068 136.868 224.486 132.034 226.48 129.474C228.474 126.914 229.898 124.639 231.608 120.373C233.317 116.107 234.172 110.135 234.172 107.291C234.172 104.447 233.805 98.8114 230.956 92.5547C228.32 86.7654 223.062 81.411 220.783 79.4203C218.504 77.4295 214.801 74.5855 208.818 73.1635C202.836 71.7415 198.563 72.0259 194.575 72.3103C190.587 72.5947 184.604 74.5855 179.477 77.1451C174.349 79.7046 170.931 83.6862 168.937 86.2458C166.943 88.8053 162.67 96.7684 164.949 103.878Z" fill="#FFC5C5"/>
<path d="M177.198 115.254C173.874 113.832 166.772 109.566 164.949 103.878C162.67 96.7684 166.943 88.8053 168.937 86.2458C170.931 83.6862 174.349 79.7046 179.477 77.1451C184.604 74.5855 190.587 72.5947 194.575 72.3103C198.563 72.0259 202.836 71.7415 208.818 73.1635C214.801 74.5855 218.504 77.4295 220.783 79.4203C223.062 81.411 228.32 86.7654 230.956 92.5547C233.805 98.8114 234.172 104.447 234.172 107.291C234.172 110.135 233.317 116.107 231.608 120.373C229.898 124.639 228.474 126.914 226.48 129.474C224.486 132.034 221.068 136.868 220.213 139.143C221.352 136.868 225.123 131.032 231.608 126.63C235.14 124.232 237.621 123.233 239.816 122.35C242.046 121.452 243.98 120.674 246.421 118.667C246.421 116.297 245.908 110.647 243.857 107.007C245.566 106.343 249.953 105.528 253.827 107.576C255.442 108.429 257.702 109.737 258.385 111.557C260.379 111.367 265.279 111.728 268.925 114.685C270.35 115.841 272.059 118.098 272.629 120.942C272.249 122.838 270.92 126.63 267.501 128.621C263.106 131.18 259.81 131.465 255.822 131.18C256.486 132.034 258.499 133.911 261.234 134.593C262.146 134.821 264.273 134.878 265.222 134.878C266.267 134.024 268.811 132.602 270.635 133.74C272.96 135.191 272.059 137.722 271.204 138.575C269.608 140.169 268.356 140.85 264.368 142.272C262.629 142.966 261.527 143.66 260.22 144.484C259.385 145.01 258.467 145.588 257.246 146.253C256.201 146.822 253.372 147.96 250.409 147.96C246.706 147.96 244.142 147.107 239.584 145.116C241.103 144.357 244.826 142.784 247.56 142.556C250.979 142.272 253.543 142.841 255.537 144.263C254.295 144.687 253.606 144.872 252.403 145.116C251.454 144.831 248.928 144.433 246.421 145.116C247.465 145.495 250.238 146.083 252.973 145.4C255.803 144.694 256.29 144.377 257.667 143.482C257.953 143.296 258.278 143.085 258.67 142.841C260.949 141.419 264.368 139.712 266.931 138.859C269.495 138.006 270.065 136.015 269.78 135.731C269.495 135.446 268.641 135.162 266.077 137.153C264.083 137.342 259.411 137.153 256.676 134.878C253.941 132.602 251.738 128.81 250.979 127.199C252.593 127.957 256.391 129.417 258.67 129.19C261.519 128.905 264.937 127.768 266.362 126.63C267.786 125.492 269.78 123.502 270.35 121.227C269.97 119.71 268.527 116.392 265.792 115.254C262.374 113.832 261.804 113.832 257.246 113.832C256.866 112.979 255.651 111.045 253.827 110.135C251.549 108.997 249.839 108.429 246.991 108.713C247.655 110.609 248.928 115.425 248.7 119.52C247.655 120.658 244.826 123.104 241.863 123.786C241.074 124.15 240.44 124.436 239.893 124.683C237.87 125.596 237.025 125.977 233.887 127.768C229.898 130.043 223.347 136.3 220.213 143.694C217.706 149.609 216.32 160.189 215.94 164.739C215.18 158.956 214.402 145.798 217.364 139.428C219.497 134.842 221.441 132.331 223.25 129.994C224.582 128.273 225.842 126.646 227.05 124.355C229.898 118.951 230.468 117.529 231.323 112.979C232.177 108.429 232.747 100.181 228.189 91.9337C226.194 88.3231 219.928 79.989 213.946 77.4295C211.192 76.1023 203.919 73.6186 196.854 74.3011C188.33 75.1246 183.522 77.5378 181.661 78.4719C181.594 78.5056 181.53 78.5374 181.471 78.5671C179.762 79.4202 174.349 82.5486 171.216 86.8146C168.082 91.0805 166.658 95.9152 166.658 99.328C166.658 102.741 167.797 108.429 173.779 111.841C173.02 110.23 171.956 106.154 173.779 102.741C176.058 98.4748 178.337 96.7684 181.471 96.1996C184.604 95.6308 190.302 96.1996 193.72 100.181C197.139 104.163 196.284 109.851 195.145 114.401C194.76 115.938 193.79 117.67 192.674 119.662C190.486 123.568 187.738 128.474 187.738 134.878C187.738 144.547 188.593 153.363 193.435 160.473C198.278 167.583 203.691 171.565 209.388 171.565H255.822C256.866 171.375 258.955 170.598 258.955 169.005C258.955 167.014 257.816 165.877 254.682 165.877C252.175 165.877 243.002 167.394 238.729 168.152C241.863 165.877 248.472 160.985 249.839 159.62C251.548 157.914 254.397 155.07 255.252 153.363C256.106 151.657 256.594 150.003 255.455 147.443C256.295 147.154 256.75 146.981 257.449 146.59C257.734 147.064 258.385 148.699 258.385 150.519C258.385 152.795 257.246 154.785 255.252 157.345C253.657 159.393 248.89 163.128 246.706 164.739C249.08 164.17 254.454 163.203 256.961 163.886C260.095 164.739 260.949 166.446 261.234 168.721C261.519 170.996 258.955 172.987 256.676 173.555C255.916 173.65 254.169 173.84 253.258 173.84H209.388C206.824 173.84 201.583 173.1 195.429 166.73C193.245 164.55 188.479 158.255 186.883 150.519C184.889 140.85 185.459 134.309 186.029 130.612C186.599 126.914 189.447 120.089 191.156 117.529C192.866 114.97 193.435 110.704 193.72 108.429C194.005 106.154 194.29 103.878 191.156 101.034C188.023 98.1904 185.459 98.1904 184.32 98.1904C183.18 98.1904 180.616 98.1904 178.622 99.8968C176.628 101.603 175.489 104.163 175.204 105.585C174.919 107.007 174.919 107.86 175.204 109.566C175.432 110.931 176.628 113.927 177.198 115.254Z" fill="#920000"/>
<path d="M114.885 134.964L112 136.356C112.046 138.775 116.748 141.774 119.763 143.329C120.081 143.493 120.38 143.64 120.652 143.77C121.32 143.534 121.75 142.634 121.514 141.97C121.208 141.825 120.914 141.673 120.632 141.515C116.916 139.434 115.258 136.338 114.885 134.964Z" fill="#C74B4B"/>
<path fill-rule="evenodd" clip-rule="evenodd" d="M115.61 156.885C114.893 166.053 121.74 167.016 125.254 166.352C125.732 165.513 126.201 164.683 126.661 163.86C133.501 151.633 138.385 141.074 143.305 128.021C142.715 126.318 141.762 125.078 140.438 124.45C135.327 122.027 126.578 129.622 120.632 141.515C120.914 141.673 121.208 141.825 121.514 141.97C121.75 142.634 121.32 143.534 120.652 143.77C120.38 143.64 120.081 143.493 119.763 143.329C117.571 148.107 116.178 152.802 115.61 156.885Z" fill="#A94646"/>
<path fill-rule="evenodd" clip-rule="evenodd" d="M126.661 163.86C134.061 166.571 151.984 170.281 164.477 163.441C169.888 152.137 160.425 136.379 143.305 128.021C138.385 141.074 133.501 151.633 126.661 163.86Z" fill="#FF9D9D"/>
<path d="M118.905 169.432C120.229 170.06 121.797 170.016 123.497 169.398C124.097 168.369 124.682 167.354 125.254 166.352C121.74 167.016 114.893 166.053 115.61 156.885C114.739 163.145 115.807 167.964 118.905 169.432Z" fill="#974545"/>
<path d="M123.497 169.398C140.806 177.361 159.066 174.746 164.477 163.441C151.984 170.281 134.061 166.571 126.661 163.86C126.201 164.683 125.732 165.513 125.254 166.352C124.682 167.354 124.097 168.369 123.497 169.398Z" fill="#EA7676"/>
<path fill-rule="evenodd" clip-rule="evenodd" d="M282.912 153.482C314.896 153.482 340.824 127.63 340.824 95.7409C340.824 63.8515 314.896 38 282.912 38C250.928 38 225 63.8515 225 95.7409C225 127.63 250.928 153.482 282.912 153.482ZM337.088 95.7409C337.088 122.766 317.182 145.156 291.191 149.13C288.492 149.542 285.727 149.756 282.912 149.756C282.056 149.756 281.204 149.737 280.357 149.697C257.456 148.638 238.269 133.4 231.423 112.587C230.89 110.965 230.431 109.309 230.051 107.624C229.191 103.8 228.736 99.8235 228.736 95.7409C228.736 65.9088 252.992 41.7252 282.912 41.7252C312.833 41.7252 337.088 65.9088 337.088 95.7409Z" fill="#C74B4B"/>
<path d="M253.609 95.5387C253.609 90.2648 252.465 77.6918 247.889 69.5911C251.703 68.1144 261.491 66.3002 270.135 70.8569C273.736 72.7555 278.779 75.6666 280.304 79.717C284.753 79.2951 295.685 80.0967 303.821 86.6785C306.999 89.2495 310.812 94.2729 312.084 100.602C311.236 104.821 308.27 113.259 300.643 117.689C290.837 123.385 283.482 124.018 274.584 123.385C276.067 125.283 280.558 129.46 286.66 130.979C288.694 131.485 293.44 131.612 295.558 131.612C297.889 129.713 303.567 126.549 307.635 129.081C312.824 132.31 310.812 137.941 308.906 139.839C305.343 143.387 302.55 144.902 293.652 148.067C292.765 148.42 291.952 148.773 291.191 149.13C317.182 145.156 337.088 122.766 337.088 95.7409C337.088 65.9088 312.833 41.7252 282.912 41.7252C252.992 41.7252 228.736 65.9088 228.736 95.7409C228.736 99.8235 229.191 103.8 230.051 107.624C233.363 105.946 236.212 104.802 238.872 103.734C243.848 101.737 248.163 100.004 253.609 95.5387Z" fill="#FFC5C5"/>
<path d="M247.889 69.5911C252.465 77.6918 253.609 90.2648 253.609 95.5387C248.163 100.004 243.848 101.737 238.872 103.734C236.212 104.802 233.363 105.946 230.051 107.624C230.431 109.309 230.89 110.965 231.423 112.587C234.277 111.072 236.102 110.25 239.044 108.926L239.045 108.925L239.048 108.924L239.05 108.923C240.27 108.374 241.682 107.738 243.44 106.93C250.05 105.411 256.364 99.9687 258.694 97.4373C259.203 88.324 256.364 77.6074 254.881 73.3883C261.236 72.7555 265.05 74.0212 270.135 76.5527C274.202 78.5778 276.914 82.8813 277.762 84.7799C287.931 84.7799 289.202 84.7799 296.83 87.9443C302.931 90.4757 306.151 97.8592 306.999 101.234C305.728 106.297 301.279 110.727 298.101 113.259C294.923 115.79 287.296 118.322 280.94 118.955C275.855 119.461 267.38 116.212 263.779 114.525C265.474 118.111 270.389 126.549 276.491 131.612C282.592 136.675 293.016 137.097 297.465 136.675C303.185 132.245 305.092 132.878 305.728 133.511C306.363 134.144 305.092 138.574 299.372 140.472C293.652 142.371 286.024 146.168 280.94 149.332C280.738 149.458 280.544 149.58 280.357 149.697C281.204 149.737 282.056 149.756 282.912 149.756C285.727 149.756 288.492 149.542 291.191 149.13C291.952 148.773 292.765 148.42 293.652 148.067C302.55 144.902 305.343 143.387 308.906 139.839C310.812 137.941 312.824 132.31 307.635 129.081C303.567 126.549 297.889 129.713 295.558 131.612C293.44 131.612 288.694 131.485 286.66 130.979C280.558 129.46 276.067 125.283 274.584 123.385C283.482 124.018 290.837 123.385 300.643 117.689C308.27 113.259 311.236 104.821 312.084 100.602C310.812 94.2729 306.999 89.2495 303.821 86.6785C295.685 80.0967 284.753 79.2951 280.304 79.717C278.779 75.6666 273.736 72.7555 270.135 70.8569C261.491 66.3002 251.703 68.1144 247.889 69.5911Z" fill="#920000"/>
<path d="M280.94 149.332C286.024 146.168 293.652 142.371 299.372 140.472C305.092 138.574 306.363 134.144 305.728 133.511C305.092 132.878 303.185 132.245 297.465 136.675C293.016 137.097 282.592 136.675 276.491 131.612C270.389 126.549 265.474 118.111 263.779 114.525C267.38 116.212 275.855 119.461 280.94 118.955C287.296 118.322 294.923 115.79 298.101 113.259C301.279 110.727 305.728 106.297 306.999 101.234C306.151 97.8592 302.931 90.4757 296.83 87.9443C289.202 84.7799 287.931 84.7799 277.762 84.7799C276.914 82.8813 274.202 78.5778 270.135 76.5527C265.05 74.0212 261.236 72.7555 254.881 73.3883C256.364 77.6074 259.203 88.324 258.694 97.4373C256.364 99.9687 250.05 105.411 243.44 106.93C241.682 107.738 240.27 108.374 239.05 108.923L239.048 108.924L239.045 108.925L239.044 108.926C236.102 110.25 234.277 111.072 231.423 112.587C238.269 133.4 257.456 148.638 280.357 149.697C280.544 149.58 280.738 149.458 280.94 149.332Z" fill="#FFC5C5"/>
<path d="M304.164 156.648L325.196 144.541L327.064 147.767L306.032 159.874L304.164 156.648Z" fill="#C74B4B"/>
<path d="M325.196 144.541L326.005 144.076L322.461 137.956C319.307 140.889 315.772 143.514 311.878 145.756C307.983 147.997 303.936 149.737 299.812 150.995L303.355 157.114L304.164 156.648L325.196 144.541Z" fill="#920000"/>
<path fill-rule="evenodd" clip-rule="evenodd" d="M324.637 149.164L308.459 158.477L341.758 216.345C346.521 217.237 348.188 216.032 350.969 214.021C351.569 213.587 352.221 213.115 352.967 212.62L343.319 181.426L324.637 149.164Z" fill="#FF8888"/>
<path d="M345.821 223C354.158 221.909 357.206 219.247 362 213.687L343.319 181.426L352.967 212.62C352.221 213.115 351.569 213.587 350.969 214.021C348.188 216.032 346.521 217.237 341.758 216.345L345.821 223Z" fill="#EC6F6F"/>
<path fill-rule="evenodd" clip-rule="evenodd" d="M326.813 95.7409C326.813 89.4309 325.447 83.4492 322.998 78.065C322.146 76.1914 322.978 73.9835 324.857 73.1337C326.736 72.2838 328.951 73.1137 329.803 74.9874C332.684 81.3191 334.286 88.3484 334.286 95.7409C334.286 97.7982 332.613 99.4661 330.549 99.4661C328.486 99.4661 326.813 97.7982 326.813 95.7409ZM324.07 71.7623C322.393 72.9597 320.059 72.5742 318.858 70.9012L318.765 70.7726C317.564 69.0996 317.951 66.7726 319.629 65.5752C321.307 64.3778 323.641 64.7633 324.842 66.4363L324.934 66.5649C326.135 68.2379 325.748 70.5648 324.07 71.7623ZM318.775 64.6072C317.351 66.0961 314.986 66.1522 313.493 64.7324C305.779 57.3982 295.343 52.9009 283.846 52.9009C281.783 52.9009 280.11 51.233 280.11 49.1756C280.11 47.1183 281.783 45.4504 283.846 45.4504C297.339 45.4504 309.602 50.7379 318.65 59.3404C320.143 60.7603 320.199 63.1183 318.775 64.6072Z" fill="#FFDADA"/>
<path d="M54.5751 48.6667V89.7856C54.5751 90.0861 54.7462 90.3598 55.0146 90.4885L57.6492 91.7515V51.7778C57.6492 50.0596 56.2729 48.6667 54.5751 48.6667Z" fill="#FFC5C5" fill-opacity="0.5"/>
<path d="M51.501 109.333H13.0741L13.0741 110.889C13.0741 112.607 14.4505 114 16.1483 114H54.5751C56.2729 114 57.6492 112.607 57.6492 110.889V102.803C57.6492 102.514 57.8073 102.249 58.0598 102.115L63.5894 99.1693C64.15 98.8708 64.1329 98.0526 63.5605 97.7782L58.7211 95.4583L54.9857 97.448C54.7332 97.5825 54.5751 97.8475 54.5751 98.1362V106.222C54.5751 107.94 53.1988 109.333 51.501 109.333Z" fill="#FFC5C5" fill-opacity="0.5"/>
<path d="M31.2233 85.959C30.7077 85.959 30.2982 85.7933 29.9949 85.462C29.6916 85.0976 29.54 84.6007 29.54 83.9713V83.0769C29.54 81.7517 29.7675 80.5923 30.2224 79.5985C30.7077 78.5715 31.284 77.7102 31.9512 77.0145C32.6185 76.2857 33.498 75.4741 34.5899 74.5796C36.0154 73.387 37.0618 72.3435 37.729 71.4491C38.4266 70.5546 38.7754 69.4449 38.7754 68.1198C38.7754 66.1984 38.1688 64.7076 36.9556 63.6475C35.7424 62.5543 34.0288 62.0077 31.8147 62.0077C30.1466 62.0077 28.6149 62.339 27.2198 63.0015C25.8549 63.6641 24.7327 64.6082 23.8531 65.834C23.3982 66.4302 22.8978 66.7284 22.3518 66.7284C22.0485 66.7284 21.7604 66.629 21.4874 66.4302C21.0021 66.0658 20.7595 65.6186 20.7595 65.0886C20.7595 64.7573 20.8657 64.426 21.078 64.0948C22.2305 62.4384 23.747 61.1464 25.6274 60.2188C27.5079 59.2581 29.5703 58.7778 31.8147 58.7778C35.0904 58.7778 37.6532 59.6225 39.5033 61.312C41.3535 62.9684 42.2785 65.2377 42.2785 68.1198C42.2785 69.9418 41.8539 71.4491 41.0047 72.6417C40.1554 73.8011 38.9271 75.0269 37.3196 76.3188C36.3187 77.147 35.5453 77.8427 34.9994 78.4059C34.4534 78.969 33.9833 79.6482 33.589 80.4432C33.1947 81.2051 32.9976 82.083 32.9976 83.0769V83.9713C32.9976 84.6007 32.8308 85.0976 32.4972 85.462C32.1939 85.7933 31.7692 85.959 31.2233 85.959Z" fill="white"/>
<path fill-rule="evenodd" clip-rule="evenodd" d="M10 47.1111C10 45.3929 11.3763 44 13.0741 44H51.501C53.1988 44 54.5751 45.3929 54.5751 47.1111V89.7856C54.5751 90.0861 54.7462 90.3598 55.0146 90.4885L57.6492 91.7515L60.4863 93.1115C61.0588 93.3859 61.0758 94.2041 60.5153 94.5027L58.7211 95.4583L54.9857 97.448C54.7332 97.5825 54.5751 97.8475 54.5751 98.1362V106.222C54.5751 107.94 53.1988 109.333 51.501 109.333H13.0741C11.3763 109.333 10 107.94 10 106.222V47.1111ZM31.2233 85.959C30.7077 85.959 30.2982 85.7933 29.9949 85.462C29.6916 85.0976 29.54 84.6007 29.54 83.9713V83.0769C29.54 81.7517 29.7675 80.5923 30.2224 79.5985C30.7077 78.5715 31.284 77.7102 31.9512 77.0145C32.6185 76.2857 33.498 75.4741 34.5899 74.5796C36.0154 73.387 37.0618 72.3435 37.729 71.4491C38.4266 70.5546 38.7754 69.4449 38.7754 68.1198C38.7754 66.1984 38.1688 64.7076 36.9556 63.6475C35.7424 62.5543 34.0288 62.0077 31.8147 62.0077C30.1466 62.0077 28.6149 62.339 27.2198 63.0015C25.8549 63.6641 24.7327 64.6082 23.8531 65.834C23.3982 66.4302 22.8978 66.7284 22.3518 66.7284C22.0485 66.7284 21.7604 66.629 21.4874 66.4302C21.0021 66.0658 20.7595 65.6186 20.7595 65.0886C20.7595 64.7573 20.8657 64.426 21.078 64.0948C22.2305 62.4384 23.747 61.1464 25.6274 60.2188C27.5079 59.2581 29.5703 58.7778 31.8147 58.7778C35.0904 58.7778 37.6532 59.6225 39.5033 61.312C41.3535 62.9684 42.2785 65.2377 42.2785 68.1198C42.2785 69.9418 41.8539 71.4491 41.0047 72.6417C40.1554 73.8011 38.9271 75.0269 37.3196 76.3188C36.3187 77.147 35.5453 77.8427 34.9994 78.4059C34.4534 78.969 33.9833 79.6482 33.589 80.4432C33.1947 81.2051 32.9976 82.083 32.9976 83.0769V83.9713C32.9976 84.6007 32.8308 85.0976 32.4972 85.462C32.1939 85.7933 31.7692 85.959 31.2233 85.959ZM29.3125 93.8102C29.8585 94.3071 30.5257 94.5556 31.3143 94.5556C32.1332 94.5556 32.8004 94.3071 33.3161 93.8102C33.8317 93.2801 34.0895 92.6176 34.0895 91.8225C34.0895 90.9943 33.8165 90.3152 33.2706 89.7852C32.755 89.222 32.1029 88.9404 31.3143 88.9404C30.5257 88.9404 29.8585 89.222 29.3125 89.7852C28.7969 90.3152 28.5391 90.9943 28.5391 91.8225C28.5391 92.6176 28.7969 93.2801 29.3125 93.8102Z" fill="#FFC5C5"/>
<path d="M31.3143 94.5556C30.5257 94.5556 29.8585 94.3071 29.3125 93.8102C28.7969 93.2801 28.5391 92.6176 28.5391 91.8225C28.5391 90.9943 28.7969 90.3152 29.3125 89.7852C29.8585 89.222 30.5257 88.9404 31.3143 88.9404C32.1029 88.9404 32.755 89.222 33.2706 89.7852C33.8165 90.3152 34.0895 90.9943 34.0895 91.8225C34.0895 92.6176 33.8317 93.2801 33.3161 93.8102C32.8004 94.3071 32.1332 94.5556 31.3143 94.5556Z" fill="white"/>
<path d="M398 103H440C442.209 103 444 104.791 444 107V157C446.209 157 448 155.209 448 153V103C448 100.791 446.209 99 444 99H402C399.791 99 398 100.791 398 103Z" fill="#FFDADA" fill-opacity="0.5"/>
<path d="M392.436 146.674C392.485 146.72 392.541 146.762 392.603 146.798L393.496 146.288C393.808 146.11 394 145.779 394 145.42V144.286L392.622 145.073C392.015 145.42 391.961 146.236 392.436 146.674Z" fill="#FFDADA" fill-opacity="0.5"/>
<path d="M440 103H398C395.791 103 394 104.791 394 107V144.286V145.42C394 145.779 393.808 146.11 393.496 146.288L392.603 146.798L388.622 149.073C387.929 149.469 387.957 150.478 388.671 150.836L393.447 153.224C393.786 153.393 394 153.739 394 154.118V157C394 159.209 395.791 161 398 161H440C442.209 161 444 159.209 444 157V107C444 104.791 442.209 103 440 103Z" fill="#FFDADA"/>
<path d="M403 125.836H410.987C412.096 125.836 412.992 124.928 412.999 123.818C413.045 116.444 413.715 113.526 416 111.836C417.871 110.615 418.83 110.9 420.5 111.836C420.035 116.295 420.339 118.123 420.5 121.836L429.5 129.836H437.5V148.336C432.862 148.703 430.075 148.577 426.5 150.836C417.938 152.244 413.445 151.836 405.5 150.836C403.485 149.505 403.112 148.427 404 145.836C401.468 143.883 401.47 142.531 403 139.836C400.13 137.351 400.592 135.919 403 133.336C398.603 131.245 400.5 126.836 403 125.836Z" fill="#C74B4B"/>
<path d="M420.5 12L425.497 30.9776L439 38L425.497 45.0224L420.5 64L415.503 45.0224L402 38L415.503 30.9776L420.5 12Z" fill="#FFC5C5"/>
<path d="M407.5 179L409.526 186.664L415 189.5L409.526 192.336L407.5 200L405.474 192.336L400 189.5L405.474 186.664L407.5 179Z" fill="#FFC5C5"/>
<path d="M55.5 215L61.307 236.897L77 245L61.307 253.103L55.5 275L49.693 253.103L34 245L49.693 236.897L55.5 215Z" fill="#FFC5C5"/>
<path d="M33.5 147L36.606 158.679L45 163L36.606 167.321L33.5 179L30.394 167.321L22 163L30.394 158.679L33.5 147Z" fill="#FFC5C5"/>
</svg>
