<svg width="350" height="350" viewBox="0 0 350 350" fill="none" xmlns="http://www.w3.org/2000/svg">
<path d="M112.5 340C55.8908 340 10 293.661 10 236.5C10 223.921 12.2224 211.866 16.2922 200.714C18.3426 195.095 18.3426 188.905 16.2922 183.286C12.2224 172.134 10 160.079 10 147.5C10 102.503 38.4369 64.213 78.1538 49.9536C81.9945 48.5747 85.452 46.2807 88.2071 43.2705C106.933 22.8111 133.735 10 163.5 10C176.231 10 188.421 12.3438 199.668 16.6275C204.377 18.421 209.528 18.7703 214.436 17.6306C221.849 15.9094 229.57 15 237.5 15C294.109 15 340 61.3385 340 118.5C340 135.493 335.944 151.529 328.757 165.676C325.002 173.068 325.002 181.932 328.757 189.324C335.944 203.471 340 219.507 340 236.5C340 293.661 294.109 340 237.5 340C219.53 340 202.64 335.331 187.955 327.128C179.966 322.665 170.034 322.665 162.045 327.128C147.36 335.331 130.47 340 112.5 340Z" fill="#B896C9" fill-opacity="0.25"/>
<path d="M85 225C85 225.552 84.5523 226 84 226C83.4477 226 83 225.552 83 225C83 224.448 83.4477 224 84 224C84.5523 224 85 224.448 85 225Z" fill="#A27EB4"/>
<path d="M126 225C126 225.552 125.552 226 125 226C124.448 226 124 225.552 124 225C124 224.448 124.448 224 125 224C125.552 224 126 224.448 126 225Z" fill="#A27EB4"/>
<path d="M126 255C126 255.552 125.552 256 125 256C124.448 256 124 255.552 124 255C124 254.448 124.448 254 125 254C125.552 254 126 254.448 126 255Z" fill="#A27EB4"/>
<path d="M85 255C85 255.552 84.5523 256 84 256C83.4477 256 83 255.552 83 255C83 254.448 83.4477 254 84 254C84.5523 254 85 254.448 85 255Z" fill="#A27EB4"/>
<path fill-rule="evenodd" clip-rule="evenodd" d="M85 222H124C126.209 222 128 223.791 128 226V254C128 256.209 126.209 258 124 258H85C82.7909 258 81 256.209 81 254V226C81 223.791 82.7909 222 85 222ZM84 226C84.5523 226 85 225.552 85 225C85 224.448 84.5523 224 84 224C83.4477 224 83 224.448 83 225C83 225.552 83.4477 226 84 226ZM125 226C125.552 226 126 225.552 126 225C126 224.448 125.552 224 125 224C124.448 224 124 224.448 124 225C124 225.552 124.448 226 125 226ZM125 256C125.552 256 126 255.552 126 255C126 254.448 125.552 254 125 254C124.448 254 124 254.448 124 255C124 255.552 124.448 256 125 256ZM84 256C84.5523 256 85 255.552 85 255C85 254.448 84.5523 254 84 254C83.4477 254 83 254.448 83 255C83 255.552 83.4477 256 84 256Z" fill="#B896C9"/>
<path d="M147 182H267C269.209 182 271 183.791 271 186V194C271 196.209 269.209 198 267 198H147C144.791 198 143 196.209 143 194V186C143 183.791 144.791 182 147 182Z" fill="#A27EB4"/>
<path d="M147 202H267C269.209 202 271 203.791 271 206C271 208.209 269.209 210 267 210H147C144.791 210 143 208.209 143 206C143 203.791 144.791 202 147 202Z" fill="#A27EB4"/>
<path d="M147 214H267C269.209 214 271 215.791 271 218C271 220.209 269.209 222 267 222H147C144.791 222 143 220.209 143 218C143 215.791 144.791 214 147 214Z" fill="#A27EB4"/>
<path fill-rule="evenodd" clip-rule="evenodd" d="M147 249H267C269.209 249 271 250.791 271 253V261C271 263.209 269.209 265 267 265H147C144.791 265 143 263.209 143 261V253C143 250.791 144.791 249 147 249ZM147.5 254C146.672 254 146 253.328 146 252.5C146 251.672 146.672 251 147.5 251H188H243.5C244.328 251 245 251.672 245 252.5C245 253.328 244.328 254 243.5 254H188H147.5ZM147.5 258.5C146.672 258.5 146 257.828 146 257C146 256.172 146.672 255.5 147.5 255.5H195.5H243.5C244.328 255.5 245 256.172 245 257C245 257.828 244.328 258.5 243.5 258.5H195.5H147.5ZM147.5 263C146.672 263 146 262.328 146 261.5C146 260.672 146.672 260 147.5 260H179.5H243.5C244.328 260 245 260.672 245 261.5C245 262.328 244.328 263 243.5 263H179.5H147.5ZM250.5 254C251.328 254 252 253.328 252 252.5C252 251.672 251.328 251 250.5 251C249.672 251 249 251.672 249 252.5C249 253.328 249.672 254 250.5 254ZM250.5 258.5C251.328 258.5 252 257.828 252 257C252 256.172 251.328 255.5 250.5 255.5C249.672 255.5 249 256.172 249 257C249 257.828 249.672 258.5 250.5 258.5ZM250.5 263C251.328 263 252 262.328 252 261.5C252 260.672 251.328 260 250.5 260C249.672 260 249 260.672 249 261.5C249 262.328 249.672 263 250.5 263ZM254.5 254C255.328 254 256 253.328 256 252.5C256 251.672 255.328 251 254.5 251C253.672 251 253 251.672 253 252.5C253 253.328 253.672 254 254.5 254ZM254.5 258.5C255.328 258.5 256 257.828 256 257C256 256.172 255.328 255.5 254.5 255.5C253.672 255.5 253 256.172 253 257C253 257.828 253.672 258.5 254.5 258.5ZM254.5 263C255.328 263 256 262.328 256 261.5C256 260.672 255.328 260 254.5 260C253.672 260 253 260.672 253 261.5C253 262.328 253.672 263 254.5 263ZM258.5 254C259.328 254 260 253.328 260 252.5C260 251.672 259.328 251 258.5 251C257.672 251 257 251.672 257 252.5C257 253.328 257.672 254 258.5 254ZM258.5 258.5C259.328 258.5 260 257.828 260 257C260 256.172 259.328 255.5 258.5 255.5C257.672 255.5 257 256.172 257 257C257 257.828 257.672 258.5 258.5 258.5ZM258.5 263C259.328 263 260 262.328 260 261.5C260 260.672 259.328 260 258.5 260C257.672 260 257 260.672 257 261.5C257 262.328 257.672 263 258.5 263ZM262.5 254C263.328 254 264 253.328 264 252.5C264 251.672 263.328 251 262.5 251C261.672 251 261 251.672 261 252.5C261 253.328 261.672 254 262.5 254ZM262.5 258.5C263.328 258.5 264 257.828 264 257C264 256.172 263.328 255.5 262.5 255.5C261.672 255.5 261 256.172 261 257C261 257.828 261.672 258.5 262.5 258.5ZM262.5 263C263.328 263 264 262.328 264 261.5C264 260.672 263.328 260 262.5 260C261.672 260 261 260.672 261 261.5C261 262.328 261.672 263 262.5 263ZM266.5 254C267.328 254 268 253.328 268 252.5C268 251.672 267.328 251 266.5 251C265.672 251 265 251.672 265 252.5C265 253.328 265.672 254 266.5 254ZM266.5 258.5C267.328 258.5 268 257.828 268 257C268 256.172 267.328 255.5 266.5 255.5C265.672 255.5 265 256.172 265 257C265 257.828 265.672 258.5 266.5 258.5ZM266.5 263C267.328 263 268 262.328 268 261.5C268 260.672 267.328 260 266.5 260C265.672 260 265 260.672 265 261.5C265 262.328 265.672 263 266.5 263Z" fill="#A27EB4"/>
<path fill-rule="evenodd" clip-rule="evenodd" d="M147 267H267C269.209 267 271 268.791 271 271V279C271 281.209 269.209 283 267 283H147C144.791 283 143 281.209 143 279V271C143 268.791 144.791 267 147 267ZM147.5 272C146.672 272 146 271.328 146 270.5C146 269.672 146.672 269 147.5 269H212H243.5C244.328 269 245 269.672 245 270.5C245 271.328 244.328 272 243.5 272H212H147.5ZM147.5 276.5C146.672 276.5 146 275.828 146 275C146 274.172 146.672 273.5 147.5 273.5H200.5H243.5C244.328 273.5 245 274.172 245 275C245 275.828 244.328 276.5 243.5 276.5H200.5H147.5ZM147.5 281C146.672 281 146 280.328 146 279.5C146 278.672 146.672 278 147.5 278H204H243.5C244.328 278 245 278.672 245 279.5C245 280.328 244.328 281 243.5 281H204H147.5ZM250.5 272C251.328 272 252 271.328 252 270.5C252 269.672 251.328 269 250.5 269C249.672 269 249 269.672 249 270.5C249 271.328 249.672 272 250.5 272ZM250.5 276.5C251.328 276.5 252 275.828 252 275C252 274.172 251.328 273.5 250.5 273.5C249.672 273.5 249 274.172 249 275C249 275.828 249.672 276.5 250.5 276.5ZM250.5 281C251.328 281 252 280.328 252 279.5C252 278.672 251.328 278 250.5 278C249.672 278 249 278.672 249 279.5C249 280.328 249.672 281 250.5 281ZM254.5 272C255.328 272 256 271.328 256 270.5C256 269.672 255.328 269 254.5 269C253.672 269 253 269.672 253 270.5C253 271.328 253.672 272 254.5 272ZM254.5 276.5C255.328 276.5 256 275.828 256 275C256 274.172 255.328 273.5 254.5 273.5C253.672 273.5 253 274.172 253 275C253 275.828 253.672 276.5 254.5 276.5ZM254.5 281C255.328 281 256 280.328 256 279.5C256 278.672 255.328 278 254.5 278C253.672 278 253 278.672 253 279.5C253 280.328 253.672 281 254.5 281ZM258.5 272C259.328 272 260 271.328 260 270.5C260 269.672 259.328 269 258.5 269C257.672 269 257 269.672 257 270.5C257 271.328 257.672 272 258.5 272ZM258.5 276.5C259.328 276.5 260 275.828 260 275C260 274.172 259.328 273.5 258.5 273.5C257.672 273.5 257 274.172 257 275C257 275.828 257.672 276.5 258.5 276.5ZM258.5 281C259.328 281 260 280.328 260 279.5C260 278.672 259.328 278 258.5 278C257.672 278 257 278.672 257 279.5C257 280.328 257.672 281 258.5 281ZM262.5 272C263.328 272 264 271.328 264 270.5C264 269.672 263.328 269 262.5 269C261.672 269 261 269.672 261 270.5C261 271.328 261.672 272 262.5 272ZM262.5 276.5C263.328 276.5 264 275.828 264 275C264 274.172 263.328 273.5 262.5 273.5C261.672 273.5 261 274.172 261 275C261 275.828 261.672 276.5 262.5 276.5ZM262.5 281C263.328 281 264 280.328 264 279.5C264 278.672 263.328 278 262.5 278C261.672 278 261 278.672 261 279.5C261 280.328 261.672 281 262.5 281ZM266.5 272C267.328 272 268 271.328 268 270.5C268 269.672 267.328 269 266.5 269C265.672 269 265 269.672 265 270.5C265 271.328 265.672 272 266.5 272ZM266.5 276.5C267.328 276.5 268 275.828 268 275C268 274.172 267.328 273.5 266.5 273.5C265.672 273.5 265 274.172 265 275C265 275.828 265.672 276.5 266.5 276.5ZM266.5 281C267.328 281 268 280.328 268 279.5C268 278.672 267.328 278 266.5 278C265.672 278 265 278.672 265 279.5C265 280.328 265.672 281 266.5 281Z" fill="#A27EB4"/>
<path fill-rule="evenodd" clip-rule="evenodd" d="M147 285H267C269.209 285 271 286.791 271 289V297C271 299.209 269.209 301 267 301H147C144.791 301 143 299.209 143 297V289C143 286.791 144.791 285 147 285ZM147.5 290C146.672 290 146 289.328 146 288.5C146 287.672 146.672 287 147.5 287H201H243.5C244.328 287 245 287.672 245 288.5C245 289.328 244.328 290 243.5 290H201H147.5ZM147.5 294.5C146.672 294.5 146 293.828 146 293C146 292.172 146.672 291.5 147.5 291.5H199H243.5C244.328 291.5 245 292.172 245 293C245 293.828 244.328 294.5 243.5 294.5H199H147.5ZM147.5 299C146.672 299 146 298.328 146 297.5C146 296.672 146.672 296 147.5 296H207H243.5C244.328 296 245 296.672 245 297.5C245 298.328 244.328 299 243.5 299H207H147.5ZM250.5 290C251.328 290 252 289.328 252 288.5C252 287.672 251.328 287 250.5 287C249.672 287 249 287.672 249 288.5C249 289.328 249.672 290 250.5 290ZM250.5 294.5C251.328 294.5 252 293.828 252 293C252 292.172 251.328 291.5 250.5 291.5C249.672 291.5 249 292.172 249 293C249 293.828 249.672 294.5 250.5 294.5ZM250.5 299C251.328 299 252 298.328 252 297.5C252 296.672 251.328 296 250.5 296C249.672 296 249 296.672 249 297.5C249 298.328 249.672 299 250.5 299ZM254.5 290C255.328 290 256 289.328 256 288.5C256 287.672 255.328 287 254.5 287C253.672 287 253 287.672 253 288.5C253 289.328 253.672 290 254.5 290ZM254.5 294.5C255.328 294.5 256 293.828 256 293C256 292.172 255.328 291.5 254.5 291.5C253.672 291.5 253 292.172 253 293C253 293.828 253.672 294.5 254.5 294.5ZM254.5 299C255.328 299 256 298.328 256 297.5C256 296.672 255.328 296 254.5 296C253.672 296 253 296.672 253 297.5C253 298.328 253.672 299 254.5 299ZM258.5 290C259.328 290 260 289.328 260 288.5C260 287.672 259.328 287 258.5 287C257.672 287 257 287.672 257 288.5C257 289.328 257.672 290 258.5 290ZM258.5 294.5C259.328 294.5 260 293.828 260 293C260 292.172 259.328 291.5 258.5 291.5C257.672 291.5 257 292.172 257 293C257 293.828 257.672 294.5 258.5 294.5ZM258.5 299C259.328 299 260 298.328 260 297.5C260 296.672 259.328 296 258.5 296C257.672 296 257 296.672 257 297.5C257 298.328 257.672 299 258.5 299ZM262.5 290C263.328 290 264 289.328 264 288.5C264 287.672 263.328 287 262.5 287C261.672 287 261 287.672 261 288.5C261 289.328 261.672 290 262.5 290ZM262.5 294.5C263.328 294.5 264 293.828 264 293C264 292.172 263.328 291.5 262.5 291.5C261.672 291.5 261 292.172 261 293C261 293.828 261.672 294.5 262.5 294.5ZM262.5 299C263.328 299 264 298.328 264 297.5C264 296.672 263.328 296 262.5 296C261.672 296 261 296.672 261 297.5C261 298.328 261.672 299 262.5 299ZM266.5 290C267.328 290 268 289.328 268 288.5C268 287.672 267.328 287 266.5 287C265.672 287 265 287.672 265 288.5C265 289.328 265.672 290 266.5 290ZM266.5 294.5C267.328 294.5 268 293.828 268 293C268 292.172 267.328 291.5 266.5 291.5C265.672 291.5 265 292.172 265 293C265 293.828 265.672 294.5 266.5 294.5ZM266.5 299C267.328 299 268 298.328 268 297.5C268 296.672 267.328 296 266.5 296C265.672 296 265 296.672 265 297.5C265 298.328 265.672 299 266.5 299Z" fill="#A27EB4"/>
<path fill-rule="evenodd" clip-rule="evenodd" d="M147 303H267C269.209 303 271 304.791 271 307V315C271 317.209 269.209 319 267 319H147C144.791 319 143 317.209 143 315V307C143 304.791 144.791 303 147 303ZM147.5 308C146.672 308 146 307.328 146 306.5C146 305.672 146.672 305 147.5 305H158H243.5C244.328 305 245 305.672 245 306.5C245 307.328 244.328 308 243.5 308H158H147.5ZM147.5 312.5C146.672 312.5 146 311.828 146 311C146 310.172 146.672 309.5 147.5 309.5H162.5H243.5C244.328 309.5 245 310.172 245 311C245 311.828 244.328 312.5 243.5 312.5H162.5H147.5ZM147.5 317C146.672 317 146 316.328 146 315.5C146 314.672 146.672 314 147.5 314H160.5H243.5C244.328 314 245 314.672 245 315.5C245 316.328 244.328 317 243.5 317H160.5H147.5ZM250.5 308C251.328 308 252 307.328 252 306.5C252 305.672 251.328 305 250.5 305C249.672 305 249 305.672 249 306.5C249 307.328 249.672 308 250.5 308ZM250.5 312.5C251.328 312.5 252 311.828 252 311C252 310.172 251.328 309.5 250.5 309.5C249.672 309.5 249 310.172 249 311C249 311.828 249.672 312.5 250.5 312.5ZM250.5 317C251.328 317 252 316.328 252 315.5C252 314.672 251.328 314 250.5 314C249.672 314 249 314.672 249 315.5C249 316.328 249.672 317 250.5 317ZM254.5 308C255.328 308 256 307.328 256 306.5C256 305.672 255.328 305 254.5 305C253.672 305 253 305.672 253 306.5C253 307.328 253.672 308 254.5 308ZM254.5 312.5C255.328 312.5 256 311.828 256 311C256 310.172 255.328 309.5 254.5 309.5C253.672 309.5 253 310.172 253 311C253 311.828 253.672 312.5 254.5 312.5ZM254.5 317C255.328 317 256 316.328 256 315.5C256 314.672 255.328 314 254.5 314C253.672 314 253 314.672 253 315.5C253 316.328 253.672 317 254.5 317ZM258.5 308C259.328 308 260 307.328 260 306.5C260 305.672 259.328 305 258.5 305C257.672 305 257 305.672 257 306.5C257 307.328 257.672 308 258.5 308ZM258.5 312.5C259.328 312.5 260 311.828 260 311C260 310.172 259.328 309.5 258.5 309.5C257.672 309.5 257 310.172 257 311C257 311.828 257.672 312.5 258.5 312.5ZM258.5 317C259.328 317 260 316.328 260 315.5C260 314.672 259.328 314 258.5 314C257.672 314 257 314.672 257 315.5C257 316.328 257.672 317 258.5 317ZM262.5 308C263.328 308 264 307.328 264 306.5C264 305.672 263.328 305 262.5 305C261.672 305 261 305.672 261 306.5C261 307.328 261.672 308 262.5 308ZM262.5 312.5C263.328 312.5 264 311.828 264 311C264 310.172 263.328 309.5 262.5 309.5C261.672 309.5 261 310.172 261 311C261 311.828 261.672 312.5 262.5 312.5ZM262.5 317C263.328 317 264 316.328 264 315.5C264 314.672 263.328 314 262.5 314C261.672 314 261 314.672 261 315.5C261 316.328 261.672 317 262.5 317ZM266.5 308C267.328 308 268 307.328 268 306.5C268 305.672 267.328 305 266.5 305C265.672 305 265 305.672 265 306.5C265 307.328 265.672 308 266.5 308ZM266.5 312.5C267.328 312.5 268 311.828 268 311C268 310.172 267.328 309.5 266.5 309.5C265.672 309.5 265 310.172 265 311C265 311.828 265.672 312.5 266.5 312.5ZM266.5 317C267.328 317 268 316.328 268 315.5C268 314.672 267.328 314 266.5 314C265.672 314 265 314.672 265 315.5C265 316.328 265.672 317 266.5 317Z" fill="#A27EB4"/>
<path fill-rule="evenodd" clip-rule="evenodd" d="M277 85C277 80.5817 273.418 77 269 77H144.5C140.326 77.2609 137.064 80.6907 137 84.8586V319C137 323.413 140.573 326.991 144.984 327H269C273.418 327 277 323.418 277 319V85ZM263 88H151C146.582 88 143 91.5817 143 96V166C143 170.418 146.582 174 151 174H263C267.418 174 271 170.418 271 166V96C271 91.5817 267.418 88 263 88ZM181.414 119.586C180.633 118.805 179.367 118.805 178.586 119.586C177.805 120.367 177.805 121.633 178.586 122.414L183.964 127.793C184.355 128.183 184.355 128.817 183.964 129.207L178.586 134.586C177.805 135.367 177.805 136.633 178.586 137.414C179.367 138.195 180.633 138.195 181.414 137.414L186.793 132.036C187.183 131.645 187.817 131.645 188.207 132.036L193.586 137.414C194.367 138.195 195.633 138.195 196.414 137.414C197.195 136.633 197.195 135.367 196.414 134.586L191.036 129.207C190.645 128.817 190.645 128.183 191.036 127.793L196.414 122.414C197.195 121.633 197.195 120.367 196.414 119.586C195.633 118.805 194.367 118.805 193.586 119.586L188.207 124.964C187.817 125.355 187.183 125.355 186.793 124.964L181.414 119.586ZM220.414 119.586C219.633 118.805 218.367 118.805 217.586 119.586C216.805 120.367 216.805 121.633 217.586 122.414L222.964 127.793C223.355 128.183 223.355 128.817 222.964 129.207L217.586 134.586C216.805 135.367 216.805 136.633 217.586 137.414C218.367 138.195 219.633 138.195 220.414 137.414L225.793 132.036C226.183 131.645 226.817 131.645 227.207 132.036L232.586 137.414C233.367 138.195 234.633 138.195 235.414 137.414C236.195 136.633 236.195 135.367 235.414 134.586L230.036 129.207C229.645 128.817 229.645 128.183 230.036 127.793L235.414 122.414C236.195 121.633 236.195 120.367 235.414 119.586C234.633 118.805 233.367 118.805 232.586 119.586L227.207 124.964C226.817 125.355 226.183 125.355 225.793 124.964L220.414 119.586ZM187 149C185.895 149 185 149.895 185 151C185 152.105 185.895 153 187 153H227C228.105 153 229 152.105 229 151C229 149.895 228.105 149 227 149H187ZM147 202H267C269.209 202 271 203.791 271 206C271 208.209 269.209 210 267 210H147C144.791 210 143 208.209 143 206C143 203.791 144.791 202 147 202ZM267 214H147C144.791 214 143 215.791 143 218C143 220.209 144.791 222 147 222H267C269.209 222 271 220.209 271 218C271 215.791 269.209 214 267 214ZM147 182H267C269.209 182 271 183.791 271 186V194C271 196.209 269.209 198 267 198H147C144.791 198 143 196.209 143 194V186C143 183.791 144.791 182 147 182ZM257 232C258.657 232 260 230.657 260 229C260 227.343 258.657 226 257 226C255.343 226 254 227.343 254 229C254 230.657 255.343 232 257 232ZM271 229C271 231.209 269.209 233 267 233C264.791 233 263 231.209 263 229C263 226.791 264.791 225 267 225C269.209 225 271 226.791 271 229ZM243.5 317H160.5V314H243.5C244.328 314 245 314.672 245 315.5C245 316.328 244.328 317 243.5 317ZM162.5 312.5V309.5H243.5C244.328 309.5 245 310.172 245 311C245 311.828 244.328 312.5 243.5 312.5H162.5ZM243.5 308H158V305H243.5C244.328 305 245 305.672 245 306.5C245 307.328 244.328 308 243.5 308ZM207 299H243.5C244.328 299 245 298.328 245 297.5C245 296.672 244.328 296 243.5 296H207V299ZM199 291.5V294.5H243.5C244.328 294.5 245 293.828 245 293C245 292.172 244.328 291.5 243.5 291.5H199ZM201 290H243.5C244.328 290 245 289.328 245 288.5C245 287.672 244.328 287 243.5 287H201V290ZM243.5 281H204V278H243.5C244.328 278 245 278.672 245 279.5C245 280.328 244.328 281 243.5 281ZM200.5 276.5V273.5H243.5C244.328 273.5 245 274.172 245 275C245 275.828 244.328 276.5 243.5 276.5H200.5ZM243.5 272H212V269H243.5C244.328 269 245 269.672 245 270.5C245 271.328 244.328 272 243.5 272ZM179.5 263H243.5C244.328 263 245 262.328 245 261.5C245 260.672 244.328 260 243.5 260H179.5V263ZM195.5 255.5V258.5H243.5C244.328 258.5 245 257.828 245 257C245 256.172 244.328 255.5 243.5 255.5H195.5ZM188 254H243.5C244.328 254 245 253.328 245 252.5C245 251.672 244.328 251 243.5 251H188V254ZM267 249H147C144.791 249 143 250.791 143 253V261C143 263.209 144.791 265 147 265H267C269.209 265 271 263.209 271 261V253C271 250.791 269.209 249 267 249ZM252 252.5C252 253.328 251.328 254 250.5 254C249.672 254 249 253.328 249 252.5C249 251.672 249.672 251 250.5 251C251.328 251 252 251.672 252 252.5ZM252 261.5C252 262.328 251.328 263 250.5 263C249.672 263 249 262.328 249 261.5C249 260.672 249.672 260 250.5 260C251.328 260 252 260.672 252 261.5ZM256 252.5C256 253.328 255.328 254 254.5 254C253.672 254 253 253.328 253 252.5C253 251.672 253.672 251 254.5 251C255.328 251 256 251.672 256 252.5ZM256 257C256 257.828 255.328 258.5 254.5 258.5C253.672 258.5 253 257.828 253 257C253 256.172 253.672 255.5 254.5 255.5C255.328 255.5 256 256.172 256 257ZM256 261.5C256 262.328 255.328 263 254.5 263C253.672 263 253 262.328 253 261.5C253 260.672 253.672 260 254.5 260C255.328 260 256 260.672 256 261.5ZM260 252.5C260 253.328 259.328 254 258.5 254C257.672 254 257 253.328 257 252.5C257 251.672 257.672 251 258.5 251C259.328 251 260 251.672 260 252.5ZM260 257C260 257.828 259.328 258.5 258.5 258.5C257.672 258.5 257 257.828 257 257C257 256.172 257.672 255.5 258.5 255.5C259.328 255.5 260 256.172 260 257ZM264 257C264 257.828 263.328 258.5 262.5 258.5C261.672 258.5 261 257.828 261 257C261 256.172 261.672 255.5 262.5 255.5C263.328 255.5 264 256.172 264 257ZM264 261.5C264 262.328 263.328 263 262.5 263C261.672 263 261 262.328 261 261.5C261 260.672 261.672 260 262.5 260C263.328 260 264 260.672 264 261.5ZM268 252.5C268 253.328 267.328 254 266.5 254C265.672 254 265 253.328 265 252.5C265 251.672 265.672 251 266.5 251C267.328 251 268 251.672 268 252.5ZM268 257C268 257.828 267.328 258.5 266.5 258.5C265.672 258.5 265 257.828 265 257C265 256.172 265.672 255.5 266.5 255.5C267.328 255.5 268 256.172 268 257ZM268 261.5C268 262.328 267.328 263 266.5 263C265.672 263 265 262.328 265 261.5C265 260.672 265.672 260 266.5 260C267.328 260 268 260.672 268 261.5ZM147 267H267C269.209 267 271 268.791 271 271V279C271 281.209 269.209 283 267 283H147C144.791 283 143 281.209 143 279V271C143 268.791 144.791 267 147 267ZM250.5 272C251.328 272 252 271.328 252 270.5C252 269.672 251.328 269 250.5 269C249.672 269 249 269.672 249 270.5C249 271.328 249.672 272 250.5 272ZM250.5 276.5C251.328 276.5 252 275.828 252 275C252 274.172 251.328 273.5 250.5 273.5C249.672 273.5 249 274.172 249 275C249 275.828 249.672 276.5 250.5 276.5ZM250.5 281C251.328 281 252 280.328 252 279.5C252 278.672 251.328 278 250.5 278C249.672 278 249 278.672 249 279.5C249 280.328 249.672 281 250.5 281ZM254.5 272C255.328 272 256 271.328 256 270.5C256 269.672 255.328 269 254.5 269C253.672 269 253 269.672 253 270.5C253 271.328 253.672 272 254.5 272ZM254.5 281C255.328 281 256 280.328 256 279.5C256 278.672 255.328 278 254.5 278C253.672 278 253 278.672 253 279.5C253 280.328 253.672 281 254.5 281ZM258.5 276.5C259.328 276.5 260 275.828 260 275C260 274.172 259.328 273.5 258.5 273.5C257.672 273.5 257 274.172 257 275C257 275.828 257.672 276.5 258.5 276.5ZM258.5 281C259.328 281 260 280.328 260 279.5C260 278.672 259.328 278 258.5 278C257.672 278 257 278.672 257 279.5C257 280.328 257.672 281 258.5 281ZM262.5 272C263.328 272 264 271.328 264 270.5C264 269.672 263.328 269 262.5 269C261.672 269 261 269.672 261 270.5C261 271.328 261.672 272 262.5 272ZM262.5 276.5C263.328 276.5 264 275.828 264 275C264 274.172 263.328 273.5 262.5 273.5C261.672 273.5 261 274.172 261 275C261 275.828 261.672 276.5 262.5 276.5ZM266.5 272C267.328 272 268 271.328 268 270.5C268 269.672 267.328 269 266.5 269C265.672 269 265 269.672 265 270.5C265 271.328 265.672 272 266.5 272ZM266.5 276.5C267.328 276.5 268 275.828 268 275C268 274.172 267.328 273.5 266.5 273.5C265.672 273.5 265 274.172 265 275C265 275.828 265.672 276.5 266.5 276.5ZM266.5 281C267.328 281 268 280.328 268 279.5C268 278.672 267.328 278 266.5 278C265.672 278 265 278.672 265 279.5C265 280.328 265.672 281 266.5 281ZM267 285H147C144.791 285 143 286.791 143 289V297C143 299.209 144.791 301 147 301H267C269.209 301 271 299.209 271 297V289C271 286.791 269.209 285 267 285ZM252 288.5C252 289.328 251.328 290 250.5 290C249.672 290 249 289.328 249 288.5C249 287.672 249.672 287 250.5 287C251.328 287 252 287.672 252 288.5ZM252 297.5C252 298.328 251.328 299 250.5 299C249.672 299 249 298.328 249 297.5C249 296.672 249.672 296 250.5 296C251.328 296 252 296.672 252 297.5ZM256 288.5C256 289.328 255.328 290 254.5 290C253.672 290 253 289.328 253 288.5C253 287.672 253.672 287 254.5 287C255.328 287 256 287.672 256 288.5ZM256 293C256 293.828 255.328 294.5 254.5 294.5C253.672 294.5 253 293.828 253 293C253 292.172 253.672 291.5 254.5 291.5C255.328 291.5 256 292.172 256 293ZM256 297.5C256 298.328 255.328 299 254.5 299C253.672 299 253 298.328 253 297.5C253 296.672 253.672 296 254.5 296C255.328 296 256 296.672 256 297.5ZM260 288.5C260 289.328 259.328 290 258.5 290C257.672 290 257 289.328 257 288.5C257 287.672 257.672 287 258.5 287C259.328 287 260 287.672 260 288.5ZM260 297.5C260 298.328 259.328 299 258.5 299C257.672 299 257 298.328 257 297.5C257 296.672 257.672 296 258.5 296C259.328 296 260 296.672 260 297.5ZM264 288.5C264 289.328 263.328 290 262.5 290C261.672 290 261 289.328 261 288.5C261 287.672 261.672 287 262.5 287C263.328 287 264 287.672 264 288.5ZM264 293C264 293.828 263.328 294.5 262.5 294.5C261.672 294.5 261 293.828 261 293C261 292.172 261.672 291.5 262.5 291.5C263.328 291.5 264 292.172 264 293ZM268 288.5C268 289.328 267.328 290 266.5 290C265.672 290 265 289.328 265 288.5C265 287.672 265.672 287 266.5 287C267.328 287 268 287.672 268 288.5ZM268 293C268 293.828 267.328 294.5 266.5 294.5C265.672 294.5 265 293.828 265 293C265 292.172 265.672 291.5 266.5 291.5C267.328 291.5 268 292.172 268 293ZM268 297.5C268 298.328 267.328 299 266.5 299C265.672 299 265 298.328 265 297.5C265 296.672 265.672 296 266.5 296C267.328 296 268 296.672 268 297.5ZM147 303H267C269.209 303 271 304.791 271 307V315C271 317.209 269.209 319 267 319H147C144.791 319 143 317.209 143 315V307C143 304.791 144.791 303 147 303ZM250.5 308C251.328 308 252 307.328 252 306.5C252 305.672 251.328 305 250.5 305C249.672 305 249 305.672 249 306.5C249 307.328 249.672 308 250.5 308ZM250.5 312.5C251.328 312.5 252 311.828 252 311C252 310.172 251.328 309.5 250.5 309.5C249.672 309.5 249 310.172 249 311C249 311.828 249.672 312.5 250.5 312.5ZM254.5 308C255.328 308 256 307.328 256 306.5C256 305.672 255.328 305 254.5 305C253.672 305 253 305.672 253 306.5C253 307.328 253.672 308 254.5 308ZM254.5 317C255.328 317 256 316.328 256 315.5C256 314.672 255.328 314 254.5 314C253.672 314 253 314.672 253 315.5C253 316.328 253.672 317 254.5 317ZM258.5 312.5C259.328 312.5 260 311.828 260 311C260 310.172 259.328 309.5 258.5 309.5C257.672 309.5 257 310.172 257 311C257 311.828 257.672 312.5 258.5 312.5ZM258.5 317C259.328 317 260 316.328 260 315.5C260 314.672 259.328 314 258.5 314C257.672 314 257 314.672 257 315.5C257 316.328 257.672 317 258.5 317ZM262.5 308C263.328 308 264 307.328 264 306.5C264 305.672 263.328 305 262.5 305C261.672 305 261 305.672 261 306.5C261 307.328 261.672 308 262.5 308ZM262.5 317C263.328 317 264 316.328 264 315.5C264 314.672 263.328 314 262.5 314C261.672 314 261 314.672 261 315.5C261 316.328 261.672 317 262.5 317ZM266.5 308C267.328 308 268 307.328 268 306.5C268 305.672 267.328 305 266.5 305C265.672 305 265 305.672 265 306.5C265 307.328 265.672 308 266.5 308ZM266.5 312.5C267.328 312.5 268 311.828 268 311C268 310.172 267.328 309.5 266.5 309.5C265.672 309.5 265 310.172 265 311C265 311.828 265.672 312.5 266.5 312.5ZM266.5 317C267.328 317 268 316.328 268 315.5C268 314.672 267.328 314 266.5 314C265.672 314 265 314.672 265 315.5C265 316.328 265.672 317 266.5 317Z" fill="#B896C9"/>
<path fill-rule="evenodd" clip-rule="evenodd" d="M144.5 77L80.501 80.5312C76.2847 80.7947 73 84.2911 73 88.5156V319C73 323.418 76.5817 327 81 327H144.984C140.573 326.991 137 323.413 137 319V84.8586C137.064 80.6907 140.326 77.2609 144.5 77ZM85 222H124C126.209 222 128 223.791 128 226V254C128 256.209 126.209 258 124 258H85C82.7909 258 81 256.209 81 254V226C81 223.791 82.7909 222 85 222ZM84 226C84.5523 226 85 225.552 85 225C85 224.448 84.5523 224 84 224C83.4477 224 83 224.448 83 225C83 225.552 83.4477 226 84 226ZM125 226C125.552 226 126 225.552 126 225C126 224.448 125.552 224 125 224C124.448 224 124 224.448 124 225C124 225.552 124.448 226 125 226ZM125 256C125.552 256 126 255.552 126 255C126 254.448 125.552 254 125 254C124.448 254 124 254.448 124 255C124 255.552 124.448 256 125 256ZM84 256C84.5523 256 85 255.552 85 255C85 254.448 84.5523 254 84 254C83.4477 254 83 254.448 83 255C83 255.552 83.4477 256 84 256ZM105 297C106.657 297 108 295.433 108 293.5C108 291.567 106.657 290 105 290C103.343 290 102 291.567 102 293.5C102 295.433 103.343 297 105 297Z" fill="#A27EB4"/>
<path d="M269.5 70C269 67.5 268.4 66.6 270 61C272 54 278.5 55 280.5 49.5C282.1 45.1 281.5 42.6667 280.5 41" stroke="#B896C9" stroke-width="4" stroke-linecap="round"/>
<path d="M285.5 78.5C286 76.5 285.727 74.9374 288.971 72.5171C293.026 69.4918 296.801 72.9943 300.262 70.8112C303.031 69.0647 303.609 67.4269 303.627 66.0386" stroke="#B896C9" stroke-width="4" stroke-linecap="round"/>
<path d="M104.133 291.504C101.373 291.32 96.9311 291.679 92.2732 293.284C87.5982 294.896 82.5919 297.805 78.8916 302.811C77.3156 304.943 75.9488 306.939 74.721 308.732C74.2752 309.383 73.8477 310.007 73.4352 310.602C71.862 312.868 70.5063 314.699 69.0719 316.162C67.6614 317.601 66.1977 318.658 64.4255 319.371C62.6415 320.089 60.4387 320.5 57.5 320.5H57L55.5 322L57 323.5L55.5 324.5H57.5C60.8113 324.5 63.546 324.036 65.9183 323.082C68.3023 322.123 70.2136 320.711 71.9281 318.963C73.6187 317.238 75.138 315.163 76.7211 312.883C77.1587 312.252 77.6016 311.606 78.0567 310.941C79.2737 309.164 80.5787 307.258 82.1084 305.189C85.2081 300.995 89.4518 298.488 93.5768 297.066C97.7189 295.638 101.627 295.346 103.867 295.496C104.969 295.569 105.922 294.735 105.996 293.633C106.069 292.531 105.235 291.578 104.133 291.504Z" fill="#555555"/>
<path d="M18 319H22C22.9319 319 23.715 319.637 23.937 320.5H50.5L49 322L50.5 323.5L49 324.5H23.937C23.715 325.363 22.9319 326 22 326H18C17.4477 326 17 325.552 17 325H13.5C13.2239 325 13 324.776 13 324.5C13 324.224 13.2239 324 13.5 324H17V321H13.5C13.2239 321 13 320.776 13 320.5C13 320.224 13.2239 320 13.5 320H17C17 319.448 17.4477 319 18 319Z" fill="#555555"/>
</svg>
