<svg width="32" height="32" viewBox="0 0 32 32" fill="none" xmlns="http://www.w3.org/2000/svg">
<path fill-rule="evenodd" clip-rule="evenodd" d="M13 3C18.5228 3 23 7.47715 23 13C23 15.4013 22.1536 17.6049 20.7429 19.3287L27.7071 26.2929C28.0976 26.6834 28.0976 27.3166 27.7071 27.7071C27.3166 28.0976 26.6834 28.0976 26.2929 27.7071L19.3287 20.7429C17.6049 22.1536 15.4013 23 13 23C7.47715 23 3 18.5228 3 13C3 7.47715 7.47715 3 13 3ZM13 21C17.4183 21 21 17.4183 21 13C21 8.58172 17.4183 5 13 5C8.58172 5 5 8.58172 5 13C5 17.4183 8.58172 21 13 21Z" fill="#333333"/>
</svg>
