<svg width="32" height="32" viewBox="0 0 32 32" xmlns="http://www.w3.org/2000/svg">
<path d="M27.4368 16.856C28.857 16.856 29.5385 15.1599 28.4949 14.2226L16.6682 3.60017C16.2881 3.2588 15.7119 3.2588 15.3318 3.60017L3.50505 14.2226C2.46151 15.1599 3.14306 16.856 4.56323 16.856H5.07934V27.1784C5.07934 28.1844 5.91752 29 6.95146 29H10.0716C11.1056 29 11.9438 28.1844 11.9438 27.1784V22.0172C11.9438 21.1788 12.6422 20.4992 13.5039 20.4992H18.4962C19.3578 20.4992 20.0562 21.1788 20.0562 22.0172V27.1784C20.0562 28.1844 20.8944 29 21.9284 29H25.0485C26.0825 29 26.9207 28.1844 26.9207 27.1784V16.856H27.4368Z" />
</svg>
