<svg width="350" height="350" viewBox="0 0 350 350" xmlns="http://www.w3.org/2000/svg">
<path d="M53.1084 152.286C43.2913 148.094 22.3107 135.517 16.9253 118.749C10.1936 97.7886 22.8156 74.3128 28.7059 66.7671C34.5962 59.2213 44.6938 47.4834 59.8402 39.9377C74.9866 32.3919 92.6574 26.523 104.438 25.6846C116.218 24.8461 128.841 24.0077 146.511 28.1998C164.182 32.3919 175.121 40.7761 181.853 46.6451C188.585 52.514 204.117 68.2989 211.903 85.3661C220.318 103.811 221.402 120.426 221.402 128.81C221.402 137.194 218.878 154.801 213.829 167.377C208.78 179.954 204.573 186.661 198.682 194.207C192.792 201.752 182.694 216.006 180.17 222.713C183.536 216.006 194.674 198.8 213.829 185.823C234.865 171.569 243.28 174.085 257.585 162.347C257.585 155.36 256.07 138.703 250.012 127.972C255.061 126.015 268.019 123.612 279.463 129.648C284.231 132.164 290.907 136.02 292.927 141.386C298.817 140.827 313.29 141.889 324.061 150.609C328.268 154.015 333.317 160.67 335 169.054C333.878 174.644 329.951 185.823 319.854 191.691C306.871 199.237 297.134 200.076 285.353 199.237C287.317 201.752 293.263 207.286 301.341 209.298C304.034 209.969 310.317 210.137 313.122 210.137C316.207 207.621 323.724 203.429 329.11 206.783C335.98 211.061 333.317 218.521 330.793 221.036C326.076 225.736 322.378 227.743 310.597 231.936C302.183 235.289 298.817 238.643 289.561 243.673C286.475 245.35 278.117 248.704 269.366 248.704C258.426 248.704 250.853 246.189 237.39 240.32C241.878 238.084 252.873 233.445 260.951 232.774C271.048 231.936 278.622 233.612 284.512 237.804C280.843 239.055 278.808 239.601 275.256 240.32C272.451 239.481 264.99 238.308 257.585 240.32C260.67 241.438 268.861 243.17 276.939 241.158C287.036 238.643 287.036 237.804 293.768 233.612C300.5 229.42 310.597 224.39 318.171 221.875C325.744 219.359 327.427 213.49 326.585 212.652C325.744 211.813 323.219 210.975 315.646 216.844C309.756 217.403 295.956 216.844 287.878 210.137C279.8 203.429 273.292 192.25 271.048 187.499C275.817 189.735 287.036 194.039 293.768 193.368C302.183 192.53 312.28 189.176 316.488 185.823C320.695 182.469 326.585 176.6 328.268 169.893C327.146 165.421 322.883 155.639 314.805 152.286C304.707 148.094 303.024 148.094 289.561 148.094C288.439 145.578 284.849 139.877 279.463 137.194C272.731 133.841 267.683 132.164 259.268 133.002C261.231 138.592 264.99 152.789 264.317 164.862C261.231 168.216 252.873 175.426 244.122 177.438C233.182 182.469 232.341 182.469 220.56 189.176C208.78 195.884 189.426 214.329 180.17 236.128C172.765 253.567 168.67 284.756 167.548 298.171C165.304 281.123 163.004 242.332 171.755 223.551C182.694 200.076 191.951 195.045 200.365 179.115C208.78 163.185 210.463 158.993 212.987 145.578C215.512 132.164 217.195 107.85 203.731 83.5355C197.837 72.8913 179.329 48.3219 161.658 40.7761C153.524 36.8635 132.038 29.5413 111.17 31.5535C85.0842 34.0688 70.7793 41.6145 65.7305 44.1298C60.6817 46.6451 44.6938 55.8677 35.4376 68.4439C26.1815 81.0202 21.9742 95.2733 21.9742 105.334C21.9742 115.395 25.34 132.164 43.0108 142.225C40.7669 137.474 37.6254 125.456 43.0108 115.395C49.7426 102.819 56.4743 97.7886 65.7305 96.1117C74.9866 94.4349 91.8159 96.1117 101.914 107.85C112.011 119.587 109.487 136.356 106.121 149.771C102.755 163.185 84.2427 181.63 84.2427 210.137C84.2427 238.643 86.7671 264.634 101.072 285.594C115.377 306.555 131.365 318.293 148.194 318.293H285.353C288.439 317.734 294.61 315.442 294.61 310.747C294.61 304.878 291.244 301.524 281.988 301.524C274.583 301.524 247.487 305.996 234.865 308.232C244.122 301.524 263.644 287.103 267.683 283.079C272.731 278.049 281.146 269.664 283.67 264.634C286.195 259.603 287.635 254.727 284.27 247.181C286.751 246.329 288.096 245.817 290.16 244.666C291.001 246.063 292.927 250.884 292.927 256.25C292.927 262.957 289.561 268.826 283.67 276.372C278.958 282.408 264.878 293.42 258.426 298.171C265.439 296.494 281.314 293.643 288.719 295.655C297.975 298.171 300.5 303.201 301.341 309.908C302.183 316.616 294.61 322.485 287.878 324.162C285.634 324.441 280.473 325 277.78 325H148.194C140.621 325 125.138 322.82 106.962 304.04C100.511 297.612 86.4306 279.055 81.7183 256.25C75.8281 227.743 77.511 208.46 79.1939 197.56C80.8769 186.661 89.2915 166.539 94.3403 158.993C99.3891 151.447 101.072 138.871 101.914 132.164C102.755 125.456 103.596 118.749 94.3403 110.365C85.0842 101.981 77.511 101.981 74.1451 101.981C70.7793 101.981 63.2061 101.981 57.3158 107.011C51.4255 112.042 48.0596 119.587 47.2182 123.78C46.3767 127.972 46.3767 130.487 47.2182 135.517C47.8913 139.542 51.4255 148.373 53.1084 152.286Z" />
</svg>
