<svg width="1200" height="260" viewBox="0 0 1200 260" fill="none" xmlns="http://www.w3.org/2000/svg">
<rect width="1200" height="260" fill="white"/>
<path d="M504.208 153.649V103.237H523.959C531.097 103.237 535.948 104.749 538.512 107.773C540.799 110.316 541.943 113.237 541.943 116.536C541.943 120.522 540.695 123.478 538.201 125.402C537.369 126.021 536.122 126.708 534.458 127.464C537.646 128.151 540.141 129.56 541.943 131.691C543.814 133.821 544.75 136.467 544.75 139.629C544.75 143.615 543.294 146.948 540.384 149.629C537.542 152.309 532.899 153.649 526.454 153.649H504.208ZM512.836 124.165H523.647C529.884 124.165 533.003 122.069 533.003 117.876C533.003 115.471 532.241 113.753 530.716 112.722C529.261 111.622 526.939 111.072 523.751 111.072H512.836V124.165ZM512.836 145.814H526.246C529.573 145.814 532.033 145.299 533.627 144.268C535.221 143.168 536.018 141.313 536.018 138.701C536.018 134.234 532.414 132 525.207 132H512.836V145.814Z" fill="#B896C9"/>
<path d="M555.511 153.649V103.237H564.139V145.608H587.32V153.649H555.511Z" fill="#B896C9"/>
<path d="M620.165 109.732C615.106 109.732 610.844 111.519 607.379 115.093C603.914 118.667 602.181 122.997 602.181 128.082C602.181 133.168 603.914 137.498 607.379 141.072C610.844 144.577 615.106 146.33 620.165 146.33C625.224 146.33 629.486 144.577 632.951 141.072C636.416 137.498 638.148 133.168 638.148 128.082C638.148 122.997 636.416 118.667 632.951 115.093C629.486 111.519 625.224 109.732 620.165 109.732ZM620.165 154.165C612.542 154.165 606.166 151.691 601.038 146.742C595.909 141.725 593.345 135.505 593.345 128.082C593.345 120.66 595.909 114.474 601.038 109.526C606.166 104.509 612.542 102 620.165 102C627.788 102 634.164 104.509 639.292 109.526C644.42 114.474 646.984 120.66 646.984 128.082C646.984 135.505 644.386 141.691 639.188 146.639C633.99 151.656 627.649 154.165 620.165 154.165Z" fill="#B896C9"/>
<path d="M693.061 129.113H701.585V146.33C696.804 151.622 689.943 154.268 681.003 154.268C673.449 154.268 667.143 151.794 662.084 146.845C657.025 141.897 654.495 135.711 654.495 128.289C654.495 120.866 657.059 114.646 662.188 109.629C667.385 104.543 673.657 102 681.003 102C688.349 102 694.447 104.096 699.298 108.289L694.724 114.784C691.19 111.828 686.859 110.351 681.731 110.351C676.533 110.351 672.167 112.034 668.633 115.402C665.167 118.701 663.435 122.997 663.435 128.289C663.435 133.581 665.098 137.876 668.425 141.175C671.82 144.406 676.013 146.021 681.003 146.021C685.854 146.021 689.873 144.99 693.061 142.928V129.113Z" fill="#B896C9"/>
<path fill-rule="evenodd" clip-rule="evenodd" d="M499.167 98.2371V152.649H523.429C530.071 152.649 535.345 151.283 538.74 148.086C542.061 145.024 543.741 141.16 543.741 136.629C543.741 133.053 542.672 129.927 540.451 127.391C539.286 126.018 537.89 124.917 536.285 124.076C536.319 124.051 536.352 124.027 536.386 124.002L536.4 123.992L536.414 123.981C539.53 121.577 540.935 117.956 540.935 113.536C540.935 109.738 539.604 106.355 537.012 103.463C533.846 99.7507 528.21 98.2371 520.934 98.2371C520.377 98.2371 519.926 98.6848 519.926 99.2371C519.926 99.7894 520.377 100.237 520.934 100.237C528.072 100.237 532.923 101.749 535.487 104.773C537.774 107.316 538.918 110.237 538.918 113.536C538.918 117.522 537.67 120.478 535.176 122.402C534.865 122.633 534.497 122.873 534.07 123.124C533.355 123.543 532.476 123.99 531.433 124.464C532.435 124.68 533.368 124.967 534.233 125.326C536.121 126.108 537.682 127.23 538.918 128.691C540.789 130.821 541.725 133.467 541.725 136.629C541.725 140.615 540.269 143.948 537.359 146.629C534.517 149.309 529.874 150.649 523.429 150.649H501.183V100.237H516.802C517.359 100.237 517.81 99.7894 517.81 99.2371C517.81 98.6848 517.359 98.2371 516.802 98.2371H499.167ZM526.469 111.313L526.511 111.344L526.555 111.374C527.361 111.919 527.961 112.901 527.961 114.876C527.961 116.404 527.439 117.311 526.508 117.937C525.437 118.657 523.576 119.165 520.622 119.165H511.828V115.65C511.828 115.097 511.377 114.65 510.82 114.65C510.263 114.65 509.811 115.097 509.811 115.65V121.165H520.622C526.859 121.165 529.978 119.069 529.978 114.876C529.978 112.471 529.216 110.753 527.691 109.722C526.236 108.622 523.914 108.072 520.726 108.072H509.811V111.65C509.811 112.202 510.263 112.65 510.82 112.65C511.377 112.65 511.828 112.202 511.828 111.65V110.072H520.726C523.766 110.072 525.542 110.613 526.469 111.313ZM550.47 98.2371V152.649H565.202C565.759 152.649 566.21 152.202 566.21 151.649C566.21 151.097 565.759 150.649 565.202 150.649H552.486V100.237H561.114V105.65C561.114 106.202 561.566 106.65 562.123 106.65C562.679 106.65 563.131 106.202 563.131 105.65V98.2371H550.47ZM563.131 109.65C563.131 109.097 562.679 108.65 562.123 108.65C561.566 108.65 561.114 109.097 561.114 109.65V142.608H584.295V150.649H569.235C568.679 150.649 568.227 151.097 568.227 151.649C568.227 152.202 568.679 152.649 569.235 152.649H586.312V140.608H563.131V109.65ZM596.596 145.166L596.606 145.176C602.137 150.513 609.029 153.165 617.14 153.165C625.128 153.165 631.978 150.468 637.564 145.078C643.172 139.737 645.976 133.024 645.976 125.082C645.976 117.15 643.213 110.44 637.678 105.096C632.972 100.495 627.277 97.8606 620.68 97.1787C620.123 97.1787 619.672 97.6293 619.672 98.1815C619.672 98.7262 620.116 99.1233 620.657 99.1876C626.745 99.8547 631.948 102.301 636.267 106.526C641.395 111.474 643.959 117.66 643.959 125.082C643.959 132.505 641.361 138.691 636.163 143.639C630.965 148.656 624.624 151.165 617.14 151.165C609.517 151.165 603.141 148.691 598.013 143.742C592.884 138.725 590.32 132.505 590.32 125.082C590.32 117.66 592.884 111.474 598.013 106.526C603.141 101.509 609.517 99 617.14 99C617.697 99 618.148 98.5523 618.148 98C618.148 97.4477 617.697 97 617.14 97C609.023 97 602.129 99.691 596.601 105.098C591.066 110.441 588.304 117.15 588.304 125.082C588.304 133.017 591.068 139.757 596.596 145.166ZM700.577 124.113H695.954C695.397 124.113 694.946 124.561 694.946 125.113C694.946 125.666 695.397 126.113 695.954 126.113H698.56V143.33C693.779 148.622 686.918 151.268 677.978 151.268C670.424 151.268 664.118 148.794 659.059 143.845C654 138.897 651.47 132.711 651.47 125.289C651.47 117.866 654.034 111.646 659.163 106.629C664.36 101.543 670.632 99 677.978 99C685.324 99 691.422 101.096 696.273 105.289L691.7 111.784C691.18 111.349 690.644 110.947 690.09 110.576C686.875 108.426 683.08 107.351 678.706 107.351C673.508 107.351 669.142 109.034 665.608 112.402C663.059 114.828 661.448 117.794 660.774 121.298C660.769 121.322 660.765 121.345 660.76 121.369C660.755 121.417 660.756 121.466 660.757 121.516C660.757 121.535 660.757 121.554 660.757 121.573C660.757 122.125 661.209 122.573 661.766 122.573C662.194 122.573 662.56 122.307 662.706 121.933C663.278 118.685 664.724 116.016 667.005 113.844C670.139 110.858 673.994 109.351 678.706 109.351C683.414 109.351 687.269 110.695 690.4 113.313L692.088 114.725L698.964 104.961L697.598 103.781C692.328 99.2262 685.737 97 677.978 97C670.105 97 663.324 99.7475 657.746 105.205C652.217 110.614 649.453 117.354 649.453 125.289C649.453 133.215 652.177 139.923 657.643 145.269C663.104 150.612 669.931 153.268 677.978 153.268C687.338 153.268 694.807 150.481 700.062 144.665L700.577 144.095V124.113ZM662.427 125.289C662.427 124.736 661.975 124.289 661.418 124.289C660.861 124.289 660.41 124.736 660.41 125.289C660.41 130.581 662.073 134.876 665.4 138.175C668.795 141.406 672.988 143.021 677.978 143.021C682.829 143.021 686.848 141.99 690.036 139.928V126.113H692.088C692.645 126.113 693.096 125.666 693.096 125.113C693.096 124.561 692.645 124.113 692.088 124.113H688.02V138.798C685.376 140.246 682.059 141.021 677.978 141.021C673.482 141.021 669.804 139.587 666.811 136.746C663.924 133.876 662.427 130.12 662.427 125.289ZM519.323 140.814H511.828V131H522.182C525.64 131 527.892 131.548 529.221 132.371C530.392 133.097 530.976 134.107 530.976 135.701C530.976 137.892 530.333 139.005 529.474 139.609C528.367 140.314 526.389 140.814 523.221 140.814C522.664 140.814 522.213 141.262 522.213 141.814C522.213 142.367 522.664 142.814 523.221 142.814C526.548 142.814 529.008 142.299 530.602 141.268C532.196 140.168 532.993 138.313 532.993 135.701C532.993 131.234 529.389 129 522.182 129H509.811V142.814H519.323C519.88 142.814 520.331 142.367 520.331 141.814C520.331 141.262 519.88 140.814 519.323 140.814ZM605.807 113.479C608.887 110.303 612.622 108.732 617.14 108.732C621.658 108.732 625.392 110.303 628.472 113.479C630.835 115.916 632.292 118.724 632.848 121.957C632.945 122.41 633.364 122.746 633.849 122.746C634.406 122.746 634.851 122.262 634.851 121.71C634.24 118.055 632.598 114.849 629.926 112.093C626.461 108.519 622.199 106.732 617.14 106.732C612.081 106.732 607.819 108.519 604.354 112.093C600.889 115.667 599.156 119.997 599.156 125.082C599.156 130.168 600.889 134.498 604.354 138.072C607.819 141.577 612.081 143.33 617.14 143.33C622.199 143.33 626.461 141.577 629.926 138.072C633.391 134.498 635.123 130.168 635.123 125.082C635.123 124.53 634.672 124.082 634.115 124.082C633.558 124.082 633.107 124.53 633.107 125.082C633.107 129.663 631.568 133.49 628.479 136.679C625.404 139.786 621.667 141.33 617.14 141.33C612.612 141.33 608.876 139.786 605.801 136.679C602.712 133.49 601.173 129.663 601.173 125.082C601.173 120.499 602.714 116.67 605.807 113.479Z" fill="black"/>
<path fill-rule="evenodd" clip-rule="evenodd" d="M473.458 59.9892C473.458 57.5047 475.493 55.5 477.992 55.5H722.008C724.507 55.5 726.542 57.5047 726.542 59.9892V193.626C726.542 196.11 724.507 198.115 722.008 198.115H608.621L612.551 236.009H661.679L660.315 240.5H540.59L539.226 236.009H587.449L591.379 198.115H477.992C475.493 198.115 473.458 196.11 473.458 193.626V59.9892ZM592.384 198.115L588.455 236.009H599.5V198.115H592.384ZM600.5 198.115V236.009H611.545L607.616 198.115H600.5ZM540.575 237.009L541.332 239.5H659.573L660.33 237.009H540.575ZM477.992 56.5C476.035 56.5 474.458 58.0673 474.458 59.9892V193.626C474.458 195.548 476.035 197.115 477.992 197.115H722.008C723.965 197.115 725.542 195.548 725.542 193.626V59.9892C725.542 58.0673 723.965 56.5 722.008 56.5H477.992ZM477.309 59.3061C477.932 58.69 478.86 58.4919 480.008 58.4919H719.992C721.14 58.4919 722.068 58.69 722.691 59.3061C723.316 59.9237 723.517 60.8451 723.517 61.9837V185.648C723.517 186.796 723.311 187.906 722.756 188.744C722.181 189.615 721.263 190.137 719.992 190.137H480.008C478.737 190.137 477.819 189.615 477.244 188.744C476.689 187.906 476.483 186.796 476.483 185.648V61.9837C476.483 60.8451 476.684 59.9237 477.309 59.3061ZM478.012 60.0171C477.681 60.3447 477.483 60.9192 477.483 61.9837V185.648C477.483 186.703 477.677 187.587 478.077 188.192C478.457 188.766 479.052 189.137 480.008 189.137H719.992C720.948 189.137 721.543 188.766 721.923 188.192C722.323 187.587 722.517 186.703 722.517 185.648V61.9837C722.517 60.9193 722.319 60.3447 721.988 60.0171C721.655 59.6881 721.07 59.4919 719.992 59.4919H480.008C478.93 59.4919 478.345 59.6881 478.012 60.0171Z" fill="black"/>
<path fill-rule="evenodd" clip-rule="evenodd" d="M826.049 42.2773C823.992 40.0413 820.513 39.8954 818.277 41.9514C817.641 42.5368 817.174 43.2365 816.879 43.9896C816.136 45.887 816.481 48.1233 817.951 49.7228L883.073 120.545C885.129 122.781 888.608 122.927 890.844 120.871C893.08 118.815 893.226 115.336 891.17 113.1L826.049 42.2773ZM817.6 41.2153C820.243 38.7855 824.355 38.9579 826.785 41.6004L890.499 110.893C893.275 112.08 895.171 114.887 895.046 118.085L891.486 208.896L902.315 231.5H927C930.038 231.5 932.5 233.962 932.5 237V240.5H832.5V237C832.5 233.962 834.962 231.5 838 231.5H865.191L876.475 208.873L880.01 118.692L822.448 56.0905L821.284 57.9804C831.69 67.6697 834.211 83.6002 826.509 96.1013L826.247 96.527L808.262 85.4467C805.456 89.5026 799.915 90.6795 795.646 88.0496C791.378 85.4197 789.937 79.9413 792.297 75.6112L774.312 64.5309L774.574 64.1052C782.276 51.6042 797.638 46.6916 810.972 51.6278L815.657 44.0241C815.756 43.8627 815.862 43.7075 815.974 43.5587C816.325 42.6925 816.868 41.8887 817.6 41.2153ZM815.502 46.1813L811.92 51.9966C813.463 52.6271 814.975 53.3922 816.441 54.2954C817.908 55.1986 819.271 56.2052 820.528 57.3001L821.745 55.3257L817.215 50.3996C816.111 49.1982 815.544 47.6934 815.502 46.1813ZM793.15 76.1366C791.081 79.9911 792.368 84.8553 796.171 87.1982C799.974 89.5412 804.897 88.5029 807.409 84.9214L793.15 76.1366ZM880.97 119.736L877.296 213.463C877.155 217.05 879.949 220.072 883.536 220.212C887.123 220.353 890.145 217.559 890.286 213.972L894.046 118.046C894.094 116.83 893.804 115.678 893.261 114.682C894.087 117.056 893.489 119.798 891.521 121.607C888.879 124.037 884.767 123.865 882.337 121.222L880.97 119.736ZM876.38 211.305L866.308 231.5H901.206L891.402 211.035L891.285 214.011C891.123 218.15 887.636 221.374 883.497 221.212C879.358 221.049 876.134 217.562 876.297 213.424L876.38 211.305ZM822 43.5C820.619 43.5 819.5 44.6193 819.5 46C819.5 47.3807 820.619 48.5 822 48.5C823.381 48.5 824.5 47.3807 824.5 46C824.5 44.6193 823.381 43.5 822 43.5ZM818.5 46C818.5 44.067 820.067 42.5 822 42.5C823.933 42.5 825.5 44.067 825.5 46C825.5 47.933 823.933 49.5 822 49.5C820.067 49.5 818.5 47.933 818.5 46ZM775.692 64.2063L825.917 95.1489C833.114 83.0128 830.501 67.6765 820.306 58.44C818.971 57.2309 817.507 56.1262 815.917 55.1468C814.327 54.1673 812.682 53.356 811.002 52.7079C798.167 47.7565 783.294 52.3193 775.692 64.2063ZM887.205 114C885.825 114 884.705 115.119 884.705 116.5C884.705 117.881 885.825 119 887.205 119C888.586 119 889.705 117.881 889.705 116.5C889.705 115.119 888.586 114 887.205 114ZM883.705 116.5C883.705 114.567 885.272 113 887.205 113C889.138 113 890.705 114.567 890.705 116.5C890.705 118.433 889.138 120 887.205 120C885.272 120 883.705 118.433 883.705 116.5ZM884 211.5C882.619 211.5 881.5 212.619 881.5 214C881.5 215.381 882.619 216.5 884 216.5C885.381 216.5 886.5 215.381 886.5 214C886.5 212.619 885.381 211.5 884 211.5ZM880.5 214C880.5 212.067 882.067 210.5 884 210.5C885.933 210.5 887.5 212.067 887.5 214C887.5 215.933 885.933 217.5 884 217.5C882.067 217.5 880.5 215.933 880.5 214ZM838 232.5C835.515 232.5 833.5 234.515 833.5 237V239.5H931.5V237C931.5 234.515 929.485 232.5 927 232.5H838Z" fill="black"/>
<path fill-rule="evenodd" clip-rule="evenodd" d="M303.89 43.2796C303.906 43.8317 303.471 44.2921 302.919 44.308C301.643 44.3447 300.41 44.438 299.218 44.583C298.67 44.6497 298.172 44.2593 298.105 43.7111C298.038 43.1628 298.429 42.6643 298.977 42.5976C300.231 42.4451 301.525 42.3473 302.862 42.3088C303.414 42.2929 303.874 42.7276 303.89 43.2796ZM305.694 43.3057C305.724 42.7543 306.195 42.3315 306.746 42.3615C307.383 42.3961 308.029 42.4436 308.684 42.5042C309.234 42.5551 309.638 43.0422 309.587 43.5921C309.536 44.142 309.049 44.5466 308.499 44.4957C307.869 44.4373 307.249 44.3918 306.638 44.3586C306.086 44.3286 305.664 43.8572 305.694 43.3057ZM160.356 44.4999C159.679 44.4927 159.011 44.4944 158.354 44.5046C157.802 44.5131 157.347 44.0724 157.339 43.5202C157.33 42.968 157.771 42.5134 158.323 42.5048C158.998 42.4944 159.683 42.4927 160.377 42.5C161.059 42.5072 161.732 42.5214 162.394 42.5423C162.946 42.5598 163.379 43.0215 163.362 43.5735C163.344 44.1255 162.883 44.5588 162.331 44.5413C161.683 44.5208 161.025 44.5069 160.356 44.4999ZM155.356 43.6042C155.396 44.1551 154.981 44.6336 154.43 44.673C153.085 44.7691 151.785 44.9032 150.528 45.0725C149.981 45.1462 149.478 44.7623 149.404 44.215C149.33 43.6676 149.714 43.1641 150.261 43.0904C151.561 42.9154 152.902 42.7771 154.287 42.678C154.838 42.6387 155.317 43.0533 155.356 43.6042ZM165.277 43.6759C165.32 43.1252 165.801 42.7133 166.351 42.7558C167.712 42.8609 169.027 42.9965 170.301 43.1607C170.848 43.2314 171.235 43.7327 171.164 44.2805C171.094 44.8282 170.592 45.215 170.045 45.1443C168.806 44.9845 167.525 44.8524 166.197 44.7499C165.647 44.7074 165.235 44.2265 165.277 43.6759ZM296.325 44.016C296.446 44.555 296.107 45.0897 295.568 45.2105C294.338 45.4861 293.151 45.8191 292.004 46.2031C291.48 46.3784 290.914 46.096 290.738 45.5723C290.563 45.0486 290.845 44.4819 291.369 44.3066C292.58 43.9011 293.833 43.5497 295.131 43.2588C295.67 43.1381 296.205 43.4771 296.325 44.016ZM147.446 44.546C147.557 45.0869 147.209 45.6158 146.668 45.7274C145.354 45.9983 144.091 46.3102 142.874 46.6591C142.343 46.8114 141.79 46.5045 141.637 45.9736C141.485 45.4428 141.792 44.8889 142.323 44.7367C143.589 44.3736 144.901 44.0496 146.264 43.7686C146.805 43.657 147.334 44.0051 147.446 44.546ZM173.062 44.5789C173.164 44.0361 173.687 43.6789 174.23 43.781C175.576 44.0342 176.871 44.3217 178.118 44.6405C178.653 44.7772 178.976 45.3219 178.839 45.8569C178.703 46.392 178.158 46.7149 177.623 46.5782C176.418 46.2702 175.165 45.992 173.86 45.7465C173.317 45.6444 172.96 45.1216 173.062 44.5789ZM289.058 46.2323C289.286 46.7357 289.062 47.3279 288.558 47.5552C287.421 48.0688 286.321 48.6333 285.254 49.2415C284.775 49.515 284.164 49.3479 283.89 48.8681C283.617 48.3883 283.784 47.7776 284.264 47.5041C285.382 46.8667 286.537 46.2733 287.735 45.7323C288.239 45.5051 288.831 45.7289 289.058 46.2323ZM180.676 46.3941C180.851 45.87 181.417 45.5863 181.941 45.7605C183.24 46.1923 184.483 46.66 185.675 47.1592C186.185 47.3726 186.424 47.9586 186.211 48.4679C185.998 48.9773 185.412 49.2173 184.902 49.0039C183.757 48.5242 182.562 48.0743 181.31 47.6584C180.786 47.4843 180.502 46.9182 180.676 46.3941ZM139.758 46.5951C139.953 47.1118 139.692 47.6887 139.175 47.8837C137.929 48.3539 136.736 48.8653 135.591 49.4126C135.093 49.6508 134.496 49.44 134.258 48.9417C134.019 48.4435 134.23 47.8464 134.728 47.6082C135.924 47.0367 137.169 46.503 138.469 46.0125C138.986 45.8175 139.563 46.0783 139.758 46.5951ZM187.962 49.284C188.215 48.7931 188.818 48.6004 189.309 48.8535C190.522 49.479 191.677 50.1375 192.783 50.8228C193.252 51.1138 193.397 51.7302 193.106 52.1996C192.815 52.669 192.198 52.8136 191.729 52.5226C190.667 51.8639 189.557 51.2316 188.392 50.6311C187.902 50.378 187.709 49.7749 187.962 49.284ZM132.497 49.879C132.777 50.355 132.618 50.9679 132.142 51.248C131.002 51.9191 129.912 52.6268 128.867 53.3651C128.416 53.6837 127.792 53.5763 127.473 53.1251C127.155 52.674 127.262 52.05 127.713 51.7314C128.802 50.9628 129.938 50.2248 131.128 49.5244C131.604 49.2443 132.217 49.403 132.497 49.879ZM282.363 49.8298C282.675 50.2853 282.559 50.9077 282.104 51.2201C281.591 51.5721 281.085 51.9336 280.585 52.3036C280.072 52.6834 279.566 53.0722 279.066 53.469C278.634 53.8124 278.005 53.74 277.661 53.3075C277.318 52.8749 277.39 52.2459 277.823 51.9025C278.339 51.4927 278.863 51.0903 279.395 50.6964C279.913 50.3127 280.439 49.9371 280.973 49.5707C281.428 49.2584 282.051 49.3744 282.363 49.8298ZM194.701 53.2755C195.026 52.8291 195.652 52.7307 196.098 53.0558C197.192 53.8519 198.235 54.6715 199.237 55.5062C199.661 55.8597 199.719 56.4902 199.366 56.9146C199.012 57.339 198.382 57.3965 197.957 57.0431C196.985 56.2331 195.976 55.4406 194.921 54.6726C194.474 54.3475 194.376 53.722 194.701 53.2755ZM125.897 54.3347C126.249 54.7602 126.19 55.3906 125.764 55.7427C124.746 56.5853 123.77 57.4553 122.831 58.345C122.43 58.7247 121.797 58.7074 121.417 58.3064C121.037 57.9053 121.055 57.2724 121.456 56.8927C122.425 55.9753 123.433 55.0756 124.489 54.2019C124.914 53.8498 125.545 53.9092 125.897 54.3347ZM276.213 54.5302C276.579 54.9434 276.541 55.5754 276.128 55.9419C275.167 56.7943 274.225 57.6697 273.296 58.56C272.897 58.942 272.264 58.9284 271.882 58.5296C271.5 58.1307 271.514 57.4977 271.913 57.1157C272.856 56.2117 273.817 55.3184 274.801 54.4457C275.214 54.0792 275.846 54.117 276.213 54.5302ZM200.809 58.1877C201.184 57.7821 201.816 57.757 202.222 58.1318C203.204 59.0389 204.151 59.954 205.075 60.867C205.468 61.2552 205.472 61.8884 205.083 62.2812C204.695 62.674 204.062 62.6777 203.669 62.2894C202.756 61.3872 201.826 60.4884 200.865 59.6008C200.459 59.2261 200.434 58.5934 200.809 58.1877ZM120.016 59.7133C120.417 60.0932 120.434 60.7261 120.054 61.127C119.14 62.0913 118.258 63.0686 117.398 64.0508C117.034 64.4664 116.403 64.5085 115.987 64.1448C115.571 63.7811 115.529 63.1494 115.893 62.7338C116.766 61.736 117.666 60.7385 118.602 59.7513C118.982 59.3504 119.615 59.3334 120.016 59.7133ZM270.532 59.8594C270.922 60.2498 270.922 60.8829 270.532 61.2736C269.789 62.0169 269.053 62.7623 268.316 63.5075C268.142 63.6838 267.968 63.8601 267.794 64.0363C267.405 64.429 266.772 64.4325 266.379 64.0442C265.987 63.6559 265.983 63.0227 266.371 62.63C266.545 62.454 266.72 62.2777 266.894 62.1011C267.63 61.3563 268.371 60.6068 269.117 59.8599C269.508 59.4692 270.141 59.469 270.532 59.8594ZM206.437 63.6465C206.83 63.2587 207.463 63.263 207.851 63.6562L207.977 63.7842C208.863 64.6817 209.734 65.5654 210.608 66.4309C211 66.8196 211.003 67.4527 210.614 67.8451C210.225 68.2374 209.592 68.2403 209.2 67.8515C208.319 66.9786 207.441 66.0883 206.559 65.194L206.427 65.0607C206.039 64.6675 206.044 64.0343 206.437 63.6465ZM265.042 65.3885C265.43 65.7815 265.426 66.4147 265.033 66.8026C264.098 67.7258 263.156 68.6359 262.201 69.5219C261.796 69.8976 261.163 69.874 260.788 69.4692C260.412 69.0644 260.436 68.4317 260.84 68.056C261.776 67.1879 262.702 66.2928 263.628 65.3792C264.021 64.9913 264.654 64.9954 265.042 65.3885ZM114.7 65.6589C115.124 66.0129 115.181 66.6436 114.827 67.0674C114.231 67.7802 113.646 68.4883 113.064 69.1916C112.803 69.5068 112.544 69.8211 112.284 70.1344C111.932 70.5596 111.301 70.6187 110.876 70.2663C110.451 69.9139 110.392 69.2835 110.744 68.8583C111.001 68.5485 111.259 68.2363 111.518 67.9223C112.102 67.2169 112.693 66.5022 113.292 65.7853C113.646 65.3614 114.276 65.3048 114.7 65.6589ZM211.998 69.1771C212.371 68.7702 213.004 68.743 213.411 69.1163C214.366 69.9931 215.334 70.8346 216.329 71.6313C216.76 71.9765 216.83 72.6058 216.485 73.0369C216.139 73.468 215.51 73.5377 215.079 73.1925C214.042 72.3621 213.04 71.4903 212.058 70.59C211.652 70.2166 211.624 69.584 211.998 69.1771ZM259.371 70.7272C259.726 71.1507 259.67 71.7814 259.246 72.1358C258.227 72.9888 257.186 73.806 256.115 74.5754C255.667 74.8977 255.042 74.7955 254.72 74.347C254.397 73.8985 254.5 73.2737 254.948 72.9513C255.973 72.2148 256.975 71.4285 257.962 70.6022C258.386 70.2477 259.017 70.3037 259.371 70.7272ZM109.598 71.7922C110.017 72.1525 110.064 72.7839 109.704 73.2025C108.815 74.2355 107.921 75.2405 107.012 76.2028C106.633 76.6043 106 76.6224 105.599 76.2432C105.197 75.8641 105.179 75.2312 105.558 74.8296C106.44 73.8962 107.312 72.9154 108.188 71.8979C108.548 71.4793 109.179 71.432 109.598 71.7922ZM218.035 74.1725C218.338 73.7105 218.958 73.5814 219.42 73.8841C220.472 74.5736 221.565 75.2093 222.711 75.7816C223.205 76.0283 223.406 76.6289 223.159 77.123C222.912 77.6171 222.312 77.8177 221.818 77.571C220.596 76.9609 219.436 76.2855 218.324 75.557C217.862 75.2543 217.733 74.6344 218.035 74.1725ZM253.132 75.3836C253.41 75.8612 253.248 76.4732 252.77 76.7506C251.618 77.4197 250.428 78.0276 249.192 78.5618C248.685 78.7809 248.096 78.5475 247.877 78.0406C247.658 77.5336 247.891 76.945 248.398 76.7259C249.556 76.2256 250.676 75.654 251.766 75.0211C252.243 74.7437 252.855 74.9061 253.132 75.3836ZM224.929 77.8714C225.111 77.3499 225.682 77.0746 226.203 77.2565C227.359 77.6596 228.574 78.0028 229.858 78.2777C230.398 78.3934 230.742 78.9249 230.626 79.465C230.51 80.005 229.979 80.3491 229.439 80.2334C228.074 79.9411 226.779 79.5755 225.544 79.1449C225.023 78.963 224.748 78.3928 224.929 77.8714ZM104.186 77.6412C104.556 78.0513 104.523 78.6837 104.113 79.0535C103.084 79.9808 102.022 80.8444 100.91 81.6255C100.458 81.9431 99.8347 81.8343 99.5171 81.3825C99.1995 80.9307 99.3084 80.3069 99.7602 79.9893C100.795 79.2618 101.795 78.4504 102.774 77.5681C103.184 77.1982 103.816 77.231 104.186 77.6412ZM246.093 78.6783C246.243 79.2098 245.934 79.7624 245.402 79.9126C244.136 80.2704 242.824 80.5498 241.459 80.741C240.912 80.8176 240.407 80.4364 240.33 79.8894C240.254 79.3425 240.635 78.837 241.182 78.7603C242.455 78.582 243.678 78.3214 244.858 77.9879C245.39 77.8378 245.942 78.1469 246.093 78.6783ZM232.519 79.7556C232.573 79.206 233.063 78.8048 233.613 78.8594C234.238 78.9215 234.879 78.969 235.536 79.0011C236.178 79.0324 236.807 79.0444 237.425 79.038C237.977 79.0322 238.43 79.4752 238.435 80.0275C238.441 80.5798 237.998 81.0321 237.446 81.0378C236.788 81.0447 236.119 81.0319 235.439 80.9987C234.749 80.9651 234.074 80.9151 233.415 80.8496C232.865 80.7949 232.464 80.3051 232.519 79.7556ZM97.8108 82.4008C98.0517 82.8978 97.8441 83.4959 97.3471 83.7368C96.1148 84.3341 94.8207 84.8279 93.4506 85.2001C92.9176 85.3449 92.3681 85.0302 92.2234 84.4973C92.0786 83.9643 92.3932 83.4149 92.9262 83.2701C94.1708 82.9319 95.3487 82.4829 96.4747 81.9371C96.9717 81.6962 97.5699 81.9038 97.8108 82.4008ZM90.2618 84.836C90.3074 85.3864 89.8981 85.8695 89.3477 85.9151C88.6695 85.9712 87.9748 85.9999 87.2625 85.9999C86.5819 85.9999 85.908 86.0041 85.2404 86.0123C84.6882 86.0191 84.235 85.577 84.2282 85.0247C84.2214 84.4725 84.6636 84.0193 85.2158 84.0125C85.8916 84.0042 86.5738 83.9999 87.2625 83.9999C87.921 83.9999 88.5606 83.9734 89.1827 83.9219C89.7331 83.8763 90.2162 84.2856 90.2618 84.836ZM82.2368 85.074C82.2577 85.6259 81.8271 86.0901 81.2753 86.111C79.9261 86.1619 78.605 86.2298 77.3115 86.3139C76.7603 86.3497 76.2845 85.9319 76.2487 85.3808C76.2129 84.8297 76.6306 84.3539 77.1818 84.3181C78.4937 84.2328 79.8328 84.164 81.1999 84.1124C81.7517 84.0916 82.216 84.5221 82.2368 85.074ZM74.2343 85.5407C74.2862 86.0906 73.8826 86.5784 73.3328 86.6304C71.9819 86.758 70.6632 86.9037 69.3758 87.0662C68.8279 87.1354 68.3276 86.7472 68.2584 86.1993C68.1893 85.6514 68.5774 85.1511 69.1253 85.0819C70.4337 84.9168 71.7733 84.7688 73.1446 84.6392C73.6945 84.5873 74.1823 84.9909 74.2343 85.5407ZM66.2706 86.4835C66.3582 87.0288 65.9871 87.5419 65.4418 87.6295C64.103 87.8445 62.8008 88.0782 61.5343 88.3289C60.9925 88.4362 60.4663 88.084 60.3591 87.5422C60.2518 87.0004 60.604 86.4743 61.1458 86.367C62.4363 86.1115 63.7623 85.8736 65.1247 85.6548C65.67 85.5672 66.183 85.9382 66.2706 86.4835ZM58.3994 87.9691C58.5277 88.5062 58.1962 89.0457 57.659 89.174C56.339 89.4892 55.0614 89.8233 53.8248 90.174C53.2935 90.3247 52.7406 90.0162 52.5899 89.4849C52.4392 88.9535 52.7477 88.4006 53.279 88.2499C54.5428 87.8915 55.8475 87.5504 57.1944 87.2287C57.7316 87.1004 58.2711 87.4319 58.3994 87.9691ZM50.676 90.0735C50.8506 90.5975 50.5673 91.1638 50.0433 91.3383C48.7566 91.7669 47.5193 92.2134 46.3295 92.675C45.8146 92.8747 45.2352 92.6192 45.0355 92.1043C44.8358 91.5894 45.0913 91.0101 45.6062 90.8103C46.8263 90.337 48.0941 89.8795 49.4113 89.4408C49.9352 89.2663 50.5015 89.5495 50.676 90.0735ZM43.1787 92.8798C43.4051 93.3835 43.1803 93.9754 42.6765 94.2018C41.4306 94.7618 40.244 95.3372 39.1138 95.9236C38.6235 96.1779 38.0199 95.9867 37.7656 95.4965C37.5113 95.0062 37.7025 94.4026 38.1927 94.1483C39.3562 93.5447 40.5766 92.9529 41.8566 92.3776C42.3604 92.1512 42.9523 92.376 43.1787 92.8798ZM36.0267 96.4641C36.3099 96.9383 36.155 97.5522 35.6809 97.8354C34.4992 98.541 33.39 99.2552 32.3492 99.971C31.8941 100.284 31.2715 100.169 30.9586 99.7137C30.6456 99.2586 30.7608 98.636 31.2159 98.3231C32.2916 97.5834 33.4366 96.846 34.6555 96.1182C35.1297 95.8351 35.7436 95.9899 36.0267 96.4641ZM29.3459 100.903C29.6888 101.336 29.6158 101.965 29.1829 102.308C28.0943 103.17 27.0986 104.024 26.1882 104.857C25.7806 105.229 25.1481 105.201 24.7754 104.793C24.4027 104.386 24.431 103.753 24.8386 103.381C25.7825 102.517 26.8141 101.633 27.9411 100.74C28.374 100.397 29.003 100.47 29.3459 100.903ZM23.3405 106.205C23.742 106.584 23.76 107.217 23.3807 107.618C22.3805 108.677 21.5243 109.67 20.7916 110.564C20.4417 110.992 19.8116 111.054 19.3843 110.704C18.9571 110.354 18.8943 109.724 19.2442 109.297C20.0018 108.372 20.8892 107.343 21.9269 106.245C22.3062 105.843 22.9391 105.825 23.3405 106.205ZM18.1603 112.307C18.5987 112.643 18.6818 113.271 18.3459 113.709C18.0086 114.149 17.7011 114.539 17.4341 114.821C17.3012 114.961 17.1478 115.108 16.9794 115.226C16.8293 115.331 16.546 115.5 16.175 115.5C15.6227 115.5 15.175 115.052 15.175 114.5C15.175 114.049 15.4741 113.667 15.8849 113.543C15.9107 113.519 15.9428 113.487 15.9819 113.446C16.167 113.25 16.4153 112.941 16.7583 112.493C17.0942 112.055 17.7219 111.971 18.1603 112.307Z" fill="black"/>
<path fill-rule="evenodd" clip-rule="evenodd" d="M249.1 96.5H254.646V50H208.262V102H249.1V96.5ZM249.604 103H207.254V49H255.654V97L249.604 103ZM253.724 97.5L250.108 101.086V97.5H253.724Z" fill="black"/>
<path d="M214.312 75C214.312 74.4477 214.764 74 215.321 74H235.487C236.044 74 236.496 74.4477 236.496 75C236.496 75.5523 236.044 76 235.487 76H215.321C214.764 76 214.312 75.5523 214.312 75Z" fill="black"/>
<path d="M214.312 81C214.312 80.4477 214.764 80 215.321 80H241.537C242.094 80 242.546 80.4477 242.546 81C242.546 81.5523 242.094 82 241.537 82H215.321C214.764 82 214.312 81.5523 214.312 81Z" fill="black"/>
<path d="M214.312 87C214.312 86.4477 214.764 86 215.321 86H239.521C240.078 86 240.529 86.4477 240.529 87C240.529 87.5523 240.078 88 239.521 88H215.321C214.764 88 214.312 87.5523 214.312 87Z" fill="black"/>
<path d="M214.312 93C214.312 92.4477 214.764 92 215.321 92H239.521C240.078 92 240.529 92.4477 240.529 93C240.529 93.5523 240.078 94 239.521 94H215.321C214.764 94 214.312 93.5523 214.312 93Z" fill="black"/>
<path fill-rule="evenodd" clip-rule="evenodd" d="M254.646 50V96.5H249.1V102H208.262V50H254.646ZM235.487 74H215.321C214.764 74 214.312 74.4477 214.312 75C214.312 75.5523 214.764 76 215.321 76H235.487C236.044 76 236.496 75.5523 236.496 75C236.496 74.4477 236.044 74 235.487 74ZM241.537 80H215.321C214.764 80 214.312 80.4477 214.312 81C214.312 81.5523 214.764 82 215.321 82H241.537C242.094 82 242.546 81.5523 242.546 81C242.546 80.4477 242.094 80 241.537 80ZM239.521 86H215.321C214.764 86 214.312 86.4477 214.312 87C214.312 87.5523 214.764 88 215.321 88H239.521C240.078 88 240.529 87.5523 240.529 87C240.529 86.4477 240.078 86 239.521 86ZM239.521 92H215.321C214.764 92 214.312 92.4477 214.312 93C214.312 93.5523 214.764 94 215.321 94H239.521C240.078 94 240.529 93.5523 240.529 93C240.529 92.4477 240.078 92 239.521 92Z" fill="white"/>
<path fill-rule="evenodd" clip-rule="evenodd" d="M321.7 67.5H327.246V21H280.862V73H321.7V67.5ZM322.204 74H279.854V20H328.254V68L322.204 74ZM326.324 68.5L322.708 72.0858V68.5H326.324Z" fill="black"/>
<path d="M286.912 29C286.912 28.4477 287.364 28 287.921 28H308.087C308.644 28 309.096 28.4477 309.096 29C309.096 29.5523 308.644 30 308.087 30H287.921C287.364 30 286.912 29.5523 286.912 29Z" fill="black"/>
<path d="M286.912 35C286.912 34.4477 287.364 34 287.921 34H314.137C314.694 34 315.146 34.4477 315.146 35C315.146 35.5523 314.694 36 314.137 36H287.921C287.364 36 286.912 35.5523 286.912 35Z" fill="black"/>
<path d="M286.912 41C286.912 40.4477 287.364 40 287.921 40H312.121C312.678 40 313.129 40.4477 313.129 41C313.129 41.5523 312.678 42 312.121 42H287.921C287.364 42 286.912 41.5523 286.912 41Z" fill="black"/>
<path d="M286.912 47C286.912 46.4477 287.364 46 287.921 46H312.121C312.678 46 313.129 46.4477 313.129 47C313.129 47.5523 312.678 48 312.121 48H287.921C287.364 48 286.912 47.5523 286.912 47Z" fill="black"/>
<path d="M286.912 53C286.912 52.4477 287.364 52 287.921 52H320.187C320.744 52 321.196 52.4477 321.196 53C321.196 53.5523 320.744 54 320.187 54H287.921C287.364 54 286.912 53.5523 286.912 53Z" fill="black"/>
<path d="M286.912 59C286.912 58.4477 287.364 58 287.921 58H306.071C306.628 58 307.079 58.4477 307.079 59C307.079 59.5523 306.628 60 306.071 60H287.921C287.364 60 286.912 59.5523 286.912 59Z" fill="black"/>
<path d="M286.912 65C286.912 64.4477 287.364 64 287.921 64H312.121C312.678 64 313.129 64.4477 313.129 65C313.129 65.5523 312.678 66 312.121 66H287.921C287.364 66 286.912 65.5523 286.912 65Z" fill="black"/>
<path fill-rule="evenodd" clip-rule="evenodd" d="M327.246 21V67.5H321.7V73H280.862V21H327.246ZM308.087 28H287.921C287.364 28 286.912 28.4477 286.912 29C286.912 29.5523 287.364 30 287.921 30H308.087C308.644 30 309.096 29.5523 309.096 29C309.096 28.4477 308.644 28 308.087 28ZM314.137 34H287.921C287.364 34 286.912 34.4477 286.912 35C286.912 35.5523 287.364 36 287.921 36H314.137C314.694 36 315.146 35.5523 315.146 35C315.146 34.4477 314.694 34 314.137 34ZM312.121 40H287.921C287.364 40 286.912 40.4477 286.912 41C286.912 41.5523 287.364 42 287.921 42H312.121C312.678 42 313.129 41.5523 313.129 41C313.129 40.4477 312.678 40 312.121 40ZM312.121 46H287.921C287.364 46 286.912 46.4477 286.912 47C286.912 47.5523 287.364 48 287.921 48H312.121C312.678 48 313.129 47.5523 313.129 47C313.129 46.4477 312.678 46 312.121 46ZM320.187 52H287.921C287.364 52 286.912 52.4477 286.912 53C286.912 53.5523 287.364 54 287.921 54H320.187C320.744 54 321.196 53.5523 321.196 53C321.196 52.4477 320.744 52 320.187 52ZM306.071 58H287.921C287.364 58 286.912 58.4477 286.912 59C286.912 59.5523 287.364 60 287.921 60H306.071C306.628 60 307.079 59.5523 307.079 59C307.079 58.4477 306.628 58 306.071 58ZM312.121 64H287.921C287.364 64 286.912 64.4477 286.912 65C286.912 65.5523 287.364 66 287.921 66H312.121C312.678 66 313.129 65.5523 313.129 65C313.129 64.4477 312.678 64 312.121 64Z" fill="white"/>
<path fill-rule="evenodd" clip-rule="evenodd" d="M176.5 67.5H182.046V21H135.662V73H176.5V67.5ZM177.004 74H134.654V20H183.054V68L177.004 74ZM181.124 68.5L177.508 72.0858V68.5H181.124Z" fill="black"/>
<path d="M142.721 30C142.721 29.4477 143.172 29 143.729 29H163.896C164.453 29 164.904 29.4477 164.904 30C164.904 30.5523 164.453 31 163.896 31H143.729C143.172 31 142.721 30.5523 142.721 30Z" fill="black"/>
<path d="M142.721 36C142.721 35.4477 143.172 35 143.729 35H169.946C170.503 35 170.954 35.4477 170.954 36C170.954 36.5523 170.503 37 169.946 37H143.729C143.172 37 142.721 36.5523 142.721 36Z" fill="black"/>
<path fill-rule="evenodd" clip-rule="evenodd" d="M182.046 21V67.5H176.5V73H135.662V21H182.046ZM163.896 29H143.729C143.172 29 142.721 29.4477 142.721 30C142.721 30.5523 143.172 31 143.729 31H163.896C164.453 31 164.904 30.5523 164.904 30C164.904 29.4477 164.453 29 163.896 29ZM169.946 35H143.729C143.172 35 142.721 35.4477 142.721 36C142.721 36.5523 143.172 37 143.729 37H169.946C170.503 37 170.954 36.5523 170.954 36C170.954 35.4477 170.503 35 169.946 35Z" fill="white"/>
<path fill-rule="evenodd" clip-rule="evenodd" d="M103.9 94.5H109.446V48H63.0625V100H103.9V94.5ZM104.404 101H62.0542V47H110.454V95L104.404 101ZM108.524 95.5L104.908 99.0858V95.5H108.524Z" fill="black"/>
<path d="M70.1208 57C70.1208 56.4477 70.5723 56 71.1292 56H91.2958C91.8527 56 92.3042 56.4477 92.3042 57C92.3042 57.5523 91.8527 58 91.2958 58H71.1292C70.5723 58 70.1208 57.5523 70.1208 57Z" fill="black"/>
<path d="M70.1208 63C70.1208 62.4477 70.5723 62 71.1292 62H97.3458C97.9027 62 98.3542 62.4477 98.3542 63C98.3542 63.5523 97.9027 64 97.3458 64H71.1292C70.5723 64 70.1208 63.5523 70.1208 63Z" fill="black"/>
<path d="M70.1208 69C70.1208 68.4477 70.5723 68 71.1292 68H95.3292C95.886 68 96.3375 68.4477 96.3375 69C96.3375 69.5523 95.886 70 95.3292 70H71.1292C70.5723 70 70.1208 69.5523 70.1208 69Z" fill="black"/>
<path d="M70.1208 75C70.1208 74.4477 70.5723 74 71.1292 74H95.3292C95.886 74 96.3375 74.4477 96.3375 75C96.3375 75.5523 95.886 76 95.3292 76H71.1292C70.5723 76 70.1208 75.5523 70.1208 75Z" fill="black"/>
<path fill-rule="evenodd" clip-rule="evenodd" d="M109.446 48V94.5H103.9V100H63.0625V48H109.446ZM91.2958 56H71.1292C70.5723 56 70.1208 56.4477 70.1208 57C70.1208 57.5523 70.5723 58 71.1292 58H91.2958C91.8527 58 92.3042 57.5523 92.3042 57C92.3042 56.4477 91.8527 56 91.2958 56ZM97.3458 62H71.1292C70.5723 62 70.1208 62.4477 70.1208 63C70.1208 63.5523 70.5723 64 71.1292 64H97.3458C97.9027 64 98.3542 63.5523 98.3542 63C98.3542 62.4477 97.9027 62 97.3458 62ZM95.3292 68H71.1292C70.5723 68 70.1208 68.4477 70.1208 69C70.1208 69.5523 70.5723 70 71.1292 70H95.3292C95.886 70 96.3375 69.5523 96.3375 69C96.3375 68.4477 95.886 68 95.3292 68ZM95.3292 74H71.1292C70.5723 74 70.1208 74.4477 70.1208 75C70.1208 75.5523 70.5723 76 71.1292 76H95.3292C95.886 76 96.3375 75.5523 96.3375 75C96.3375 74.4477 95.886 74 95.3292 74Z" fill="white"/>
<path fill-rule="evenodd" clip-rule="evenodd" d="M395.812 190C395.812 188.619 396.941 187.5 398.333 187.5H430.6C431.992 187.5 433.121 188.619 433.121 190V200.223L434.946 199.401C439.286 197.444 444.212 200.591 444.212 205.318V209.636C444.212 211.928 443.457 214.156 442.06 215.982L433.121 227.668V238C433.121 239.224 432.234 240.243 431.062 240.458C430.845 241.62 429.818 242.5 428.583 242.5H400.35C399.116 242.5 398.088 241.62 397.871 240.458C396.7 240.243 395.812 239.224 395.812 238V190ZM398.924 240.5C399.131 241.083 399.691 241.5 400.35 241.5H428.583C429.242 241.5 429.802 241.083 430.01 240.5H398.924ZM398.333 239.5C397.498 239.5 396.821 238.828 396.821 238V190C396.821 189.172 397.498 188.5 398.333 188.5H430.6C431.435 188.5 432.112 189.172 432.112 190V238C432.112 238.828 431.435 239.5 430.6 239.5H398.333ZM433.121 226.014L441.257 215.378C442.52 213.726 443.204 211.709 443.204 209.636V205.318C443.204 201.318 439.035 198.656 435.363 200.311L433.121 201.322V203.212L435.222 202.231C438.232 200.827 441.692 203.005 441.692 206.303V209.523C441.692 210.914 441.242 212.268 440.408 213.387L433.121 223.165V226.014ZM433.121 221.482L439.597 212.792C440.303 211.846 440.683 210.7 440.683 209.523V206.303C440.683 203.738 437.992 202.044 435.651 203.136L433.121 204.317V221.482Z" fill="black"/>
<path fill-rule="evenodd" clip-rule="evenodd" d="M301.025 127.361V131H301.934L304.05 140.445V159.5H305.183L307.845 145.655L312.581 134.903L315.345 135.426L315.76 147.155L313.387 159.5H315.889L317.56 145.302L320.359 138.998L322.347 134.789L323.306 139.352L324.563 146.115L322.987 159.5H327.904L334.064 140.681L339.016 132.348L339.881 132.627L340.781 129.876L343.884 130.089L342.751 133.551L343.615 133.829L342.687 143.462L337.437 159.5H338.858C340.239 159.5 341.358 160.619 341.358 162C341.358 163.214 340.483 164.219 339.342 164.45V240C339.342 241.381 338.222 242.5 336.842 242.5H285.383C284.003 242.5 282.883 241.381 282.883 240V164.45C281.742 164.219 280.867 163.214 280.867 162C280.867 160.619 281.986 159.5 283.367 159.5H286.15L283.656 146.472L284.425 139.626L285.052 135.017L287.343 139.085L290.582 145.165L293.326 159.5H294.983V140.445L297.1 131H298.008V128.109L301.025 127.361ZM299.008 131H300.025V128.639L299.008 128.891V131ZM295.983 159.5H303.05V141H295.983V159.5ZM296.108 140H302.926L301.133 132H297.9L296.108 140ZM292.308 159.5L289.708 145.917L284.747 146.851L287.168 159.5H292.308ZM284.734 145.836L285.352 140.334L286.109 140.547L286.736 140.072L289.344 144.968L284.734 145.836ZM286.252 139.185L285.902 139.45L285.475 139.33L285.642 138.102L286.252 139.185ZM283.883 164.5V240C283.883 240.828 284.555 241.5 285.383 241.5H336.842C337.67 241.5 338.342 240.828 338.342 240V164.5H283.883ZM336.385 159.5L341.563 143.681L334.843 141.518L328.956 159.5H336.385ZM335.272 140.605L341.757 142.693L342.542 134.534L339.469 133.545L335.272 140.605ZM341.799 133.244L342.534 130.999L341.49 130.927L340.833 132.933L341.799 133.244ZM321.98 159.5L323.502 146.571L318.486 145.99L316.896 159.5H321.98ZM318.781 145.017L323.442 145.557L322.43 140.113L321.69 140.379L321.03 139.95L318.781 145.017ZM321.45 139.03L321.98 137.907L322.235 139.12L321.819 139.27L321.45 139.03ZM312.368 159.5L314.673 147.514L308.722 146.389L306.201 159.5H312.368ZM309.036 145.431L314.737 146.509L314.374 136.26L313.176 136.033L309.036 145.431ZM283.367 160.5C282.538 160.5 281.867 161.172 281.867 162C281.867 162.823 282.549 163.5 283.383 163.5H338.842C339.675 163.5 340.358 162.823 340.358 162C340.358 161.172 339.687 160.5 338.858 160.5H283.367Z" fill="black"/>
<path fill-rule="evenodd" clip-rule="evenodd" d="M225.803 120.01C224.534 119.993 223.244 119.998 221.928 120.025C221.376 120.036 220.919 119.598 220.908 119.046C220.897 118.494 221.335 118.037 221.887 118.025C223.225 117.998 224.538 117.993 225.83 118.01C226.382 118.018 226.824 118.471 226.816 119.024C226.809 119.576 226.355 120.017 225.803 120.01ZM228.722 119.085C228.751 118.534 229.222 118.11 229.773 118.14C231.103 118.21 232.414 118.307 233.712 118.432C234.262 118.486 234.664 118.974 234.611 119.524C234.558 120.074 234.069 120.476 233.52 120.423C232.251 120.301 230.969 120.205 229.668 120.137C229.116 120.108 228.693 119.637 228.722 119.085ZM219.001 119.114C219.028 119.666 218.604 120.135 218.052 120.163C217.793 120.176 217.534 120.189 217.273 120.204C217.411 120.249 217.547 120.296 217.682 120.343C218.202 120.528 218.475 121.099 218.29 121.62C218.106 122.141 217.534 122.413 217.013 122.229C216.004 121.871 214.872 121.575 213.614 121.356C213.07 121.261 212.706 120.743 212.8 120.199C212.841 119.963 212.962 119.761 213.13 119.616C213.12 119.572 213.114 119.527 213.11 119.481C213.07 118.93 213.483 118.45 214.034 118.409C215.367 118.311 216.672 118.229 217.953 118.165C218.504 118.138 218.974 118.563 219.001 119.114ZM211.208 119.642C211.228 119.853 211.181 120.055 211.084 120.227C210.967 120.675 210.548 120.996 210.067 120.972C209.485 120.943 208.884 120.928 208.262 120.928C207.626 120.928 207.011 120.965 206.418 121.034C205.87 121.098 205.373 120.705 205.309 120.157C205.291 119.999 205.31 119.847 205.359 119.707C205.477 119.329 205.816 119.041 206.235 119.008C206.88 118.957 207.538 118.93 208.211 118.928C208.853 118.862 209.489 118.8 210.119 118.74C210.669 118.688 211.156 119.092 211.208 119.642ZM236.504 119.751C236.583 119.204 237.09 118.825 237.636 118.904C238.943 119.092 240.241 119.31 241.535 119.561C242.077 119.666 242.432 120.191 242.327 120.733C242.222 121.275 241.697 121.63 241.155 121.525C239.892 121.28 238.626 121.067 237.351 120.883C236.805 120.804 236.425 120.297 236.504 119.751ZM203.474 120.695C203.479 120.596 203.469 120.495 203.443 120.394C203.304 119.859 202.758 119.538 202.223 119.677C200.873 120.028 199.598 120.494 198.394 121.059C197.895 121.294 197.68 121.89 197.915 122.39C197.975 122.518 198.06 122.628 198.16 122.716C198.097 123 198.158 123.31 198.353 123.555C198.697 123.988 199.326 124.06 199.758 123.716C200.665 122.996 201.71 122.381 202.886 121.913C203.372 121.72 203.623 121.187 203.474 120.695ZM244.189 121.14C244.32 120.604 244.861 120.275 245.398 120.405C246.666 120.714 247.937 121.055 249.214 121.428C249.744 121.583 250.048 122.138 249.894 122.668C249.739 123.199 249.183 123.503 248.653 123.348C247.404 122.983 246.163 122.65 244.924 122.349C244.388 122.218 244.059 121.677 244.189 121.14ZM219.822 122.352C220.126 121.891 220.747 121.764 221.207 122.069C222.415 122.868 223.394 123.793 224.143 124.811C224.47 125.256 224.375 125.882 223.93 126.21C223.485 126.537 222.859 126.441 222.532 125.996C221.935 125.185 221.133 124.418 220.104 123.737C219.643 123.433 219.517 122.812 219.822 122.352ZM251.712 123.242C251.889 122.719 252.456 122.438 252.98 122.615C254.205 123.029 255.441 123.473 256.693 123.948C257.209 124.144 257.469 124.722 257.273 125.238C257.077 125.755 256.499 126.014 255.983 125.818C254.753 125.351 253.54 124.916 252.339 124.51C251.816 124.333 251.535 123.766 251.712 123.242ZM196.279 123.352C196.6 123.802 196.496 124.426 196.046 124.747C195.033 125.47 194.086 126.278 193.202 127.157C192.81 127.546 192.177 127.544 191.788 127.152C191.398 126.76 191.401 126.127 191.792 125.738C192.748 124.789 193.777 123.909 194.884 123.119C195.334 122.798 195.958 122.903 196.279 123.352ZM197.049 124.968C197.509 125.273 197.635 125.894 197.33 126.354C196.65 127.379 196.165 128.483 195.886 129.605C195.753 130.141 195.211 130.468 194.675 130.335C194.139 130.201 193.812 129.659 193.945 129.123C194.28 127.773 194.861 126.459 195.663 125.249C195.968 124.789 196.589 124.663 197.049 124.968ZM259.045 125.945C259.258 125.436 259.843 125.195 260.353 125.407C261.537 125.901 262.738 126.421 263.958 126.969C264.462 127.195 264.687 127.787 264.461 128.291C264.235 128.795 263.643 129.02 263.139 128.794C261.934 128.253 260.75 127.739 259.584 127.253C259.074 127.041 258.833 126.455 259.045 125.945ZM224.623 127.767C225.166 127.667 225.687 128.026 225.787 128.569C226.037 129.926 225.964 131.315 225.597 132.665C225.452 133.198 224.902 133.512 224.369 133.367C223.837 133.222 223.522 132.672 223.667 132.14C223.96 131.063 224.013 129.977 223.82 128.931C223.72 128.388 224.08 127.867 224.623 127.767ZM190.544 128.583C190.983 128.917 191.069 129.545 190.734 129.984C189.975 130.983 189.276 132.034 188.633 133.122C188.352 133.598 187.739 133.755 187.263 133.474C186.788 133.193 186.63 132.58 186.911 132.105C187.59 130.956 188.332 129.839 189.142 128.774C189.477 128.334 190.104 128.249 190.544 128.583ZM266.192 129.094C266.43 128.596 267.027 128.384 267.525 128.622C268.681 129.173 269.856 129.748 271.053 130.347C271.547 130.594 271.747 131.195 271.499 131.689C271.252 132.182 270.652 132.382 270.158 132.135C268.971 131.541 267.807 130.972 266.664 130.427C266.166 130.189 265.954 129.593 266.192 129.094ZM273.196 132.555C273.451 132.065 274.055 131.875 274.545 132.13C275.12 132.429 275.702 132.734 276.288 133.044C276.777 133.303 276.963 133.908 276.705 134.396C276.447 134.884 275.842 135.071 275.353 134.812C274.77 134.504 274.193 134.201 273.622 133.904C273.132 133.649 272.941 133.045 273.196 132.555ZM194.564 132.26C195.11 132.178 195.62 132.554 195.702 133.1C195.873 134.237 196.28 135.33 196.94 136.318C197.247 136.778 197.123 137.399 196.664 137.705C196.205 138.012 195.584 137.888 195.277 137.429C194.447 136.186 193.937 134.813 193.724 133.397C193.642 132.851 194.018 132.342 194.564 132.26ZM223.606 134.888C224.052 135.215 224.148 135.841 223.822 136.286C223.074 137.307 222.138 138.257 221.031 139.099C220.592 139.433 219.964 139.348 219.63 138.909C219.295 138.469 219.381 137.842 219.82 137.507C220.784 136.774 221.581 135.961 222.209 135.104C222.535 134.659 223.161 134.562 223.606 134.888ZM186.385 135.154C186.886 135.387 187.103 135.982 186.87 136.483C186.33 137.644 185.846 138.823 185.415 140.004C185.225 140.523 184.651 140.789 184.132 140.6C183.614 140.41 183.347 139.836 183.536 139.318C183.986 138.088 184.491 136.855 185.056 135.639C185.289 135.139 185.884 134.921 186.385 135.154ZM198.05 139.039C198.352 138.577 198.972 138.447 199.434 138.75C200.342 139.344 201.432 139.847 202.721 140.22C203.252 140.374 203.557 140.928 203.404 141.459C203.251 141.989 202.696 142.295 202.166 142.141C200.703 141.718 199.429 141.136 198.339 140.423C197.877 140.121 197.748 139.501 198.05 139.039ZM218.167 139.758C218.392 140.263 218.165 140.854 217.661 141.078C216.535 141.58 215.307 141.993 213.982 142.301C213.444 142.426 212.907 142.091 212.782 141.553C212.657 141.015 212.991 140.477 213.529 140.353C214.735 140.072 215.842 139.699 216.847 139.251C217.352 139.027 217.943 139.254 218.167 139.758ZM205.305 141.778C205.347 141.227 205.828 140.815 206.379 140.858C206.978 140.904 207.606 140.928 208.262 140.928C208.87 140.928 209.461 140.908 210.036 140.868C210.587 140.829 211.065 141.245 211.103 141.796C211.141 142.347 210.726 142.825 210.175 142.863C209.553 142.906 208.915 142.928 208.262 142.928C207.557 142.928 206.878 142.902 206.225 142.852C205.674 142.809 205.262 142.328 205.305 141.778ZM183.553 142.404C184.084 142.553 184.394 143.105 184.245 143.637C183.889 144.905 183.591 146.151 183.347 147.349C183.237 147.891 182.709 148.24 182.168 148.13C181.626 148.02 181.277 147.492 181.387 146.951C181.641 145.706 181.949 144.413 182.319 143.096C182.469 142.565 183.021 142.255 183.553 142.404ZM181.858 150.004C182.406 150.071 182.796 150.57 182.728 151.118C182.647 151.778 182.584 152.409 182.539 153.005C182.497 153.555 182.016 153.968 181.465 153.925C180.915 153.883 180.503 153.403 180.545 152.852C180.593 152.224 180.658 151.563 180.743 150.874C180.811 150.326 181.31 149.936 181.858 150.004Z" fill="black"/>
<path fill-rule="evenodd" clip-rule="evenodd" d="M402.756 145.23C403.183 145.582 403.245 146.211 402.894 146.637C402.414 147.219 401.882 147.897 401.38 148.639C401.071 149.096 400.449 149.215 399.991 148.905C399.532 148.595 399.411 147.974 399.719 147.518C400.27 146.704 400.844 145.973 401.347 145.363C401.698 144.938 402.328 144.879 402.756 145.23ZM398.623 151.828C399.169 151.918 399.54 152.432 399.452 152.977C399.332 153.72 399.348 154.445 399.539 155.142C399.669 155.618 399.855 156.063 400.086 156.489C400.35 156.975 400.169 157.581 399.683 157.842C399.197 158.104 398.59 157.922 398.326 157.436C398.029 156.889 397.783 156.301 397.608 155.662C397.33 154.645 397.318 153.627 397.475 152.652C397.563 152.107 398.077 151.739 398.623 151.828ZM400.565 158.91C400.967 158.532 401.6 158.552 401.98 158.955C402.25 159.241 402.55 159.546 402.86 159.862C403.354 160.364 403.873 160.892 404.339 161.411C404.708 161.823 404.674 162.455 404.262 162.822C403.851 163.188 403.218 163.152 402.848 162.74C402.399 162.238 401.956 161.789 401.498 161.325C401.183 161.005 400.861 160.678 400.525 160.322C400.145 159.92 400.163 159.287 400.565 158.91ZM405.089 163.931C405.584 163.688 406.185 163.891 406.431 164.386C406.701 164.93 406.93 165.513 407.102 166.142C407.386 167.182 407.449 168.19 407.356 169.157C407.303 169.706 406.814 170.106 406.263 170.051C405.713 169.996 405.31 169.507 405.363 168.958C405.435 168.214 405.386 167.451 405.17 166.662C405.035 166.166 404.854 165.704 404.637 165.268C404.392 164.773 404.594 164.175 405.089 163.931ZM405.013 173.173C405.49 173.453 405.651 174.066 405.372 174.541C405.021 175.139 404.65 175.721 404.306 176.261C404.18 176.459 404.058 176.651 403.941 176.837C403.648 177.303 403.03 177.443 402.561 177.148C402.093 176.854 401.951 176.237 402.244 175.771C402.373 175.566 402.503 175.362 402.633 175.157C402.971 174.626 403.312 174.091 403.644 173.526C403.923 173.051 404.536 172.893 405.013 173.173Z" fill="black"/>
<path fill-rule="evenodd" clip-rule="evenodd" d="M414.856 145.23C415.283 145.582 415.345 146.211 414.994 146.637C414.514 147.219 413.982 147.897 413.48 148.639C413.171 149.096 412.549 149.215 412.091 148.905C411.632 148.595 411.511 147.974 411.819 147.518C412.37 146.704 412.944 145.973 413.447 145.363C413.798 144.938 414.428 144.879 414.856 145.23ZM410.723 151.828C411.269 151.918 411.64 152.432 411.552 152.977C411.432 153.72 411.448 154.445 411.639 155.142C411.769 155.618 411.955 156.063 412.186 156.489C412.45 156.975 412.269 157.581 411.783 157.842C411.297 158.104 410.69 157.922 410.426 157.436C410.129 156.889 409.883 156.301 409.708 155.662C409.43 154.645 409.418 153.627 409.575 152.652C409.663 152.107 410.177 151.739 410.723 151.828ZM412.665 158.91C413.067 158.532 413.7 158.552 414.08 158.955C414.35 159.241 414.65 159.546 414.96 159.862C415.454 160.364 415.973 160.892 416.439 161.411C416.808 161.823 416.774 162.455 416.362 162.822C415.951 163.188 415.318 163.152 414.948 162.74C414.499 162.238 414.056 161.789 413.598 161.325C413.283 161.005 412.961 160.678 412.625 160.322C412.245 159.92 412.263 159.287 412.665 158.91ZM417.189 163.931C417.684 163.688 418.285 163.891 418.531 164.386C418.801 164.93 419.03 165.513 419.202 166.142C419.486 167.182 419.549 168.19 419.456 169.157C419.403 169.706 418.914 170.106 418.363 170.051C417.813 169.996 417.41 169.507 417.463 168.958C417.535 168.214 417.486 167.451 417.27 166.662C417.135 166.166 416.954 165.704 416.737 165.268C416.492 164.773 416.694 164.175 417.189 163.931ZM417.113 173.173C417.59 173.453 417.751 174.066 417.472 174.541C417.121 175.139 416.75 175.721 416.406 176.261C416.28 176.459 416.158 176.651 416.041 176.837C415.748 177.303 415.13 177.443 414.661 177.148C414.193 176.854 414.051 176.237 414.344 175.771C414.473 175.566 414.603 175.362 414.733 175.157C415.071 174.626 415.412 174.091 415.744 173.526C416.023 173.051 416.636 172.893 417.113 173.173Z" fill="black"/>
<path fill-rule="evenodd" clip-rule="evenodd" d="M427.964 145.23C428.392 145.582 428.454 146.211 428.103 146.637C427.622 147.219 427.091 147.897 426.588 148.639C426.28 149.096 425.658 149.215 425.199 148.905C424.74 148.595 424.619 147.974 424.928 147.518C425.478 146.704 426.052 145.973 426.555 145.363C426.906 144.938 427.537 144.879 427.964 145.23ZM423.831 151.828C424.377 151.918 424.748 152.432 424.66 152.977C424.54 153.72 424.557 154.445 424.747 155.142C424.878 155.618 425.063 156.063 425.294 156.489C425.558 156.975 425.378 157.581 424.892 157.842C424.406 158.104 423.798 157.922 423.535 157.436C423.238 156.889 422.991 156.301 422.816 155.662C422.538 154.645 422.526 153.627 422.684 152.652C422.772 152.107 423.285 151.739 423.831 151.828ZM425.773 158.91C426.175 158.532 426.809 158.552 427.188 158.955C427.459 159.241 427.759 159.546 428.069 159.862C428.563 160.364 429.082 160.892 429.547 161.411C429.916 161.823 429.882 162.455 429.47 162.822C429.059 163.188 428.426 163.152 428.057 162.74C427.607 162.238 427.164 161.789 426.707 161.325C426.391 161.005 426.069 160.678 425.733 160.322C425.354 159.92 425.371 159.287 425.773 158.91ZM430.297 163.931C430.792 163.688 431.393 163.891 431.639 164.386C431.909 164.93 432.138 165.513 432.31 166.142C432.594 167.182 432.658 168.19 432.564 169.157C432.511 169.706 432.022 170.106 431.472 170.051C430.921 169.996 430.518 169.507 430.571 168.958C430.643 168.214 430.594 167.451 430.378 166.662C430.243 166.166 430.062 165.704 429.846 165.268C429.6 164.773 429.802 164.175 430.297 163.931ZM430.221 173.173C430.699 173.453 430.859 174.066 430.58 174.541C430.229 175.139 429.859 175.721 429.515 176.261C429.389 176.459 429.266 176.651 429.149 176.837C428.856 177.303 428.238 177.443 427.77 177.148C427.301 176.854 427.159 176.237 427.452 175.771C427.581 175.566 427.711 175.362 427.842 175.157C428.179 174.626 428.521 174.091 428.852 173.526C429.131 173.051 429.744 172.893 430.221 173.173Z" fill="black"/>
<path fill-rule="evenodd" clip-rule="evenodd" d="M761.577 75.3363C761.944 75.7494 761.906 76.3814 761.493 76.748L760.295 77.8105C759.882 78.177 759.25 78.1393 758.884 77.7262C758.517 77.3131 758.555 76.6811 758.968 76.3145L760.165 75.252C760.579 74.8855 761.211 74.9232 761.577 75.3363ZM757.985 78.5238C758.352 78.9369 758.314 79.5689 757.901 79.9355L755.506 82.0605C755.093 82.427 754.461 82.3893 754.094 81.9762C753.728 81.5631 753.765 80.9311 754.178 80.5645L756.573 78.4395C756.986 78.073 757.618 78.1107 757.985 78.5238ZM753.195 82.7738C753.562 83.1869 753.524 83.8189 753.111 84.1855L751.914 85.248C751.501 85.6145 750.869 85.5768 750.502 85.1637C750.135 84.7506 750.173 84.1186 750.586 83.752L751.784 82.6895C752.197 82.323 752.829 82.3607 753.195 82.7738ZM814.406 114.009C814.953 114.084 815.336 114.588 815.262 115.135L814.98 117.193C814.906 117.74 814.401 118.123 813.854 118.049C813.307 117.974 812.924 117.47 812.999 116.922L813.28 114.865C813.355 114.317 813.859 113.934 814.406 114.009ZM813.563 120.182C814.11 120.257 814.493 120.761 814.418 121.308L813.856 125.424C813.781 125.971 813.277 126.354 812.73 126.279C812.182 126.205 811.799 125.7 811.874 125.153L812.437 121.038C812.511 120.491 813.016 120.108 813.563 120.182ZM812.438 128.413C812.985 128.488 813.368 128.992 813.293 129.539L812.731 133.655C812.656 134.202 812.152 134.585 811.605 134.51C811.058 134.435 810.675 133.931 810.75 133.384L811.312 129.268C811.387 128.721 811.891 128.338 812.438 128.413ZM811.313 136.644C811.861 136.719 812.244 137.223 812.169 137.77L811.606 141.885C811.532 142.433 811.027 142.816 810.48 142.741C809.933 142.666 809.55 142.162 809.625 141.615L810.187 137.499C810.262 136.952 810.766 136.569 811.313 136.644ZM810.189 144.875C810.736 144.949 811.119 145.454 811.044 146.001L810.482 150.116C810.407 150.663 809.903 151.046 809.356 150.972C808.808 150.897 808.425 150.393 808.5 149.845L809.062 145.73C809.137 145.183 809.641 144.8 810.189 144.875ZM809.064 153.105C809.611 153.18 809.994 153.684 809.919 154.232L809.357 158.347C809.282 158.894 808.778 159.277 808.231 159.202C807.684 159.128 807.301 158.623 807.375 158.076L807.938 153.961C808.013 153.414 808.517 153.031 809.064 153.105ZM807.939 161.336C808.487 161.411 808.87 161.915 808.795 162.462L808.232 166.578C808.158 167.125 807.653 167.508 807.106 167.433C806.559 167.358 806.176 166.854 806.251 166.307L806.813 162.192C806.888 161.644 807.392 161.261 807.939 161.336ZM806.815 169.567C807.362 169.642 807.745 170.146 807.67 170.693L807.108 174.808C807.033 175.356 806.529 175.739 805.982 175.664C805.434 175.589 805.051 175.085 805.126 174.538L805.688 170.422C805.763 169.875 806.267 169.492 806.815 169.567ZM805.69 177.798C806.237 177.872 806.62 178.377 806.545 178.924L805.983 183.039C805.908 183.586 805.404 183.969 804.857 183.895C804.31 183.82 803.927 183.316 804.001 182.768L804.564 178.653C804.639 178.106 805.143 177.723 805.69 177.798ZM804.565 186.028C805.112 186.103 805.495 186.607 805.421 187.155L804.858 191.27C804.784 191.817 804.279 192.2 803.732 192.125C803.185 192.051 802.802 191.546 802.877 190.999L803.439 186.884C803.514 186.337 804.018 185.954 804.565 186.028ZM803.441 194.259C803.988 194.334 804.371 194.838 804.296 195.385L803.734 199.501C803.659 200.048 803.155 200.431 802.607 200.356C802.06 200.281 801.677 199.777 801.752 199.23L802.314 195.115C802.389 194.567 802.893 194.184 803.441 194.259ZM802.316 202.49C802.863 202.565 803.246 203.069 803.171 203.616L802.609 207.732C802.534 208.279 802.03 208.662 801.483 208.587C800.936 208.512 800.553 208.008 800.627 207.461L801.19 203.345C801.265 202.798 801.769 202.415 802.316 202.49ZM801.191 210.721C801.738 210.796 802.121 211.3 802.047 211.847L801.484 215.962C801.41 216.51 800.905 216.892 800.358 216.818C799.811 216.743 799.428 216.239 799.503 215.692L800.065 211.576C800.14 211.029 800.644 210.646 801.191 210.721ZM800.067 218.952C800.614 219.026 800.997 219.53 800.922 220.078L800.641 222.135C800.566 222.683 800.062 223.066 799.515 222.991C798.967 222.916 798.584 222.412 798.659 221.865L798.94 219.807C799.015 219.26 799.519 218.877 800.067 218.952Z" fill="black"/>
<path fill-rule="evenodd" clip-rule="evenodd" d="M1137.44 109C1160.83 109 1179.79 90.196 1179.79 67C1179.79 43.804 1160.83 25 1137.44 25C1114.05 25 1095.09 43.804 1095.09 67C1095.09 90.196 1114.05 109 1137.44 109ZM1137.44 110C1161.39 110 1180.8 90.7482 1180.8 67C1180.8 43.2518 1161.39 24 1137.44 24C1113.5 24 1094.08 43.2518 1094.08 67C1094.08 90.7482 1113.5 110 1137.44 110Z" fill="black"/>
<path fill-rule="evenodd" clip-rule="evenodd" d="M1135.93 68.5001L1136.57 68.8056C1136.83 68.9299 1137.13 69 1137.44 69C1137.57 69 1137.69 68.9885 1137.81 68.9666L1138.51 68.8383L1138.51 68.8369L1138.97 68.2994C1139.28 67.9493 1139.46 67.497 1139.46 67C1139.46 65.8954 1138.56 65 1137.44 65C1136.33 65 1135.42 65.8954 1135.42 67C1135.42 67.3106 1135.5 67.602 1135.62 67.8617L1135.93 68.5001ZM1137.99 69.95L1147.41 86.1196C1147.69 86.5979 1148.3 86.7617 1148.79 86.4856C1149.27 86.2095 1149.43 85.5979 1149.15 85.1196L1139.74 68.9496C1140.19 68.4252 1140.47 67.7443 1140.47 67C1140.47 65.3431 1139.11 64 1137.44 64C1135.77 64 1134.42 65.3431 1134.42 67C1134.42 67.4631 1134.52 67.9018 1134.71 68.2934L1111.77 91.0416C1111.38 91.4322 1111.38 92.0653 1111.77 92.4559C1112.17 92.8464 1112.81 92.8464 1113.2 92.4559L1136.14 69.7076C1136.53 69.895 1136.97 70 1137.44 70C1137.63 70 1137.82 69.9828 1137.99 69.95Z" fill="black"/>
<path fill-rule="evenodd" clip-rule="evenodd" d="M1137.44 113C1163.06 113 1183.83 92.4051 1183.83 67C1183.83 41.5949 1163.06 21 1137.44 21C1111.82 21 1091.06 41.5949 1091.06 67C1091.06 92.4051 1111.82 113 1137.44 113ZM1137.44 114C1163.62 114 1184.83 92.9574 1184.83 67C1184.83 41.0426 1163.62 20 1137.44 20C1111.27 20 1090.05 41.0426 1090.05 67C1090.05 92.9574 1111.27 114 1137.44 114Z" fill="black"/>
<path fill-rule="evenodd" clip-rule="evenodd" d="M368.505 56.9276C379.726 49.3485 391.116 45.4998 402.368 45.5C413.626 45.5002 424.615 49.3542 435.024 56.9609C437.391 58.6901 438.662 61.4548 438.662 64.291V80.5H438.667C442.28 80.5 445.217 83.4062 445.217 87V119C445.217 122.594 442.28 125.5 438.667 125.5H432.617C431.231 125.5 430.1 124.385 430.1 123V122.995C429.678 123.312 429.152 123.5 428.583 123.5H426.567C425.181 123.5 424.05 122.385 424.05 121V85C424.05 83.6154 425.181 82.5 426.567 82.5H428.583C429.152 82.5 429.678 82.6878 430.1 83.0049V83C430.1 81.6154 431.231 80.5 432.617 80.5H435.646V64.291C435.646 62.3286 434.768 60.4962 433.238 59.3784C423.268 52.0926 412.892 48.5002 402.368 48.5C391.836 48.4998 381.027 52.0967 370.2 59.4093C368.544 60.528 367.575 62.443 367.575 64.5V80.5L370.1 80.5C371.486 80.5 372.617 81.6154 372.617 83V83.0049C373.039 82.6878 373.565 82.5 374.133 82.5H376.15C377.536 82.5 378.667 83.6154 378.667 85V121C378.667 122.385 377.536 123.5 376.15 123.5H374.133C373.565 123.5 373.039 123.312 372.617 122.995V123C372.617 124.385 371.486 125.5 370.1 125.5H364.05C360.436 125.5 357.5 122.594 357.5 119V87C357.5 83.4062 360.436 80.5 364.05 80.5L364.558 80.5V64.5C364.558 61.5212 365.964 58.644 368.505 56.9276ZM364.05 81.5C360.981 81.5 358.5 83.9663 358.5 87V119C358.5 122.034 360.981 124.5 364.05 124.5H370.1C370.942 124.5 371.617 123.825 371.617 123V83C371.617 82.1755 370.942 81.5 370.1 81.5H364.05ZM366.575 80.5H365.558V64.5C365.558 61.8305 366.817 59.2743 369.065 57.7563C380.155 50.2655 391.353 46.4998 402.368 46.5C413.384 46.5002 424.171 50.268 434.434 57.7683C436.523 59.2944 437.662 61.748 437.662 64.291V80.5H436.646V64.291C436.646 62.0348 435.635 59.8915 433.828 58.571C423.712 51.1788 413.134 47.5002 402.368 47.5C391.599 47.4998 380.598 51.1797 369.64 58.5806C367.691 59.8973 366.575 62.133 366.575 64.5V80.5ZM372.617 85V121C372.617 121.825 373.292 122.5 374.133 122.5H376.15C376.992 122.5 377.667 121.825 377.667 121V85C377.667 84.1755 376.992 83.5 376.15 83.5H374.133C373.292 83.5 372.617 84.1755 372.617 85ZM430.1 85C430.1 84.1755 429.425 83.5 428.583 83.5H426.567C425.725 83.5 425.05 84.1755 425.05 85V121C425.05 121.825 425.725 122.5 426.567 122.5H428.583C429.425 122.5 430.1 121.825 430.1 121V85ZM431.1 123C431.1 123.825 431.775 124.5 432.617 124.5H438.667C441.736 124.5 444.217 122.034 444.217 119V87C444.217 83.9663 441.736 81.5 438.667 81.5H432.617C431.775 81.5 431.1 82.1755 431.1 83V123Z" fill="black"/>
<path fill-rule="evenodd" clip-rule="evenodd" d="M958.335 97.4785H951.121C950.623 97.4785 950.22 97.8795 950.22 98.3742V103.748C950.22 104.243 950.623 104.644 951.121 104.644H958.335C958.833 104.644 959.237 104.243 959.237 103.748V98.3742C959.237 97.8795 958.833 97.4785 958.335 97.4785ZM973.665 97.4785H966.451C965.953 97.4785 965.549 97.8795 965.549 98.3742V103.748C965.549 104.243 965.953 104.644 966.451 104.644H973.665C974.163 104.644 974.567 104.243 974.567 103.748V98.3742C974.567 97.8795 974.163 97.4785 973.665 97.4785ZM988.995 97.4785H981.781C981.283 97.4785 980.879 97.8795 980.879 98.3742V103.748C980.879 104.243 981.283 104.644 981.781 104.644H988.995C989.493 104.644 989.897 104.243 989.897 103.748V98.3742C989.897 97.8795 989.493 97.4785 988.995 97.4785ZM1003.42 97.4785H996.209C995.711 97.4785 995.308 97.8795 995.308 98.3742V103.748C995.308 104.243 995.711 104.644 996.209 104.644H1003.42C1003.92 104.644 1004.33 104.243 1004.33 103.748V98.3742C1004.33 97.8795 1003.92 97.4785 1003.42 97.4785ZM1018.75 97.4785H1011.54C1011.04 97.4785 1010.64 97.8795 1010.64 98.3742V103.748C1010.64 104.243 1011.04 104.644 1011.54 104.644H1018.75C1019.25 104.644 1019.66 104.243 1019.66 103.748V98.3742C1019.66 97.8795 1019.25 97.4785 1018.75 97.4785ZM928.577 110.914H921.363C920.865 110.914 920.461 111.315 920.461 111.81V117.184C920.461 117.679 920.865 118.08 921.363 118.08H928.577C929.075 118.08 929.479 117.679 929.479 117.184V111.81C929.479 111.315 929.075 110.914 928.577 110.914ZM943.907 110.914H936.693C936.195 110.914 935.791 111.315 935.791 111.81V117.184C935.791 117.679 936.195 118.08 936.693 118.08H943.907C944.405 118.08 944.809 117.679 944.809 117.184V111.81C944.809 111.315 944.405 110.914 943.907 110.914ZM958.335 110.914H951.121C950.623 110.914 950.22 111.315 950.22 111.81V117.184C950.22 117.679 950.623 118.08 951.121 118.08H958.335C958.833 118.08 959.237 117.679 959.237 117.184V111.81C959.237 111.315 958.833 110.914 958.335 110.914ZM973.665 110.914H966.451C965.953 110.914 965.549 111.315 965.549 111.81V117.184C965.549 117.679 965.953 118.08 966.451 118.08H973.665C974.163 118.08 974.567 117.679 974.567 117.184V111.81C974.567 111.315 974.163 110.914 973.665 110.914ZM988.995 110.914H981.781C981.283 110.914 980.879 111.315 980.879 111.81V117.184C980.879 117.679 981.283 118.08 981.781 118.08H988.995C989.493 118.08 989.897 117.679 989.897 117.184V111.81C989.897 111.315 989.493 110.914 988.995 110.914ZM1003.42 110.914H996.209C995.711 110.914 995.308 111.315 995.308 111.81V117.184C995.308 117.679 995.711 118.08 996.209 118.08H1003.42C1003.92 118.08 1004.33 117.679 1004.33 117.184V111.81C1004.33 111.315 1003.92 110.914 1003.42 110.914ZM1018.75 110.914H1011.54C1011.04 110.914 1010.64 111.315 1010.64 111.81V117.184C1010.64 117.679 1011.04 118.08 1011.54 118.08H1018.75C1019.25 118.08 1019.66 117.679 1019.66 117.184V111.81C1019.66 111.315 1019.25 110.914 1018.75 110.914ZM928.577 124.35H921.363C920.865 124.35 920.461 124.751 920.461 125.245V130.62C920.461 131.114 920.865 131.515 921.363 131.515H928.577C929.075 131.515 929.479 131.114 929.479 130.62V125.245C929.479 124.751 929.075 124.35 928.577 124.35ZM943.907 124.35H936.693C936.195 124.35 935.791 124.751 935.791 125.245V130.62C935.791 131.114 936.195 131.515 936.693 131.515H943.907C944.405 131.515 944.809 131.114 944.809 130.62V125.245C944.809 124.751 944.405 124.35 943.907 124.35ZM958.335 124.35H951.121C950.623 124.35 950.22 124.751 950.22 125.245V130.62C950.22 131.114 950.623 131.515 951.121 131.515H958.335C958.833 131.515 959.237 131.114 959.237 130.62V125.245C959.237 124.751 958.833 124.35 958.335 124.35ZM973.665 124.35H966.451C965.953 124.35 965.549 124.751 965.549 125.245V130.62C965.549 131.114 965.953 131.515 966.451 131.515H973.665C974.163 131.515 974.567 131.114 974.567 130.62V125.245C974.567 124.751 974.163 124.35 973.665 124.35ZM988.995 124.35H981.781C981.283 124.35 980.879 124.751 980.879 125.245V130.62C980.879 131.114 981.283 131.515 981.781 131.515H988.995C989.493 131.515 989.897 131.114 989.897 130.62V125.245C989.897 124.751 989.493 124.35 988.995 124.35ZM1003.42 124.35H996.209C995.711 124.35 995.308 124.751 995.308 125.245V130.62C995.308 131.114 995.711 131.515 996.209 131.515H1003.42C1003.92 131.515 1004.33 131.114 1004.33 130.62V125.245C1004.33 124.751 1003.92 124.35 1003.42 124.35ZM1018.75 124.35H1011.54C1011.04 124.35 1010.64 124.751 1010.64 125.245V130.62C1010.64 131.114 1011.04 131.515 1011.54 131.515H1018.75C1019.25 131.515 1019.66 131.114 1019.66 130.62V125.245C1019.66 124.751 1019.25 124.35 1018.75 124.35ZM928.577 137.785H921.363C920.865 137.785 920.461 138.186 920.461 138.681V144.055C920.461 144.55 920.865 144.951 921.363 144.951H928.577C929.075 144.951 929.479 144.55 929.479 144.055V138.681C929.479 138.186 929.075 137.785 928.577 137.785ZM943.907 137.785H936.693C936.195 137.785 935.791 138.186 935.791 138.681V144.055C935.791 144.55 936.195 144.951 936.693 144.951H943.907C944.405 144.951 944.809 144.55 944.809 144.055V138.681C944.809 138.186 944.405 137.785 943.907 137.785ZM958.335 137.785H951.121C950.623 137.785 950.22 138.186 950.22 138.681V144.055C950.22 144.55 950.623 144.951 951.121 144.951H958.335C958.833 144.951 959.237 144.55 959.237 144.055V138.681C959.237 138.186 958.833 137.785 958.335 137.785ZM973.665 137.785H966.451C965.953 137.785 965.549 138.186 965.549 138.681V144.055C965.549 144.55 965.953 144.951 966.451 144.951H973.665C974.163 144.951 974.567 144.55 974.567 144.055V138.681C974.567 138.186 974.163 137.785 973.665 137.785ZM988.995 137.785H981.781C981.283 137.785 980.879 138.186 980.879 138.681V144.055C980.879 144.55 981.283 144.951 981.781 144.951H988.995C989.493 144.951 989.897 144.55 989.897 144.055V138.681C989.897 138.186 989.493 137.785 988.995 137.785ZM1003.42 137.785H996.209C995.711 137.785 995.308 138.186 995.308 138.681V144.055C995.308 144.55 995.711 144.951 996.209 144.951H1003.42C1003.92 144.951 1004.33 144.55 1004.33 144.055V138.681C1004.33 138.186 1003.92 137.785 1003.42 137.785ZM1018.75 137.785H1011.54C1011.04 137.785 1010.64 138.186 1010.64 138.681V144.055C1010.64 144.55 1011.04 144.951 1011.54 144.951H1018.75C1019.25 144.951 1019.66 144.55 1019.66 144.055V138.681C1019.66 138.186 1019.25 137.785 1018.75 137.785ZM928.577 151.221H921.363C920.865 151.221 920.461 151.622 920.461 152.117V157.491C920.461 157.985 920.865 158.387 921.363 158.387H928.577C929.075 158.387 929.479 157.985 929.479 157.491V152.117C929.479 151.622 929.075 151.221 928.577 151.221ZM943.907 151.221H936.693C936.195 151.221 935.791 151.622 935.791 152.117V157.491C935.791 157.985 936.195 158.387 936.693 158.387H943.907C944.405 158.387 944.809 157.985 944.809 157.491V152.117C944.809 151.622 944.405 151.221 943.907 151.221ZM958.335 151.221H951.121C950.623 151.221 950.22 151.622 950.22 152.117V157.491C950.22 157.985 950.623 158.387 951.121 158.387H958.335C958.833 158.387 959.237 157.985 959.237 157.491V152.117C959.237 151.622 958.833 151.221 958.335 151.221ZM973.665 151.221H966.451C965.953 151.221 965.549 151.622 965.549 152.117V157.491C965.549 157.985 965.953 158.387 966.451 158.387H973.665C974.163 158.387 974.567 157.985 974.567 157.491V152.117C974.567 151.622 974.163 151.221 973.665 151.221ZM949.318 98.3742C949.318 97.3849 950.125 96.5828 951.121 96.5828H958.335C959.331 96.5828 960.139 97.3849 960.139 98.3742V103.748C960.139 104.738 959.331 105.54 958.335 105.54H951.121C950.125 105.54 949.318 104.738 949.318 103.748V98.3742ZM964.648 98.3742C964.648 97.3849 965.455 96.5828 966.451 96.5828H973.665C974.661 96.5828 975.469 97.3849 975.469 98.3742V103.748C975.469 104.738 974.661 105.54 973.665 105.54H966.451C965.455 105.54 964.648 104.738 964.648 103.748V98.3742ZM981.781 96.5828C980.785 96.5828 979.978 97.3849 979.978 98.3742V103.748C979.978 104.738 980.785 105.54 981.781 105.54H988.995C989.991 105.54 990.799 104.738 990.799 103.748V98.3742C990.799 97.3849 989.991 96.5828 988.995 96.5828H981.781ZM994.406 98.3742C994.406 97.3849 995.213 96.5828 996.209 96.5828H1003.42C1004.42 96.5828 1005.23 97.3849 1005.23 98.3742V103.748C1005.23 104.738 1004.42 105.54 1003.42 105.54H996.209C995.213 105.54 994.406 104.738 994.406 103.748V98.3742ZM1011.54 96.5828C1010.54 96.5828 1009.74 97.3849 1009.74 98.3742V103.748C1009.74 104.738 1010.54 105.54 1011.54 105.54H1018.75C1019.75 105.54 1020.56 104.738 1020.56 103.748V98.3742C1020.56 97.3849 1019.75 96.5828 1018.75 96.5828H1011.54ZM919.56 111.81C919.56 110.82 920.367 110.018 921.363 110.018H928.577C929.573 110.018 930.381 110.82 930.381 111.81V117.184C930.381 118.173 929.573 118.975 928.577 118.975H921.363C920.367 118.975 919.56 118.173 919.56 117.184V111.81ZM936.693 110.018C935.697 110.018 934.89 110.82 934.89 111.81V117.184C934.89 118.173 935.697 118.975 936.693 118.975H943.907C944.903 118.975 945.711 118.173 945.711 117.184V111.81C945.711 110.82 944.903 110.018 943.907 110.018H936.693ZM949.318 111.81C949.318 110.82 950.125 110.018 951.121 110.018H958.335C959.331 110.018 960.139 110.82 960.139 111.81V117.184C960.139 118.173 959.331 118.975 958.335 118.975H951.121C950.125 118.975 949.318 118.173 949.318 117.184V111.81ZM966.451 110.018C965.455 110.018 964.648 110.82 964.648 111.81V117.184C964.648 118.173 965.455 118.975 966.451 118.975H973.665C974.661 118.975 975.469 118.173 975.469 117.184V111.81C975.469 110.82 974.661 110.018 973.665 110.018H966.451ZM979.978 111.81C979.978 110.82 980.785 110.018 981.781 110.018H988.995C989.991 110.018 990.799 110.82 990.799 111.81V117.184C990.799 118.173 989.991 118.975 988.995 118.975H981.781C980.785 118.975 979.978 118.173 979.978 117.184V111.81ZM996.209 110.018C995.213 110.018 994.406 110.82 994.406 111.81V117.184C994.406 118.173 995.213 118.975 996.209 118.975H1003.42C1004.42 118.975 1005.23 118.173 1005.23 117.184V111.81C1005.23 110.82 1004.42 110.018 1003.42 110.018H996.209ZM1009.74 111.81C1009.74 110.82 1010.54 110.018 1011.54 110.018H1018.75C1019.75 110.018 1020.56 110.82 1020.56 111.81V117.184C1020.56 118.173 1019.75 118.975 1018.75 118.975H1011.54C1010.54 118.975 1009.74 118.173 1009.74 117.184V111.81ZM921.363 123.454C920.367 123.454 919.56 124.256 919.56 125.245V130.62C919.56 131.609 920.367 132.411 921.363 132.411H928.577C929.573 132.411 930.381 131.609 930.381 130.62V125.245C930.381 124.256 929.573 123.454 928.577 123.454H921.363ZM934.89 125.245C934.89 124.256 935.697 123.454 936.693 123.454H943.907C944.903 123.454 945.711 124.256 945.711 125.245V130.62C945.711 131.609 944.903 132.411 943.907 132.411H936.693C935.697 132.411 934.89 131.609 934.89 130.62V125.245ZM951.121 123.454C950.125 123.454 949.318 124.256 949.318 125.245V130.62C949.318 131.609 950.125 132.411 951.121 132.411H958.335C959.331 132.411 960.139 131.609 960.139 130.62V125.245C960.139 124.256 959.331 123.454 958.335 123.454H951.121ZM964.648 125.245C964.648 124.256 965.455 123.454 966.451 123.454H973.665C974.661 123.454 975.469 124.256 975.469 125.245V130.62C975.469 131.609 974.661 132.411 973.665 132.411H966.451C965.455 132.411 964.648 131.609 964.648 130.62V125.245ZM981.781 123.454C980.785 123.454 979.978 124.256 979.978 125.245V130.62C979.978 131.609 980.785 132.411 981.781 132.411H988.995C989.991 132.411 990.799 131.609 990.799 130.62V125.245C990.799 124.256 989.991 123.454 988.995 123.454H981.781ZM994.406 125.245C994.406 124.256 995.213 123.454 996.209 123.454H1003.42C1004.42 123.454 1005.23 124.256 1005.23 125.245V130.62C1005.23 131.609 1004.42 132.411 1003.42 132.411H996.209C995.213 132.411 994.406 131.609 994.406 130.62V125.245ZM1011.54 123.454C1010.54 123.454 1009.74 124.256 1009.74 125.245V130.62C1009.74 131.609 1010.54 132.411 1011.54 132.411H1018.75C1019.75 132.411 1020.56 131.609 1020.56 130.62V125.245C1020.56 124.256 1019.75 123.454 1018.75 123.454H1011.54ZM919.56 138.681C919.56 137.692 920.367 136.89 921.363 136.89H928.577C929.573 136.89 930.381 137.692 930.381 138.681V144.055C930.381 145.045 929.573 145.847 928.577 145.847H921.363C920.367 145.847 919.56 145.045 919.56 144.055V138.681ZM936.693 136.89C935.697 136.89 934.89 137.692 934.89 138.681V144.055C934.89 145.045 935.697 145.847 936.693 145.847H943.907C944.903 145.847 945.711 145.045 945.711 144.055V138.681C945.711 137.692 944.903 136.89 943.907 136.89H936.693ZM949.318 138.681C949.318 137.692 950.125 136.89 951.121 136.89H958.335C959.331 136.89 960.139 137.692 960.139 138.681V144.055C960.139 145.045 959.331 145.847 958.335 145.847H951.121C950.125 145.847 949.318 145.045 949.318 144.055V138.681ZM966.451 136.89C965.455 136.89 964.648 137.692 964.648 138.681V144.055C964.648 145.045 965.455 145.847 966.451 145.847H973.665C974.661 145.847 975.469 145.045 975.469 144.055V138.681C975.469 137.692 974.661 136.89 973.665 136.89H966.451ZM979.978 138.681C979.978 137.692 980.785 136.89 981.781 136.89H988.995C989.991 136.89 990.799 137.692 990.799 138.681V144.055C990.799 145.045 989.991 145.847 988.995 145.847H981.781C980.785 145.847 979.978 145.045 979.978 144.055V138.681ZM996.209 136.89C995.213 136.89 994.406 137.692 994.406 138.681V144.055C994.406 145.045 995.213 145.847 996.209 145.847H1003.42C1004.42 145.847 1005.23 145.045 1005.23 144.055V138.681C1005.23 137.692 1004.42 136.89 1003.42 136.89H996.209ZM1009.74 138.681C1009.74 137.692 1010.54 136.89 1011.54 136.89H1018.75C1019.75 136.89 1020.56 137.692 1020.56 138.681V144.055C1020.56 145.045 1019.75 145.847 1018.75 145.847H1011.54C1010.54 145.847 1009.74 145.045 1009.74 144.055V138.681ZM921.363 150.325C920.367 150.325 919.56 151.127 919.56 152.117V157.491C919.56 158.48 920.367 159.282 921.363 159.282H928.577C929.573 159.282 930.381 158.48 930.381 157.491V152.117C930.381 151.127 929.573 150.325 928.577 150.325H921.363ZM934.89 152.117C934.89 151.127 935.697 150.325 936.693 150.325H943.907C944.903 150.325 945.711 151.127 945.711 152.117V157.491C945.711 158.48 944.903 159.282 943.907 159.282H936.693C935.697 159.282 934.89 158.48 934.89 157.491V152.117ZM951.121 150.325C950.125 150.325 949.318 151.127 949.318 152.117V157.491C949.318 158.48 950.125 159.282 951.121 159.282H958.335C959.331 159.282 960.139 158.48 960.139 157.491V152.117C960.139 151.127 959.331 150.325 958.335 150.325H951.121ZM964.648 152.117C964.648 151.127 965.455 150.325 966.451 150.325H973.665C974.661 150.325 975.469 151.127 975.469 152.117V157.491C975.469 158.48 974.661 159.282 973.665 159.282H966.451C965.455 159.282 964.648 158.48 964.648 157.491V152.117Z" fill="black"/>
<path fill-rule="evenodd" clip-rule="evenodd" d="M914.6 22.2393C914.6 21.0026 915.609 20 916.854 20H1023.26C1024.51 20 1025.52 21.0026 1025.52 22.2393V160.352L1020.3 166H916.854C915.609 166 914.6 164.997 914.6 163.761V22.2393ZM916.854 20.8957C916.107 20.8957 915.502 21.4972 915.502 22.2393V163.761C915.502 164.503 916.107 165.104 916.854 165.104H1019.66V161.969C1019.66 160.733 1020.66 159.73 1021.91 159.73H1024.61V22.2393C1024.61 21.4972 1024.01 20.8957 1023.26 20.8957H916.854ZM1024.04 160.626H1021.91C1021.16 160.626 1020.56 161.227 1020.56 161.969V164.401L1024.04 160.626ZM968.751 52.0526L968.75 52.0543C968.749 52.0564 968.748 52.0574 968.748 52.0574L968.749 52.0551L968.751 52.0526ZM984.024 68.9912L1013.43 70.5537L1005.56 80.0282L973.753 76.3476L984.024 68.9912ZM984.326 70.0087L976.446 75.6524L1005.14 78.9718L1011.38 71.4463L984.326 70.0087Z" fill="black"/>
<path fill-rule="evenodd" clip-rule="evenodd" d="M921.363 24.4785C920.118 24.4785 919.109 25.4811 919.109 26.7178V80.4601C919.109 81.6968 920.118 82.6994 921.363 82.6994H1018.75C1020 82.6994 1021.01 81.6968 1021.01 80.4601V26.7178C1021.01 25.4811 1020 24.4785 1018.75 24.4785H921.363ZM921.363 25.3742C920.616 25.3742 920.011 25.9758 920.011 26.7178V73.5111C924.725 73.6301 935.81 72.902 945.16 69.0384C946.66 68.4185 947.565 67.8973 948.05 67.47C948.291 67.258 948.397 67.0955 948.438 66.9865C948.473 66.8941 948.467 66.8298 948.437 66.7628C948.4 66.6795 948.313 66.5652 948.135 66.4276C947.96 66.2921 947.722 66.1538 947.425 66.0143C946.83 65.7348 946.057 65.478 945.211 65.2293C944.721 65.0853 944.228 64.95 943.737 64.8154L943.531 64.7588C943.234 64.6772 942.938 64.5954 942.645 64.5117C941.824 64.2774 941.045 64.034 940.463 63.766C940.172 63.6326 939.902 63.4802 939.694 63.3006C939.49 63.124 939.288 62.8689 939.268 62.5295C939.247 62.182 939.425 61.8939 939.649 61.6739C939.872 61.4543 940.192 61.2505 940.591 61.0527C941.413 60.6453 942.612 60.3229 944.05 60.0545C945.497 59.7841 947.227 59.5618 949.132 59.3697C952.533 59.0268 956.525 58.7777 960.523 58.5283L960.555 58.5263C961.023 58.4971 961.492 58.4678 961.96 58.4384C966.437 58.157 970.832 57.861 974.359 57.418C976.123 57.1964 977.655 56.9397 978.865 56.6336C980.097 56.3218 980.915 55.9769 981.322 55.6236C981.538 55.4366 981.578 55.3292 981.583 55.3048C981.58 55.2978 981.569 55.2796 981.541 55.2511C981.463 55.1715 981.304 55.0673 981.03 54.9541C980.764 54.8441 980.425 54.74 980.021 54.6418C978.535 54.2802 976.369 54.0434 974.263 53.8132C974.06 53.7911 973.859 53.769 973.658 53.7469C972.524 53.622 971.433 53.4958 970.525 53.3489C969.639 53.2057 968.852 53.0326 968.376 52.7873C968.159 52.6752 967.844 52.4673 967.775 52.0986C967.699 51.6937 967.963 51.3912 968.181 51.2125C968.419 51.0171 968.765 50.8299 969.201 50.6416C969.644 50.4502 970.211 50.2451 970.914 50.0235C975.391 48.6108 984.675 46.8368 994.424 45.1962C1003.78 43.6218 1013.6 42.1639 1020.11 41.2581V26.7178C1020.11 25.9758 1019.5 25.3742 1018.75 25.3742H921.363ZM920.011 80.4601C920.011 81.2022 920.616 81.8037 921.363 81.8037H1018.75C1019.5 81.8037 1020.11 81.2022 1020.11 80.4601V64.685L1018.76 64.1569L1012.88 80.1709L1011.93 79.8291L1017.82 63.7901L1000.95 57.1952L1001.45 56.658C1004.56 53.3697 1008.49 51.5814 1012.11 50.6776C1015.19 49.9074 1018.08 49.7734 1020.11 49.9107V42.2679C1013.61 43.174 1003.87 44.6209 994.593 46.1821C984.827 47.8257 975.616 49.5891 971.219 50.9764C970.535 51.1922 970.004 51.3856 969.603 51.5585C969.263 51.7053 969.037 51.8291 968.897 51.9273C969.226 52.0785 969.836 52.2243 970.687 52.3619C971.567 52.5041 972.634 52.6279 973.769 52.753C973.973 52.7755 974.18 52.798 974.388 52.8207C976.471 53.0482 978.706 53.2922 980.262 53.6706C980.693 53.7755 981.087 53.894 981.418 54.0311C981.742 54.165 982.046 54.3322 982.263 54.5534C982.496 54.7901 982.648 55.1142 982.573 55.4959C982.505 55.8378 982.272 56.1285 981.986 56.3762C981.385 56.898 980.359 57.2875 979.114 57.6026C977.846 57.9234 976.267 58.1863 974.486 58.41C970.923 58.8577 966.495 59.1554 962.023 59.4364C961.545 59.4665 961.066 59.4964 960.588 59.5262C956.586 59.7759 952.614 60.0237 949.234 60.3646C947.342 60.5553 945.644 60.7743 944.236 61.0372C942.818 61.302 941.733 61.6045 941.042 61.9472C940.685 62.1243 940.473 62.2722 940.358 62.3846C940.317 62.4247 940.295 62.4536 940.284 62.4718C940.296 62.4879 940.318 62.5129 940.357 62.5469C940.461 62.6368 940.634 62.7423 940.887 62.8588C941.391 63.0908 942.102 63.3162 942.923 63.5507C943.259 63.6466 943.619 63.7453 943.986 63.846C944.49 63.9845 945.008 64.1267 945.497 64.2705C946.353 64.5219 947.187 64.7963 947.856 65.1105C948.191 65.2679 948.5 65.4422 948.755 65.6387C949.006 65.8331 949.232 66.0704 949.361 66.362C949.497 66.6701 949.508 67.0043 949.382 67.3376C949.262 67.6543 949.029 67.945 948.72 68.2174C948.106 68.7589 947.073 69.3314 945.548 69.9615C936.043 73.8893 924.829 74.6291 920.011 74.5114V80.4601ZM1012.35 51.6474C1009.07 52.4676 1005.57 54.0332 1002.71 56.8109L1009.98 59.6533C1011.08 58.3506 1012.8 56.5204 1014.69 54.9262C1015.7 54.0693 1016.78 53.2728 1017.83 52.6626C1018.59 52.2239 1019.36 51.8715 1020.11 51.668V50.9132C1018.19 50.7754 1015.37 50.8939 1012.35 51.6474ZM1018.34 53.5268C1017.35 54.0975 1016.33 54.8545 1015.34 55.6876C1013.63 57.138 1012.04 58.7955 1010.97 60.0403L1016.68 62.2725L1020.11 54.7644V52.7122C1019.55 52.8919 1018.96 53.1691 1018.34 53.5268ZM1017.62 62.6396L1020.11 57.1923V63.6101L1017.62 62.6396ZM968.748 52.0574L968.749 52.0551L968.751 52.0526L968.75 52.0543C968.749 52.0564 968.748 52.0574 968.748 52.0574Z" fill="black"/>
<path fill-rule="evenodd" clip-rule="evenodd" d="M1066.23 186.5C1067.61 186.654 1068.86 186.718 1069.88 186.718H1069.92L1069.96 186.712C1070.38 186.648 1070.79 186.577 1071.19 186.5H1094.51C1095.17 186.5 1095.6 186.961 1095.6 187.403V193.714C1095.6 194.156 1095.17 194.617 1094.51 194.617H1045.26C1044.59 194.617 1044.17 194.156 1044.17 193.714V187.403C1044.17 186.961 1044.59 186.5 1045.26 186.5H1066.23ZM1046.38 195.617H1045.26C1044.16 195.617 1043.17 194.822 1043.17 193.714V187.403C1043.17 186.295 1044.16 185.5 1045.26 185.5H1060.86C1060.39 185.376 1059.93 185.241 1059.47 185.094C1055.67 183.881 1051.98 181.825 1050.28 178.443L1050.01 177.902L1050.59 177.737C1053.01 177.051 1056.88 176.641 1060.68 177.634C1064.13 178.537 1067.53 180.602 1069.69 184.653C1070.22 182.764 1071.34 180.536 1073.32 178.747C1075.87 176.437 1079.81 174.905 1085.58 175.723L1086.17 175.806L1085.99 176.368C1085.24 178.739 1082.07 183.121 1075.03 185.5H1094.51C1095.6 185.5 1096.6 186.295 1096.6 187.403V193.714C1096.6 194.822 1095.6 195.617 1094.51 195.617H1093.39L1090.21 240.5H1049.56L1046.38 195.617ZM1047.38 195.617L1050.49 239.5H1089.28L1092.39 195.617H1047.38ZM1066.29 185.5H1069C1067 181.48 1063.76 179.473 1060.43 178.602C1057.14 177.742 1053.77 177.995 1051.47 178.54C1053.11 181.248 1056.29 183.028 1059.78 184.142C1061.98 184.847 1064.27 185.272 1066.29 185.5ZM1070.51 185.5H1071.1C1079.79 183.808 1083.7 179.176 1084.82 176.633C1079.65 176.044 1076.21 177.479 1073.99 179.489C1071.96 181.322 1070.91 183.668 1070.51 185.5Z" fill="black"/>
<path fill-rule="evenodd" clip-rule="evenodd" d="M1159.03 131.911L1159.11 132.425C1159.63 135.838 1159.37 141.1 1156.92 145.83C1154.5 150.488 1149.97 154.593 1142.07 155.913L1144.91 170.312H1177.65C1179.03 170.312 1180.29 171.263 1180.29 172.61V180.696C1180.29 182.043 1179.03 182.993 1177.65 182.993H1175.98L1171.7 240.5H1117.3L1113.02 182.993H1111.35C1109.97 182.993 1108.71 182.043 1108.71 180.696V172.61C1108.71 171.263 1109.97 170.312 1111.35 170.312H1143.89L1141.08 156.071C1132.91 157.331 1126.75 155.105 1122.37 151.76C1117.92 148.362 1115.31 143.823 1114.28 140.655L1114.1 140.1L1114.67 140.006C1123.48 138.585 1129.88 140.826 1134.29 144.242C1137.8 146.954 1140.03 150.393 1141.24 153.285C1141.75 150.05 1142.94 145.928 1145.11 142.15C1147.82 137.45 1152.09 133.244 1158.52 132.009L1159.03 131.911ZM1140.84 155.096C1139.9 152.138 1137.64 148.099 1133.68 145.033C1129.59 141.866 1123.66 139.717 1115.42 140.903C1116.52 143.868 1118.96 147.902 1122.97 150.965C1127.13 154.139 1132.99 156.283 1140.84 155.096ZM1142.03 154.905C1149.54 153.615 1153.77 149.725 1156.03 145.37C1158.24 141.102 1158.58 136.353 1158.19 133.098C1152.41 134.384 1148.52 138.246 1145.98 142.65C1143.53 146.907 1142.37 151.634 1142.03 154.905ZM1177.65 181.993C1178.64 181.993 1179.29 181.335 1179.29 180.696V172.61C1179.29 171.971 1178.64 171.312 1177.65 171.312H1111.35C1110.36 171.312 1109.71 171.971 1109.71 172.61V180.696C1109.71 181.335 1110.36 181.993 1111.35 181.993H1177.65ZM1114.02 182.993L1118.23 239.5H1170.77L1174.98 182.993H1114.02Z" fill="black"/>
<path fill-rule="evenodd" clip-rule="evenodd" d="M1072.03 92.0128C1072.3 91.5305 1072.91 91.3576 1073.4 91.6266C1074.1 92.0196 1074.73 92.4852 1075.29 93.0108C1075.69 93.3891 1075.71 94.022 1075.33 94.4243C1074.95 94.8267 1074.32 94.8462 1073.92 94.4679C1073.48 94.0531 1072.98 93.6851 1072.42 93.3733C1071.94 93.1042 1071.77 92.4951 1072.03 92.0128ZM1076.54 96.2844C1077.06 96.0793 1077.64 96.3287 1077.84 96.8415C1078.4 98.2218 1078.71 99.7148 1078.83 101.224C1078.87 101.774 1078.46 102.256 1077.91 102.3C1077.36 102.344 1076.88 101.933 1076.84 101.383C1076.73 100.039 1076.45 98.7477 1075.99 97.5843C1075.78 97.0715 1076.03 96.4895 1076.54 96.2844ZM1077.83 104.511C1078.37 104.591 1078.75 105.099 1078.67 105.645C1078.45 107.152 1078.07 108.61 1077.56 109.927C1077.36 110.442 1076.78 110.699 1076.27 110.5C1075.75 110.302 1075.5 109.723 1075.7 109.207C1076.15 108.035 1076.49 106.722 1076.69 105.356C1076.77 104.809 1077.28 104.431 1077.83 104.511ZM1075.2 112.446C1075.61 112.812 1075.65 113.444 1075.29 113.857C1074.72 114.502 1074.07 115.04 1073.35 115.396C1073.01 115.565 1072.61 115.874 1072.18 116.351C1071.8 116.757 1071.17 116.784 1070.76 116.41C1070.36 116.036 1070.33 115.403 1070.7 114.997C1071.24 114.411 1071.83 113.918 1072.46 113.604C1072.89 113.391 1073.34 113.036 1073.79 112.532C1074.15 112.118 1074.79 112.08 1075.2 112.446ZM1069.8 117.914C1070.28 118.176 1070.46 118.782 1070.2 119.269C1069.67 120.26 1069.15 121.385 1068.66 122.6C1068.45 123.113 1067.87 123.361 1067.36 123.154C1066.85 122.948 1066.6 122.365 1066.8 121.853C1067.32 120.583 1067.87 119.388 1068.44 118.319C1068.7 117.833 1069.31 117.652 1069.8 117.914ZM1066.76 124.837C1067.29 125.003 1067.58 125.565 1067.41 126.092C1067.04 127.265 1066.71 128.469 1066.42 129.671C1066.29 130.208 1065.75 130.538 1065.21 130.408C1064.67 130.278 1064.34 129.738 1064.47 129.201C1064.77 127.955 1065.12 126.707 1065.51 125.49C1065.67 124.963 1066.23 124.671 1066.76 124.837ZM1068.75 131.805C1068.79 131.254 1069.26 130.835 1069.81 130.87C1071.64 130.986 1073.46 131.351 1075.01 132.349C1075.47 132.647 1075.61 133.266 1075.31 133.73C1075.01 134.195 1074.39 134.33 1073.93 134.031C1072.78 133.297 1071.36 132.972 1069.69 132.866C1069.13 132.831 1068.72 132.356 1068.75 131.805ZM1065.53 132.609C1065.71 132.42 1065.81 132.166 1065.8 131.89C1065.77 131.338 1065.31 130.91 1064.75 130.934C1063.92 130.97 1063.11 131 1062.32 131C1061.43 131 1060.61 131.205 1059.88 131.587C1059.39 131.843 1059.2 132.447 1059.46 132.936C1059.71 133.426 1060.32 133.616 1060.81 133.36C1061.25 133.13 1061.75 133 1062.32 133C1062.78 133 1063.24 132.99 1063.7 132.976C1063.7 132.978 1063.7 132.981 1063.7 132.983C1063.48 134.32 1063.33 135.621 1063.26 136.841C1063.23 137.392 1063.65 137.865 1064.2 137.898C1064.75 137.93 1065.22 137.509 1065.26 136.958C1065.32 135.818 1065.47 134.587 1065.68 133.306C1065.72 133.054 1065.66 132.809 1065.53 132.609ZM1058.16 134.65C1058.68 134.853 1058.93 135.434 1058.73 135.948C1058.32 136.982 1058.07 138.238 1058.03 139.625C1058.01 140.177 1057.55 140.61 1057 140.593C1056.44 140.575 1056.01 140.114 1056.03 139.562C1056.08 137.988 1056.36 136.497 1056.87 135.211C1057.07 134.697 1057.65 134.446 1058.16 134.65ZM1077.03 136.151C1077.55 135.969 1078.12 136.245 1078.31 136.766C1078.58 137.535 1078.79 138.392 1078.94 139.343C1079.1 140.341 1079.12 141.26 1079.02 142.1C1078.96 142.649 1078.46 143.04 1077.91 142.975C1077.36 142.91 1076.97 142.412 1077.03 141.864C1077.11 141.231 1077.1 140.499 1076.96 139.657C1076.83 138.806 1076.64 138.067 1076.42 137.425C1076.24 136.904 1076.51 136.333 1077.03 136.151ZM1064.22 139.69C1064.77 139.609 1065.27 139.986 1065.36 140.532C1065.45 141.169 1065.59 141.697 1065.76 142.113C1066.03 142.751 1066.44 143.324 1066.94 143.822C1067.34 144.208 1067.35 144.841 1066.96 145.236C1066.57 145.63 1065.94 145.637 1065.54 145.251C1064.87 144.586 1064.3 143.795 1063.92 142.887C1063.66 142.275 1063.49 141.576 1063.38 140.826C1063.3 140.28 1063.67 139.771 1064.22 139.69ZM1057.2 142.692C1057.74 142.575 1058.27 142.919 1058.39 143.459C1058.65 144.69 1059.06 145.929 1059.63 147.12C1059.86 147.62 1059.65 148.216 1059.15 148.452C1058.65 148.688 1058.06 148.475 1057.82 147.976C1057.19 146.64 1056.73 145.255 1056.43 143.88C1056.32 143.34 1056.66 142.808 1057.2 142.692ZM1076.34 145.532C1076.61 146.011 1076.44 146.622 1075.97 146.896C1074.34 147.825 1072.34 148.034 1070.46 147.703C1069.92 147.607 1069.56 147.089 1069.65 146.545C1069.75 146.001 1070.27 145.638 1070.81 145.734C1072.34 146.003 1073.84 145.807 1074.97 145.16C1075.45 144.886 1076.06 145.052 1076.34 145.532ZM1060.28 150.237C1060.7 149.886 1061.33 149.946 1061.68 150.372C1062.09 150.861 1062.53 151.327 1063 151.766C1063.45 152.186 1063.88 152.624 1064.28 153.079C1064.64 153.495 1064.6 154.126 1064.18 154.49C1063.77 154.854 1063.14 154.813 1062.77 154.397C1062.42 153.993 1062.04 153.604 1061.64 153.234C1061.1 152.733 1060.6 152.201 1060.14 151.645C1059.79 151.219 1059.85 150.589 1060.28 150.237ZM1065.03 155.677C1065.51 155.397 1066.12 155.557 1066.4 156.033C1067.02 157.089 1067.54 158.182 1067.97 159.281C1068.17 159.795 1067.92 160.376 1067.4 160.577C1066.89 160.779 1066.31 160.526 1066.11 160.012C1065.71 158.999 1065.24 158.002 1064.67 157.046C1064.39 156.57 1064.55 155.957 1065.03 155.677ZM1067.84 161.967C1068.37 161.835 1068.92 162.162 1069.05 162.698C1069.35 163.91 1069.56 165.094 1069.7 166.207C1069.77 166.754 1069.38 167.255 1068.83 167.324C1068.29 167.393 1067.78 167.005 1067.72 166.457C1067.58 165.415 1067.39 164.308 1067.11 163.178C1066.98 162.642 1067.3 162.1 1067.84 161.967ZM1068.93 168.775C1069.49 168.773 1069.94 169.219 1069.94 169.771C1069.94 170.444 1069.92 171.054 1069.87 171.584C1069.83 172.134 1069.34 172.543 1068.79 172.496C1068.24 172.45 1067.83 171.967 1067.88 171.416C1067.92 170.951 1067.94 170.4 1067.94 169.779C1067.94 169.226 1068.38 168.777 1068.93 168.775Z" fill="black"/>
<path fill-rule="evenodd" clip-rule="evenodd" d="M87.2667 156.95V238.119L88.7795 241.12C89.2068 241.967 90.0787 242.5 91.0297 242.5H203.774L212.284 240.812C213.057 240.659 213.69 240.162 214.032 239.5H215.411C215.618 240.084 216.179 240.5 216.833 240.5C217.662 240.5 218.342 239.832 218.342 239V209C218.342 208.168 217.662 207.5 216.833 207.5C216.179 207.5 215.618 207.916 215.411 208.5H214.032C213.69 207.838 213.057 207.341 212.284 207.188L203.774 205.5H166.917V156.95L165.214 148.509C165.059 147.738 164.557 147.112 163.892 146.774V145.415C164.477 145.211 164.9 144.657 164.9 144C164.9 143.168 164.221 142.5 163.392 142.5H133.142C132.313 142.5 131.633 143.168 131.633 144C131.633 144.657 132.056 145.211 132.642 145.415V146.774C131.976 147.112 131.474 147.738 131.319 148.509L129.617 156.95V205.5H124.567V156.95L122.864 148.509C122.709 147.738 122.207 147.112 121.542 146.774V145.415C122.127 145.211 122.55 144.657 122.55 144C122.55 143.168 121.871 142.5 121.042 142.5H90.7917C89.9625 142.5 89.2833 143.168 89.2833 144C89.2833 144.657 89.7061 145.211 90.2917 145.415V146.774C89.6258 147.112 89.1244 147.738 88.969 148.509L87.2667 156.95ZM91.4366 147.5H120.397C121.123 147.5 121.743 148.008 121.884 148.707L123.456 156.5H88.3776L89.9492 148.707C90.0901 148.008 90.7105 147.5 91.4366 147.5ZM88.2667 157.5H123.567L123.567 237.5H88.2667V157.5ZM88.5787 238.5L89.6724 240.669C89.9283 241.177 90.453 241.5 91.0297 241.5H120.804C121.38 241.5 121.905 241.177 122.161 240.669L123.255 238.5H88.5787ZM122.817 241.5C122.906 241.382 122.986 241.255 123.054 241.12L124.567 238.119L124.567 206.5H129.617V238.119L131.129 241.12C131.198 241.255 131.277 241.382 131.366 241.5H122.817ZM91.2917 146.5V145.5H120.542V146.5H91.2917ZM133.787 147.5H162.747C163.473 147.5 164.093 148.008 164.234 148.707L165.806 156.5H130.728L132.299 148.707C132.44 148.008 133.061 147.5 133.787 147.5ZM130.617 157.5H165.917L165.917 237.5H130.617V157.5ZM130.929 238.5L132.022 240.669C132.278 241.177 132.803 241.5 133.38 241.5H163.154C163.73 241.5 164.255 241.177 164.511 240.669L165.605 238.5H130.929ZM165.167 241.5C165.256 241.382 165.336 241.255 165.404 241.12L166.917 238.119L166.917 206.5H203.225V241.5H165.167ZM204.225 241.391V206.609L212.09 208.169C212.801 208.31 213.308 208.927 213.308 209.639C213.308 209.639 213.308 209.639 213.308 209.639V238.36C213.308 239.072 212.801 239.69 212.09 239.831L204.225 241.391ZM133.642 146.5V145.5H162.892V146.5H133.642ZM214.308 209.5H215.325L215.325 238.5H214.308V209.64C214.308 209.639 214.308 209.64 214.308 209.64V209.5ZM90.2833 144C90.2833 143.728 90.507 143.5 90.7917 143.5H121.042C121.326 143.5 121.55 143.728 121.55 144C121.55 144.272 121.326 144.5 121.042 144.5H90.7917C90.507 144.5 90.2833 144.272 90.2833 144ZM132.633 144C132.633 143.728 132.857 143.5 133.142 143.5H163.392C163.676 143.5 163.9 143.728 163.9 144C163.9 144.272 163.676 144.5 163.392 144.5H133.142C132.857 144.5 132.633 144.272 132.633 144ZM216.325 239L216.325 209C216.325 208.728 216.549 208.5 216.833 208.5C217.118 208.5 217.342 208.728 217.342 209V239C217.342 239.272 217.118 239.5 216.833 239.5C216.549 239.5 216.325 239.272 216.325 239Z" fill="black"/>
<path fill-rule="evenodd" clip-rule="evenodd" d="M466.028 40.4479L465.387 36.792L464.747 40.4479L460.747 41.5L464.747 42.5521L465.387 46.208L466.028 42.5521L470.028 41.5L466.028 40.4479ZM473.958 41.5L466.903 43.3562L465.387 52L463.872 43.3562L456.817 41.5L463.872 39.6438L465.387 31L466.903 39.6438L473.958 41.5ZM328.895 101.448L328.254 97.792L327.613 101.448L323.614 102.5L327.613 103.552L328.254 107.208L328.895 103.552L332.894 102.5L328.895 101.448ZM336.825 102.5L329.769 104.356L328.254 113L326.739 104.356L319.683 102.5L326.739 100.644L328.254 92L329.769 100.644L336.825 102.5ZM975.237 203.448L974.596 199.792L973.955 203.448L969.956 204.5L973.955 205.552L974.596 209.208L975.237 205.552L979.236 204.5L975.237 203.448ZM983.167 204.5L976.111 206.356L974.596 215L973.081 206.356L966.025 204.5L973.081 202.644L974.596 194L976.111 202.644L983.167 204.5ZM1071.03 33.4479L1070.39 29.792L1069.75 33.4479L1065.75 34.5L1069.75 35.5521L1070.39 39.208L1071.03 35.5521L1075.03 34.5L1071.03 33.4479ZM1078.96 34.5L1071.9 36.3562L1070.39 45L1068.87 36.3562L1061.82 34.5L1068.87 32.6438L1070.39 24L1071.9 32.6438L1078.96 34.5ZM747.219 128.644L745.704 120L744.189 128.644L737.133 130.5L744.189 132.356L745.704 141L747.219 132.356L754.275 130.5L747.219 128.644ZM750.344 130.5L746.345 129.448L745.704 125.792L745.063 129.448L741.064 130.5L745.063 131.552L745.704 135.208L746.345 131.552L750.344 130.5Z" fill="black"/>
</svg>
