<svg width="32" height="32" viewBox="0 0 32 32" fill="none" xmlns="http://www.w3.org/2000/svg">
<path fill-rule="evenodd" clip-rule="evenodd" d="M7 5C7 3.34315 8.34315 2 10 2H22C23.6569 2 25 3.34315 25 5V27C25 28.6569 23.6569 30 22 30H10C8.34315 30 7 28.6569 7 27V5ZM10 4C9.44772 4 9 4.44772 9 5V27C9 27.5523 9.44772 28 10 28H22C22.5523 28 23 27.5523 23 27V5C23 4.44772 22.5523 4 22 4H10Z" fill="#120024"/>
<path d="M10 5.5C10 5.22386 10.2239 5 10.5 5H21.5C21.7761 5 22 5.22386 22 5.5C22 5.77614 21.7761 6 21.5 6H10.5C10.2239 6 10 5.77614 10 5.5Z" fill="#120024"/>
<path d="M10 7.5C10 7.22386 10.2239 7 10.5 7H21.5C21.7761 7 22 7.22386 22 7.5C22 7.77614 21.7761 8 21.5 8H10.5C10.2239 8 10 7.77614 10 7.5Z" fill="#120024"/>
<path d="M10 10C10 9.44772 10.4477 9 11 9H21C21.5523 9 22 9.44772 22 10V11C22 11.5523 21.5523 12 21 12H11C10.4477 12 10 11.5523 10 11V10Z" fill="#120024"/>
<path d="M10 21C10 20.4477 10.4477 20 11 20H21C21.5523 20 22 20.4477 22 21V26C22 26.5523 21.5523 27 21 27H11C10.4477 27 10 26.5523 10 26V21Z" fill="#120024"/>
<path d="M17 15C17 15.5523 16.5523 16 16 16C15.4477 16 15 15.5523 15 15C15 14.4477 15.4477 14 16 14C16.5523 14 17 14.4477 17 15Z" fill="#120024"/>
</svg>
