<svg width="32" height="32" viewBox="0 0 32 32" fill="none" xmlns="http://www.w3.org/2000/svg">
<path fill-rule="evenodd" clip-rule="evenodd" d="M6 6C4.34315 6 3 7.34315 3 9V19C3 20.6569 4.34314 22 6 22H15V24H9C8.44772 24 8 24.4477 8 25C8 25.5523 8.44772 26 9 26H23C23.5523 26 24 25.5523 24 25C24 24.4477 23.5523 24 23 24H17V22H26C27.6569 22 29 20.6569 29 19V9C29 7.34315 27.6569 6 26 6H6ZM6 8C5.44772 8 5 8.44772 5 9V19C5 19.5523 5.44772 20 6 20H26C26.5523 20 27 19.5523 27 19V9C27 8.44772 26.5523 8 26 8H6Z" fill="#120024"/>
<path fill-rule="evenodd" clip-rule="evenodd" d="M18.4472 9.10555C18.9412 9.35254 19.1414 9.95321 18.8944 10.4472L14.8944 18.4472C14.6474 18.9412 14.0468 19.1414 13.5528 18.8944C13.0588 18.6474 12.8586 18.0467 13.1056 17.5528L17.1056 9.55276C17.3526 9.05878 17.9532 8.85856 18.4472 9.10555ZM11.6 9.19998C12.0418 9.53135 12.1314 10.1581 11.8 10.6L9.7 13.4C9.43333 13.7555 9.43333 14.2444 9.7 14.6L11.8 17.4C12.1314 17.8418 12.0418 18.4686 11.6 18.8C11.1582 19.1313 10.5314 19.0418 10.2 18.6L7.65 15.2C7.11667 14.4889 7.11667 13.5111 7.65 12.8L10.2 9.39997C10.5314 8.95815 11.1582 8.8686 11.6 9.19998ZM20.4 9.19998C20.8418 8.8686 21.4686 8.95815 21.8 9.39997L24.35 12.8C24.8833 13.5111 24.8833 14.4889 24.35 15.2L21.8 18.6C21.4686 19.0418 20.8418 19.1313 20.4 18.8C19.9582 18.4686 19.8686 17.8418 20.2 17.4L22.3 14.6C22.5667 14.2444 22.5667 13.7555 22.3 13.4L20.2 10.6C19.8686 10.1581 19.9582 9.53135 20.4 9.19998Z" fill="#120024"/>
</svg>
